%FSLAX45Y45*%
G04 Gerber Fmt 4.5, Leading zero omitted, Abs format (unit mm)*
G04 Created by KiCad (PCBNEW (6.0.0)) date 2022-08-18 21:55:56*
%MOMM*%
%LPD*%
G01*
G04 APERTURE LIST*
%TA.AperFunction,Profile*%
%ADD10C,0.100000*%
%TD*%
%ADD11C,0.200000*%
%ADD12C,0.040000*%
%ADD13C,0.080000*%
%ADD14C,0.100000*%
G04 APERTURE END LIST*
D10*
X14100000Y-11500000D02*
X14100000Y-16000000D01*
X13800000Y-16700000D02*
G75*
G03*
X14100000Y-16400000I0J300000D01*
G01*
X7700000Y-16400000D02*
G75*
G03*
X8000000Y-16700000I300000J0D01*
G01*
X7700000Y-11500000D02*
X7700000Y-16100000D01*
X8000000Y-11200000D02*
X13800000Y-11200000D01*
X13800000Y-16700000D02*
X8000000Y-16700000D01*
X14100000Y-16400000D02*
X14100000Y-16000000D01*
X8000000Y-11200000D02*
G75*
G03*
X7700000Y-11500000I0J-300000D01*
G01*
X14100000Y-11500000D02*
G75*
G03*
X13800000Y-11200000I-300000J0D01*
G01*
X7700000Y-16400000D02*
X7700000Y-16100000D01*
D11*
D12*
X8467000Y-11990800D02*
X8507000Y-12030800D01*
X8507000Y-11990800D02*
X8467000Y-12030800D01*
X8641400Y-12984800D02*
X8681400Y-13024800D01*
X8681400Y-12984800D02*
X8641400Y-13024800D01*
X9251000Y-12045000D02*
X9291000Y-12085000D01*
X9291000Y-12045000D02*
X9251000Y-12085000D01*
X9365300Y-15181900D02*
X9405300Y-15221900D01*
X9405300Y-15181900D02*
X9365300Y-15221900D01*
X9759000Y-12121200D02*
X9799000Y-12161200D01*
X9799000Y-12121200D02*
X9759000Y-12161200D01*
X9886000Y-14712000D02*
X9926000Y-14752000D01*
X9926000Y-14712000D02*
X9886000Y-14752000D01*
X9911400Y-12121200D02*
X9951400Y-12161200D01*
X9951400Y-12121200D02*
X9911400Y-12161200D01*
X10114600Y-12031068D02*
X10154600Y-12071068D01*
X10154600Y-12031068D02*
X10114600Y-12071068D01*
X10140000Y-14762800D02*
X10180000Y-14802800D01*
X10180000Y-14762800D02*
X10140000Y-14802800D01*
X10317800Y-12121200D02*
X10357800Y-12161200D01*
X10357800Y-12121200D02*
X10317800Y-12161200D01*
X10343200Y-14966000D02*
X10383200Y-15006000D01*
X10383200Y-14966000D02*
X10343200Y-15006000D01*
X10394000Y-13569000D02*
X10434000Y-13609000D01*
X10434000Y-13569000D02*
X10394000Y-13609000D01*
X10394000Y-14077000D02*
X10434000Y-14117000D01*
X10434000Y-14077000D02*
X10394000Y-14117000D01*
X10457500Y-12819700D02*
X10497500Y-12859700D01*
X10497500Y-12819700D02*
X10457500Y-12859700D01*
X10470200Y-12121200D02*
X10510200Y-12161200D01*
X10510200Y-12121200D02*
X10470200Y-12161200D01*
X10495600Y-14991400D02*
X10535600Y-15031400D01*
X10535600Y-14991400D02*
X10495600Y-15031400D01*
X10571800Y-13569000D02*
X10611800Y-13609000D01*
X10611800Y-13569000D02*
X10571800Y-13609000D01*
X10571800Y-15931200D02*
X10611800Y-15971200D01*
X10611800Y-15931200D02*
X10571800Y-15971200D01*
X10584500Y-12692700D02*
X10624500Y-12732700D01*
X10624500Y-12692700D02*
X10584500Y-12732700D01*
X10622600Y-12502200D02*
X10662600Y-12542200D01*
X10662600Y-12502200D02*
X10622600Y-12542200D01*
X10622600Y-14991400D02*
X10662600Y-15031400D01*
X10662600Y-14991400D02*
X10622600Y-15031400D01*
X10698800Y-13569000D02*
X10738800Y-13609000D01*
X10738800Y-13569000D02*
X10698800Y-13609000D01*
X10724200Y-15220000D02*
X10764200Y-15260000D01*
X10764200Y-15220000D02*
X10724200Y-15260000D01*
X10749600Y-14966000D02*
X10789600Y-15006000D01*
X10789600Y-14966000D02*
X10749600Y-15006000D01*
X10876600Y-12172000D02*
X10916600Y-12212000D01*
X10916600Y-12172000D02*
X10876600Y-12212000D01*
X10876600Y-12578400D02*
X10916600Y-12618400D01*
X10916600Y-12578400D02*
X10876600Y-12618400D01*
X10877951Y-11738849D02*
X10917951Y-11778849D01*
X10917951Y-11738849D02*
X10877951Y-11778849D01*
X10978200Y-15220000D02*
X11018200Y-15260000D01*
X11018200Y-15220000D02*
X10978200Y-15260000D01*
X11029000Y-14534200D02*
X11069000Y-14574200D01*
X11069000Y-14534200D02*
X11029000Y-14574200D01*
X11085404Y-12203004D02*
X11125404Y-12243004D01*
X11125404Y-12203004D02*
X11085404Y-12243004D01*
X11105200Y-15194600D02*
X11145200Y-15234600D01*
X11145200Y-15194600D02*
X11105200Y-15234600D01*
X11130600Y-15778800D02*
X11170600Y-15818800D01*
X11170600Y-15778800D02*
X11130600Y-15818800D01*
X11165355Y-12130555D02*
X11205355Y-12170555D01*
X11205355Y-12130555D02*
X11165355Y-12170555D01*
X11257600Y-12349800D02*
X11297600Y-12389800D01*
X11297600Y-12349800D02*
X11257600Y-12389800D01*
X11308400Y-12502200D02*
X11348400Y-12542200D01*
X11348400Y-12502200D02*
X11308400Y-12542200D01*
X11435400Y-12451400D02*
X11475400Y-12491400D01*
X11475400Y-12451400D02*
X11435400Y-12491400D01*
X11460800Y-14966000D02*
X11500800Y-15006000D01*
X11500800Y-14966000D02*
X11460800Y-15006000D01*
X11537000Y-12502200D02*
X11577000Y-12542200D01*
X11577000Y-12502200D02*
X11537000Y-12542200D01*
X11537000Y-13924600D02*
X11577000Y-13964600D01*
X11577000Y-13924600D02*
X11537000Y-13964600D01*
X11562400Y-12629200D02*
X11602400Y-12669200D01*
X11602400Y-12629200D02*
X11562400Y-12669200D01*
X11562400Y-15016800D02*
X11602400Y-15056800D01*
X11602400Y-15016800D02*
X11562400Y-15056800D01*
X11816400Y-12222800D02*
X11856400Y-12262800D01*
X11856400Y-12222800D02*
X11816400Y-12262800D01*
X11867200Y-12959400D02*
X11907200Y-12999400D01*
X11907200Y-12959400D02*
X11867200Y-12999400D01*
X11943400Y-13315000D02*
X11983400Y-13355000D01*
X11983400Y-13315000D02*
X11943400Y-13355000D01*
X11943400Y-13442000D02*
X11983400Y-13482000D01*
X11983400Y-13442000D02*
X11943400Y-13482000D01*
X11943400Y-13569000D02*
X11983400Y-13609000D01*
X11983400Y-13569000D02*
X11943400Y-13609000D01*
X11943400Y-13696000D02*
X11983400Y-13736000D01*
X11983400Y-13696000D02*
X11943400Y-13736000D01*
X11943400Y-13823000D02*
X11983400Y-13863000D01*
X11983400Y-13823000D02*
X11943400Y-13863000D01*
X12045000Y-14737400D02*
X12085000Y-14777400D01*
X12085000Y-14737400D02*
X12045000Y-14777400D01*
X12152049Y-12115751D02*
X12192049Y-12155751D01*
X12192049Y-12115751D02*
X12152049Y-12155751D01*
X12172000Y-13569000D02*
X12212000Y-13609000D01*
X12212000Y-13569000D02*
X12172000Y-13609000D01*
X12273600Y-13823000D02*
X12313600Y-13863000D01*
X12313600Y-13823000D02*
X12273600Y-13863000D01*
X12502200Y-14077000D02*
X12542200Y-14117000D01*
X12542200Y-14077000D02*
X12502200Y-14117000D01*
X12527600Y-13696000D02*
X12567600Y-13736000D01*
X12567600Y-13696000D02*
X12527600Y-13736000D01*
X12603800Y-14991400D02*
X12643800Y-15031400D01*
X12643800Y-14991400D02*
X12603800Y-15031400D01*
X12660049Y-11861751D02*
X12700049Y-11901751D01*
X12700049Y-11861751D02*
X12660049Y-11901751D01*
X12680000Y-14102400D02*
X12720000Y-14142400D01*
X12720000Y-14102400D02*
X12680000Y-14142400D01*
X12680000Y-15093000D02*
X12720000Y-15133000D01*
X12720000Y-15093000D02*
X12680000Y-15133000D01*
X12705400Y-13086400D02*
X12745400Y-13126400D01*
X12745400Y-13086400D02*
X12705400Y-13126400D01*
X12730800Y-13924600D02*
X12770800Y-13964600D01*
X12770800Y-13924600D02*
X12730800Y-13964600D01*
X12730800Y-14229400D02*
X12770800Y-14269400D01*
X12770800Y-14229400D02*
X12730800Y-14269400D01*
X12730800Y-14381800D02*
X12770800Y-14421800D01*
X12770800Y-14381800D02*
X12730800Y-14421800D01*
X12730800Y-14534200D02*
X12770800Y-14574200D01*
X12770800Y-14534200D02*
X12730800Y-14574200D01*
X12883200Y-13111800D02*
X12923200Y-13151800D01*
X12923200Y-13111800D02*
X12883200Y-13151800D01*
X12934000Y-13315000D02*
X12974000Y-13355000D01*
X12974000Y-13315000D02*
X12934000Y-13355000D01*
X12984800Y-14788200D02*
X13024800Y-14828200D01*
X13024800Y-14788200D02*
X12984800Y-14828200D01*
X13035600Y-13442000D02*
X13075600Y-13482000D01*
X13075600Y-13442000D02*
X13035600Y-13482000D01*
X13111800Y-14458000D02*
X13151800Y-14498000D01*
X13151800Y-14458000D02*
X13111800Y-14498000D01*
X13135502Y-12195702D02*
X13175502Y-12235702D01*
X13175502Y-12195702D02*
X13135502Y-12235702D01*
X13238800Y-13238800D02*
X13278800Y-13278800D01*
X13278800Y-13238800D02*
X13238800Y-13278800D01*
X13340400Y-14991400D02*
X13380400Y-15031400D01*
X13380400Y-14991400D02*
X13340400Y-15031400D01*
D13*
X9692000Y-14033500D02*
G75*
G03*
X9692000Y-14033500I-40000J0D01*
G01*
X9692000Y-14521500D02*
G75*
G03*
X9692000Y-14521500I-40000J0D01*
G01*
D14*
X7874000Y-11951000D02*
X7874000Y-12051000D01*
X7824000Y-12001000D02*
X7924000Y-12001000D01*
X7874000Y-12205000D02*
X7874000Y-12305000D01*
X7824000Y-12255000D02*
X7924000Y-12255000D01*
X7874000Y-12459000D02*
X7874000Y-12559000D01*
X7824000Y-12509000D02*
X7924000Y-12509000D01*
X7874000Y-12713000D02*
X7874000Y-12813000D01*
X7824000Y-12763000D02*
X7924000Y-12763000D01*
X7874000Y-12967000D02*
X7874000Y-13067000D01*
X7824000Y-13017000D02*
X7924000Y-13017000D01*
X8128000Y-13633750D02*
X8128000Y-13733750D01*
X8078000Y-13683750D02*
X8178000Y-13683750D01*
D11*
X8088000Y-13583750D02*
X8088000Y-13783750D01*
X8168000Y-13583750D02*
X8168000Y-13783750D01*
X8088000Y-13783750D02*
G75*
G03*
X8168000Y-13783750I40000J0D01*
G01*
X8168000Y-13583750D02*
G75*
G03*
X8088000Y-13583750I-40000J0D01*
G01*
D14*
X8428000Y-14103750D02*
X8428000Y-14203750D01*
X8378000Y-14153750D02*
X8478000Y-14153750D01*
D11*
X8328000Y-14193750D02*
X8528000Y-14193750D01*
X8328000Y-14113750D02*
X8528000Y-14113750D01*
X8528000Y-14193750D02*
G75*
G03*
X8528000Y-14113750I0J40000D01*
G01*
X8328000Y-14113750D02*
G75*
G03*
X8328000Y-14193750I0J-40000D01*
G01*
D14*
X8463900Y-14491500D02*
X8463900Y-14591500D01*
X8413900Y-14541500D02*
X8513900Y-14541500D01*
X8463900Y-14745500D02*
X8463900Y-14845500D01*
X8413900Y-14795500D02*
X8513900Y-14795500D01*
X8463900Y-14999500D02*
X8463900Y-15099500D01*
X8413900Y-15049500D02*
X8513900Y-15049500D01*
X8463900Y-15253500D02*
X8463900Y-15353500D01*
X8413900Y-15303500D02*
X8513900Y-15303500D01*
X8463900Y-15507500D02*
X8463900Y-15607500D01*
X8413900Y-15557500D02*
X8513900Y-15557500D01*
X8463900Y-15761500D02*
X8463900Y-15861500D01*
X8413900Y-15811500D02*
X8513900Y-15811500D01*
X8487000Y-11323500D02*
X8487000Y-11423500D01*
X8437000Y-11373500D02*
X8537000Y-11373500D01*
X8487000Y-11577500D02*
X8487000Y-11677500D01*
X8437000Y-11627500D02*
X8537000Y-11627500D01*
X8728000Y-13633750D02*
X8728000Y-13733750D01*
X8678000Y-13683750D02*
X8778000Y-13683750D01*
D11*
X8688000Y-13583750D02*
X8688000Y-13783750D01*
X8768000Y-13583750D02*
X8768000Y-13783750D01*
X8688000Y-13783750D02*
G75*
G03*
X8768000Y-13783750I40000J0D01*
G01*
X8768000Y-13583750D02*
G75*
G03*
X8688000Y-13583750I-40000J0D01*
G01*
D14*
X8741000Y-11323500D02*
X8741000Y-11423500D01*
X8691000Y-11373500D02*
X8791000Y-11373500D01*
X8741000Y-11577500D02*
X8741000Y-11677500D01*
X8691000Y-11627500D02*
X8791000Y-11627500D01*
X8762500Y-14999500D02*
X8762500Y-15099500D01*
X8712500Y-15049500D02*
X8812500Y-15049500D01*
X8763000Y-14745500D02*
X8763000Y-14845500D01*
X8713000Y-14795500D02*
X8813000Y-14795500D01*
X8763000Y-15761500D02*
X8763000Y-15861500D01*
X8713000Y-15811500D02*
X8813000Y-15811500D01*
X8763000Y-16142500D02*
X8763000Y-16242500D01*
X8713000Y-16192500D02*
X8813000Y-16192500D01*
X8763000Y-16396500D02*
X8763000Y-16496500D01*
X8713000Y-16446500D02*
X8813000Y-16446500D01*
X8995000Y-11323500D02*
X8995000Y-11423500D01*
X8945000Y-11373500D02*
X9045000Y-11373500D01*
X8995000Y-11577500D02*
X8995000Y-11677500D01*
X8945000Y-11627500D02*
X9045000Y-11627500D01*
X9016500Y-14999500D02*
X9016500Y-15099500D01*
X8966500Y-15049500D02*
X9066500Y-15049500D01*
X9017000Y-16142500D02*
X9017000Y-16242500D01*
X8967000Y-16192500D02*
X9067000Y-16192500D01*
X9017000Y-16396500D02*
X9017000Y-16496500D01*
X8967000Y-16446500D02*
X9067000Y-16446500D01*
X9249000Y-11323500D02*
X9249000Y-11423500D01*
X9199000Y-11373500D02*
X9299000Y-11373500D01*
X9249000Y-11577500D02*
X9249000Y-11677500D01*
X9199000Y-11627500D02*
X9299000Y-11627500D01*
X9271000Y-15520700D02*
X9271000Y-15620700D01*
X9221000Y-15570700D02*
X9321000Y-15570700D01*
X9271000Y-15774700D02*
X9271000Y-15874700D01*
X9221000Y-15824700D02*
X9321000Y-15824700D01*
X9271000Y-16142500D02*
X9271000Y-16242500D01*
X9221000Y-16192500D02*
X9321000Y-16192500D01*
X9271000Y-16396500D02*
X9271000Y-16496500D01*
X9221000Y-16446500D02*
X9321000Y-16446500D01*
X9503000Y-11323500D02*
X9503000Y-11423500D01*
X9453000Y-11373500D02*
X9553000Y-11373500D01*
X9503000Y-11577500D02*
X9503000Y-11677500D01*
X9453000Y-11627500D02*
X9553000Y-11627500D01*
X9525000Y-16142500D02*
X9525000Y-16242500D01*
X9475000Y-16192500D02*
X9575000Y-16192500D01*
X9525000Y-16396500D02*
X9525000Y-16496500D01*
X9475000Y-16446500D02*
X9575000Y-16446500D01*
X9550400Y-12600700D02*
X9550400Y-12700700D01*
X9500400Y-12650700D02*
X9600400Y-12650700D01*
X9550400Y-12854700D02*
X9550400Y-12954700D01*
X9500400Y-12904700D02*
X9600400Y-12904700D01*
X9550400Y-13108700D02*
X9550400Y-13208700D01*
X9500400Y-13158700D02*
X9600400Y-13158700D01*
X9757000Y-11323500D02*
X9757000Y-11423500D01*
X9707000Y-11373500D02*
X9807000Y-11373500D01*
X9757000Y-11577500D02*
X9757000Y-11677500D01*
X9707000Y-11627500D02*
X9807000Y-11627500D01*
X9779000Y-16142500D02*
X9779000Y-16242500D01*
X9729000Y-16192500D02*
X9829000Y-16192500D01*
X9779000Y-16396500D02*
X9779000Y-16496500D01*
X9729000Y-16446500D02*
X9829000Y-16446500D01*
X10011000Y-11323500D02*
X10011000Y-11423500D01*
X9961000Y-11373500D02*
X10061000Y-11373500D01*
X10011000Y-11577500D02*
X10011000Y-11677500D01*
X9961000Y-11627500D02*
X10061000Y-11627500D01*
X10033000Y-16142500D02*
X10033000Y-16242500D01*
X9983000Y-16192500D02*
X10083000Y-16192500D01*
X10033000Y-16396500D02*
X10033000Y-16496500D01*
X9983000Y-16446500D02*
X10083000Y-16446500D01*
X10265000Y-11323500D02*
X10265000Y-11423500D01*
X10215000Y-11373500D02*
X10315000Y-11373500D01*
X10265000Y-11577500D02*
X10265000Y-11677500D01*
X10215000Y-11627500D02*
X10315000Y-11627500D01*
X10287000Y-16142500D02*
X10287000Y-16242500D01*
X10237000Y-16192500D02*
X10337000Y-16192500D01*
X10287000Y-16396500D02*
X10287000Y-16496500D01*
X10237000Y-16446500D02*
X10337000Y-16446500D01*
X10519000Y-11323500D02*
X10519000Y-11423500D01*
X10469000Y-11373500D02*
X10569000Y-11373500D01*
X10519000Y-11577500D02*
X10519000Y-11677500D01*
X10469000Y-11627500D02*
X10569000Y-11627500D01*
X10541000Y-16142500D02*
X10541000Y-16242500D01*
X10491000Y-16192500D02*
X10591000Y-16192500D01*
X10541000Y-16396500D02*
X10541000Y-16496500D01*
X10491000Y-16446500D02*
X10591000Y-16446500D01*
X10769600Y-11888000D02*
X10769600Y-11988000D01*
X10719600Y-11938000D02*
X10819600Y-11938000D01*
X10773000Y-11323500D02*
X10773000Y-11423500D01*
X10723000Y-11373500D02*
X10823000Y-11373500D01*
X10773000Y-11577500D02*
X10773000Y-11677500D01*
X10723000Y-11627500D02*
X10823000Y-11627500D01*
X10795000Y-16142500D02*
X10795000Y-16242500D01*
X10745000Y-16192500D02*
X10845000Y-16192500D01*
X10795000Y-16396500D02*
X10795000Y-16496500D01*
X10745000Y-16446500D02*
X10845000Y-16446500D01*
X11023600Y-11888000D02*
X11023600Y-11988000D01*
X10973600Y-11938000D02*
X11073600Y-11938000D01*
X11027000Y-11323500D02*
X11027000Y-11423500D01*
X10977000Y-11373500D02*
X11077000Y-11373500D01*
X11027000Y-11577500D02*
X11027000Y-11677500D01*
X10977000Y-11627500D02*
X11077000Y-11627500D01*
X11049000Y-16142500D02*
X11049000Y-16242500D01*
X10999000Y-16192500D02*
X11099000Y-16192500D01*
X11049000Y-16396500D02*
X11049000Y-16496500D01*
X10999000Y-16446500D02*
X11099000Y-16446500D01*
X11281000Y-11323500D02*
X11281000Y-11423500D01*
X11231000Y-11373500D02*
X11331000Y-11373500D01*
X11281000Y-11577500D02*
X11281000Y-11677500D01*
X11231000Y-11627500D02*
X11331000Y-11627500D01*
X11303000Y-16142500D02*
X11303000Y-16242500D01*
X11253000Y-16192500D02*
X11353000Y-16192500D01*
X11303000Y-16396500D02*
X11303000Y-16496500D01*
X11253000Y-16446500D02*
X11353000Y-16446500D01*
X11535000Y-11323500D02*
X11535000Y-11423500D01*
X11485000Y-11373500D02*
X11585000Y-11373500D01*
X11535000Y-11577500D02*
X11535000Y-11677500D01*
X11485000Y-11627500D02*
X11585000Y-11627500D01*
X11557000Y-16142500D02*
X11557000Y-16242500D01*
X11507000Y-16192500D02*
X11607000Y-16192500D01*
X11557000Y-16396500D02*
X11557000Y-16496500D01*
X11507000Y-16446500D02*
X11607000Y-16446500D01*
X11789000Y-11323500D02*
X11789000Y-11423500D01*
X11739000Y-11373500D02*
X11839000Y-11373500D01*
X11789000Y-11577500D02*
X11789000Y-11677500D01*
X11739000Y-11627500D02*
X11839000Y-11627500D01*
X11811000Y-16142500D02*
X11811000Y-16242500D01*
X11761000Y-16192500D02*
X11861000Y-16192500D01*
X11811000Y-16396500D02*
X11811000Y-16496500D01*
X11761000Y-16446500D02*
X11861000Y-16446500D01*
X12043000Y-11323500D02*
X12043000Y-11423500D01*
X11993000Y-11373500D02*
X12093000Y-11373500D01*
X12043000Y-11577500D02*
X12043000Y-11677500D01*
X11993000Y-11627500D02*
X12093000Y-11627500D01*
X12065000Y-16142500D02*
X12065000Y-16242500D01*
X12015000Y-16192500D02*
X12115000Y-16192500D01*
X12065000Y-16396500D02*
X12065000Y-16496500D01*
X12015000Y-16446500D02*
X12115000Y-16446500D01*
X12297000Y-11323500D02*
X12297000Y-11423500D01*
X12247000Y-11373500D02*
X12347000Y-11373500D01*
X12297000Y-11577500D02*
X12297000Y-11677500D01*
X12247000Y-11627500D02*
X12347000Y-11627500D01*
X12319000Y-16142500D02*
X12319000Y-16242500D01*
X12269000Y-16192500D02*
X12369000Y-16192500D01*
X12319000Y-16396500D02*
X12319000Y-16496500D01*
X12269000Y-16446500D02*
X12369000Y-16446500D01*
X12551000Y-11323500D02*
X12551000Y-11423500D01*
X12501000Y-11373500D02*
X12601000Y-11373500D01*
X12551000Y-11577500D02*
X12551000Y-11677500D01*
X12501000Y-11627500D02*
X12601000Y-11627500D01*
X12573000Y-16142500D02*
X12573000Y-16242500D01*
X12523000Y-16192500D02*
X12623000Y-16192500D01*
X12573000Y-16396500D02*
X12573000Y-16496500D01*
X12523000Y-16446500D02*
X12623000Y-16446500D01*
X12805000Y-11323500D02*
X12805000Y-11423500D01*
X12755000Y-11373500D02*
X12855000Y-11373500D01*
X12805000Y-11577500D02*
X12805000Y-11677500D01*
X12755000Y-11627500D02*
X12855000Y-11627500D01*
X12827000Y-16142500D02*
X12827000Y-16242500D01*
X12777000Y-16192500D02*
X12877000Y-16192500D01*
X12827000Y-16396500D02*
X12827000Y-16496500D01*
X12777000Y-16446500D02*
X12877000Y-16446500D01*
X12928600Y-15444500D02*
X12928600Y-15544500D01*
X12878600Y-15494500D02*
X12978600Y-15494500D01*
X12928600Y-15698500D02*
X12928600Y-15798500D01*
X12878600Y-15748500D02*
X12978600Y-15748500D01*
X13059000Y-11323500D02*
X13059000Y-11423500D01*
X13009000Y-11373500D02*
X13109000Y-11373500D01*
X13059000Y-11577500D02*
X13059000Y-11677500D01*
X13009000Y-11627500D02*
X13109000Y-11627500D01*
X13313000Y-11323500D02*
X13313000Y-11423500D01*
X13263000Y-11373500D02*
X13363000Y-11373500D01*
X13313000Y-11577500D02*
X13313000Y-11677500D01*
X13263000Y-11627500D02*
X13363000Y-11627500D01*
D11*
X7952619Y-17015476D02*
X7952619Y-16815476D01*
X8000238Y-16815476D01*
X8028809Y-16825000D01*
X8047857Y-16844048D01*
X8057381Y-16863095D01*
X8066905Y-16901190D01*
X8066905Y-16929762D01*
X8057381Y-16967857D01*
X8047857Y-16986905D01*
X8028809Y-17005952D01*
X8000238Y-17015476D01*
X7952619Y-17015476D01*
X8152619Y-17015476D02*
X8152619Y-16882143D01*
X8152619Y-16920238D02*
X8162143Y-16901190D01*
X8171667Y-16891667D01*
X8190714Y-16882143D01*
X8209762Y-16882143D01*
X8276428Y-17015476D02*
X8276428Y-16882143D01*
X8276428Y-16815476D02*
X8266905Y-16825000D01*
X8276428Y-16834524D01*
X8285952Y-16825000D01*
X8276428Y-16815476D01*
X8276428Y-16834524D01*
X8400238Y-17015476D02*
X8381190Y-17005952D01*
X8371667Y-16986905D01*
X8371667Y-16815476D01*
X8505000Y-17015476D02*
X8485952Y-17005952D01*
X8476429Y-16986905D01*
X8476429Y-16815476D01*
X8733571Y-17015476D02*
X8733571Y-16815476D01*
X8800238Y-16958333D01*
X8866905Y-16815476D01*
X8866905Y-17015476D01*
X9047857Y-17015476D02*
X9047857Y-16910714D01*
X9038333Y-16891667D01*
X9019286Y-16882143D01*
X8981190Y-16882143D01*
X8962143Y-16891667D01*
X9047857Y-17005952D02*
X9028810Y-17015476D01*
X8981190Y-17015476D01*
X8962143Y-17005952D01*
X8952619Y-16986905D01*
X8952619Y-16967857D01*
X8962143Y-16948810D01*
X8981190Y-16939286D01*
X9028810Y-16939286D01*
X9047857Y-16929762D01*
X9143095Y-16882143D02*
X9143095Y-17082143D01*
X9143095Y-16891667D02*
X9162143Y-16882143D01*
X9200238Y-16882143D01*
X9219286Y-16891667D01*
X9228810Y-16901190D01*
X9238333Y-16920238D01*
X9238333Y-16977381D01*
X9228810Y-16996429D01*
X9219286Y-17005952D01*
X9200238Y-17015476D01*
X9162143Y-17015476D01*
X9143095Y-17005952D01*
X9324048Y-16996429D02*
X9333571Y-17005952D01*
X9324048Y-17015476D01*
X9314524Y-17005952D01*
X9324048Y-16996429D01*
X9324048Y-17015476D01*
X9324048Y-16891667D02*
X9333571Y-16901190D01*
X9324048Y-16910714D01*
X9314524Y-16901190D01*
X9324048Y-16891667D01*
X9324048Y-16910714D01*
D12*
X7655000Y-17325000D02*
X7695000Y-17365000D01*
X7695000Y-17325000D02*
X7655000Y-17365000D01*
D11*
X7990714Y-17235476D02*
X8009762Y-17235476D01*
X8028809Y-17245000D01*
X8038333Y-17254524D01*
X8047857Y-17273571D01*
X8057381Y-17311667D01*
X8057381Y-17359286D01*
X8047857Y-17397381D01*
X8038333Y-17416429D01*
X8028809Y-17425952D01*
X8009762Y-17435476D01*
X7990714Y-17435476D01*
X7971667Y-17425952D01*
X7962143Y-17416429D01*
X7952619Y-17397381D01*
X7943095Y-17359286D01*
X7943095Y-17311667D01*
X7952619Y-17273571D01*
X7962143Y-17254524D01*
X7971667Y-17245000D01*
X7990714Y-17235476D01*
X8143095Y-17416429D02*
X8152619Y-17425952D01*
X8143095Y-17435476D01*
X8133571Y-17425952D01*
X8143095Y-17416429D01*
X8143095Y-17435476D01*
X8324048Y-17302143D02*
X8324048Y-17435476D01*
X8276428Y-17225952D02*
X8228809Y-17368810D01*
X8352619Y-17368810D01*
X8466905Y-17235476D02*
X8485952Y-17235476D01*
X8505000Y-17245000D01*
X8514524Y-17254524D01*
X8524048Y-17273571D01*
X8533571Y-17311667D01*
X8533571Y-17359286D01*
X8524048Y-17397381D01*
X8514524Y-17416429D01*
X8505000Y-17425952D01*
X8485952Y-17435476D01*
X8466905Y-17435476D01*
X8447857Y-17425952D01*
X8438333Y-17416429D01*
X8428810Y-17397381D01*
X8419286Y-17359286D01*
X8419286Y-17311667D01*
X8428810Y-17273571D01*
X8438333Y-17254524D01*
X8447857Y-17245000D01*
X8466905Y-17235476D01*
X8657381Y-17235476D02*
X8676429Y-17235476D01*
X8695476Y-17245000D01*
X8705000Y-17254524D01*
X8714524Y-17273571D01*
X8724048Y-17311667D01*
X8724048Y-17359286D01*
X8714524Y-17397381D01*
X8705000Y-17416429D01*
X8695476Y-17425952D01*
X8676429Y-17435476D01*
X8657381Y-17435476D01*
X8638333Y-17425952D01*
X8628810Y-17416429D01*
X8619286Y-17397381D01*
X8609762Y-17359286D01*
X8609762Y-17311667D01*
X8619286Y-17273571D01*
X8628810Y-17254524D01*
X8638333Y-17245000D01*
X8657381Y-17235476D01*
X8809762Y-17435476D02*
X8809762Y-17302143D01*
X8809762Y-17321190D02*
X8819286Y-17311667D01*
X8838333Y-17302143D01*
X8866905Y-17302143D01*
X8885952Y-17311667D01*
X8895476Y-17330714D01*
X8895476Y-17435476D01*
X8895476Y-17330714D02*
X8905000Y-17311667D01*
X8924048Y-17302143D01*
X8952619Y-17302143D01*
X8971667Y-17311667D01*
X8981190Y-17330714D01*
X8981190Y-17435476D01*
X9076429Y-17435476D02*
X9076429Y-17302143D01*
X9076429Y-17321190D02*
X9085952Y-17311667D01*
X9105000Y-17302143D01*
X9133571Y-17302143D01*
X9152619Y-17311667D01*
X9162143Y-17330714D01*
X9162143Y-17435476D01*
X9162143Y-17330714D02*
X9171667Y-17311667D01*
X9190714Y-17302143D01*
X9219286Y-17302143D01*
X9238333Y-17311667D01*
X9247857Y-17330714D01*
X9247857Y-17435476D01*
X9638333Y-17225952D02*
X9466905Y-17483095D01*
X9895476Y-17235476D02*
X9914524Y-17235476D01*
X9933571Y-17245000D01*
X9943095Y-17254524D01*
X9952619Y-17273571D01*
X9962143Y-17311667D01*
X9962143Y-17359286D01*
X9952619Y-17397381D01*
X9943095Y-17416429D01*
X9933571Y-17425952D01*
X9914524Y-17435476D01*
X9895476Y-17435476D01*
X9876429Y-17425952D01*
X9866905Y-17416429D01*
X9857381Y-17397381D01*
X9847857Y-17359286D01*
X9847857Y-17311667D01*
X9857381Y-17273571D01*
X9866905Y-17254524D01*
X9876429Y-17245000D01*
X9895476Y-17235476D01*
X10047857Y-17416429D02*
X10057381Y-17425952D01*
X10047857Y-17435476D01*
X10038333Y-17425952D01*
X10047857Y-17416429D01*
X10047857Y-17435476D01*
X10181190Y-17235476D02*
X10200238Y-17235476D01*
X10219286Y-17245000D01*
X10228810Y-17254524D01*
X10238333Y-17273571D01*
X10247857Y-17311667D01*
X10247857Y-17359286D01*
X10238333Y-17397381D01*
X10228810Y-17416429D01*
X10219286Y-17425952D01*
X10200238Y-17435476D01*
X10181190Y-17435476D01*
X10162143Y-17425952D01*
X10152619Y-17416429D01*
X10143095Y-17397381D01*
X10133571Y-17359286D01*
X10133571Y-17311667D01*
X10143095Y-17273571D01*
X10152619Y-17254524D01*
X10162143Y-17245000D01*
X10181190Y-17235476D01*
X10438333Y-17435476D02*
X10324048Y-17435476D01*
X10381190Y-17435476D02*
X10381190Y-17235476D01*
X10362143Y-17264048D01*
X10343095Y-17283095D01*
X10324048Y-17292619D01*
X10619286Y-17235476D02*
X10524048Y-17235476D01*
X10514524Y-17330714D01*
X10524048Y-17321190D01*
X10543095Y-17311667D01*
X10590714Y-17311667D01*
X10609762Y-17321190D01*
X10619286Y-17330714D01*
X10628810Y-17349762D01*
X10628810Y-17397381D01*
X10619286Y-17416429D01*
X10609762Y-17425952D01*
X10590714Y-17435476D01*
X10543095Y-17435476D01*
X10524048Y-17425952D01*
X10514524Y-17416429D01*
X10695476Y-17235476D02*
X10828810Y-17235476D01*
X10743095Y-17435476D01*
X10895476Y-17235476D02*
X10895476Y-17273571D01*
X10971667Y-17235476D02*
X10971667Y-17273571D01*
X11266905Y-17511667D02*
X11257381Y-17502143D01*
X11238333Y-17473571D01*
X11228809Y-17454524D01*
X11219286Y-17425952D01*
X11209762Y-17378333D01*
X11209762Y-17340238D01*
X11219286Y-17292619D01*
X11228809Y-17264048D01*
X11238333Y-17245000D01*
X11257381Y-17216429D01*
X11266905Y-17206905D01*
X11324048Y-17235476D02*
X11457381Y-17235476D01*
X11371667Y-17435476D01*
X11638333Y-17435476D02*
X11524048Y-17435476D01*
X11581190Y-17435476D02*
X11581190Y-17235476D01*
X11562143Y-17264048D01*
X11543095Y-17283095D01*
X11524048Y-17292619D01*
X11876428Y-17435476D02*
X11876428Y-17235476D01*
X11962143Y-17435476D02*
X11962143Y-17330714D01*
X11952619Y-17311667D01*
X11933571Y-17302143D01*
X11905000Y-17302143D01*
X11885952Y-17311667D01*
X11876428Y-17321190D01*
X12085952Y-17435476D02*
X12066905Y-17425952D01*
X12057381Y-17416429D01*
X12047857Y-17397381D01*
X12047857Y-17340238D01*
X12057381Y-17321190D01*
X12066905Y-17311667D01*
X12085952Y-17302143D01*
X12114524Y-17302143D01*
X12133571Y-17311667D01*
X12143095Y-17321190D01*
X12152619Y-17340238D01*
X12152619Y-17397381D01*
X12143095Y-17416429D01*
X12133571Y-17425952D01*
X12114524Y-17435476D01*
X12085952Y-17435476D01*
X12266905Y-17435476D02*
X12247857Y-17425952D01*
X12238333Y-17406905D01*
X12238333Y-17235476D01*
X12419286Y-17425952D02*
X12400238Y-17435476D01*
X12362143Y-17435476D01*
X12343095Y-17425952D01*
X12333571Y-17406905D01*
X12333571Y-17330714D01*
X12343095Y-17311667D01*
X12362143Y-17302143D01*
X12400238Y-17302143D01*
X12419286Y-17311667D01*
X12428809Y-17330714D01*
X12428809Y-17349762D01*
X12333571Y-17368810D01*
X12505000Y-17425952D02*
X12524048Y-17435476D01*
X12562143Y-17435476D01*
X12581190Y-17425952D01*
X12590714Y-17406905D01*
X12590714Y-17397381D01*
X12581190Y-17378333D01*
X12562143Y-17368810D01*
X12533571Y-17368810D01*
X12514524Y-17359286D01*
X12505000Y-17340238D01*
X12505000Y-17330714D01*
X12514524Y-17311667D01*
X12533571Y-17302143D01*
X12562143Y-17302143D01*
X12581190Y-17311667D01*
X12657381Y-17511667D02*
X12666905Y-17502143D01*
X12685952Y-17473571D01*
X12695476Y-17454524D01*
X12705000Y-17425952D01*
X12714524Y-17378333D01*
X12714524Y-17340238D01*
X12705000Y-17292619D01*
X12695476Y-17264048D01*
X12685952Y-17245000D01*
X12666905Y-17216429D01*
X12657381Y-17206905D01*
D13*
X7695000Y-17609000D02*
G75*
G03*
X7695000Y-17609000I-40000J0D01*
G01*
D11*
X7990714Y-17499476D02*
X8009762Y-17499476D01*
X8028809Y-17509000D01*
X8038333Y-17518524D01*
X8047857Y-17537571D01*
X8057381Y-17575667D01*
X8057381Y-17623286D01*
X8047857Y-17661381D01*
X8038333Y-17680429D01*
X8028809Y-17689952D01*
X8009762Y-17699476D01*
X7990714Y-17699476D01*
X7971667Y-17689952D01*
X7962143Y-17680429D01*
X7952619Y-17661381D01*
X7943095Y-17623286D01*
X7943095Y-17575667D01*
X7952619Y-17537571D01*
X7962143Y-17518524D01*
X7971667Y-17509000D01*
X7990714Y-17499476D01*
X8143095Y-17680429D02*
X8152619Y-17689952D01*
X8143095Y-17699476D01*
X8133571Y-17689952D01*
X8143095Y-17680429D01*
X8143095Y-17699476D01*
X8266905Y-17585190D02*
X8247857Y-17575667D01*
X8238333Y-17566143D01*
X8228809Y-17547095D01*
X8228809Y-17537571D01*
X8238333Y-17518524D01*
X8247857Y-17509000D01*
X8266905Y-17499476D01*
X8305000Y-17499476D01*
X8324048Y-17509000D01*
X8333571Y-17518524D01*
X8343095Y-17537571D01*
X8343095Y-17547095D01*
X8333571Y-17566143D01*
X8324048Y-17575667D01*
X8305000Y-17585190D01*
X8266905Y-17585190D01*
X8247857Y-17594714D01*
X8238333Y-17604238D01*
X8228809Y-17623286D01*
X8228809Y-17661381D01*
X8238333Y-17680429D01*
X8247857Y-17689952D01*
X8266905Y-17699476D01*
X8305000Y-17699476D01*
X8324048Y-17689952D01*
X8333571Y-17680429D01*
X8343095Y-17661381D01*
X8343095Y-17623286D01*
X8333571Y-17604238D01*
X8324048Y-17594714D01*
X8305000Y-17585190D01*
X8466905Y-17499476D02*
X8485952Y-17499476D01*
X8505000Y-17509000D01*
X8514524Y-17518524D01*
X8524048Y-17537571D01*
X8533571Y-17575667D01*
X8533571Y-17623286D01*
X8524048Y-17661381D01*
X8514524Y-17680429D01*
X8505000Y-17689952D01*
X8485952Y-17699476D01*
X8466905Y-17699476D01*
X8447857Y-17689952D01*
X8438333Y-17680429D01*
X8428810Y-17661381D01*
X8419286Y-17623286D01*
X8419286Y-17575667D01*
X8428810Y-17537571D01*
X8438333Y-17518524D01*
X8447857Y-17509000D01*
X8466905Y-17499476D01*
X8657381Y-17499476D02*
X8676429Y-17499476D01*
X8695476Y-17509000D01*
X8705000Y-17518524D01*
X8714524Y-17537571D01*
X8724048Y-17575667D01*
X8724048Y-17623286D01*
X8714524Y-17661381D01*
X8705000Y-17680429D01*
X8695476Y-17689952D01*
X8676429Y-17699476D01*
X8657381Y-17699476D01*
X8638333Y-17689952D01*
X8628810Y-17680429D01*
X8619286Y-17661381D01*
X8609762Y-17623286D01*
X8609762Y-17575667D01*
X8619286Y-17537571D01*
X8628810Y-17518524D01*
X8638333Y-17509000D01*
X8657381Y-17499476D01*
X8809762Y-17699476D02*
X8809762Y-17566143D01*
X8809762Y-17585190D02*
X8819286Y-17575667D01*
X8838333Y-17566143D01*
X8866905Y-17566143D01*
X8885952Y-17575667D01*
X8895476Y-17594714D01*
X8895476Y-17699476D01*
X8895476Y-17594714D02*
X8905000Y-17575667D01*
X8924048Y-17566143D01*
X8952619Y-17566143D01*
X8971667Y-17575667D01*
X8981190Y-17594714D01*
X8981190Y-17699476D01*
X9076429Y-17699476D02*
X9076429Y-17566143D01*
X9076429Y-17585190D02*
X9085952Y-17575667D01*
X9105000Y-17566143D01*
X9133571Y-17566143D01*
X9152619Y-17575667D01*
X9162143Y-17594714D01*
X9162143Y-17699476D01*
X9162143Y-17594714D02*
X9171667Y-17575667D01*
X9190714Y-17566143D01*
X9219286Y-17566143D01*
X9238333Y-17575667D01*
X9247857Y-17594714D01*
X9247857Y-17699476D01*
X9638333Y-17489952D02*
X9466905Y-17747095D01*
X9895476Y-17499476D02*
X9914524Y-17499476D01*
X9933571Y-17509000D01*
X9943095Y-17518524D01*
X9952619Y-17537571D01*
X9962143Y-17575667D01*
X9962143Y-17623286D01*
X9952619Y-17661381D01*
X9943095Y-17680429D01*
X9933571Y-17689952D01*
X9914524Y-17699476D01*
X9895476Y-17699476D01*
X9876429Y-17689952D01*
X9866905Y-17680429D01*
X9857381Y-17661381D01*
X9847857Y-17623286D01*
X9847857Y-17575667D01*
X9857381Y-17537571D01*
X9866905Y-17518524D01*
X9876429Y-17509000D01*
X9895476Y-17499476D01*
X10047857Y-17680429D02*
X10057381Y-17689952D01*
X10047857Y-17699476D01*
X10038333Y-17689952D01*
X10047857Y-17680429D01*
X10047857Y-17699476D01*
X10181190Y-17499476D02*
X10200238Y-17499476D01*
X10219286Y-17509000D01*
X10228810Y-17518524D01*
X10238333Y-17537571D01*
X10247857Y-17575667D01*
X10247857Y-17623286D01*
X10238333Y-17661381D01*
X10228810Y-17680429D01*
X10219286Y-17689952D01*
X10200238Y-17699476D01*
X10181190Y-17699476D01*
X10162143Y-17689952D01*
X10152619Y-17680429D01*
X10143095Y-17661381D01*
X10133571Y-17623286D01*
X10133571Y-17575667D01*
X10143095Y-17537571D01*
X10152619Y-17518524D01*
X10162143Y-17509000D01*
X10181190Y-17499476D01*
X10314524Y-17499476D02*
X10438333Y-17499476D01*
X10371667Y-17575667D01*
X10400238Y-17575667D01*
X10419286Y-17585190D01*
X10428810Y-17594714D01*
X10438333Y-17613762D01*
X10438333Y-17661381D01*
X10428810Y-17680429D01*
X10419286Y-17689952D01*
X10400238Y-17699476D01*
X10343095Y-17699476D01*
X10324048Y-17689952D01*
X10314524Y-17680429D01*
X10628810Y-17699476D02*
X10514524Y-17699476D01*
X10571667Y-17699476D02*
X10571667Y-17499476D01*
X10552619Y-17528048D01*
X10533571Y-17547095D01*
X10514524Y-17556619D01*
X10809762Y-17499476D02*
X10714524Y-17499476D01*
X10705000Y-17594714D01*
X10714524Y-17585190D01*
X10733571Y-17575667D01*
X10781190Y-17575667D01*
X10800238Y-17585190D01*
X10809762Y-17594714D01*
X10819286Y-17613762D01*
X10819286Y-17661381D01*
X10809762Y-17680429D01*
X10800238Y-17689952D01*
X10781190Y-17699476D01*
X10733571Y-17699476D01*
X10714524Y-17689952D01*
X10705000Y-17680429D01*
X10895476Y-17499476D02*
X10895476Y-17537571D01*
X10971667Y-17499476D02*
X10971667Y-17537571D01*
X11266905Y-17775667D02*
X11257381Y-17766143D01*
X11238333Y-17737571D01*
X11228809Y-17718524D01*
X11219286Y-17689952D01*
X11209762Y-17642333D01*
X11209762Y-17604238D01*
X11219286Y-17556619D01*
X11228809Y-17528048D01*
X11238333Y-17509000D01*
X11257381Y-17480429D01*
X11266905Y-17470905D01*
X11333571Y-17518524D02*
X11343095Y-17509000D01*
X11362143Y-17499476D01*
X11409762Y-17499476D01*
X11428809Y-17509000D01*
X11438333Y-17518524D01*
X11447857Y-17537571D01*
X11447857Y-17556619D01*
X11438333Y-17585190D01*
X11324048Y-17699476D01*
X11447857Y-17699476D01*
X11685952Y-17699476D02*
X11685952Y-17499476D01*
X11771667Y-17699476D02*
X11771667Y-17594714D01*
X11762143Y-17575667D01*
X11743095Y-17566143D01*
X11714524Y-17566143D01*
X11695476Y-17575667D01*
X11685952Y-17585190D01*
X11895476Y-17699476D02*
X11876428Y-17689952D01*
X11866905Y-17680429D01*
X11857381Y-17661381D01*
X11857381Y-17604238D01*
X11866905Y-17585190D01*
X11876428Y-17575667D01*
X11895476Y-17566143D01*
X11924048Y-17566143D01*
X11943095Y-17575667D01*
X11952619Y-17585190D01*
X11962143Y-17604238D01*
X11962143Y-17661381D01*
X11952619Y-17680429D01*
X11943095Y-17689952D01*
X11924048Y-17699476D01*
X11895476Y-17699476D01*
X12076428Y-17699476D02*
X12057381Y-17689952D01*
X12047857Y-17670905D01*
X12047857Y-17499476D01*
X12228809Y-17689952D02*
X12209762Y-17699476D01*
X12171667Y-17699476D01*
X12152619Y-17689952D01*
X12143095Y-17670905D01*
X12143095Y-17594714D01*
X12152619Y-17575667D01*
X12171667Y-17566143D01*
X12209762Y-17566143D01*
X12228809Y-17575667D01*
X12238333Y-17594714D01*
X12238333Y-17613762D01*
X12143095Y-17632810D01*
X12314524Y-17689952D02*
X12333571Y-17699476D01*
X12371667Y-17699476D01*
X12390714Y-17689952D01*
X12400238Y-17670905D01*
X12400238Y-17661381D01*
X12390714Y-17642333D01*
X12371667Y-17632810D01*
X12343095Y-17632810D01*
X12324048Y-17623286D01*
X12314524Y-17604238D01*
X12314524Y-17594714D01*
X12324048Y-17575667D01*
X12343095Y-17566143D01*
X12371667Y-17566143D01*
X12390714Y-17575667D01*
X12466905Y-17775667D02*
X12476428Y-17766143D01*
X12495476Y-17737571D01*
X12505000Y-17718524D01*
X12514524Y-17689952D01*
X12524048Y-17642333D01*
X12524048Y-17604238D01*
X12514524Y-17556619D01*
X12505000Y-17528048D01*
X12495476Y-17509000D01*
X12476428Y-17480429D01*
X12466905Y-17470905D01*
D14*
X7645000Y-17823000D02*
X7645000Y-17923000D01*
X7595000Y-17873000D02*
X7695000Y-17873000D01*
D11*
X8057381Y-17963476D02*
X7943095Y-17963476D01*
X8000238Y-17963476D02*
X8000238Y-17763476D01*
X7981190Y-17792048D01*
X7962143Y-17811095D01*
X7943095Y-17820619D01*
X8143095Y-17944429D02*
X8152619Y-17953952D01*
X8143095Y-17963476D01*
X8133571Y-17953952D01*
X8143095Y-17944429D01*
X8143095Y-17963476D01*
X8276428Y-17763476D02*
X8295476Y-17763476D01*
X8314524Y-17773000D01*
X8324048Y-17782524D01*
X8333571Y-17801571D01*
X8343095Y-17839667D01*
X8343095Y-17887286D01*
X8333571Y-17925381D01*
X8324048Y-17944429D01*
X8314524Y-17953952D01*
X8295476Y-17963476D01*
X8276428Y-17963476D01*
X8257381Y-17953952D01*
X8247857Y-17944429D01*
X8238333Y-17925381D01*
X8228809Y-17887286D01*
X8228809Y-17839667D01*
X8238333Y-17801571D01*
X8247857Y-17782524D01*
X8257381Y-17773000D01*
X8276428Y-17763476D01*
X8466905Y-17763476D02*
X8485952Y-17763476D01*
X8505000Y-17773000D01*
X8514524Y-17782524D01*
X8524048Y-17801571D01*
X8533571Y-17839667D01*
X8533571Y-17887286D01*
X8524048Y-17925381D01*
X8514524Y-17944429D01*
X8505000Y-17953952D01*
X8485952Y-17963476D01*
X8466905Y-17963476D01*
X8447857Y-17953952D01*
X8438333Y-17944429D01*
X8428810Y-17925381D01*
X8419286Y-17887286D01*
X8419286Y-17839667D01*
X8428810Y-17801571D01*
X8438333Y-17782524D01*
X8447857Y-17773000D01*
X8466905Y-17763476D01*
X8657381Y-17763476D02*
X8676429Y-17763476D01*
X8695476Y-17773000D01*
X8705000Y-17782524D01*
X8714524Y-17801571D01*
X8724048Y-17839667D01*
X8724048Y-17887286D01*
X8714524Y-17925381D01*
X8705000Y-17944429D01*
X8695476Y-17953952D01*
X8676429Y-17963476D01*
X8657381Y-17963476D01*
X8638333Y-17953952D01*
X8628810Y-17944429D01*
X8619286Y-17925381D01*
X8609762Y-17887286D01*
X8609762Y-17839667D01*
X8619286Y-17801571D01*
X8628810Y-17782524D01*
X8638333Y-17773000D01*
X8657381Y-17763476D01*
X8809762Y-17963476D02*
X8809762Y-17830143D01*
X8809762Y-17849190D02*
X8819286Y-17839667D01*
X8838333Y-17830143D01*
X8866905Y-17830143D01*
X8885952Y-17839667D01*
X8895476Y-17858714D01*
X8895476Y-17963476D01*
X8895476Y-17858714D02*
X8905000Y-17839667D01*
X8924048Y-17830143D01*
X8952619Y-17830143D01*
X8971667Y-17839667D01*
X8981190Y-17858714D01*
X8981190Y-17963476D01*
X9076429Y-17963476D02*
X9076429Y-17830143D01*
X9076429Y-17849190D02*
X9085952Y-17839667D01*
X9105000Y-17830143D01*
X9133571Y-17830143D01*
X9152619Y-17839667D01*
X9162143Y-17858714D01*
X9162143Y-17963476D01*
X9162143Y-17858714D02*
X9171667Y-17839667D01*
X9190714Y-17830143D01*
X9219286Y-17830143D01*
X9238333Y-17839667D01*
X9247857Y-17858714D01*
X9247857Y-17963476D01*
X9638333Y-17753952D02*
X9466905Y-18011095D01*
X9895476Y-17763476D02*
X9914524Y-17763476D01*
X9933571Y-17773000D01*
X9943095Y-17782524D01*
X9952619Y-17801571D01*
X9962143Y-17839667D01*
X9962143Y-17887286D01*
X9952619Y-17925381D01*
X9943095Y-17944429D01*
X9933571Y-17953952D01*
X9914524Y-17963476D01*
X9895476Y-17963476D01*
X9876429Y-17953952D01*
X9866905Y-17944429D01*
X9857381Y-17925381D01*
X9847857Y-17887286D01*
X9847857Y-17839667D01*
X9857381Y-17801571D01*
X9866905Y-17782524D01*
X9876429Y-17773000D01*
X9895476Y-17763476D01*
X10047857Y-17944429D02*
X10057381Y-17953952D01*
X10047857Y-17963476D01*
X10038333Y-17953952D01*
X10047857Y-17944429D01*
X10047857Y-17963476D01*
X10181190Y-17763476D02*
X10200238Y-17763476D01*
X10219286Y-17773000D01*
X10228810Y-17782524D01*
X10238333Y-17801571D01*
X10247857Y-17839667D01*
X10247857Y-17887286D01*
X10238333Y-17925381D01*
X10228810Y-17944429D01*
X10219286Y-17953952D01*
X10200238Y-17963476D01*
X10181190Y-17963476D01*
X10162143Y-17953952D01*
X10152619Y-17944429D01*
X10143095Y-17925381D01*
X10133571Y-17887286D01*
X10133571Y-17839667D01*
X10143095Y-17801571D01*
X10152619Y-17782524D01*
X10162143Y-17773000D01*
X10181190Y-17763476D01*
X10314524Y-17763476D02*
X10438333Y-17763476D01*
X10371667Y-17839667D01*
X10400238Y-17839667D01*
X10419286Y-17849190D01*
X10428810Y-17858714D01*
X10438333Y-17877762D01*
X10438333Y-17925381D01*
X10428810Y-17944429D01*
X10419286Y-17953952D01*
X10400238Y-17963476D01*
X10343095Y-17963476D01*
X10324048Y-17953952D01*
X10314524Y-17944429D01*
X10533571Y-17963476D02*
X10571667Y-17963476D01*
X10590714Y-17953952D01*
X10600238Y-17944429D01*
X10619286Y-17915857D01*
X10628810Y-17877762D01*
X10628810Y-17801571D01*
X10619286Y-17782524D01*
X10609762Y-17773000D01*
X10590714Y-17763476D01*
X10552619Y-17763476D01*
X10533571Y-17773000D01*
X10524048Y-17782524D01*
X10514524Y-17801571D01*
X10514524Y-17849190D01*
X10524048Y-17868238D01*
X10533571Y-17877762D01*
X10552619Y-17887286D01*
X10590714Y-17887286D01*
X10609762Y-17877762D01*
X10619286Y-17868238D01*
X10628810Y-17849190D01*
X10800238Y-17830143D02*
X10800238Y-17963476D01*
X10752619Y-17753952D02*
X10705000Y-17896810D01*
X10828810Y-17896810D01*
X10895476Y-17763476D02*
X10895476Y-17801571D01*
X10971667Y-17763476D02*
X10971667Y-17801571D01*
X11266905Y-18039667D02*
X11257381Y-18030143D01*
X11238333Y-18001571D01*
X11228809Y-17982524D01*
X11219286Y-17953952D01*
X11209762Y-17906333D01*
X11209762Y-17868238D01*
X11219286Y-17820619D01*
X11228809Y-17792048D01*
X11238333Y-17773000D01*
X11257381Y-17744429D01*
X11266905Y-17734905D01*
X11352619Y-17963476D02*
X11390714Y-17963476D01*
X11409762Y-17953952D01*
X11419286Y-17944429D01*
X11438333Y-17915857D01*
X11447857Y-17877762D01*
X11447857Y-17801571D01*
X11438333Y-17782524D01*
X11428809Y-17773000D01*
X11409762Y-17763476D01*
X11371667Y-17763476D01*
X11352619Y-17773000D01*
X11343095Y-17782524D01*
X11333571Y-17801571D01*
X11333571Y-17849190D01*
X11343095Y-17868238D01*
X11352619Y-17877762D01*
X11371667Y-17887286D01*
X11409762Y-17887286D01*
X11428809Y-17877762D01*
X11438333Y-17868238D01*
X11447857Y-17849190D01*
X11562143Y-17849190D02*
X11543095Y-17839667D01*
X11533571Y-17830143D01*
X11524048Y-17811095D01*
X11524048Y-17801571D01*
X11533571Y-17782524D01*
X11543095Y-17773000D01*
X11562143Y-17763476D01*
X11600238Y-17763476D01*
X11619286Y-17773000D01*
X11628809Y-17782524D01*
X11638333Y-17801571D01*
X11638333Y-17811095D01*
X11628809Y-17830143D01*
X11619286Y-17839667D01*
X11600238Y-17849190D01*
X11562143Y-17849190D01*
X11543095Y-17858714D01*
X11533571Y-17868238D01*
X11524048Y-17887286D01*
X11524048Y-17925381D01*
X11533571Y-17944429D01*
X11543095Y-17953952D01*
X11562143Y-17963476D01*
X11600238Y-17963476D01*
X11619286Y-17953952D01*
X11628809Y-17944429D01*
X11638333Y-17925381D01*
X11638333Y-17887286D01*
X11628809Y-17868238D01*
X11619286Y-17858714D01*
X11600238Y-17849190D01*
X11876428Y-17963476D02*
X11876428Y-17763476D01*
X11962143Y-17963476D02*
X11962143Y-17858714D01*
X11952619Y-17839667D01*
X11933571Y-17830143D01*
X11905000Y-17830143D01*
X11885952Y-17839667D01*
X11876428Y-17849190D01*
X12085952Y-17963476D02*
X12066905Y-17953952D01*
X12057381Y-17944429D01*
X12047857Y-17925381D01*
X12047857Y-17868238D01*
X12057381Y-17849190D01*
X12066905Y-17839667D01*
X12085952Y-17830143D01*
X12114524Y-17830143D01*
X12133571Y-17839667D01*
X12143095Y-17849190D01*
X12152619Y-17868238D01*
X12152619Y-17925381D01*
X12143095Y-17944429D01*
X12133571Y-17953952D01*
X12114524Y-17963476D01*
X12085952Y-17963476D01*
X12266905Y-17963476D02*
X12247857Y-17953952D01*
X12238333Y-17934905D01*
X12238333Y-17763476D01*
X12419286Y-17953952D02*
X12400238Y-17963476D01*
X12362143Y-17963476D01*
X12343095Y-17953952D01*
X12333571Y-17934905D01*
X12333571Y-17858714D01*
X12343095Y-17839667D01*
X12362143Y-17830143D01*
X12400238Y-17830143D01*
X12419286Y-17839667D01*
X12428809Y-17858714D01*
X12428809Y-17877762D01*
X12333571Y-17896810D01*
X12505000Y-17953952D02*
X12524048Y-17963476D01*
X12562143Y-17963476D01*
X12581190Y-17953952D01*
X12590714Y-17934905D01*
X12590714Y-17925381D01*
X12581190Y-17906333D01*
X12562143Y-17896810D01*
X12533571Y-17896810D01*
X12514524Y-17887286D01*
X12505000Y-17868238D01*
X12505000Y-17858714D01*
X12514524Y-17839667D01*
X12533571Y-17830143D01*
X12562143Y-17830143D01*
X12581190Y-17839667D01*
X12828809Y-17887286D02*
X12981190Y-17887286D01*
X12905000Y-17963476D02*
X12905000Y-17811095D01*
X13209762Y-17763476D02*
X13333571Y-17763476D01*
X13266905Y-17839667D01*
X13295476Y-17839667D01*
X13314524Y-17849190D01*
X13324048Y-17858714D01*
X13333571Y-17877762D01*
X13333571Y-17925381D01*
X13324048Y-17944429D01*
X13314524Y-17953952D01*
X13295476Y-17963476D01*
X13238333Y-17963476D01*
X13219286Y-17953952D01*
X13209762Y-17944429D01*
X13562143Y-17953952D02*
X13581190Y-17963476D01*
X13619286Y-17963476D01*
X13638333Y-17953952D01*
X13647857Y-17934905D01*
X13647857Y-17925381D01*
X13638333Y-17906333D01*
X13619286Y-17896810D01*
X13590714Y-17896810D01*
X13571667Y-17887286D01*
X13562143Y-17868238D01*
X13562143Y-17858714D01*
X13571667Y-17839667D01*
X13590714Y-17830143D01*
X13619286Y-17830143D01*
X13638333Y-17839667D01*
X13762143Y-17963476D02*
X13743095Y-17953952D01*
X13733571Y-17934905D01*
X13733571Y-17763476D01*
X13866905Y-17963476D02*
X13847857Y-17953952D01*
X13838333Y-17944429D01*
X13828809Y-17925381D01*
X13828809Y-17868238D01*
X13838333Y-17849190D01*
X13847857Y-17839667D01*
X13866905Y-17830143D01*
X13895476Y-17830143D01*
X13914524Y-17839667D01*
X13924048Y-17849190D01*
X13933571Y-17868238D01*
X13933571Y-17925381D01*
X13924048Y-17944429D01*
X13914524Y-17953952D01*
X13895476Y-17963476D01*
X13866905Y-17963476D01*
X13990714Y-17830143D02*
X14066905Y-17830143D01*
X14019286Y-17763476D02*
X14019286Y-17934905D01*
X14028809Y-17953952D01*
X14047857Y-17963476D01*
X14066905Y-17963476D01*
X14124048Y-17953952D02*
X14143095Y-17963476D01*
X14181190Y-17963476D01*
X14200238Y-17953952D01*
X14209762Y-17934905D01*
X14209762Y-17925381D01*
X14200238Y-17906333D01*
X14181190Y-17896810D01*
X14152619Y-17896810D01*
X14133571Y-17887286D01*
X14124048Y-17868238D01*
X14124048Y-17858714D01*
X14133571Y-17839667D01*
X14152619Y-17830143D01*
X14181190Y-17830143D01*
X14200238Y-17839667D01*
X14276428Y-18039667D02*
X14285952Y-18030143D01*
X14305000Y-18001571D01*
X14314524Y-17982524D01*
X14324048Y-17953952D01*
X14333571Y-17906333D01*
X14333571Y-17868238D01*
X14324048Y-17820619D01*
X14314524Y-17792048D01*
X14305000Y-17773000D01*
X14285952Y-17744429D01*
X14276428Y-17734905D01*
M02*
