G04 #@! TF.GenerationSoftware,KiCad,Pcbnew,(6.0.0)*
G04 #@! TF.CreationDate,2022-08-18T21:55:53-04:00*
G04 #@! TF.ProjectId,WD37C65 pi hat,57443337-4336-4352-9070-69206861742e,rev?*
G04 #@! TF.SameCoordinates,Original*
G04 #@! TF.FileFunction,Legend,Top*
G04 #@! TF.FilePolarity,Positive*
%FSLAX46Y46*%
G04 Gerber Fmt 4.6, Leading zero omitted, Abs format (unit mm)*
G04 Created by KiCad (PCBNEW (6.0.0)) date 2022-08-18 21:55:53*
%MOMM*%
%LPD*%
G01*
G04 APERTURE LIST*
G04 Aperture macros list*
%AMRoundRect*
0 Rectangle with rounded corners*
0 $1 Rounding radius*
0 $2 $3 $4 $5 $6 $7 $8 $9 X,Y pos of 4 corners*
0 Add a 4 corners polygon primitive as box body*
4,1,4,$2,$3,$4,$5,$6,$7,$8,$9,$2,$3,0*
0 Add four circle primitives for the rounded corners*
1,1,$1+$1,$2,$3*
1,1,$1+$1,$4,$5*
1,1,$1+$1,$6,$7*
1,1,$1+$1,$8,$9*
0 Add four rect primitives between the rounded corners*
20,1,$1+$1,$2,$3,$4,$5,0*
20,1,$1+$1,$4,$5,$6,$7,0*
20,1,$1+$1,$6,$7,$8,$9,0*
20,1,$1+$1,$8,$9,$2,$3,0*%
%AMFreePoly0*
4,1,6,1.000000,0.000000,0.500000,-0.750000,-0.500000,-0.750000,-0.500000,0.750000,0.500000,0.750000,1.000000,0.000000,1.000000,0.000000,$1*%
G04 Aperture macros list end*
%ADD10C,0.150000*%
%ADD11C,0.050000*%
%ADD12C,0.120000*%
%ADD13C,0.100000*%
%ADD14RoundRect,0.200000X-0.275000X0.200000X-0.275000X-0.200000X0.275000X-0.200000X0.275000X0.200000X0*%
%ADD15R,1.700000X1.700000*%
%ADD16O,1.700000X1.700000*%
%ADD17RoundRect,0.225000X-0.250000X0.225000X-0.250000X-0.225000X0.250000X-0.225000X0.250000X0.225000X0*%
%ADD18RoundRect,0.200000X-0.200000X-0.275000X0.200000X-0.275000X0.200000X0.275000X-0.200000X0.275000X0*%
%ADD19R,1.925000X0.700000*%
%ADD20R,0.700000X1.925000*%
%ADD21R,1.500000X1.500000*%
%ADD22FreePoly0,270.000000*%
%ADD23FreePoly0,90.000000*%
%ADD24C,1.500000*%
%ADD25RoundRect,0.200000X0.200000X0.275000X-0.200000X0.275000X-0.200000X-0.275000X0.200000X-0.275000X0*%
%ADD26R,3.500000X3.500000*%
%ADD27RoundRect,0.750000X-0.750000X-1.000000X0.750000X-1.000000X0.750000X1.000000X-0.750000X1.000000X0*%
%ADD28RoundRect,0.875000X-0.875000X-0.875000X0.875000X-0.875000X0.875000X0.875000X-0.875000X0.875000X0*%
%ADD29RoundRect,0.225000X0.225000X0.250000X-0.225000X0.250000X-0.225000X-0.250000X0.225000X-0.250000X0*%
%ADD30C,2.700000*%
G04 APERTURE END LIST*
D10*
X78192380Y-156027380D02*
X77859047Y-155551190D01*
X77620952Y-156027380D02*
X77620952Y-155027380D01*
X78001904Y-155027380D01*
X78097142Y-155075000D01*
X78144761Y-155122619D01*
X78192380Y-155217857D01*
X78192380Y-155360714D01*
X78144761Y-155455952D01*
X78097142Y-155503571D01*
X78001904Y-155551190D01*
X77620952Y-155551190D01*
X78525714Y-156027380D02*
X79049523Y-155360714D01*
X78525714Y-155360714D02*
X79049523Y-156027380D01*
X79859047Y-156027380D02*
X79859047Y-155027380D01*
X79859047Y-155979761D02*
X79763809Y-156027380D01*
X79573333Y-156027380D01*
X79478095Y-155979761D01*
X79430476Y-155932142D01*
X79382857Y-155836904D01*
X79382857Y-155551190D01*
X79430476Y-155455952D01*
X79478095Y-155408333D01*
X79573333Y-155360714D01*
X79763809Y-155360714D01*
X79859047Y-155408333D01*
X106116380Y-122150095D02*
X105116380Y-122150095D01*
X105116380Y-121912000D01*
X105164000Y-121769142D01*
X105259238Y-121673904D01*
X105354476Y-121626285D01*
X105544952Y-121578666D01*
X105687809Y-121578666D01*
X105878285Y-121626285D01*
X105973523Y-121673904D01*
X106068761Y-121769142D01*
X106116380Y-121912000D01*
X106116380Y-122150095D01*
X105116380Y-120673904D02*
X105116380Y-121150095D01*
X105592571Y-121197714D01*
X105544952Y-121150095D01*
X105497333Y-121054857D01*
X105497333Y-120816761D01*
X105544952Y-120721523D01*
X105592571Y-120673904D01*
X105687809Y-120626285D01*
X105925904Y-120626285D01*
X106021142Y-120673904D01*
X106068761Y-120721523D01*
X106116380Y-120816761D01*
X106116380Y-121054857D01*
X106068761Y-121150095D01*
X106021142Y-121197714D01*
X78097142Y-144915000D02*
X78001904Y-144867380D01*
X77859047Y-144867380D01*
X77716190Y-144915000D01*
X77620952Y-145010238D01*
X77573333Y-145105476D01*
X77525714Y-145295952D01*
X77525714Y-145438809D01*
X77573333Y-145629285D01*
X77620952Y-145724523D01*
X77716190Y-145819761D01*
X77859047Y-145867380D01*
X77954285Y-145867380D01*
X78097142Y-145819761D01*
X78144761Y-145772142D01*
X78144761Y-145438809D01*
X77954285Y-145438809D01*
X78573333Y-145200714D02*
X78573333Y-145867380D01*
X78573333Y-145295952D02*
X78620952Y-145248333D01*
X78716190Y-145200714D01*
X78859047Y-145200714D01*
X78954285Y-145248333D01*
X79001904Y-145343571D01*
X79001904Y-145867380D01*
X79906666Y-145867380D02*
X79906666Y-144867380D01*
X79906666Y-145819761D02*
X79811428Y-145867380D01*
X79620952Y-145867380D01*
X79525714Y-145819761D01*
X79478095Y-145772142D01*
X79430476Y-145676904D01*
X79430476Y-145391190D01*
X79478095Y-145295952D01*
X79525714Y-145248333D01*
X79620952Y-145200714D01*
X79811428Y-145200714D01*
X79906666Y-145248333D01*
X118054380Y-124721714D02*
X117054380Y-124721714D01*
X117054380Y-124483619D01*
X117102000Y-124340761D01*
X117197238Y-124245523D01*
X117292476Y-124197904D01*
X117482952Y-124150285D01*
X117625809Y-124150285D01*
X117816285Y-124197904D01*
X117911523Y-124245523D01*
X118006761Y-124340761D01*
X118054380Y-124483619D01*
X118054380Y-124721714D01*
X117959142Y-123150285D02*
X118006761Y-123197904D01*
X118054380Y-123340761D01*
X118054380Y-123436000D01*
X118006761Y-123578857D01*
X117911523Y-123674095D01*
X117816285Y-123721714D01*
X117625809Y-123769333D01*
X117482952Y-123769333D01*
X117292476Y-123721714D01*
X117197238Y-123674095D01*
X117102000Y-123578857D01*
X117054380Y-123436000D01*
X117054380Y-123340761D01*
X117102000Y-123197904D01*
X117149619Y-123150285D01*
X118054380Y-122721714D02*
X117054380Y-122721714D01*
X117530571Y-122721714D02*
X117530571Y-122150285D01*
X118054380Y-122150285D02*
X117054380Y-122150285D01*
X117102000Y-121150285D02*
X117054380Y-121245523D01*
X117054380Y-121388380D01*
X117102000Y-121531238D01*
X117197238Y-121626476D01*
X117292476Y-121674095D01*
X117482952Y-121721714D01*
X117625809Y-121721714D01*
X117816285Y-121674095D01*
X117911523Y-121626476D01*
X118006761Y-121531238D01*
X118054380Y-121388380D01*
X118054380Y-121293142D01*
X118006761Y-121150285D01*
X117959142Y-121102666D01*
X117625809Y-121102666D01*
X117625809Y-121293142D01*
X128679380Y-129634571D02*
X127679380Y-129634571D01*
X128631761Y-129634571D02*
X128679380Y-129729809D01*
X128679380Y-129920285D01*
X128631761Y-130015523D01*
X128584142Y-130063142D01*
X128488904Y-130110761D01*
X128203190Y-130110761D01*
X128107952Y-130063142D01*
X128060333Y-130015523D01*
X128012714Y-129920285D01*
X128012714Y-129729809D01*
X128060333Y-129634571D01*
X128679380Y-129015523D02*
X128631761Y-129110761D01*
X128584142Y-129158380D01*
X128488904Y-129206000D01*
X128203190Y-129206000D01*
X128107952Y-129158380D01*
X128060333Y-129110761D01*
X128012714Y-129015523D01*
X128012714Y-128872666D01*
X128060333Y-128777428D01*
X128107952Y-128729809D01*
X128203190Y-128682190D01*
X128488904Y-128682190D01*
X128584142Y-128729809D01*
X128631761Y-128777428D01*
X128679380Y-128872666D01*
X128679380Y-129015523D01*
X128012714Y-127491714D02*
X128679380Y-127491714D01*
X128107952Y-127491714D02*
X128060333Y-127444095D01*
X128012714Y-127348857D01*
X128012714Y-127206000D01*
X128060333Y-127110761D01*
X128155571Y-127063142D01*
X128679380Y-127063142D01*
X128679380Y-126444095D02*
X128631761Y-126539333D01*
X128584142Y-126586952D01*
X128488904Y-126634571D01*
X128203190Y-126634571D01*
X128107952Y-126586952D01*
X128060333Y-126539333D01*
X128012714Y-126444095D01*
X128012714Y-126301238D01*
X128060333Y-126206000D01*
X128107952Y-126158380D01*
X128203190Y-126110761D01*
X128488904Y-126110761D01*
X128584142Y-126158380D01*
X128631761Y-126206000D01*
X128679380Y-126301238D01*
X128679380Y-126444095D01*
X128012714Y-125825047D02*
X128012714Y-125444095D01*
X127679380Y-125682190D02*
X128536523Y-125682190D01*
X128631761Y-125634571D01*
X128679380Y-125539333D01*
X128679380Y-125444095D01*
X128012714Y-124348857D02*
X129012714Y-124348857D01*
X128060333Y-124348857D02*
X128012714Y-124253619D01*
X128012714Y-124063142D01*
X128060333Y-123967904D01*
X128107952Y-123920285D01*
X128203190Y-123872666D01*
X128488904Y-123872666D01*
X128584142Y-123920285D01*
X128631761Y-123967904D01*
X128679380Y-124063142D01*
X128679380Y-124253619D01*
X128631761Y-124348857D01*
X128679380Y-123301238D02*
X128631761Y-123396476D01*
X128584142Y-123444095D01*
X128488904Y-123491714D01*
X128203190Y-123491714D01*
X128107952Y-123444095D01*
X128060333Y-123396476D01*
X128012714Y-123301238D01*
X128012714Y-123158380D01*
X128060333Y-123063142D01*
X128107952Y-123015523D01*
X128203190Y-122967904D01*
X128488904Y-122967904D01*
X128584142Y-123015523D01*
X128631761Y-123063142D01*
X128679380Y-123158380D01*
X128679380Y-123301238D01*
X128012714Y-122539333D02*
X129012714Y-122539333D01*
X128060333Y-122539333D02*
X128012714Y-122444095D01*
X128012714Y-122253619D01*
X128060333Y-122158380D01*
X128107952Y-122110761D01*
X128203190Y-122063142D01*
X128488904Y-122063142D01*
X128584142Y-122110761D01*
X128631761Y-122158380D01*
X128679380Y-122253619D01*
X128679380Y-122444095D01*
X128631761Y-122539333D01*
X128012714Y-121206000D02*
X128679380Y-121206000D01*
X128012714Y-121634571D02*
X128536523Y-121634571D01*
X128631761Y-121586952D01*
X128679380Y-121491714D01*
X128679380Y-121348857D01*
X128631761Y-121253619D01*
X128584142Y-121206000D01*
X128679380Y-120586952D02*
X128631761Y-120682190D01*
X128536523Y-120729809D01*
X127679380Y-120729809D01*
X128679380Y-119777428D02*
X128155571Y-119777428D01*
X128060333Y-119825047D01*
X128012714Y-119920285D01*
X128012714Y-120110761D01*
X128060333Y-120206000D01*
X128631761Y-119777428D02*
X128679380Y-119872666D01*
X128679380Y-120110761D01*
X128631761Y-120206000D01*
X128536523Y-120253619D01*
X128441285Y-120253619D01*
X128346047Y-120206000D01*
X128298428Y-120110761D01*
X128298428Y-119872666D01*
X128250809Y-119777428D01*
X128012714Y-119444095D02*
X128012714Y-119063142D01*
X127679380Y-119301238D02*
X128536523Y-119301238D01*
X128631761Y-119253619D01*
X128679380Y-119158380D01*
X128679380Y-119063142D01*
X128631761Y-118348857D02*
X128679380Y-118444095D01*
X128679380Y-118634571D01*
X128631761Y-118729809D01*
X128536523Y-118777428D01*
X128155571Y-118777428D01*
X128060333Y-118729809D01*
X128012714Y-118634571D01*
X128012714Y-118444095D01*
X128060333Y-118348857D01*
X128155571Y-118301238D01*
X128250809Y-118301238D01*
X128346047Y-118777428D01*
X130289380Y-129801238D02*
X129289380Y-129801238D01*
X129289380Y-129563142D01*
X129337000Y-129420285D01*
X129432238Y-129325047D01*
X129527476Y-129277428D01*
X129717952Y-129229809D01*
X129860809Y-129229809D01*
X130051285Y-129277428D01*
X130146523Y-129325047D01*
X130241761Y-129420285D01*
X130289380Y-129563142D01*
X130289380Y-129801238D01*
X130289380Y-128801238D02*
X129289380Y-128801238D01*
X130003666Y-128467904D01*
X129289380Y-128134571D01*
X130289380Y-128134571D01*
X130003666Y-127706000D02*
X130003666Y-127229809D01*
X130289380Y-127801238D02*
X129289380Y-127467904D01*
X130289380Y-127134571D01*
X129241761Y-126086952D02*
X130527476Y-126944095D01*
X130289380Y-125753619D02*
X129289380Y-125753619D01*
X130289380Y-124706000D02*
X129813190Y-125039333D01*
X130289380Y-125277428D02*
X129289380Y-125277428D01*
X129289380Y-124896476D01*
X129337000Y-124801238D01*
X129384619Y-124753619D01*
X129479857Y-124706000D01*
X129622714Y-124706000D01*
X129717952Y-124753619D01*
X129765571Y-124801238D01*
X129813190Y-124896476D01*
X129813190Y-125277428D01*
X130384619Y-123610761D02*
X130337000Y-123706000D01*
X130241761Y-123801238D01*
X130098904Y-123944095D01*
X130051285Y-124039333D01*
X130051285Y-124134571D01*
X130289380Y-124086952D02*
X130241761Y-124182190D01*
X130146523Y-124277428D01*
X129956047Y-124325047D01*
X129622714Y-124325047D01*
X129432238Y-124277428D01*
X129337000Y-124182190D01*
X129289380Y-124086952D01*
X129289380Y-123896476D01*
X129337000Y-123801238D01*
X129432238Y-123706000D01*
X129622714Y-123658380D01*
X129956047Y-123658380D01*
X130146523Y-123706000D01*
X130241761Y-123801238D01*
X130289380Y-123896476D01*
X130289380Y-124086952D01*
X129241761Y-122515523D02*
X130527476Y-123372666D01*
X130289380Y-122182190D02*
X129289380Y-122182190D01*
X129289380Y-121944095D01*
X129337000Y-121801238D01*
X129432238Y-121706000D01*
X129527476Y-121658380D01*
X129717952Y-121610761D01*
X129860809Y-121610761D01*
X130051285Y-121658380D01*
X130146523Y-121706000D01*
X130241761Y-121801238D01*
X130289380Y-121944095D01*
X130289380Y-122182190D01*
X130194142Y-120610761D02*
X130241761Y-120658380D01*
X130289380Y-120801238D01*
X130289380Y-120896476D01*
X130241761Y-121039333D01*
X130146523Y-121134571D01*
X130051285Y-121182190D01*
X129860809Y-121229809D01*
X129717952Y-121229809D01*
X129527476Y-121182190D01*
X129432238Y-121134571D01*
X129337000Y-121039333D01*
X129289380Y-120896476D01*
X129289380Y-120801238D01*
X129337000Y-120658380D01*
X129384619Y-120610761D01*
X130289380Y-120182190D02*
X129289380Y-120182190D01*
X129765571Y-120182190D02*
X129765571Y-119610761D01*
X130289380Y-119610761D02*
X129289380Y-119610761D01*
X129337000Y-118610761D02*
X129289380Y-118706000D01*
X129289380Y-118848857D01*
X129337000Y-118991714D01*
X129432238Y-119086952D01*
X129527476Y-119134571D01*
X129717952Y-119182190D01*
X129860809Y-119182190D01*
X130051285Y-119134571D01*
X130146523Y-119086952D01*
X130241761Y-118991714D01*
X130289380Y-118848857D01*
X130289380Y-118753619D01*
X130241761Y-118610761D01*
X130194142Y-118563142D01*
X129860809Y-118563142D01*
X129860809Y-118753619D01*
X100528380Y-122150095D02*
X99528380Y-122150095D01*
X99528380Y-121912000D01*
X99576000Y-121769142D01*
X99671238Y-121673904D01*
X99766476Y-121626285D01*
X99956952Y-121578666D01*
X100099809Y-121578666D01*
X100290285Y-121626285D01*
X100385523Y-121673904D01*
X100480761Y-121769142D01*
X100528380Y-121912000D01*
X100528380Y-122150095D01*
X99623619Y-121197714D02*
X99576000Y-121150095D01*
X99528380Y-121054857D01*
X99528380Y-120816761D01*
X99576000Y-120721523D01*
X99623619Y-120673904D01*
X99718857Y-120626285D01*
X99814095Y-120626285D01*
X99956952Y-120673904D01*
X100528380Y-121245333D01*
X100528380Y-120626285D01*
X99004380Y-122150095D02*
X98004380Y-122150095D01*
X98004380Y-121912000D01*
X98052000Y-121769142D01*
X98147238Y-121673904D01*
X98242476Y-121626285D01*
X98432952Y-121578666D01*
X98575809Y-121578666D01*
X98766285Y-121626285D01*
X98861523Y-121673904D01*
X98956761Y-121769142D01*
X99004380Y-121912000D01*
X99004380Y-122150095D01*
X99004380Y-120626285D02*
X99004380Y-121197714D01*
X99004380Y-120912000D02*
X98004380Y-120912000D01*
X98147238Y-121007238D01*
X98242476Y-121102476D01*
X98290095Y-121197714D01*
X97480380Y-122150095D02*
X96480380Y-122150095D01*
X96480380Y-121912000D01*
X96528000Y-121769142D01*
X96623238Y-121673904D01*
X96718476Y-121626285D01*
X96908952Y-121578666D01*
X97051809Y-121578666D01*
X97242285Y-121626285D01*
X97337523Y-121673904D01*
X97432761Y-121769142D01*
X97480380Y-121912000D01*
X97480380Y-122150095D01*
X96480380Y-120959619D02*
X96480380Y-120864380D01*
X96528000Y-120769142D01*
X96575619Y-120721523D01*
X96670857Y-120673904D01*
X96861333Y-120626285D01*
X97099428Y-120626285D01*
X97289904Y-120673904D01*
X97385142Y-120721523D01*
X97432761Y-120769142D01*
X97480380Y-120864380D01*
X97480380Y-120959619D01*
X97432761Y-121054857D01*
X97385142Y-121102476D01*
X97289904Y-121150095D01*
X97099428Y-121197714D01*
X96861333Y-121197714D01*
X96670857Y-121150095D01*
X96575619Y-121102476D01*
X96528000Y-121054857D01*
X96480380Y-120959619D01*
X78192380Y-148312142D02*
X78144761Y-148359761D01*
X78001904Y-148407380D01*
X77906666Y-148407380D01*
X77763809Y-148359761D01*
X77668571Y-148264523D01*
X77620952Y-148169285D01*
X77573333Y-147978809D01*
X77573333Y-147835952D01*
X77620952Y-147645476D01*
X77668571Y-147550238D01*
X77763809Y-147455000D01*
X77906666Y-147407380D01*
X78001904Y-147407380D01*
X78144761Y-147455000D01*
X78192380Y-147502619D01*
X78478095Y-147407380D02*
X79049523Y-147407380D01*
X78763809Y-148407380D02*
X78763809Y-147407380D01*
X79335238Y-148359761D02*
X79478095Y-148407380D01*
X79716190Y-148407380D01*
X79811428Y-148359761D01*
X79859047Y-148312142D01*
X79906666Y-148216904D01*
X79906666Y-148121666D01*
X79859047Y-148026428D01*
X79811428Y-147978809D01*
X79716190Y-147931190D01*
X79525714Y-147883571D01*
X79430476Y-147835952D01*
X79382857Y-147788333D01*
X79335238Y-147693095D01*
X79335238Y-147597857D01*
X79382857Y-147502619D01*
X79430476Y-147455000D01*
X79525714Y-147407380D01*
X79763809Y-147407380D01*
X79906666Y-147455000D01*
X81137142Y-129754380D02*
X80660952Y-129754380D01*
X80613333Y-130230571D01*
X80660952Y-130182952D01*
X80756190Y-130135333D01*
X80994285Y-130135333D01*
X81089523Y-130182952D01*
X81137142Y-130230571D01*
X81184761Y-130325809D01*
X81184761Y-130563904D01*
X81137142Y-130659142D01*
X81089523Y-130706761D01*
X80994285Y-130754380D01*
X80756190Y-130754380D01*
X80660952Y-130706761D01*
X80613333Y-130659142D01*
X81518095Y-130087714D02*
X81756190Y-130754380D01*
X81994285Y-130087714D01*
X113482380Y-122658095D02*
X112482380Y-122658095D01*
X112482380Y-122420000D01*
X112530000Y-122277142D01*
X112625238Y-122181904D01*
X112720476Y-122134285D01*
X112910952Y-122086666D01*
X113053809Y-122086666D01*
X113244285Y-122134285D01*
X113339523Y-122181904D01*
X113434761Y-122277142D01*
X113482380Y-122420000D01*
X113482380Y-122658095D01*
X112482380Y-121229523D02*
X112482380Y-121420000D01*
X112530000Y-121515238D01*
X112577619Y-121562857D01*
X112720476Y-121658095D01*
X112910952Y-121705714D01*
X113291904Y-121705714D01*
X113387142Y-121658095D01*
X113434761Y-121610476D01*
X113482380Y-121515238D01*
X113482380Y-121324761D01*
X113434761Y-121229523D01*
X113387142Y-121181904D01*
X113291904Y-121134285D01*
X113053809Y-121134285D01*
X112958571Y-121181904D01*
X112910952Y-121229523D01*
X112863333Y-121324761D01*
X112863333Y-121515238D01*
X112910952Y-121610476D01*
X112958571Y-121658095D01*
X113053809Y-121705714D01*
X94432380Y-122150095D02*
X93432380Y-122150095D01*
X93432380Y-121912000D01*
X93480000Y-121769142D01*
X93575238Y-121673904D01*
X93670476Y-121626285D01*
X93860952Y-121578666D01*
X94003809Y-121578666D01*
X94194285Y-121626285D01*
X94289523Y-121673904D01*
X94384761Y-121769142D01*
X94432380Y-121912000D01*
X94432380Y-122150095D01*
X93432380Y-121245333D02*
X93432380Y-120578666D01*
X94432380Y-121007238D01*
X85225238Y-128695380D02*
X84749047Y-128695380D01*
X84701428Y-129171571D01*
X84749047Y-129123952D01*
X84844285Y-129076333D01*
X85082380Y-129076333D01*
X85177619Y-129123952D01*
X85225238Y-129171571D01*
X85272857Y-129266809D01*
X85272857Y-129504904D01*
X85225238Y-129600142D01*
X85177619Y-129647761D01*
X85082380Y-129695380D01*
X84844285Y-129695380D01*
X84749047Y-129647761D01*
X84701428Y-129600142D01*
X85606190Y-129028714D02*
X85844285Y-129695380D01*
X86082380Y-129028714D01*
X87225238Y-129695380D02*
X87225238Y-129028714D01*
X87225238Y-128695380D02*
X87177619Y-128743000D01*
X87225238Y-128790619D01*
X87272857Y-128743000D01*
X87225238Y-128695380D01*
X87225238Y-128790619D01*
X87701428Y-129028714D02*
X87701428Y-129695380D01*
X87701428Y-129123952D02*
X87749047Y-129076333D01*
X87844285Y-129028714D01*
X87987142Y-129028714D01*
X88082380Y-129076333D01*
X88130000Y-129171571D01*
X88130000Y-129695380D01*
X88606190Y-129028714D02*
X88606190Y-130028714D01*
X88606190Y-129076333D02*
X88701428Y-129028714D01*
X88891904Y-129028714D01*
X88987142Y-129076333D01*
X89034761Y-129123952D01*
X89082380Y-129219190D01*
X89082380Y-129504904D01*
X89034761Y-129600142D01*
X88987142Y-129647761D01*
X88891904Y-129695380D01*
X88701428Y-129695380D01*
X88606190Y-129647761D01*
X89939523Y-129028714D02*
X89939523Y-129695380D01*
X89510952Y-129028714D02*
X89510952Y-129552523D01*
X89558571Y-129647761D01*
X89653809Y-129695380D01*
X89796666Y-129695380D01*
X89891904Y-129647761D01*
X89939523Y-129600142D01*
X90272857Y-129028714D02*
X90653809Y-129028714D01*
X90415714Y-128695380D02*
X90415714Y-129552523D01*
X90463333Y-129647761D01*
X90558571Y-129695380D01*
X90653809Y-129695380D01*
X84963333Y-131257761D02*
X84868095Y-131305380D01*
X84677619Y-131305380D01*
X84582380Y-131257761D01*
X84534761Y-131210142D01*
X84487142Y-131114904D01*
X84487142Y-130829190D01*
X84534761Y-130733952D01*
X84582380Y-130686333D01*
X84677619Y-130638714D01*
X84868095Y-130638714D01*
X84963333Y-130686333D01*
X85772857Y-131257761D02*
X85677619Y-131305380D01*
X85487142Y-131305380D01*
X85391904Y-131257761D01*
X85344285Y-131162523D01*
X85344285Y-130781571D01*
X85391904Y-130686333D01*
X85487142Y-130638714D01*
X85677619Y-130638714D01*
X85772857Y-130686333D01*
X85820476Y-130781571D01*
X85820476Y-130876809D01*
X85344285Y-130972047D01*
X86249047Y-130638714D02*
X86249047Y-131305380D01*
X86249047Y-130733952D02*
X86296666Y-130686333D01*
X86391904Y-130638714D01*
X86534761Y-130638714D01*
X86630000Y-130686333D01*
X86677619Y-130781571D01*
X86677619Y-131305380D01*
X87010952Y-130638714D02*
X87391904Y-130638714D01*
X87153809Y-130305380D02*
X87153809Y-131162523D01*
X87201428Y-131257761D01*
X87296666Y-131305380D01*
X87391904Y-131305380D01*
X88106190Y-131257761D02*
X88010952Y-131305380D01*
X87820476Y-131305380D01*
X87725238Y-131257761D01*
X87677619Y-131162523D01*
X87677619Y-130781571D01*
X87725238Y-130686333D01*
X87820476Y-130638714D01*
X88010952Y-130638714D01*
X88106190Y-130686333D01*
X88153809Y-130781571D01*
X88153809Y-130876809D01*
X87677619Y-130972047D01*
X88582380Y-131305380D02*
X88582380Y-130638714D01*
X88582380Y-130829190D02*
X88630000Y-130733952D01*
X88677619Y-130686333D01*
X88772857Y-130638714D01*
X88868095Y-130638714D01*
X89963333Y-130924428D02*
X90725238Y-130924428D01*
X90344285Y-131305380D02*
X90344285Y-130543476D01*
X80613428Y-119594380D02*
X81232476Y-119594380D01*
X80899142Y-119975333D01*
X81042000Y-119975333D01*
X81137238Y-120022952D01*
X81184857Y-120070571D01*
X81232476Y-120165809D01*
X81232476Y-120403904D01*
X81184857Y-120499142D01*
X81137238Y-120546761D01*
X81042000Y-120594380D01*
X80756285Y-120594380D01*
X80661047Y-120546761D01*
X80613428Y-120499142D01*
X81661047Y-120499142D02*
X81708666Y-120546761D01*
X81661047Y-120594380D01*
X81613428Y-120546761D01*
X81661047Y-120499142D01*
X81661047Y-120594380D01*
X82042000Y-119594380D02*
X82661047Y-119594380D01*
X82327714Y-119975333D01*
X82470571Y-119975333D01*
X82565809Y-120022952D01*
X82613428Y-120070571D01*
X82661047Y-120165809D01*
X82661047Y-120403904D01*
X82613428Y-120499142D01*
X82565809Y-120546761D01*
X82470571Y-120594380D01*
X82184857Y-120594380D01*
X82089619Y-120546761D01*
X82042000Y-120499142D01*
X82994380Y-119927714D02*
X83232476Y-120594380D01*
X83470571Y-119927714D01*
X97655142Y-131326000D02*
X97559904Y-131278380D01*
X97417047Y-131278380D01*
X97274190Y-131326000D01*
X97178952Y-131421238D01*
X97131333Y-131516476D01*
X97083714Y-131706952D01*
X97083714Y-131849809D01*
X97131333Y-132040285D01*
X97178952Y-132135523D01*
X97274190Y-132230761D01*
X97417047Y-132278380D01*
X97512285Y-132278380D01*
X97655142Y-132230761D01*
X97702761Y-132183142D01*
X97702761Y-131849809D01*
X97512285Y-131849809D01*
X98131333Y-131611714D02*
X98131333Y-132278380D01*
X98131333Y-131706952D02*
X98178952Y-131659333D01*
X98274190Y-131611714D01*
X98417047Y-131611714D01*
X98512285Y-131659333D01*
X98559904Y-131754571D01*
X98559904Y-132278380D01*
X99464666Y-132278380D02*
X99464666Y-131278380D01*
X99464666Y-132230761D02*
X99369428Y-132278380D01*
X99178952Y-132278380D01*
X99083714Y-132230761D01*
X99036095Y-132183142D01*
X98988476Y-132087904D01*
X98988476Y-131802190D01*
X99036095Y-131706952D01*
X99083714Y-131659333D01*
X99178952Y-131611714D01*
X99369428Y-131611714D01*
X99464666Y-131659333D01*
X97298095Y-126277714D02*
X97679047Y-126277714D01*
X97440952Y-125944380D02*
X97440952Y-126801523D01*
X97488571Y-126896761D01*
X97583809Y-126944380D01*
X97679047Y-126944380D01*
X98155238Y-126944380D02*
X98060000Y-126896761D01*
X98012380Y-126849142D01*
X97964761Y-126753904D01*
X97964761Y-126468190D01*
X98012380Y-126372952D01*
X98060000Y-126325333D01*
X98155238Y-126277714D01*
X98298095Y-126277714D01*
X98393333Y-126325333D01*
X98440952Y-126372952D01*
X98488571Y-126468190D01*
X98488571Y-126753904D01*
X98440952Y-126849142D01*
X98393333Y-126896761D01*
X98298095Y-126944380D01*
X98155238Y-126944380D01*
X99679047Y-126944380D02*
X99679047Y-125944380D01*
X100060000Y-125944380D01*
X100155238Y-125992000D01*
X100202857Y-126039619D01*
X100250476Y-126134857D01*
X100250476Y-126277714D01*
X100202857Y-126372952D01*
X100155238Y-126420571D01*
X100060000Y-126468190D01*
X99679047Y-126468190D01*
X100679047Y-126944380D02*
X100679047Y-126277714D01*
X100679047Y-125944380D02*
X100631428Y-125992000D01*
X100679047Y-126039619D01*
X100726666Y-125992000D01*
X100679047Y-125944380D01*
X100679047Y-126039619D01*
X85883714Y-165044380D02*
X85312285Y-165044380D01*
X85598000Y-165044380D02*
X85598000Y-164044380D01*
X85502761Y-164187238D01*
X85407523Y-164282476D01*
X85312285Y-164330095D01*
X77549523Y-149947380D02*
X77882857Y-150947380D01*
X78216190Y-149947380D01*
X78978095Y-150899761D02*
X78882857Y-150947380D01*
X78692380Y-150947380D01*
X78597142Y-150899761D01*
X78549523Y-150852142D01*
X78501904Y-150756904D01*
X78501904Y-150471190D01*
X78549523Y-150375952D01*
X78597142Y-150328333D01*
X78692380Y-150280714D01*
X78882857Y-150280714D01*
X78978095Y-150328333D01*
X79835238Y-150899761D02*
X79740000Y-150947380D01*
X79549523Y-150947380D01*
X79454285Y-150899761D01*
X79406666Y-150852142D01*
X79359047Y-150756904D01*
X79359047Y-150471190D01*
X79406666Y-150375952D01*
X79454285Y-150328333D01*
X79549523Y-150280714D01*
X79740000Y-150280714D01*
X79835238Y-150328333D01*
X121586857Y-158127571D02*
X121253523Y-158127571D01*
X121253523Y-158651380D02*
X121253523Y-157651380D01*
X121729714Y-157651380D01*
X122253523Y-158651380D02*
X122158285Y-158603761D01*
X122110666Y-158508523D01*
X122110666Y-157651380D01*
X122777333Y-158651380D02*
X122682095Y-158603761D01*
X122634476Y-158556142D01*
X122586857Y-158460904D01*
X122586857Y-158175190D01*
X122634476Y-158079952D01*
X122682095Y-158032333D01*
X122777333Y-157984714D01*
X122920190Y-157984714D01*
X123015428Y-158032333D01*
X123063047Y-158079952D01*
X123110666Y-158175190D01*
X123110666Y-158460904D01*
X123063047Y-158556142D01*
X123015428Y-158603761D01*
X122920190Y-158651380D01*
X122777333Y-158651380D01*
X123539238Y-157984714D02*
X123539238Y-158984714D01*
X123539238Y-158032333D02*
X123634476Y-157984714D01*
X123824952Y-157984714D01*
X123920190Y-158032333D01*
X123967809Y-158079952D01*
X124015428Y-158175190D01*
X124015428Y-158460904D01*
X123967809Y-158556142D01*
X123920190Y-158603761D01*
X123824952Y-158651380D01*
X123634476Y-158651380D01*
X123539238Y-158603761D01*
X124444000Y-157984714D02*
X124444000Y-158984714D01*
X124444000Y-158032333D02*
X124539238Y-157984714D01*
X124729714Y-157984714D01*
X124824952Y-158032333D01*
X124872571Y-158079952D01*
X124920190Y-158175190D01*
X124920190Y-158460904D01*
X124872571Y-158556142D01*
X124824952Y-158603761D01*
X124729714Y-158651380D01*
X124539238Y-158651380D01*
X124444000Y-158603761D01*
X125253523Y-157984714D02*
X125491619Y-158651380D01*
X125729714Y-157984714D02*
X125491619Y-158651380D01*
X125396380Y-158889476D01*
X125348761Y-158937095D01*
X125253523Y-158984714D01*
X120491619Y-160166142D02*
X120444000Y-160213761D01*
X120301142Y-160261380D01*
X120205904Y-160261380D01*
X120063047Y-160213761D01*
X119967809Y-160118523D01*
X119920190Y-160023285D01*
X119872571Y-159832809D01*
X119872571Y-159689952D01*
X119920190Y-159499476D01*
X119967809Y-159404238D01*
X120063047Y-159309000D01*
X120205904Y-159261380D01*
X120301142Y-159261380D01*
X120444000Y-159309000D01*
X120491619Y-159356619D01*
X121063047Y-160261380D02*
X120967809Y-160213761D01*
X120920190Y-160166142D01*
X120872571Y-160070904D01*
X120872571Y-159785190D01*
X120920190Y-159689952D01*
X120967809Y-159642333D01*
X121063047Y-159594714D01*
X121205904Y-159594714D01*
X121301142Y-159642333D01*
X121348761Y-159689952D01*
X121396380Y-159785190D01*
X121396380Y-160070904D01*
X121348761Y-160166142D01*
X121301142Y-160213761D01*
X121205904Y-160261380D01*
X121063047Y-160261380D01*
X121824952Y-159594714D02*
X121824952Y-160261380D01*
X121824952Y-159689952D02*
X121872571Y-159642333D01*
X121967809Y-159594714D01*
X122110666Y-159594714D01*
X122205904Y-159642333D01*
X122253523Y-159737571D01*
X122253523Y-160261380D01*
X122729714Y-159594714D02*
X122729714Y-160261380D01*
X122729714Y-159689952D02*
X122777333Y-159642333D01*
X122872571Y-159594714D01*
X123015428Y-159594714D01*
X123110666Y-159642333D01*
X123158285Y-159737571D01*
X123158285Y-160261380D01*
X124015428Y-160213761D02*
X123920190Y-160261380D01*
X123729714Y-160261380D01*
X123634476Y-160213761D01*
X123586857Y-160118523D01*
X123586857Y-159737571D01*
X123634476Y-159642333D01*
X123729714Y-159594714D01*
X123920190Y-159594714D01*
X124015428Y-159642333D01*
X124063047Y-159737571D01*
X124063047Y-159832809D01*
X123586857Y-159928047D01*
X124920190Y-160213761D02*
X124824952Y-160261380D01*
X124634476Y-160261380D01*
X124539238Y-160213761D01*
X124491619Y-160166142D01*
X124444000Y-160070904D01*
X124444000Y-159785190D01*
X124491619Y-159689952D01*
X124539238Y-159642333D01*
X124634476Y-159594714D01*
X124824952Y-159594714D01*
X124920190Y-159642333D01*
X125205904Y-159594714D02*
X125586857Y-159594714D01*
X125348761Y-159261380D02*
X125348761Y-160118523D01*
X125396380Y-160213761D01*
X125491619Y-160261380D01*
X125586857Y-160261380D01*
X126063047Y-160261380D02*
X125967809Y-160213761D01*
X125920190Y-160166142D01*
X125872571Y-160070904D01*
X125872571Y-159785190D01*
X125920190Y-159689952D01*
X125967809Y-159642333D01*
X126063047Y-159594714D01*
X126205904Y-159594714D01*
X126301142Y-159642333D01*
X126348761Y-159689952D01*
X126396380Y-159785190D01*
X126396380Y-160070904D01*
X126348761Y-160166142D01*
X126301142Y-160213761D01*
X126205904Y-160261380D01*
X126063047Y-160261380D01*
X126824952Y-160261380D02*
X126824952Y-159594714D01*
X126824952Y-159785190D02*
X126872571Y-159689952D01*
X126920190Y-159642333D01*
X127015428Y-159594714D01*
X127110666Y-159594714D01*
X80573714Y-123086761D02*
X80716571Y-123134380D01*
X80954666Y-123134380D01*
X81049904Y-123086761D01*
X81097523Y-123039142D01*
X81145142Y-122943904D01*
X81145142Y-122848666D01*
X81097523Y-122753428D01*
X81049904Y-122705809D01*
X80954666Y-122658190D01*
X80764190Y-122610571D01*
X80668952Y-122562952D01*
X80621333Y-122515333D01*
X80573714Y-122420095D01*
X80573714Y-122324857D01*
X80621333Y-122229619D01*
X80668952Y-122182000D01*
X80764190Y-122134380D01*
X81002285Y-122134380D01*
X81145142Y-122182000D01*
X81573714Y-123134380D02*
X81573714Y-122134380D01*
X81811809Y-122134380D01*
X81954666Y-122182000D01*
X82049904Y-122277238D01*
X82097523Y-122372476D01*
X82145142Y-122562952D01*
X82145142Y-122705809D01*
X82097523Y-122896285D01*
X82049904Y-122991523D01*
X81954666Y-123086761D01*
X81811809Y-123134380D01*
X81573714Y-123134380D01*
X82526095Y-122848666D02*
X83002285Y-122848666D01*
X82430857Y-123134380D02*
X82764190Y-122134380D01*
X83097523Y-123134380D01*
D11*
X116663690Y-156491523D02*
X116663690Y-156777238D01*
X116663690Y-156634380D02*
X116163690Y-156634380D01*
X116235119Y-156682000D01*
X116282738Y-156729619D01*
X116306547Y-156777238D01*
X116330357Y-155967714D02*
X116330357Y-155777238D01*
X116663690Y-155896285D02*
X116235119Y-155896285D01*
X116187500Y-155872476D01*
X116163690Y-155824857D01*
X116163690Y-155777238D01*
X116663690Y-155539142D02*
X116639880Y-155586761D01*
X116616071Y-155610571D01*
X116568452Y-155634380D01*
X116425595Y-155634380D01*
X116377976Y-155610571D01*
X116354166Y-155586761D01*
X116330357Y-155539142D01*
X116330357Y-155467714D01*
X116354166Y-155420095D01*
X116377976Y-155396285D01*
X116425595Y-155372476D01*
X116568452Y-155372476D01*
X116616071Y-155396285D01*
X116639880Y-155420095D01*
X116663690Y-155467714D01*
X116663690Y-155539142D01*
X116663690Y-155158190D02*
X116330357Y-155158190D01*
X116425595Y-155158190D02*
X116377976Y-155134380D01*
X116354166Y-155110571D01*
X116330357Y-155062952D01*
X116330357Y-155015333D01*
X116330357Y-154467714D02*
X116663690Y-154467714D01*
X116377976Y-154467714D02*
X116354166Y-154443904D01*
X116330357Y-154396285D01*
X116330357Y-154324857D01*
X116354166Y-154277238D01*
X116401785Y-154253428D01*
X116663690Y-154253428D01*
X116663690Y-153943904D02*
X116639880Y-153991523D01*
X116616071Y-154015333D01*
X116568452Y-154039142D01*
X116425595Y-154039142D01*
X116377976Y-154015333D01*
X116354166Y-153991523D01*
X116330357Y-153943904D01*
X116330357Y-153872476D01*
X116354166Y-153824857D01*
X116377976Y-153801047D01*
X116425595Y-153777238D01*
X116568452Y-153777238D01*
X116616071Y-153801047D01*
X116639880Y-153824857D01*
X116663690Y-153872476D01*
X116663690Y-153943904D01*
X116663690Y-153562952D02*
X116330357Y-153562952D01*
X116425595Y-153562952D02*
X116377976Y-153539142D01*
X116354166Y-153515333D01*
X116330357Y-153467714D01*
X116330357Y-153420095D01*
X116663690Y-153253428D02*
X116330357Y-153253428D01*
X116377976Y-153253428D02*
X116354166Y-153229619D01*
X116330357Y-153182000D01*
X116330357Y-153110571D01*
X116354166Y-153062952D01*
X116401785Y-153039142D01*
X116663690Y-153039142D01*
X116401785Y-153039142D02*
X116354166Y-153015333D01*
X116330357Y-152967714D01*
X116330357Y-152896285D01*
X116354166Y-152848666D01*
X116401785Y-152824857D01*
X116663690Y-152824857D01*
X116663690Y-152372476D02*
X116401785Y-152372476D01*
X116354166Y-152396285D01*
X116330357Y-152443904D01*
X116330357Y-152539142D01*
X116354166Y-152586761D01*
X116639880Y-152372476D02*
X116663690Y-152420095D01*
X116663690Y-152539142D01*
X116639880Y-152586761D01*
X116592261Y-152610571D01*
X116544642Y-152610571D01*
X116497023Y-152586761D01*
X116473214Y-152539142D01*
X116473214Y-152420095D01*
X116449404Y-152372476D01*
X116663690Y-152062952D02*
X116639880Y-152110571D01*
X116592261Y-152134380D01*
X116163690Y-152134380D01*
X116968690Y-159372476D02*
X116968690Y-159062952D01*
X117159166Y-159229619D01*
X117159166Y-159158190D01*
X117182976Y-159110571D01*
X117206785Y-159086761D01*
X117254404Y-159062952D01*
X117373452Y-159062952D01*
X117421071Y-159086761D01*
X117444880Y-159110571D01*
X117468690Y-159158190D01*
X117468690Y-159301047D01*
X117444880Y-159348666D01*
X117421071Y-159372476D01*
X117135357Y-158539142D02*
X117135357Y-158348666D01*
X116968690Y-158467714D02*
X117397261Y-158467714D01*
X117444880Y-158443904D01*
X117468690Y-158396285D01*
X117468690Y-158348666D01*
X117468690Y-158110571D02*
X117444880Y-158158190D01*
X117421071Y-158182000D01*
X117373452Y-158205809D01*
X117230595Y-158205809D01*
X117182976Y-158182000D01*
X117159166Y-158158190D01*
X117135357Y-158110571D01*
X117135357Y-158039142D01*
X117159166Y-157991523D01*
X117182976Y-157967714D01*
X117230595Y-157943904D01*
X117373452Y-157943904D01*
X117421071Y-157967714D01*
X117444880Y-157991523D01*
X117468690Y-158039142D01*
X117468690Y-158110571D01*
X117468690Y-157348666D02*
X117135357Y-157348666D01*
X116968690Y-157348666D02*
X116992500Y-157372476D01*
X117016309Y-157348666D01*
X116992500Y-157324857D01*
X116968690Y-157348666D01*
X117016309Y-157348666D01*
X117135357Y-157110571D02*
X117468690Y-157110571D01*
X117182976Y-157110571D02*
X117159166Y-157086761D01*
X117135357Y-157039142D01*
X117135357Y-156967714D01*
X117159166Y-156920095D01*
X117206785Y-156896285D01*
X117468690Y-156896285D01*
X117135357Y-156705809D02*
X117468690Y-156586761D01*
X117135357Y-156467714D01*
X117444880Y-156086761D02*
X117468690Y-156134380D01*
X117468690Y-156229619D01*
X117444880Y-156277238D01*
X117397261Y-156301047D01*
X117206785Y-156301047D01*
X117159166Y-156277238D01*
X117135357Y-156229619D01*
X117135357Y-156134380D01*
X117159166Y-156086761D01*
X117206785Y-156062952D01*
X117254404Y-156062952D01*
X117302023Y-156301047D01*
X117468690Y-155848666D02*
X117135357Y-155848666D01*
X117230595Y-155848666D02*
X117182976Y-155824857D01*
X117159166Y-155801047D01*
X117135357Y-155753428D01*
X117135357Y-155705809D01*
X117135357Y-155610571D02*
X117135357Y-155420095D01*
X116968690Y-155539142D02*
X117397261Y-155539142D01*
X117444880Y-155515333D01*
X117468690Y-155467714D01*
X117468690Y-155420095D01*
X117468690Y-154658190D02*
X116968690Y-154658190D01*
X117444880Y-154658190D02*
X117468690Y-154705809D01*
X117468690Y-154801047D01*
X117444880Y-154848666D01*
X117421071Y-154872476D01*
X117373452Y-154896285D01*
X117230595Y-154896285D01*
X117182976Y-154872476D01*
X117159166Y-154848666D01*
X117135357Y-154801047D01*
X117135357Y-154705809D01*
X117159166Y-154658190D01*
X117468690Y-154420095D02*
X117135357Y-154420095D01*
X117230595Y-154420095D02*
X117182976Y-154396285D01*
X117159166Y-154372476D01*
X117135357Y-154324857D01*
X117135357Y-154277238D01*
X117468690Y-154110571D02*
X117135357Y-154110571D01*
X116968690Y-154110571D02*
X116992500Y-154134380D01*
X117016309Y-154110571D01*
X116992500Y-154086761D01*
X116968690Y-154110571D01*
X117016309Y-154110571D01*
X117135357Y-153920095D02*
X117468690Y-153801047D01*
X117135357Y-153682000D01*
X117444880Y-153301047D02*
X117468690Y-153348666D01*
X117468690Y-153443904D01*
X117444880Y-153491523D01*
X117397261Y-153515333D01*
X117206785Y-153515333D01*
X117159166Y-153491523D01*
X117135357Y-153443904D01*
X117135357Y-153348666D01*
X117159166Y-153301047D01*
X117206785Y-153277238D01*
X117254404Y-153277238D01*
X117302023Y-153515333D01*
X117444880Y-152705809D02*
X117468690Y-152658190D01*
X117468690Y-152562952D01*
X117444880Y-152515333D01*
X117397261Y-152491523D01*
X117373452Y-152491523D01*
X117325833Y-152515333D01*
X117302023Y-152562952D01*
X117302023Y-152634380D01*
X117278214Y-152682000D01*
X117230595Y-152705809D01*
X117206785Y-152705809D01*
X117159166Y-152682000D01*
X117135357Y-152634380D01*
X117135357Y-152562952D01*
X117159166Y-152515333D01*
X117444880Y-152086761D02*
X117468690Y-152134380D01*
X117468690Y-152229619D01*
X117444880Y-152277238D01*
X117397261Y-152301047D01*
X117206785Y-152301047D01*
X117159166Y-152277238D01*
X117135357Y-152229619D01*
X117135357Y-152134380D01*
X117159166Y-152086761D01*
X117206785Y-152062952D01*
X117254404Y-152062952D01*
X117302023Y-152301047D01*
X117468690Y-151777238D02*
X117444880Y-151824857D01*
X117397261Y-151848666D01*
X116968690Y-151848666D01*
X117444880Y-151396285D02*
X117468690Y-151443904D01*
X117468690Y-151539142D01*
X117444880Y-151586761D01*
X117397261Y-151610571D01*
X117206785Y-151610571D01*
X117159166Y-151586761D01*
X117135357Y-151539142D01*
X117135357Y-151443904D01*
X117159166Y-151396285D01*
X117206785Y-151372476D01*
X117254404Y-151372476D01*
X117302023Y-151610571D01*
X117444880Y-150943904D02*
X117468690Y-150991523D01*
X117468690Y-151086761D01*
X117444880Y-151134380D01*
X117421071Y-151158190D01*
X117373452Y-151182000D01*
X117230595Y-151182000D01*
X117182976Y-151158190D01*
X117159166Y-151134380D01*
X117135357Y-151086761D01*
X117135357Y-150991523D01*
X117159166Y-150943904D01*
X117135357Y-150801047D02*
X117135357Y-150610571D01*
X116968690Y-150729619D02*
X117397261Y-150729619D01*
X117444880Y-150705809D01*
X117468690Y-150658190D01*
X117468690Y-150610571D01*
X117468690Y-150443904D02*
X117135357Y-150443904D01*
X116968690Y-150443904D02*
X116992500Y-150467714D01*
X117016309Y-150443904D01*
X116992500Y-150420095D01*
X116968690Y-150443904D01*
X117016309Y-150443904D01*
X117468690Y-150134380D02*
X117444880Y-150182000D01*
X117421071Y-150205809D01*
X117373452Y-150229619D01*
X117230595Y-150229619D01*
X117182976Y-150205809D01*
X117159166Y-150182000D01*
X117135357Y-150134380D01*
X117135357Y-150062952D01*
X117159166Y-150015333D01*
X117182976Y-149991523D01*
X117230595Y-149967714D01*
X117373452Y-149967714D01*
X117421071Y-149991523D01*
X117444880Y-150015333D01*
X117468690Y-150062952D01*
X117468690Y-150134380D01*
X117135357Y-149753428D02*
X117468690Y-149753428D01*
X117182976Y-149753428D02*
X117159166Y-149729619D01*
X117135357Y-149682000D01*
X117135357Y-149610571D01*
X117159166Y-149562952D01*
X117206785Y-149539142D01*
X117468690Y-149539142D01*
D10*
X116530380Y-123197809D02*
X115530380Y-123197809D01*
X116530380Y-122150190D02*
X116054190Y-122483523D01*
X116530380Y-122721619D02*
X115530380Y-122721619D01*
X115530380Y-122340666D01*
X115578000Y-122245428D01*
X115625619Y-122197809D01*
X115720857Y-122150190D01*
X115863714Y-122150190D01*
X115958952Y-122197809D01*
X116006571Y-122245428D01*
X116054190Y-122340666D01*
X116054190Y-122721619D01*
X116625619Y-121054952D02*
X116578000Y-121150190D01*
X116482761Y-121245428D01*
X116339904Y-121388285D01*
X116292285Y-121483523D01*
X116292285Y-121578761D01*
X116530380Y-121531142D02*
X116482761Y-121626380D01*
X116387523Y-121721619D01*
X116197047Y-121769238D01*
X115863714Y-121769238D01*
X115673238Y-121721619D01*
X115578000Y-121626380D01*
X115530380Y-121531142D01*
X115530380Y-121340666D01*
X115578000Y-121245428D01*
X115673238Y-121150190D01*
X115863714Y-121102571D01*
X116197047Y-121102571D01*
X116387523Y-121150190D01*
X116482761Y-121245428D01*
X116530380Y-121340666D01*
X116530380Y-121531142D01*
D11*
X95650857Y-159305333D02*
X95650857Y-159114857D01*
X95484190Y-159233904D02*
X95912761Y-159233904D01*
X95960380Y-159210095D01*
X95984190Y-159162476D01*
X95984190Y-159114857D01*
X95984190Y-158876761D02*
X95960380Y-158924380D01*
X95936571Y-158948190D01*
X95888952Y-158972000D01*
X95746095Y-158972000D01*
X95698476Y-158948190D01*
X95674666Y-158924380D01*
X95650857Y-158876761D01*
X95650857Y-158805333D01*
X95674666Y-158757714D01*
X95698476Y-158733904D01*
X95746095Y-158710095D01*
X95888952Y-158710095D01*
X95936571Y-158733904D01*
X95960380Y-158757714D01*
X95984190Y-158805333D01*
X95984190Y-158876761D01*
X95960380Y-157900571D02*
X95984190Y-157948190D01*
X95984190Y-158043428D01*
X95960380Y-158091047D01*
X95936571Y-158114857D01*
X95888952Y-158138666D01*
X95746095Y-158138666D01*
X95698476Y-158114857D01*
X95674666Y-158091047D01*
X95650857Y-158043428D01*
X95650857Y-157948190D01*
X95674666Y-157900571D01*
X95984190Y-157614857D02*
X95960380Y-157662476D01*
X95936571Y-157686285D01*
X95888952Y-157710095D01*
X95746095Y-157710095D01*
X95698476Y-157686285D01*
X95674666Y-157662476D01*
X95650857Y-157614857D01*
X95650857Y-157543428D01*
X95674666Y-157495809D01*
X95698476Y-157472000D01*
X95746095Y-157448190D01*
X95888952Y-157448190D01*
X95936571Y-157472000D01*
X95960380Y-157495809D01*
X95984190Y-157543428D01*
X95984190Y-157614857D01*
X95650857Y-157233904D02*
X95984190Y-157233904D01*
X95698476Y-157233904D02*
X95674666Y-157210095D01*
X95650857Y-157162476D01*
X95650857Y-157091047D01*
X95674666Y-157043428D01*
X95722285Y-157019619D01*
X95984190Y-157019619D01*
X95650857Y-156852952D02*
X95650857Y-156662476D01*
X95484190Y-156781523D02*
X95912761Y-156781523D01*
X95960380Y-156757714D01*
X95984190Y-156710095D01*
X95984190Y-156662476D01*
X95984190Y-156495809D02*
X95650857Y-156495809D01*
X95746095Y-156495809D02*
X95698476Y-156472000D01*
X95674666Y-156448190D01*
X95650857Y-156400571D01*
X95650857Y-156352952D01*
X95984190Y-156114857D02*
X95960380Y-156162476D01*
X95936571Y-156186285D01*
X95888952Y-156210095D01*
X95746095Y-156210095D01*
X95698476Y-156186285D01*
X95674666Y-156162476D01*
X95650857Y-156114857D01*
X95650857Y-156043428D01*
X95674666Y-155995809D01*
X95698476Y-155972000D01*
X95746095Y-155948190D01*
X95888952Y-155948190D01*
X95936571Y-155972000D01*
X95960380Y-155995809D01*
X95984190Y-156043428D01*
X95984190Y-156114857D01*
X95984190Y-155662476D02*
X95960380Y-155710095D01*
X95912761Y-155733904D01*
X95484190Y-155733904D01*
X95984190Y-155400571D02*
X95960380Y-155448190D01*
X95912761Y-155472000D01*
X95484190Y-155472000D01*
X95960380Y-155019619D02*
X95984190Y-155067238D01*
X95984190Y-155162476D01*
X95960380Y-155210095D01*
X95912761Y-155233904D01*
X95722285Y-155233904D01*
X95674666Y-155210095D01*
X95650857Y-155162476D01*
X95650857Y-155067238D01*
X95674666Y-155019619D01*
X95722285Y-154995809D01*
X95769904Y-154995809D01*
X95817523Y-155233904D01*
X95984190Y-154781523D02*
X95650857Y-154781523D01*
X95746095Y-154781523D02*
X95698476Y-154757714D01*
X95674666Y-154733904D01*
X95650857Y-154686285D01*
X95650857Y-154638666D01*
D10*
X115006380Y-123689904D02*
X114006380Y-123689904D01*
X114006380Y-123451809D01*
X114054000Y-123308952D01*
X114149238Y-123213714D01*
X114244476Y-123166095D01*
X114434952Y-123118476D01*
X114577809Y-123118476D01*
X114768285Y-123166095D01*
X114863523Y-123213714D01*
X114958761Y-123308952D01*
X115006380Y-123451809D01*
X115006380Y-123689904D01*
X115006380Y-122689904D02*
X114006380Y-122689904D01*
X114720666Y-122356571D01*
X114006380Y-122023238D01*
X115006380Y-122023238D01*
X114720666Y-121594666D02*
X114720666Y-121118476D01*
X115006380Y-121689904D02*
X114006380Y-121356571D01*
X115006380Y-121023238D01*
X137358380Y-153891142D02*
X136834571Y-153891142D01*
X136739333Y-153938761D01*
X136691714Y-154034000D01*
X136691714Y-154224476D01*
X136739333Y-154319714D01*
X137310761Y-153891142D02*
X137358380Y-153986380D01*
X137358380Y-154224476D01*
X137310761Y-154319714D01*
X137215523Y-154367333D01*
X137120285Y-154367333D01*
X137025047Y-154319714D01*
X136977428Y-154224476D01*
X136977428Y-153986380D01*
X136929809Y-153891142D01*
X137358380Y-153414952D02*
X136358380Y-153414952D01*
X136739333Y-153414952D02*
X136691714Y-153319714D01*
X136691714Y-153129238D01*
X136739333Y-153034000D01*
X136786952Y-152986380D01*
X136882190Y-152938761D01*
X137167904Y-152938761D01*
X137263142Y-152986380D01*
X137310761Y-153034000D01*
X137358380Y-153129238D01*
X137358380Y-153319714D01*
X137310761Y-153414952D01*
X136691714Y-152605428D02*
X136691714Y-152081619D01*
X137358380Y-152605428D01*
X137358380Y-152081619D01*
X137358380Y-151700666D02*
X136691714Y-151700666D01*
X136786952Y-151700666D02*
X136739333Y-151653047D01*
X136691714Y-151557809D01*
X136691714Y-151414952D01*
X136739333Y-151319714D01*
X136834571Y-151272095D01*
X137358380Y-151272095D01*
X136834571Y-151272095D02*
X136739333Y-151224476D01*
X136691714Y-151129238D01*
X136691714Y-150986380D01*
X136739333Y-150891142D01*
X136834571Y-150843523D01*
X137358380Y-150843523D01*
X137358380Y-149938761D02*
X136834571Y-149938761D01*
X136739333Y-149986380D01*
X136691714Y-150081619D01*
X136691714Y-150272095D01*
X136739333Y-150367333D01*
X137310761Y-149938761D02*
X137358380Y-150034000D01*
X137358380Y-150272095D01*
X137310761Y-150367333D01*
X137215523Y-150414952D01*
X137120285Y-150414952D01*
X137025047Y-150367333D01*
X136977428Y-150272095D01*
X136977428Y-150034000D01*
X136929809Y-149938761D01*
X136691714Y-149462571D02*
X137358380Y-149462571D01*
X136786952Y-149462571D02*
X136739333Y-149414952D01*
X136691714Y-149319714D01*
X136691714Y-149176857D01*
X136739333Y-149081619D01*
X136834571Y-149034000D01*
X137358380Y-149034000D01*
X136453619Y-148605428D02*
X136406000Y-148557809D01*
X136358380Y-148462571D01*
X136358380Y-148224476D01*
X136406000Y-148129238D01*
X136453619Y-148081619D01*
X136548857Y-148034000D01*
X136644095Y-148034000D01*
X136786952Y-148081619D01*
X137358380Y-148653047D01*
X137358380Y-148034000D01*
X137358380Y-147605428D02*
X136358380Y-147605428D01*
X136977428Y-147510190D02*
X137358380Y-147224476D01*
X136691714Y-147224476D02*
X137072666Y-147605428D01*
X137263142Y-146795904D02*
X137310761Y-146748285D01*
X137358380Y-146795904D01*
X137310761Y-146843523D01*
X137263142Y-146795904D01*
X137358380Y-146795904D01*
X136691714Y-146414952D02*
X137358380Y-146224476D01*
X136882190Y-146034000D01*
X137358380Y-145843523D01*
X136691714Y-145653047D01*
X137358380Y-145129238D02*
X137310761Y-145224476D01*
X137263142Y-145272095D01*
X137167904Y-145319714D01*
X136882190Y-145319714D01*
X136786952Y-145272095D01*
X136739333Y-145224476D01*
X136691714Y-145129238D01*
X136691714Y-144986380D01*
X136739333Y-144891142D01*
X136786952Y-144843523D01*
X136882190Y-144795904D01*
X137167904Y-144795904D01*
X137263142Y-144843523D01*
X137310761Y-144891142D01*
X137358380Y-144986380D01*
X137358380Y-145129238D01*
X137358380Y-144367333D02*
X136691714Y-144367333D01*
X136882190Y-144367333D02*
X136786952Y-144319714D01*
X136739333Y-144272095D01*
X136691714Y-144176857D01*
X136691714Y-144081619D01*
X137358380Y-143319714D02*
X136358380Y-143319714D01*
X137310761Y-143319714D02*
X137358380Y-143414952D01*
X137358380Y-143605428D01*
X137310761Y-143700666D01*
X137263142Y-143748285D01*
X137167904Y-143795904D01*
X136882190Y-143795904D01*
X136786952Y-143748285D01*
X136739333Y-143700666D01*
X136691714Y-143605428D01*
X136691714Y-143414952D01*
X136739333Y-143319714D01*
X136691714Y-142843523D02*
X137691714Y-142843523D01*
X136739333Y-142843523D02*
X136691714Y-142748285D01*
X136691714Y-142557809D01*
X136739333Y-142462571D01*
X136786952Y-142414952D01*
X136882190Y-142367333D01*
X137167904Y-142367333D01*
X137263142Y-142414952D01*
X137310761Y-142462571D01*
X137358380Y-142557809D01*
X137358380Y-142748285D01*
X137310761Y-142843523D01*
X137358380Y-141938761D02*
X136691714Y-141938761D01*
X136882190Y-141938761D02*
X136786952Y-141891142D01*
X136739333Y-141843523D01*
X136691714Y-141748285D01*
X136691714Y-141653047D01*
X137310761Y-140938761D02*
X137358380Y-141034000D01*
X137358380Y-141224476D01*
X137310761Y-141319714D01*
X137215523Y-141367333D01*
X136834571Y-141367333D01*
X136739333Y-141319714D01*
X136691714Y-141224476D01*
X136691714Y-141034000D01*
X136739333Y-140938761D01*
X136834571Y-140891142D01*
X136929809Y-140891142D01*
X137025047Y-141367333D01*
X137310761Y-140510190D02*
X137358380Y-140414952D01*
X137358380Y-140224476D01*
X137310761Y-140129238D01*
X137215523Y-140081619D01*
X137167904Y-140081619D01*
X137072666Y-140129238D01*
X137025047Y-140224476D01*
X137025047Y-140367333D01*
X136977428Y-140462571D01*
X136882190Y-140510190D01*
X136834571Y-140510190D01*
X136739333Y-140462571D01*
X136691714Y-140367333D01*
X136691714Y-140224476D01*
X136739333Y-140129238D01*
X137310761Y-139700666D02*
X137358380Y-139605428D01*
X137358380Y-139414952D01*
X137310761Y-139319714D01*
X137215523Y-139272095D01*
X137167904Y-139272095D01*
X137072666Y-139319714D01*
X137025047Y-139414952D01*
X137025047Y-139557809D01*
X136977428Y-139653047D01*
X136882190Y-139700666D01*
X136834571Y-139700666D01*
X136739333Y-139653047D01*
X136691714Y-139557809D01*
X136691714Y-139414952D01*
X136739333Y-139319714D01*
X137263142Y-138843523D02*
X137310761Y-138795904D01*
X137358380Y-138843523D01*
X137310761Y-138891142D01*
X137263142Y-138843523D01*
X137358380Y-138843523D01*
X137310761Y-137938761D02*
X137358380Y-138034000D01*
X137358380Y-138224476D01*
X137310761Y-138319714D01*
X137263142Y-138367333D01*
X137167904Y-138414952D01*
X136882190Y-138414952D01*
X136786952Y-138367333D01*
X136739333Y-138319714D01*
X136691714Y-138224476D01*
X136691714Y-138034000D01*
X136739333Y-137938761D01*
X137358380Y-137367333D02*
X137310761Y-137462571D01*
X137263142Y-137510190D01*
X137167904Y-137557809D01*
X136882190Y-137557809D01*
X136786952Y-137510190D01*
X136739333Y-137462571D01*
X136691714Y-137367333D01*
X136691714Y-137224476D01*
X136739333Y-137129238D01*
X136786952Y-137081619D01*
X136882190Y-137034000D01*
X137167904Y-137034000D01*
X137263142Y-137081619D01*
X137310761Y-137129238D01*
X137358380Y-137224476D01*
X137358380Y-137367333D01*
X137358380Y-136605428D02*
X136691714Y-136605428D01*
X136786952Y-136605428D02*
X136739333Y-136557809D01*
X136691714Y-136462571D01*
X136691714Y-136319714D01*
X136739333Y-136224476D01*
X136834571Y-136176857D01*
X137358380Y-136176857D01*
X136834571Y-136176857D02*
X136739333Y-136129238D01*
X136691714Y-136034000D01*
X136691714Y-135891142D01*
X136739333Y-135795904D01*
X136834571Y-135748285D01*
X137358380Y-135748285D01*
X132627714Y-160622666D02*
X132627714Y-160241714D01*
X132294380Y-160479809D02*
X133151523Y-160479809D01*
X133246761Y-160432190D01*
X133294380Y-160336952D01*
X133294380Y-160241714D01*
X133294380Y-159765523D02*
X133246761Y-159860761D01*
X133199142Y-159908380D01*
X133103904Y-159956000D01*
X132818190Y-159956000D01*
X132722952Y-159908380D01*
X132675333Y-159860761D01*
X132627714Y-159765523D01*
X132627714Y-159622666D01*
X132675333Y-159527428D01*
X132722952Y-159479809D01*
X132818190Y-159432190D01*
X133103904Y-159432190D01*
X133199142Y-159479809D01*
X133246761Y-159527428D01*
X133294380Y-159622666D01*
X133294380Y-159765523D01*
X133246761Y-157813142D02*
X133294380Y-157908380D01*
X133294380Y-158098857D01*
X133246761Y-158194095D01*
X133199142Y-158241714D01*
X133103904Y-158289333D01*
X132818190Y-158289333D01*
X132722952Y-158241714D01*
X132675333Y-158194095D01*
X132627714Y-158098857D01*
X132627714Y-157908380D01*
X132675333Y-157813142D01*
X133294380Y-157241714D02*
X133246761Y-157336952D01*
X133199142Y-157384571D01*
X133103904Y-157432190D01*
X132818190Y-157432190D01*
X132722952Y-157384571D01*
X132675333Y-157336952D01*
X132627714Y-157241714D01*
X132627714Y-157098857D01*
X132675333Y-157003619D01*
X132722952Y-156956000D01*
X132818190Y-156908380D01*
X133103904Y-156908380D01*
X133199142Y-156956000D01*
X133246761Y-157003619D01*
X133294380Y-157098857D01*
X133294380Y-157241714D01*
X132627714Y-156479809D02*
X133294380Y-156479809D01*
X132722952Y-156479809D02*
X132675333Y-156432190D01*
X132627714Y-156336952D01*
X132627714Y-156194095D01*
X132675333Y-156098857D01*
X132770571Y-156051238D01*
X133294380Y-156051238D01*
X132627714Y-155717904D02*
X132627714Y-155336952D01*
X132294380Y-155575047D02*
X133151523Y-155575047D01*
X133246761Y-155527428D01*
X133294380Y-155432190D01*
X133294380Y-155336952D01*
X133294380Y-155003619D02*
X132627714Y-155003619D01*
X132818190Y-155003619D02*
X132722952Y-154956000D01*
X132675333Y-154908380D01*
X132627714Y-154813142D01*
X132627714Y-154717904D01*
X133294380Y-154241714D02*
X133246761Y-154336952D01*
X133199142Y-154384571D01*
X133103904Y-154432190D01*
X132818190Y-154432190D01*
X132722952Y-154384571D01*
X132675333Y-154336952D01*
X132627714Y-154241714D01*
X132627714Y-154098857D01*
X132675333Y-154003619D01*
X132722952Y-153956000D01*
X132818190Y-153908380D01*
X133103904Y-153908380D01*
X133199142Y-153956000D01*
X133246761Y-154003619D01*
X133294380Y-154098857D01*
X133294380Y-154241714D01*
X133294380Y-153336952D02*
X133246761Y-153432190D01*
X133151523Y-153479809D01*
X132294380Y-153479809D01*
X133294380Y-152813142D02*
X133246761Y-152908380D01*
X133151523Y-152956000D01*
X132294380Y-152956000D01*
X133246761Y-152051238D02*
X133294380Y-152146476D01*
X133294380Y-152336952D01*
X133246761Y-152432190D01*
X133151523Y-152479809D01*
X132770571Y-152479809D01*
X132675333Y-152432190D01*
X132627714Y-152336952D01*
X132627714Y-152146476D01*
X132675333Y-152051238D01*
X132770571Y-152003619D01*
X132865809Y-152003619D01*
X132961047Y-152479809D01*
X133294380Y-151575047D02*
X132627714Y-151575047D01*
X132818190Y-151575047D02*
X132722952Y-151527428D01*
X132675333Y-151479809D01*
X132627714Y-151384571D01*
X132627714Y-151289333D01*
X120603714Y-130412380D02*
X121603714Y-130412380D01*
X120651333Y-130412380D02*
X120603714Y-130317142D01*
X120603714Y-130126666D01*
X120651333Y-130031428D01*
X120698952Y-129983809D01*
X120794190Y-129936190D01*
X121079904Y-129936190D01*
X121175142Y-129983809D01*
X121222761Y-130031428D01*
X121270380Y-130126666D01*
X121270380Y-130317142D01*
X121222761Y-130412380D01*
X121270380Y-129364761D02*
X121222761Y-129460000D01*
X121175142Y-129507619D01*
X121079904Y-129555238D01*
X120794190Y-129555238D01*
X120698952Y-129507619D01*
X120651333Y-129460000D01*
X120603714Y-129364761D01*
X120603714Y-129221904D01*
X120651333Y-129126666D01*
X120698952Y-129079047D01*
X120794190Y-129031428D01*
X121079904Y-129031428D01*
X121175142Y-129079047D01*
X121222761Y-129126666D01*
X121270380Y-129221904D01*
X121270380Y-129364761D01*
X120603714Y-128602857D02*
X121603714Y-128602857D01*
X120651333Y-128602857D02*
X120603714Y-128507619D01*
X120603714Y-128317142D01*
X120651333Y-128221904D01*
X120698952Y-128174285D01*
X120794190Y-128126666D01*
X121079904Y-128126666D01*
X121175142Y-128174285D01*
X121222761Y-128221904D01*
X121270380Y-128317142D01*
X121270380Y-128507619D01*
X121222761Y-128602857D01*
X120603714Y-127269523D02*
X121270380Y-127269523D01*
X120603714Y-127698095D02*
X121127523Y-127698095D01*
X121222761Y-127650476D01*
X121270380Y-127555238D01*
X121270380Y-127412380D01*
X121222761Y-127317142D01*
X121175142Y-127269523D01*
X121270380Y-126650476D02*
X121222761Y-126745714D01*
X121127523Y-126793333D01*
X120270380Y-126793333D01*
X121270380Y-125840952D02*
X120746571Y-125840952D01*
X120651333Y-125888571D01*
X120603714Y-125983809D01*
X120603714Y-126174285D01*
X120651333Y-126269523D01*
X121222761Y-125840952D02*
X121270380Y-125936190D01*
X121270380Y-126174285D01*
X121222761Y-126269523D01*
X121127523Y-126317142D01*
X121032285Y-126317142D01*
X120937047Y-126269523D01*
X120889428Y-126174285D01*
X120889428Y-125936190D01*
X120841809Y-125840952D01*
X120603714Y-125507619D02*
X120603714Y-125126666D01*
X120270380Y-125364761D02*
X121127523Y-125364761D01*
X121222761Y-125317142D01*
X121270380Y-125221904D01*
X121270380Y-125126666D01*
X121222761Y-124412380D02*
X121270380Y-124507619D01*
X121270380Y-124698095D01*
X121222761Y-124793333D01*
X121127523Y-124840952D01*
X120746571Y-124840952D01*
X120651333Y-124793333D01*
X120603714Y-124698095D01*
X120603714Y-124507619D01*
X120651333Y-124412380D01*
X120746571Y-124364761D01*
X120841809Y-124364761D01*
X120937047Y-124840952D01*
X121270380Y-123174285D02*
X120270380Y-123174285D01*
X120270380Y-122936190D01*
X120318000Y-122793333D01*
X120413238Y-122698095D01*
X120508476Y-122650476D01*
X120698952Y-122602857D01*
X120841809Y-122602857D01*
X121032285Y-122650476D01*
X121127523Y-122698095D01*
X121222761Y-122793333D01*
X121270380Y-122936190D01*
X121270380Y-123174285D01*
X120270380Y-121983809D02*
X120270380Y-121888571D01*
X120318000Y-121793333D01*
X120365619Y-121745714D01*
X120460857Y-121698095D01*
X120651333Y-121650476D01*
X120889428Y-121650476D01*
X121079904Y-121698095D01*
X121175142Y-121745714D01*
X121222761Y-121793333D01*
X121270380Y-121888571D01*
X121270380Y-121983809D01*
X121222761Y-122079047D01*
X121175142Y-122126666D01*
X121079904Y-122174285D01*
X120889428Y-122221904D01*
X120651333Y-122221904D01*
X120460857Y-122174285D01*
X120365619Y-122126666D01*
X120318000Y-122079047D01*
X120270380Y-121983809D01*
X120889428Y-121221904D02*
X120889428Y-120460000D01*
X121270380Y-119983809D02*
X120270380Y-119983809D01*
X120270380Y-119745714D01*
X120318000Y-119602857D01*
X120413238Y-119507619D01*
X120508476Y-119460000D01*
X120698952Y-119412380D01*
X120841809Y-119412380D01*
X121032285Y-119460000D01*
X121127523Y-119507619D01*
X121222761Y-119602857D01*
X121270380Y-119745714D01*
X121270380Y-119983809D01*
X120270380Y-119079047D02*
X120270380Y-118412380D01*
X121270380Y-118840952D01*
X122213714Y-129150476D02*
X122880380Y-128960000D01*
X122404190Y-128769523D01*
X122880380Y-128579047D01*
X122213714Y-128388571D01*
X122880380Y-128007619D02*
X122213714Y-128007619D01*
X121880380Y-128007619D02*
X121928000Y-128055238D01*
X121975619Y-128007619D01*
X121928000Y-127960000D01*
X121880380Y-128007619D01*
X121975619Y-128007619D01*
X122213714Y-127674285D02*
X122213714Y-127293333D01*
X121880380Y-127531428D02*
X122737523Y-127531428D01*
X122832761Y-127483809D01*
X122880380Y-127388571D01*
X122880380Y-127293333D01*
X122880380Y-126960000D02*
X121880380Y-126960000D01*
X122880380Y-126531428D02*
X122356571Y-126531428D01*
X122261333Y-126579047D01*
X122213714Y-126674285D01*
X122213714Y-126817142D01*
X122261333Y-126912380D01*
X122308952Y-126960000D01*
X122213714Y-125293333D02*
X123070857Y-125293333D01*
X123166095Y-125340952D01*
X123213714Y-125436190D01*
X123213714Y-125483809D01*
X121880380Y-125293333D02*
X121928000Y-125340952D01*
X121975619Y-125293333D01*
X121928000Y-125245714D01*
X121880380Y-125293333D01*
X121975619Y-125293333D01*
X122213714Y-124388571D02*
X122880380Y-124388571D01*
X122213714Y-124817142D02*
X122737523Y-124817142D01*
X122832761Y-124769523D01*
X122880380Y-124674285D01*
X122880380Y-124531428D01*
X122832761Y-124436190D01*
X122785142Y-124388571D01*
X122880380Y-123912380D02*
X122213714Y-123912380D01*
X122308952Y-123912380D02*
X122261333Y-123864761D01*
X122213714Y-123769523D01*
X122213714Y-123626666D01*
X122261333Y-123531428D01*
X122356571Y-123483809D01*
X122880380Y-123483809D01*
X122356571Y-123483809D02*
X122261333Y-123436190D01*
X122213714Y-123340952D01*
X122213714Y-123198095D01*
X122261333Y-123102857D01*
X122356571Y-123055238D01*
X122880380Y-123055238D01*
X122213714Y-122579047D02*
X123213714Y-122579047D01*
X122261333Y-122579047D02*
X122213714Y-122483809D01*
X122213714Y-122293333D01*
X122261333Y-122198095D01*
X122308952Y-122150476D01*
X122404190Y-122102857D01*
X122689904Y-122102857D01*
X122785142Y-122150476D01*
X122832761Y-122198095D01*
X122880380Y-122293333D01*
X122880380Y-122483809D01*
X122832761Y-122579047D01*
X122832761Y-121293333D02*
X122880380Y-121388571D01*
X122880380Y-121579047D01*
X122832761Y-121674285D01*
X122737523Y-121721904D01*
X122356571Y-121721904D01*
X122261333Y-121674285D01*
X122213714Y-121579047D01*
X122213714Y-121388571D01*
X122261333Y-121293333D01*
X122356571Y-121245714D01*
X122451809Y-121245714D01*
X122547047Y-121721904D01*
X122880380Y-120817142D02*
X122213714Y-120817142D01*
X122404190Y-120817142D02*
X122308952Y-120769523D01*
X122261333Y-120721904D01*
X122213714Y-120626666D01*
X122213714Y-120531428D01*
X122832761Y-120245714D02*
X122880380Y-120150476D01*
X122880380Y-119960000D01*
X122832761Y-119864761D01*
X122737523Y-119817142D01*
X122689904Y-119817142D01*
X122594666Y-119864761D01*
X122547047Y-119960000D01*
X122547047Y-120102857D01*
X122499428Y-120198095D01*
X122404190Y-120245714D01*
X122356571Y-120245714D01*
X122261333Y-120198095D01*
X122213714Y-120102857D01*
X122213714Y-119960000D01*
X122261333Y-119864761D01*
X124490380Y-129721904D02*
X124442761Y-129817142D01*
X124395142Y-129864761D01*
X124299904Y-129912380D01*
X124014190Y-129912380D01*
X123918952Y-129864761D01*
X123871333Y-129817142D01*
X123823714Y-129721904D01*
X123823714Y-129579047D01*
X123871333Y-129483809D01*
X123918952Y-129436190D01*
X124014190Y-129388571D01*
X124299904Y-129388571D01*
X124395142Y-129436190D01*
X124442761Y-129483809D01*
X124490380Y-129579047D01*
X124490380Y-129721904D01*
X124490380Y-128960000D02*
X123823714Y-128960000D01*
X124014190Y-128960000D02*
X123918952Y-128912380D01*
X123871333Y-128864761D01*
X123823714Y-128769523D01*
X123823714Y-128674285D01*
X124490380Y-127055238D02*
X124490380Y-127626666D01*
X124490380Y-127340952D02*
X123490380Y-127340952D01*
X123633238Y-127436190D01*
X123728476Y-127531428D01*
X123776095Y-127626666D01*
X124490380Y-126626666D02*
X123490380Y-126626666D01*
X124109428Y-126531428D02*
X124490380Y-126245714D01*
X123823714Y-126245714D02*
X124204666Y-126626666D01*
X124490380Y-125055238D02*
X123823714Y-125055238D01*
X124014190Y-125055238D02*
X123918952Y-125007619D01*
X123871333Y-124960000D01*
X123823714Y-124864761D01*
X123823714Y-124769523D01*
X124442761Y-124055238D02*
X124490380Y-124150476D01*
X124490380Y-124340952D01*
X124442761Y-124436190D01*
X124347523Y-124483809D01*
X123966571Y-124483809D01*
X123871333Y-124436190D01*
X123823714Y-124340952D01*
X123823714Y-124150476D01*
X123871333Y-124055238D01*
X123966571Y-124007619D01*
X124061809Y-124007619D01*
X124157047Y-124483809D01*
X124442761Y-123626666D02*
X124490380Y-123531428D01*
X124490380Y-123340952D01*
X124442761Y-123245714D01*
X124347523Y-123198095D01*
X124299904Y-123198095D01*
X124204666Y-123245714D01*
X124157047Y-123340952D01*
X124157047Y-123483809D01*
X124109428Y-123579047D01*
X124014190Y-123626666D01*
X123966571Y-123626666D01*
X123871333Y-123579047D01*
X123823714Y-123483809D01*
X123823714Y-123340952D01*
X123871333Y-123245714D01*
X124490380Y-122769523D02*
X123823714Y-122769523D01*
X123490380Y-122769523D02*
X123538000Y-122817142D01*
X123585619Y-122769523D01*
X123538000Y-122721904D01*
X123490380Y-122769523D01*
X123585619Y-122769523D01*
X124442761Y-122340952D02*
X124490380Y-122245714D01*
X124490380Y-122055238D01*
X124442761Y-121960000D01*
X124347523Y-121912380D01*
X124299904Y-121912380D01*
X124204666Y-121960000D01*
X124157047Y-122055238D01*
X124157047Y-122198095D01*
X124109428Y-122293333D01*
X124014190Y-122340952D01*
X123966571Y-122340952D01*
X123871333Y-122293333D01*
X123823714Y-122198095D01*
X123823714Y-122055238D01*
X123871333Y-121960000D01*
X123823714Y-121626666D02*
X123823714Y-121245714D01*
X123490380Y-121483809D02*
X124347523Y-121483809D01*
X124442761Y-121436190D01*
X124490380Y-121340952D01*
X124490380Y-121245714D01*
X124490380Y-120769523D02*
X124442761Y-120864761D01*
X124395142Y-120912380D01*
X124299904Y-120960000D01*
X124014190Y-120960000D01*
X123918952Y-120912380D01*
X123871333Y-120864761D01*
X123823714Y-120769523D01*
X123823714Y-120626666D01*
X123871333Y-120531428D01*
X123918952Y-120483809D01*
X124014190Y-120436190D01*
X124299904Y-120436190D01*
X124395142Y-120483809D01*
X124442761Y-120531428D01*
X124490380Y-120626666D01*
X124490380Y-120769523D01*
X124490380Y-120007619D02*
X123823714Y-120007619D01*
X124014190Y-120007619D02*
X123918952Y-119960000D01*
X123871333Y-119912380D01*
X123823714Y-119817142D01*
X123823714Y-119721904D01*
X124442761Y-119436190D02*
X124490380Y-119340952D01*
X124490380Y-119150476D01*
X124442761Y-119055238D01*
X124347523Y-119007619D01*
X124299904Y-119007619D01*
X124204666Y-119055238D01*
X124157047Y-119150476D01*
X124157047Y-119293333D01*
X124109428Y-119388571D01*
X124014190Y-119436190D01*
X123966571Y-119436190D01*
X123871333Y-119388571D01*
X123823714Y-119293333D01*
X123823714Y-119150476D01*
X123871333Y-119055238D01*
X80597523Y-125626761D02*
X80740380Y-125674380D01*
X80978476Y-125674380D01*
X81073714Y-125626761D01*
X81121333Y-125579142D01*
X81168952Y-125483904D01*
X81168952Y-125388666D01*
X81121333Y-125293428D01*
X81073714Y-125245809D01*
X80978476Y-125198190D01*
X80788000Y-125150571D01*
X80692761Y-125102952D01*
X80645142Y-125055333D01*
X80597523Y-124960095D01*
X80597523Y-124864857D01*
X80645142Y-124769619D01*
X80692761Y-124722000D01*
X80788000Y-124674380D01*
X81026095Y-124674380D01*
X81168952Y-124722000D01*
X82168952Y-125579142D02*
X82121333Y-125626761D01*
X81978476Y-125674380D01*
X81883238Y-125674380D01*
X81740380Y-125626761D01*
X81645142Y-125531523D01*
X81597523Y-125436285D01*
X81549904Y-125245809D01*
X81549904Y-125102952D01*
X81597523Y-124912476D01*
X81645142Y-124817238D01*
X81740380Y-124722000D01*
X81883238Y-124674380D01*
X81978476Y-124674380D01*
X82121333Y-124722000D01*
X82168952Y-124769619D01*
X83073714Y-125674380D02*
X82597523Y-125674380D01*
X82597523Y-124674380D01*
X139390380Y-152898380D02*
X138914190Y-153231714D01*
X139390380Y-153469809D02*
X138390380Y-153469809D01*
X138390380Y-153088857D01*
X138438000Y-152993619D01*
X138485619Y-152946000D01*
X138580857Y-152898380D01*
X138723714Y-152898380D01*
X138818952Y-152946000D01*
X138866571Y-152993619D01*
X138914190Y-153088857D01*
X138914190Y-153469809D01*
X139390380Y-152041238D02*
X138866571Y-152041238D01*
X138771333Y-152088857D01*
X138723714Y-152184095D01*
X138723714Y-152374571D01*
X138771333Y-152469809D01*
X139342761Y-152041238D02*
X139390380Y-152136476D01*
X139390380Y-152374571D01*
X139342761Y-152469809D01*
X139247523Y-152517428D01*
X139152285Y-152517428D01*
X139057047Y-152469809D01*
X139009428Y-152374571D01*
X139009428Y-152136476D01*
X138961809Y-152041238D01*
X139342761Y-151612666D02*
X139390380Y-151517428D01*
X139390380Y-151326952D01*
X139342761Y-151231714D01*
X139247523Y-151184095D01*
X139199904Y-151184095D01*
X139104666Y-151231714D01*
X139057047Y-151326952D01*
X139057047Y-151469809D01*
X139009428Y-151565047D01*
X138914190Y-151612666D01*
X138866571Y-151612666D01*
X138771333Y-151565047D01*
X138723714Y-151469809D01*
X138723714Y-151326952D01*
X138771333Y-151231714D01*
X138723714Y-150755523D02*
X139723714Y-150755523D01*
X138771333Y-150755523D02*
X138723714Y-150660285D01*
X138723714Y-150469809D01*
X138771333Y-150374571D01*
X138818952Y-150326952D01*
X138914190Y-150279333D01*
X139199904Y-150279333D01*
X139295142Y-150326952D01*
X139342761Y-150374571D01*
X139390380Y-150469809D01*
X139390380Y-150660285D01*
X139342761Y-150755523D01*
X139390380Y-149850761D02*
X138390380Y-149850761D01*
X138771333Y-149850761D02*
X138723714Y-149755523D01*
X138723714Y-149565047D01*
X138771333Y-149469809D01*
X138818952Y-149422190D01*
X138914190Y-149374571D01*
X139199904Y-149374571D01*
X139295142Y-149422190D01*
X139342761Y-149469809D01*
X139390380Y-149565047D01*
X139390380Y-149755523D01*
X139342761Y-149850761D01*
X139342761Y-148565047D02*
X139390380Y-148660285D01*
X139390380Y-148850761D01*
X139342761Y-148946000D01*
X139247523Y-148993619D01*
X138866571Y-148993619D01*
X138771333Y-148946000D01*
X138723714Y-148850761D01*
X138723714Y-148660285D01*
X138771333Y-148565047D01*
X138866571Y-148517428D01*
X138961809Y-148517428D01*
X139057047Y-148993619D01*
X139390380Y-148088857D02*
X138723714Y-148088857D01*
X138914190Y-148088857D02*
X138818952Y-148041238D01*
X138771333Y-147993619D01*
X138723714Y-147898380D01*
X138723714Y-147803142D01*
X139390380Y-147469809D02*
X138723714Y-147469809D01*
X138914190Y-147469809D02*
X138818952Y-147422190D01*
X138771333Y-147374571D01*
X138723714Y-147279333D01*
X138723714Y-147184095D01*
X138723714Y-146946000D02*
X139390380Y-146707904D01*
X138723714Y-146469809D02*
X139390380Y-146707904D01*
X139628476Y-146803142D01*
X139676095Y-146850761D01*
X139723714Y-146946000D01*
X139390380Y-145326952D02*
X138390380Y-145326952D01*
X138390380Y-144946000D01*
X138438000Y-144850761D01*
X138485619Y-144803142D01*
X138580857Y-144755523D01*
X138723714Y-144755523D01*
X138818952Y-144803142D01*
X138866571Y-144850761D01*
X138914190Y-144946000D01*
X138914190Y-145326952D01*
X139390380Y-144326952D02*
X138723714Y-144326952D01*
X138390380Y-144326952D02*
X138438000Y-144374571D01*
X138485619Y-144326952D01*
X138438000Y-144279333D01*
X138390380Y-144326952D01*
X138485619Y-144326952D01*
X138866571Y-142755523D02*
X138866571Y-143088857D01*
X139390380Y-143088857D02*
X138390380Y-143088857D01*
X138390380Y-142612666D01*
X139390380Y-142088857D02*
X139342761Y-142184095D01*
X139247523Y-142231714D01*
X138390380Y-142231714D01*
X139390380Y-141565047D02*
X139342761Y-141660285D01*
X139295142Y-141707904D01*
X139199904Y-141755523D01*
X138914190Y-141755523D01*
X138818952Y-141707904D01*
X138771333Y-141660285D01*
X138723714Y-141565047D01*
X138723714Y-141422190D01*
X138771333Y-141326952D01*
X138818952Y-141279333D01*
X138914190Y-141231714D01*
X139199904Y-141231714D01*
X139295142Y-141279333D01*
X139342761Y-141326952D01*
X139390380Y-141422190D01*
X139390380Y-141565047D01*
X138723714Y-140803142D02*
X139723714Y-140803142D01*
X138771333Y-140803142D02*
X138723714Y-140707904D01*
X138723714Y-140517428D01*
X138771333Y-140422190D01*
X138818952Y-140374571D01*
X138914190Y-140326952D01*
X139199904Y-140326952D01*
X139295142Y-140374571D01*
X139342761Y-140422190D01*
X139390380Y-140517428D01*
X139390380Y-140707904D01*
X139342761Y-140803142D01*
X138723714Y-139898380D02*
X139723714Y-139898380D01*
X138771333Y-139898380D02*
X138723714Y-139803142D01*
X138723714Y-139612666D01*
X138771333Y-139517428D01*
X138818952Y-139469809D01*
X138914190Y-139422190D01*
X139199904Y-139422190D01*
X139295142Y-139469809D01*
X139342761Y-139517428D01*
X139390380Y-139612666D01*
X139390380Y-139803142D01*
X139342761Y-139898380D01*
X138723714Y-139088857D02*
X139390380Y-138850761D01*
X138723714Y-138612666D02*
X139390380Y-138850761D01*
X139628476Y-138946000D01*
X139676095Y-138993619D01*
X139723714Y-139088857D01*
X139295142Y-136898380D02*
X139342761Y-136946000D01*
X139390380Y-137088857D01*
X139390380Y-137184095D01*
X139342761Y-137326952D01*
X139247523Y-137422190D01*
X139152285Y-137469809D01*
X138961809Y-137517428D01*
X138818952Y-137517428D01*
X138628476Y-137469809D01*
X138533238Y-137422190D01*
X138438000Y-137326952D01*
X138390380Y-137184095D01*
X138390380Y-137088857D01*
X138438000Y-136946000D01*
X138485619Y-136898380D01*
X139390380Y-136326952D02*
X139342761Y-136422190D01*
X139295142Y-136469809D01*
X139199904Y-136517428D01*
X138914190Y-136517428D01*
X138818952Y-136469809D01*
X138771333Y-136422190D01*
X138723714Y-136326952D01*
X138723714Y-136184095D01*
X138771333Y-136088857D01*
X138818952Y-136041238D01*
X138914190Y-135993619D01*
X139199904Y-135993619D01*
X139295142Y-136041238D01*
X139342761Y-136088857D01*
X139390380Y-136184095D01*
X139390380Y-136326952D01*
X138723714Y-135565047D02*
X139390380Y-135565047D01*
X138818952Y-135565047D02*
X138771333Y-135517428D01*
X138723714Y-135422190D01*
X138723714Y-135279333D01*
X138771333Y-135184095D01*
X138866571Y-135136476D01*
X139390380Y-135136476D01*
X138723714Y-134803142D02*
X138723714Y-134422190D01*
X138390380Y-134660285D02*
X139247523Y-134660285D01*
X139342761Y-134612666D01*
X139390380Y-134517428D01*
X139390380Y-134422190D01*
X139390380Y-134088857D02*
X138723714Y-134088857D01*
X138914190Y-134088857D02*
X138818952Y-134041238D01*
X138771333Y-133993619D01*
X138723714Y-133898380D01*
X138723714Y-133803142D01*
X139390380Y-133326952D02*
X139342761Y-133422190D01*
X139295142Y-133469809D01*
X139199904Y-133517428D01*
X138914190Y-133517428D01*
X138818952Y-133469809D01*
X138771333Y-133422190D01*
X138723714Y-133326952D01*
X138723714Y-133184095D01*
X138771333Y-133088857D01*
X138818952Y-133041238D01*
X138914190Y-132993619D01*
X139199904Y-132993619D01*
X139295142Y-133041238D01*
X139342761Y-133088857D01*
X139390380Y-133184095D01*
X139390380Y-133326952D01*
X139390380Y-132422190D02*
X139342761Y-132517428D01*
X139247523Y-132565047D01*
X138390380Y-132565047D01*
X139390380Y-131898380D02*
X139342761Y-131993619D01*
X139247523Y-132041238D01*
X138390380Y-132041238D01*
X139342761Y-131136476D02*
X139390380Y-131231714D01*
X139390380Y-131422190D01*
X139342761Y-131517428D01*
X139247523Y-131565047D01*
X138866571Y-131565047D01*
X138771333Y-131517428D01*
X138723714Y-131422190D01*
X138723714Y-131231714D01*
X138771333Y-131136476D01*
X138866571Y-131088857D01*
X138961809Y-131088857D01*
X139057047Y-131565047D01*
X139390380Y-130660285D02*
X138723714Y-130660285D01*
X138914190Y-130660285D02*
X138818952Y-130612666D01*
X138771333Y-130565047D01*
X138723714Y-130469809D01*
X138723714Y-130374571D01*
X138866571Y-128946000D02*
X138914190Y-128803142D01*
X138961809Y-128755523D01*
X139057047Y-128707904D01*
X139199904Y-128707904D01*
X139295142Y-128755523D01*
X139342761Y-128803142D01*
X139390380Y-128898380D01*
X139390380Y-129279333D01*
X138390380Y-129279333D01*
X138390380Y-128946000D01*
X138438000Y-128850761D01*
X138485619Y-128803142D01*
X138580857Y-128755523D01*
X138676095Y-128755523D01*
X138771333Y-128803142D01*
X138818952Y-128850761D01*
X138866571Y-128946000D01*
X138866571Y-129279333D01*
X139390380Y-128136476D02*
X139342761Y-128231714D01*
X139295142Y-128279333D01*
X139199904Y-128326952D01*
X138914190Y-128326952D01*
X138818952Y-128279333D01*
X138771333Y-128231714D01*
X138723714Y-128136476D01*
X138723714Y-127993619D01*
X138771333Y-127898380D01*
X138818952Y-127850761D01*
X138914190Y-127803142D01*
X139199904Y-127803142D01*
X139295142Y-127850761D01*
X139342761Y-127898380D01*
X139390380Y-127993619D01*
X139390380Y-128136476D01*
X139390380Y-126946000D02*
X138866571Y-126946000D01*
X138771333Y-126993619D01*
X138723714Y-127088857D01*
X138723714Y-127279333D01*
X138771333Y-127374571D01*
X139342761Y-126946000D02*
X139390380Y-127041238D01*
X139390380Y-127279333D01*
X139342761Y-127374571D01*
X139247523Y-127422190D01*
X139152285Y-127422190D01*
X139057047Y-127374571D01*
X139009428Y-127279333D01*
X139009428Y-127041238D01*
X138961809Y-126946000D01*
X139390380Y-126469809D02*
X138723714Y-126469809D01*
X138914190Y-126469809D02*
X138818952Y-126422190D01*
X138771333Y-126374571D01*
X138723714Y-126279333D01*
X138723714Y-126184095D01*
X139390380Y-125422190D02*
X138390380Y-125422190D01*
X139342761Y-125422190D02*
X139390380Y-125517428D01*
X139390380Y-125707904D01*
X139342761Y-125803142D01*
X139295142Y-125850761D01*
X139199904Y-125898380D01*
X138914190Y-125898380D01*
X138818952Y-125850761D01*
X138771333Y-125803142D01*
X138723714Y-125707904D01*
X138723714Y-125517428D01*
X138771333Y-125422190D01*
X77597142Y-158567380D02*
X77597142Y-157567380D01*
X77835238Y-157567380D01*
X77978095Y-157615000D01*
X78073333Y-157710238D01*
X78120952Y-157805476D01*
X78168571Y-157995952D01*
X78168571Y-158138809D01*
X78120952Y-158329285D01*
X78073333Y-158424523D01*
X77978095Y-158519761D01*
X77835238Y-158567380D01*
X77597142Y-158567380D01*
X78454285Y-157567380D02*
X79025714Y-157567380D01*
X78740000Y-158567380D02*
X78740000Y-157567380D01*
X79930476Y-158567380D02*
X79597142Y-158091190D01*
X79359047Y-158567380D02*
X79359047Y-157567380D01*
X79740000Y-157567380D01*
X79835238Y-157615000D01*
X79882857Y-157662619D01*
X79930476Y-157757857D01*
X79930476Y-157900714D01*
X79882857Y-157995952D01*
X79835238Y-158043571D01*
X79740000Y-158091190D01*
X79359047Y-158091190D01*
X103068380Y-122150095D02*
X102068380Y-122150095D01*
X102068380Y-121912000D01*
X102116000Y-121769142D01*
X102211238Y-121673904D01*
X102306476Y-121626285D01*
X102496952Y-121578666D01*
X102639809Y-121578666D01*
X102830285Y-121626285D01*
X102925523Y-121673904D01*
X103020761Y-121769142D01*
X103068380Y-121912000D01*
X103068380Y-122150095D01*
X102068380Y-121245333D02*
X102068380Y-120626285D01*
X102449333Y-120959619D01*
X102449333Y-120816761D01*
X102496952Y-120721523D01*
X102544571Y-120673904D01*
X102639809Y-120626285D01*
X102877904Y-120626285D01*
X102973142Y-120673904D01*
X103020761Y-120721523D01*
X103068380Y-120816761D01*
X103068380Y-121102476D01*
X103020761Y-121197714D01*
X102973142Y-121245333D01*
X77597142Y-152487380D02*
X78168571Y-152487380D01*
X77882857Y-153487380D02*
X77882857Y-152487380D01*
X78406666Y-153487380D02*
X78930476Y-152820714D01*
X78406666Y-152820714D02*
X78930476Y-153487380D01*
X79740000Y-153487380D02*
X79740000Y-152487380D01*
X79740000Y-153439761D02*
X79644761Y-153487380D01*
X79454285Y-153487380D01*
X79359047Y-153439761D01*
X79311428Y-153392142D01*
X79263809Y-153296904D01*
X79263809Y-153011190D01*
X79311428Y-152915952D01*
X79359047Y-152868333D01*
X79454285Y-152820714D01*
X79644761Y-152820714D01*
X79740000Y-152868333D01*
X81026095Y-127008000D02*
X80930857Y-126960380D01*
X80788000Y-126960380D01*
X80645142Y-127008000D01*
X80549904Y-127103238D01*
X80502285Y-127198476D01*
X80454666Y-127388952D01*
X80454666Y-127531809D01*
X80502285Y-127722285D01*
X80549904Y-127817523D01*
X80645142Y-127912761D01*
X80788000Y-127960380D01*
X80883238Y-127960380D01*
X81026095Y-127912761D01*
X81073714Y-127865142D01*
X81073714Y-127531809D01*
X80883238Y-127531809D01*
X81502285Y-127960380D02*
X81502285Y-126960380D01*
X82073714Y-127960380D01*
X82073714Y-126960380D01*
X82549904Y-127960380D02*
X82549904Y-126960380D01*
X82788000Y-126960380D01*
X82930857Y-127008000D01*
X83026095Y-127103238D01*
X83073714Y-127198476D01*
X83121333Y-127388952D01*
X83121333Y-127531809D01*
X83073714Y-127722285D01*
X83026095Y-127817523D01*
X82930857Y-127912761D01*
X82788000Y-127960380D01*
X82549904Y-127960380D01*
X104592380Y-122150095D02*
X103592380Y-122150095D01*
X103592380Y-121912000D01*
X103640000Y-121769142D01*
X103735238Y-121673904D01*
X103830476Y-121626285D01*
X104020952Y-121578666D01*
X104163809Y-121578666D01*
X104354285Y-121626285D01*
X104449523Y-121673904D01*
X104544761Y-121769142D01*
X104592380Y-121912000D01*
X104592380Y-122150095D01*
X103925714Y-120721523D02*
X104592380Y-120721523D01*
X103544761Y-120959619D02*
X104259047Y-121197714D01*
X104259047Y-120578666D01*
X77470238Y-143279761D02*
X77565476Y-143327380D01*
X77755952Y-143327380D01*
X77851190Y-143279761D01*
X77898809Y-143184523D01*
X77898809Y-143136904D01*
X77851190Y-143041666D01*
X77755952Y-142994047D01*
X77613095Y-142994047D01*
X77517857Y-142946428D01*
X77470238Y-142851190D01*
X77470238Y-142803571D01*
X77517857Y-142708333D01*
X77613095Y-142660714D01*
X77755952Y-142660714D01*
X77851190Y-142708333D01*
X78708333Y-143279761D02*
X78613095Y-143327380D01*
X78422619Y-143327380D01*
X78327380Y-143279761D01*
X78279761Y-143184523D01*
X78279761Y-142803571D01*
X78327380Y-142708333D01*
X78422619Y-142660714D01*
X78613095Y-142660714D01*
X78708333Y-142708333D01*
X78755952Y-142803571D01*
X78755952Y-142898809D01*
X78279761Y-142994047D01*
X79184523Y-143327380D02*
X79184523Y-142660714D01*
X79184523Y-142851190D02*
X79232142Y-142755952D01*
X79279761Y-142708333D01*
X79375000Y-142660714D01*
X79470238Y-142660714D01*
X79803571Y-143327380D02*
X79803571Y-142660714D01*
X79803571Y-142327380D02*
X79755952Y-142375000D01*
X79803571Y-142422619D01*
X79851190Y-142375000D01*
X79803571Y-142327380D01*
X79803571Y-142422619D01*
X80708333Y-143327380D02*
X80708333Y-142803571D01*
X80660714Y-142708333D01*
X80565476Y-142660714D01*
X80375000Y-142660714D01*
X80279761Y-142708333D01*
X80708333Y-143279761D02*
X80613095Y-143327380D01*
X80375000Y-143327380D01*
X80279761Y-143279761D01*
X80232142Y-143184523D01*
X80232142Y-143089285D01*
X80279761Y-142994047D01*
X80375000Y-142946428D01*
X80613095Y-142946428D01*
X80708333Y-142898809D01*
X81327380Y-143327380D02*
X81232142Y-143279761D01*
X81184523Y-143184523D01*
X81184523Y-142327380D01*
X91081619Y-140072857D02*
X91034000Y-140025238D01*
X90986380Y-139930000D01*
X90986380Y-139691904D01*
X91034000Y-139596666D01*
X91081619Y-139549047D01*
X91176857Y-139501428D01*
X91272095Y-139501428D01*
X91414952Y-139549047D01*
X91986380Y-140120476D01*
X91986380Y-139501428D01*
X91081619Y-139120476D02*
X91034000Y-139072857D01*
X90986380Y-138977619D01*
X90986380Y-138739523D01*
X91034000Y-138644285D01*
X91081619Y-138596666D01*
X91176857Y-138549047D01*
X91272095Y-138549047D01*
X91414952Y-138596666D01*
X91986380Y-139168095D01*
X91986380Y-138549047D01*
X91319714Y-138120476D02*
X92319714Y-138120476D01*
X91367333Y-138120476D02*
X91319714Y-138025238D01*
X91319714Y-137834761D01*
X91367333Y-137739523D01*
X91414952Y-137691904D01*
X91510190Y-137644285D01*
X91795904Y-137644285D01*
X91891142Y-137691904D01*
X91938761Y-137739523D01*
X91986380Y-137834761D01*
X91986380Y-138025238D01*
X91938761Y-138120476D01*
X91462571Y-136882380D02*
X91462571Y-137215714D01*
X91986380Y-137215714D02*
X90986380Y-137215714D01*
X90986380Y-136739523D01*
X109736000Y-124412190D02*
X109688380Y-124507428D01*
X109688380Y-124650285D01*
X109736000Y-124793142D01*
X109831238Y-124888380D01*
X109926476Y-124936000D01*
X110116952Y-124983619D01*
X110259809Y-124983619D01*
X110450285Y-124936000D01*
X110545523Y-124888380D01*
X110640761Y-124793142D01*
X110688380Y-124650285D01*
X110688380Y-124555047D01*
X110640761Y-124412190D01*
X110593142Y-124364571D01*
X110259809Y-124364571D01*
X110259809Y-124555047D01*
X110688380Y-123936000D02*
X109688380Y-123936000D01*
X109688380Y-123555047D01*
X109736000Y-123459809D01*
X109783619Y-123412190D01*
X109878857Y-123364571D01*
X110021714Y-123364571D01*
X110116952Y-123412190D01*
X110164571Y-123459809D01*
X110212190Y-123555047D01*
X110212190Y-123936000D01*
X110688380Y-122936000D02*
X109688380Y-122936000D01*
X109688380Y-122269333D02*
X109688380Y-122078857D01*
X109736000Y-121983619D01*
X109831238Y-121888380D01*
X110021714Y-121840761D01*
X110355047Y-121840761D01*
X110545523Y-121888380D01*
X110640761Y-121983619D01*
X110688380Y-122078857D01*
X110688380Y-122269333D01*
X110640761Y-122364571D01*
X110545523Y-122459809D01*
X110355047Y-122507428D01*
X110021714Y-122507428D01*
X109831238Y-122459809D01*
X109736000Y-122364571D01*
X109688380Y-122269333D01*
X110688380Y-121364571D02*
X110688380Y-121174095D01*
X110640761Y-121078857D01*
X110593142Y-121031238D01*
X110450285Y-120936000D01*
X110259809Y-120888380D01*
X109878857Y-120888380D01*
X109783619Y-120936000D01*
X109736000Y-120983619D01*
X109688380Y-121078857D01*
X109688380Y-121269333D01*
X109736000Y-121364571D01*
X109783619Y-121412190D01*
X109878857Y-121459809D01*
X110116952Y-121459809D01*
X110212190Y-121412190D01*
X110259809Y-121364571D01*
X110307428Y-121269333D01*
X110307428Y-121078857D01*
X110259809Y-120983619D01*
X110212190Y-120936000D01*
X110116952Y-120888380D01*
X109180380Y-140461904D02*
X109989904Y-140461904D01*
X110085142Y-140414285D01*
X110132761Y-140366666D01*
X110180380Y-140271428D01*
X110180380Y-140080952D01*
X110132761Y-139985714D01*
X110085142Y-139938095D01*
X109989904Y-139890476D01*
X109180380Y-139890476D01*
X110180380Y-138890476D02*
X110180380Y-139461904D01*
X110180380Y-139176190D02*
X109180380Y-139176190D01*
X109323238Y-139271428D01*
X109418476Y-139366666D01*
X109466095Y-139461904D01*
X99482380Y-143033333D02*
X100482380Y-142795238D01*
X99768095Y-142604761D01*
X100482380Y-142414285D01*
X99482380Y-142176190D01*
X100482380Y-141795238D02*
X99482380Y-141795238D01*
X99482380Y-141557142D01*
X99530000Y-141414285D01*
X99625238Y-141319047D01*
X99720476Y-141271428D01*
X99910952Y-141223809D01*
X100053809Y-141223809D01*
X100244285Y-141271428D01*
X100339523Y-141319047D01*
X100434761Y-141414285D01*
X100482380Y-141557142D01*
X100482380Y-141795238D01*
X99482380Y-140890476D02*
X99482380Y-140271428D01*
X99863333Y-140604761D01*
X99863333Y-140461904D01*
X99910952Y-140366666D01*
X99958571Y-140319047D01*
X100053809Y-140271428D01*
X100291904Y-140271428D01*
X100387142Y-140319047D01*
X100434761Y-140366666D01*
X100482380Y-140461904D01*
X100482380Y-140747619D01*
X100434761Y-140842857D01*
X100387142Y-140890476D01*
X99482380Y-139938095D02*
X99482380Y-139271428D01*
X100482380Y-139700000D01*
X100387142Y-138319047D02*
X100434761Y-138366666D01*
X100482380Y-138509523D01*
X100482380Y-138604761D01*
X100434761Y-138747619D01*
X100339523Y-138842857D01*
X100244285Y-138890476D01*
X100053809Y-138938095D01*
X99910952Y-138938095D01*
X99720476Y-138890476D01*
X99625238Y-138842857D01*
X99530000Y-138747619D01*
X99482380Y-138604761D01*
X99482380Y-138509523D01*
X99530000Y-138366666D01*
X99577619Y-138319047D01*
X99482380Y-137461904D02*
X99482380Y-137652380D01*
X99530000Y-137747619D01*
X99577619Y-137795238D01*
X99720476Y-137890476D01*
X99910952Y-137938095D01*
X100291904Y-137938095D01*
X100387142Y-137890476D01*
X100434761Y-137842857D01*
X100482380Y-137747619D01*
X100482380Y-137557142D01*
X100434761Y-137461904D01*
X100387142Y-137414285D01*
X100291904Y-137366666D01*
X100053809Y-137366666D01*
X99958571Y-137414285D01*
X99910952Y-137461904D01*
X99863333Y-137557142D01*
X99863333Y-137747619D01*
X99910952Y-137842857D01*
X99958571Y-137890476D01*
X100053809Y-137938095D01*
X99482380Y-136461904D02*
X99482380Y-136938095D01*
X99958571Y-136985714D01*
X99910952Y-136938095D01*
X99863333Y-136842857D01*
X99863333Y-136604761D01*
X99910952Y-136509523D01*
X99958571Y-136461904D01*
X100053809Y-136414285D01*
X100291904Y-136414285D01*
X100387142Y-136461904D01*
X100434761Y-136509523D01*
X100482380Y-136604761D01*
X100482380Y-136842857D01*
X100434761Y-136938095D01*
X100387142Y-136985714D01*
D11*
X104620190Y-152023142D02*
X104120190Y-152023142D01*
X104120190Y-151904095D01*
X104144000Y-151832666D01*
X104191619Y-151785047D01*
X104239238Y-151761238D01*
X104334476Y-151737428D01*
X104405904Y-151737428D01*
X104501142Y-151761238D01*
X104548761Y-151785047D01*
X104596380Y-151832666D01*
X104620190Y-151904095D01*
X104620190Y-152023142D01*
X104596380Y-151546952D02*
X104620190Y-151475523D01*
X104620190Y-151356476D01*
X104596380Y-151308857D01*
X104572571Y-151285047D01*
X104524952Y-151261238D01*
X104477333Y-151261238D01*
X104429714Y-151285047D01*
X104405904Y-151308857D01*
X104382095Y-151356476D01*
X104358285Y-151451714D01*
X104334476Y-151499333D01*
X104310666Y-151523142D01*
X104263047Y-151546952D01*
X104215428Y-151546952D01*
X104167809Y-151523142D01*
X104144000Y-151499333D01*
X104120190Y-151451714D01*
X104120190Y-151332666D01*
X104144000Y-151261238D01*
X104167809Y-151070761D02*
X104144000Y-151046952D01*
X104120190Y-150999333D01*
X104120190Y-150880285D01*
X104144000Y-150832666D01*
X104167809Y-150808857D01*
X104215428Y-150785047D01*
X104263047Y-150785047D01*
X104334476Y-150808857D01*
X104620190Y-151094571D01*
X104620190Y-150785047D01*
D10*
X104846380Y-152066285D02*
X104846380Y-152637714D01*
X104846380Y-152352000D02*
X103846380Y-152352000D01*
X103989238Y-152447238D01*
X104084476Y-152542476D01*
X104132095Y-152637714D01*
X103846380Y-159435333D02*
X103846380Y-158816285D01*
X104227333Y-159149619D01*
X104227333Y-159006761D01*
X104274952Y-158911523D01*
X104322571Y-158863904D01*
X104417809Y-158816285D01*
X104655904Y-158816285D01*
X104751142Y-158863904D01*
X104798761Y-158911523D01*
X104846380Y-159006761D01*
X104846380Y-159292476D01*
X104798761Y-159387714D01*
X104751142Y-159435333D01*
X97067619Y-142870238D02*
X97020000Y-142965476D01*
X96924761Y-143060714D01*
X96781904Y-143203571D01*
X96734285Y-143298809D01*
X96734285Y-143394047D01*
X96972380Y-143346428D02*
X96924761Y-143441666D01*
X96829523Y-143536904D01*
X96639047Y-143584523D01*
X96305714Y-143584523D01*
X96115238Y-143536904D01*
X96020000Y-143441666D01*
X95972380Y-143346428D01*
X95972380Y-143155952D01*
X96020000Y-143060714D01*
X96115238Y-142965476D01*
X96305714Y-142917857D01*
X96639047Y-142917857D01*
X96829523Y-142965476D01*
X96924761Y-143060714D01*
X96972380Y-143155952D01*
X96972380Y-143346428D01*
X96972380Y-141965476D02*
X96972380Y-142536904D01*
X96972380Y-142251190D02*
X95972380Y-142251190D01*
X96115238Y-142346428D01*
X96210476Y-142441666D01*
X96258095Y-142536904D01*
X94662857Y-136342380D02*
X94091428Y-136342380D01*
X94377142Y-136342380D02*
X94377142Y-135342380D01*
X94281904Y-135485238D01*
X94186666Y-135580476D01*
X94091428Y-135628095D01*
X95520000Y-135342380D02*
X95329523Y-135342380D01*
X95234285Y-135390000D01*
X95186666Y-135437619D01*
X95091428Y-135580476D01*
X95043809Y-135770952D01*
X95043809Y-136151904D01*
X95091428Y-136247142D01*
X95139047Y-136294761D01*
X95234285Y-136342380D01*
X95424761Y-136342380D01*
X95520000Y-136294761D01*
X95567619Y-136247142D01*
X95615238Y-136151904D01*
X95615238Y-135913809D01*
X95567619Y-135818571D01*
X95520000Y-135770952D01*
X95424761Y-135723333D01*
X95234285Y-135723333D01*
X95139047Y-135770952D01*
X95091428Y-135818571D01*
X95043809Y-135913809D01*
X96043809Y-136247142D02*
X96091428Y-136294761D01*
X96043809Y-136342380D01*
X95996190Y-136294761D01*
X96043809Y-136247142D01*
X96043809Y-136342380D01*
X96710476Y-135342380D02*
X96805714Y-135342380D01*
X96900952Y-135390000D01*
X96948571Y-135437619D01*
X96996190Y-135532857D01*
X97043809Y-135723333D01*
X97043809Y-135961428D01*
X96996190Y-136151904D01*
X96948571Y-136247142D01*
X96900952Y-136294761D01*
X96805714Y-136342380D01*
X96710476Y-136342380D01*
X96615238Y-136294761D01*
X96567619Y-136247142D01*
X96520000Y-136151904D01*
X96472380Y-135961428D01*
X96472380Y-135723333D01*
X96520000Y-135532857D01*
X96567619Y-135437619D01*
X96615238Y-135390000D01*
X96710476Y-135342380D01*
X97662857Y-135342380D02*
X97758095Y-135342380D01*
X97853333Y-135390000D01*
X97900952Y-135437619D01*
X97948571Y-135532857D01*
X97996190Y-135723333D01*
X97996190Y-135961428D01*
X97948571Y-136151904D01*
X97900952Y-136247142D01*
X97853333Y-136294761D01*
X97758095Y-136342380D01*
X97662857Y-136342380D01*
X97567619Y-136294761D01*
X97520000Y-136247142D01*
X97472380Y-136151904D01*
X97424761Y-135961428D01*
X97424761Y-135723333D01*
X97472380Y-135532857D01*
X97520000Y-135437619D01*
X97567619Y-135390000D01*
X97662857Y-135342380D01*
X98615238Y-135342380D02*
X98710476Y-135342380D01*
X98805714Y-135390000D01*
X98853333Y-135437619D01*
X98900952Y-135532857D01*
X98948571Y-135723333D01*
X98948571Y-135961428D01*
X98900952Y-136151904D01*
X98853333Y-136247142D01*
X98805714Y-136294761D01*
X98710476Y-136342380D01*
X98615238Y-136342380D01*
X98520000Y-136294761D01*
X98472380Y-136247142D01*
X98424761Y-136151904D01*
X98377142Y-135961428D01*
X98377142Y-135723333D01*
X98424761Y-135532857D01*
X98472380Y-135437619D01*
X98520000Y-135390000D01*
X98615238Y-135342380D01*
X132246761Y-142946380D02*
X131675333Y-142946380D01*
X131961047Y-142946380D02*
X131961047Y-141946380D01*
X131865809Y-142089238D01*
X131770571Y-142184476D01*
X131675333Y-142232095D01*
X132865809Y-141946380D02*
X132961047Y-141946380D01*
X133056285Y-141994000D01*
X133103904Y-142041619D01*
X133151523Y-142136857D01*
X133199142Y-142327333D01*
X133199142Y-142565428D01*
X133151523Y-142755904D01*
X133103904Y-142851142D01*
X133056285Y-142898761D01*
X132961047Y-142946380D01*
X132865809Y-142946380D01*
X132770571Y-142898761D01*
X132722952Y-142851142D01*
X132675333Y-142755904D01*
X132627714Y-142565428D01*
X132627714Y-142327333D01*
X132675333Y-142136857D01*
X132722952Y-142041619D01*
X132770571Y-141994000D01*
X132865809Y-141946380D01*
X133627714Y-142946380D02*
X133627714Y-141946380D01*
X133722952Y-142565428D02*
X134008666Y-142946380D01*
X134008666Y-142279714D02*
X133627714Y-142660666D01*
D11*
X113256190Y-152050666D02*
X112756190Y-152050666D01*
X113113333Y-151884000D01*
X112756190Y-151717333D01*
X113256190Y-151717333D01*
X112756190Y-151384000D02*
X112756190Y-151288761D01*
X112780000Y-151241142D01*
X112827619Y-151193523D01*
X112922857Y-151169714D01*
X113089523Y-151169714D01*
X113184761Y-151193523D01*
X113232380Y-151241142D01*
X113256190Y-151288761D01*
X113256190Y-151384000D01*
X113232380Y-151431619D01*
X113184761Y-151479238D01*
X113089523Y-151503047D01*
X112922857Y-151503047D01*
X112827619Y-151479238D01*
X112780000Y-151431619D01*
X112756190Y-151384000D01*
X112803809Y-150979238D02*
X112780000Y-150955428D01*
X112756190Y-150907809D01*
X112756190Y-150788761D01*
X112780000Y-150741142D01*
X112803809Y-150717333D01*
X112851428Y-150693523D01*
X112899047Y-150693523D01*
X112970476Y-150717333D01*
X113256190Y-151003047D01*
X113256190Y-150693523D01*
D10*
X112482380Y-159435333D02*
X112482380Y-158816285D01*
X112863333Y-159149619D01*
X112863333Y-159006761D01*
X112910952Y-158911523D01*
X112958571Y-158863904D01*
X113053809Y-158816285D01*
X113291904Y-158816285D01*
X113387142Y-158863904D01*
X113434761Y-158911523D01*
X113482380Y-159006761D01*
X113482380Y-159292476D01*
X113434761Y-159387714D01*
X113387142Y-159435333D01*
X113482380Y-152066285D02*
X113482380Y-152637714D01*
X113482380Y-152352000D02*
X112482380Y-152352000D01*
X112625238Y-152447238D01*
X112720476Y-152542476D01*
X112768095Y-152637714D01*
X130976761Y-157805238D02*
X132262476Y-158662380D01*
X132024380Y-157471904D02*
X131024380Y-157471904D01*
X131024380Y-157233809D01*
X131072000Y-157090952D01*
X131167238Y-156995714D01*
X131262476Y-156948095D01*
X131452952Y-156900476D01*
X131595809Y-156900476D01*
X131786285Y-156948095D01*
X131881523Y-156995714D01*
X131976761Y-157090952D01*
X132024380Y-157233809D01*
X132024380Y-157471904D01*
X131929142Y-155900476D02*
X131976761Y-155948095D01*
X132024380Y-156090952D01*
X132024380Y-156186190D01*
X131976761Y-156329047D01*
X131881523Y-156424285D01*
X131786285Y-156471904D01*
X131595809Y-156519523D01*
X131452952Y-156519523D01*
X131262476Y-156471904D01*
X131167238Y-156424285D01*
X131072000Y-156329047D01*
X131024380Y-156186190D01*
X131024380Y-156090952D01*
X131072000Y-155948095D01*
X131119619Y-155900476D01*
X132024380Y-155471904D02*
X131024380Y-155471904D01*
X131500571Y-155471904D02*
X131500571Y-154900476D01*
X132024380Y-154900476D02*
X131024380Y-154900476D01*
X131072000Y-153900476D02*
X131024380Y-153995714D01*
X131024380Y-154138571D01*
X131072000Y-154281428D01*
X131167238Y-154376666D01*
X131262476Y-154424285D01*
X131452952Y-154471904D01*
X131595809Y-154471904D01*
X131786285Y-154424285D01*
X131881523Y-154376666D01*
X131976761Y-154281428D01*
X132024380Y-154138571D01*
X132024380Y-154043333D01*
X131976761Y-153900476D01*
X131929142Y-153852857D01*
X131595809Y-153852857D01*
X131595809Y-154043333D01*
X92742095Y-134369380D02*
X92742095Y-133369380D01*
X92980190Y-133369380D01*
X93123047Y-133417000D01*
X93218285Y-133512238D01*
X93265904Y-133607476D01*
X93313523Y-133797952D01*
X93313523Y-133940809D01*
X93265904Y-134131285D01*
X93218285Y-134226523D01*
X93123047Y-134321761D01*
X92980190Y-134369380D01*
X92742095Y-134369380D01*
X94313523Y-134274142D02*
X94265904Y-134321761D01*
X94123047Y-134369380D01*
X94027809Y-134369380D01*
X93884952Y-134321761D01*
X93789714Y-134226523D01*
X93742095Y-134131285D01*
X93694476Y-133940809D01*
X93694476Y-133797952D01*
X93742095Y-133607476D01*
X93789714Y-133512238D01*
X93884952Y-133417000D01*
X94027809Y-133369380D01*
X94123047Y-133369380D01*
X94265904Y-133417000D01*
X94313523Y-133464619D01*
X94742095Y-134369380D02*
X94742095Y-133369380D01*
X94742095Y-133845571D02*
X95313523Y-133845571D01*
X95313523Y-134369380D02*
X95313523Y-133369380D01*
X96313523Y-133417000D02*
X96218285Y-133369380D01*
X96075428Y-133369380D01*
X95932571Y-133417000D01*
X95837333Y-133512238D01*
X95789714Y-133607476D01*
X95742095Y-133797952D01*
X95742095Y-133940809D01*
X95789714Y-134131285D01*
X95837333Y-134226523D01*
X95932571Y-134321761D01*
X96075428Y-134369380D01*
X96170666Y-134369380D01*
X96313523Y-134321761D01*
X96361142Y-134274142D01*
X96361142Y-133940809D01*
X96170666Y-133940809D01*
X96789714Y-133845571D02*
X97123047Y-133845571D01*
X97265904Y-134369380D02*
X96789714Y-134369380D01*
X96789714Y-133369380D01*
X97265904Y-133369380D01*
X97694476Y-134369380D02*
X97694476Y-133369380D01*
X98265904Y-134369380D01*
X98265904Y-133369380D01*
D11*
X94698380Y-157726000D02*
X95341238Y-158154571D01*
X95222190Y-157559333D02*
X94722190Y-157559333D01*
X94960285Y-157559333D02*
X94960285Y-157273619D01*
X95222190Y-157273619D02*
X94722190Y-157273619D01*
X95222190Y-157035523D02*
X94722190Y-157035523D01*
X94722190Y-156916476D01*
X94746000Y-156845047D01*
X94793619Y-156797428D01*
X94841238Y-156773619D01*
X94936476Y-156749809D01*
X95007904Y-156749809D01*
X95103142Y-156773619D01*
X95150761Y-156797428D01*
X95198380Y-156845047D01*
X95222190Y-156916476D01*
X95222190Y-157035523D01*
X95222190Y-156297428D02*
X95222190Y-156535523D01*
X94722190Y-156535523D01*
D10*
X86201714Y-152439714D02*
X86582666Y-152439714D01*
X86344571Y-153106380D02*
X86344571Y-152249238D01*
X86392190Y-152154000D01*
X86487428Y-152106380D01*
X86582666Y-152106380D01*
X86773142Y-152439714D02*
X87154095Y-152439714D01*
X86916000Y-152106380D02*
X86916000Y-152963523D01*
X86963619Y-153058761D01*
X87058857Y-153106380D01*
X87154095Y-153106380D01*
X87916000Y-153106380D02*
X87916000Y-152106380D01*
X87916000Y-153058761D02*
X87820761Y-153106380D01*
X87630285Y-153106380D01*
X87535047Y-153058761D01*
X87487428Y-153011142D01*
X87439809Y-152915904D01*
X87439809Y-152630190D01*
X87487428Y-152534952D01*
X87535047Y-152487333D01*
X87630285Y-152439714D01*
X87820761Y-152439714D01*
X87916000Y-152487333D01*
X88392190Y-153106380D02*
X88392190Y-152439714D01*
X88392190Y-152106380D02*
X88344571Y-152154000D01*
X88392190Y-152201619D01*
X88439809Y-152154000D01*
X88392190Y-152106380D01*
X88392190Y-152201619D01*
X89630285Y-152439714D02*
X89630285Y-153439714D01*
X89630285Y-152487333D02*
X89725523Y-152439714D01*
X89916000Y-152439714D01*
X90011238Y-152487333D01*
X90058857Y-152534952D01*
X90106476Y-152630190D01*
X90106476Y-152915904D01*
X90058857Y-153011142D01*
X90011238Y-153058761D01*
X89916000Y-153106380D01*
X89725523Y-153106380D01*
X89630285Y-153058761D01*
X90677904Y-153106380D02*
X90582666Y-153058761D01*
X90535047Y-153011142D01*
X90487428Y-152915904D01*
X90487428Y-152630190D01*
X90535047Y-152534952D01*
X90582666Y-152487333D01*
X90677904Y-152439714D01*
X90820761Y-152439714D01*
X90916000Y-152487333D01*
X90963619Y-152534952D01*
X91011238Y-152630190D01*
X91011238Y-152915904D01*
X90963619Y-153011142D01*
X90916000Y-153058761D01*
X90820761Y-153106380D01*
X90677904Y-153106380D01*
X91344571Y-152439714D02*
X91535047Y-153106380D01*
X91725523Y-152630190D01*
X91916000Y-153106380D01*
X92106476Y-152439714D01*
X92868380Y-153058761D02*
X92773142Y-153106380D01*
X92582666Y-153106380D01*
X92487428Y-153058761D01*
X92439809Y-152963523D01*
X92439809Y-152582571D01*
X92487428Y-152487333D01*
X92582666Y-152439714D01*
X92773142Y-152439714D01*
X92868380Y-152487333D01*
X92916000Y-152582571D01*
X92916000Y-152677809D01*
X92439809Y-152773047D01*
X93344571Y-153106380D02*
X93344571Y-152439714D01*
X93344571Y-152630190D02*
X93392190Y-152534952D01*
X93439809Y-152487333D01*
X93535047Y-152439714D01*
X93630285Y-152439714D01*
D11*
X107668190Y-151807142D02*
X107168190Y-151807142D01*
X107168190Y-151688095D01*
X107192000Y-151616666D01*
X107239619Y-151569047D01*
X107287238Y-151545238D01*
X107382476Y-151521428D01*
X107453904Y-151521428D01*
X107549142Y-151545238D01*
X107596761Y-151569047D01*
X107644380Y-151616666D01*
X107668190Y-151688095D01*
X107668190Y-151807142D01*
X107644380Y-151330952D02*
X107668190Y-151259523D01*
X107668190Y-151140476D01*
X107644380Y-151092857D01*
X107620571Y-151069047D01*
X107572952Y-151045238D01*
X107525333Y-151045238D01*
X107477714Y-151069047D01*
X107453904Y-151092857D01*
X107430095Y-151140476D01*
X107406285Y-151235714D01*
X107382476Y-151283333D01*
X107358666Y-151307142D01*
X107311047Y-151330952D01*
X107263428Y-151330952D01*
X107215809Y-151307142D01*
X107192000Y-151283333D01*
X107168190Y-151235714D01*
X107168190Y-151116666D01*
X107192000Y-151045238D01*
X107668190Y-150569047D02*
X107668190Y-150854761D01*
X107668190Y-150711904D02*
X107168190Y-150711904D01*
X107239619Y-150759523D01*
X107287238Y-150807142D01*
X107311047Y-150854761D01*
D10*
X107894380Y-152066285D02*
X107894380Y-152637714D01*
X107894380Y-152352000D02*
X106894380Y-152352000D01*
X107037238Y-152447238D01*
X107132476Y-152542476D01*
X107180095Y-152637714D01*
X106894380Y-159435333D02*
X106894380Y-158816285D01*
X107275333Y-159149619D01*
X107275333Y-159006761D01*
X107322952Y-158911523D01*
X107370571Y-158863904D01*
X107465809Y-158816285D01*
X107703904Y-158816285D01*
X107799142Y-158863904D01*
X107846761Y-158911523D01*
X107894380Y-159006761D01*
X107894380Y-159292476D01*
X107846761Y-159387714D01*
X107799142Y-159435333D01*
X84439238Y-124658380D02*
X84439238Y-123991714D01*
X84439238Y-123658380D02*
X84391619Y-123706000D01*
X84439238Y-123753619D01*
X84486857Y-123706000D01*
X84439238Y-123658380D01*
X84439238Y-123753619D01*
X84867809Y-123753619D02*
X84915428Y-123706000D01*
X85010666Y-123658380D01*
X85248761Y-123658380D01*
X85344000Y-123706000D01*
X85391619Y-123753619D01*
X85439238Y-123848857D01*
X85439238Y-123944095D01*
X85391619Y-124086952D01*
X84820190Y-124658380D01*
X85439238Y-124658380D01*
X86296380Y-124610761D02*
X86201142Y-124658380D01*
X86010666Y-124658380D01*
X85915428Y-124610761D01*
X85867809Y-124563142D01*
X85820190Y-124467904D01*
X85820190Y-124182190D01*
X85867809Y-124086952D01*
X85915428Y-124039333D01*
X86010666Y-123991714D01*
X86201142Y-123991714D01*
X86296380Y-124039333D01*
D11*
X110208190Y-151834666D02*
X109708190Y-151834666D01*
X110065333Y-151668000D01*
X109708190Y-151501333D01*
X110208190Y-151501333D01*
X109708190Y-151168000D02*
X109708190Y-151072761D01*
X109732000Y-151025142D01*
X109779619Y-150977523D01*
X109874857Y-150953714D01*
X110041523Y-150953714D01*
X110136761Y-150977523D01*
X110184380Y-151025142D01*
X110208190Y-151072761D01*
X110208190Y-151168000D01*
X110184380Y-151215619D01*
X110136761Y-151263238D01*
X110041523Y-151287047D01*
X109874857Y-151287047D01*
X109779619Y-151263238D01*
X109732000Y-151215619D01*
X109708190Y-151168000D01*
X110208190Y-150477523D02*
X110208190Y-150763238D01*
X110208190Y-150620380D02*
X109708190Y-150620380D01*
X109779619Y-150668000D01*
X109827238Y-150715619D01*
X109851047Y-150763238D01*
D10*
X110434380Y-152034285D02*
X110434380Y-152605714D01*
X110434380Y-152320000D02*
X109434380Y-152320000D01*
X109577238Y-152415238D01*
X109672476Y-152510476D01*
X109720095Y-152605714D01*
X109434380Y-159403333D02*
X109434380Y-158784285D01*
X109815333Y-159117619D01*
X109815333Y-158974761D01*
X109862952Y-158879523D01*
X109910571Y-158831904D01*
X110005809Y-158784285D01*
X110243904Y-158784285D01*
X110339142Y-158831904D01*
X110386761Y-158879523D01*
X110434380Y-158974761D01*
X110434380Y-159260476D01*
X110386761Y-159355714D01*
X110339142Y-159403333D01*
X97004380Y-151836380D02*
X96432952Y-151836380D01*
X96718666Y-151836380D02*
X96718666Y-150836380D01*
X96623428Y-150979238D01*
X96528190Y-151074476D01*
X96432952Y-151122095D01*
X97623428Y-150836380D02*
X97718666Y-150836380D01*
X97813904Y-150884000D01*
X97861523Y-150931619D01*
X97909142Y-151026857D01*
X97956761Y-151217333D01*
X97956761Y-151455428D01*
X97909142Y-151645904D01*
X97861523Y-151741142D01*
X97813904Y-151788761D01*
X97718666Y-151836380D01*
X97623428Y-151836380D01*
X97528190Y-151788761D01*
X97480571Y-151741142D01*
X97432952Y-151645904D01*
X97385333Y-151455428D01*
X97385333Y-151217333D01*
X97432952Y-151026857D01*
X97480571Y-150931619D01*
X97528190Y-150884000D01*
X97623428Y-150836380D01*
X98575809Y-150836380D02*
X98671047Y-150836380D01*
X98766285Y-150884000D01*
X98813904Y-150931619D01*
X98861523Y-151026857D01*
X98909142Y-151217333D01*
X98909142Y-151455428D01*
X98861523Y-151645904D01*
X98813904Y-151741142D01*
X98766285Y-151788761D01*
X98671047Y-151836380D01*
X98575809Y-151836380D01*
X98480571Y-151788761D01*
X98432952Y-151741142D01*
X98385333Y-151645904D01*
X98337714Y-151455428D01*
X98337714Y-151217333D01*
X98385333Y-151026857D01*
X98432952Y-150931619D01*
X98480571Y-150884000D01*
X98575809Y-150836380D01*
X99337714Y-151169714D02*
X99337714Y-151836380D01*
X99337714Y-151264952D02*
X99385333Y-151217333D01*
X99480571Y-151169714D01*
X99623428Y-151169714D01*
X99718666Y-151217333D01*
X99766285Y-151312571D01*
X99766285Y-151836380D01*
X100575809Y-151312571D02*
X100242476Y-151312571D01*
X100242476Y-151836380D02*
X100242476Y-150836380D01*
X100718666Y-150836380D01*
X107196000Y-125396380D02*
X107148380Y-125491619D01*
X107148380Y-125634476D01*
X107196000Y-125777333D01*
X107291238Y-125872571D01*
X107386476Y-125920190D01*
X107576952Y-125967809D01*
X107719809Y-125967809D01*
X107910285Y-125920190D01*
X108005523Y-125872571D01*
X108100761Y-125777333D01*
X108148380Y-125634476D01*
X108148380Y-125539238D01*
X108100761Y-125396380D01*
X108053142Y-125348761D01*
X107719809Y-125348761D01*
X107719809Y-125539238D01*
X108148380Y-124920190D02*
X107148380Y-124920190D01*
X107148380Y-124539238D01*
X107196000Y-124444000D01*
X107243619Y-124396380D01*
X107338857Y-124348761D01*
X107481714Y-124348761D01*
X107576952Y-124396380D01*
X107624571Y-124444000D01*
X107672190Y-124539238D01*
X107672190Y-124920190D01*
X108148380Y-123920190D02*
X107148380Y-123920190D01*
X107148380Y-123253523D02*
X107148380Y-123063047D01*
X107196000Y-122967809D01*
X107291238Y-122872571D01*
X107481714Y-122824952D01*
X107815047Y-122824952D01*
X108005523Y-122872571D01*
X108100761Y-122967809D01*
X108148380Y-123063047D01*
X108148380Y-123253523D01*
X108100761Y-123348761D01*
X108005523Y-123444000D01*
X107815047Y-123491619D01*
X107481714Y-123491619D01*
X107291238Y-123444000D01*
X107196000Y-123348761D01*
X107148380Y-123253523D01*
X108148380Y-121872571D02*
X108148380Y-122444000D01*
X108148380Y-122158285D02*
X107148380Y-122158285D01*
X107291238Y-122253523D01*
X107386476Y-122348761D01*
X107434095Y-122444000D01*
X107148380Y-121253523D02*
X107148380Y-121158285D01*
X107196000Y-121063047D01*
X107243619Y-121015428D01*
X107338857Y-120967809D01*
X107529333Y-120920190D01*
X107767428Y-120920190D01*
X107957904Y-120967809D01*
X108053142Y-121015428D01*
X108100761Y-121063047D01*
X108148380Y-121158285D01*
X108148380Y-121253523D01*
X108100761Y-121348761D01*
X108053142Y-121396380D01*
X107957904Y-121444000D01*
X107767428Y-121491619D01*
X107529333Y-121491619D01*
X107338857Y-121444000D01*
X107243619Y-121396380D01*
X107196000Y-121348761D01*
X107148380Y-121253523D01*
X91081619Y-144644857D02*
X91034000Y-144597238D01*
X90986380Y-144502000D01*
X90986380Y-144263904D01*
X91034000Y-144168666D01*
X91081619Y-144121047D01*
X91176857Y-144073428D01*
X91272095Y-144073428D01*
X91414952Y-144121047D01*
X91986380Y-144692476D01*
X91986380Y-144073428D01*
X91081619Y-143692476D02*
X91034000Y-143644857D01*
X90986380Y-143549619D01*
X90986380Y-143311523D01*
X91034000Y-143216285D01*
X91081619Y-143168666D01*
X91176857Y-143121047D01*
X91272095Y-143121047D01*
X91414952Y-143168666D01*
X91986380Y-143740095D01*
X91986380Y-143121047D01*
X91319714Y-142692476D02*
X92319714Y-142692476D01*
X91367333Y-142692476D02*
X91319714Y-142597238D01*
X91319714Y-142406761D01*
X91367333Y-142311523D01*
X91414952Y-142263904D01*
X91510190Y-142216285D01*
X91795904Y-142216285D01*
X91891142Y-142263904D01*
X91938761Y-142311523D01*
X91986380Y-142406761D01*
X91986380Y-142597238D01*
X91938761Y-142692476D01*
X91462571Y-141454380D02*
X91462571Y-141787714D01*
X91986380Y-141787714D02*
X90986380Y-141787714D01*
X90986380Y-141311523D01*
D12*
X103138500Y-118888742D02*
X103138500Y-119363258D01*
X102093500Y-118888742D02*
X102093500Y-119363258D01*
X85909000Y-158115000D02*
X85909000Y-159385000D01*
X83529000Y-157735000D02*
X83199000Y-157735000D01*
X83596071Y-147575000D02*
X83199000Y-147575000D01*
X83199000Y-146685000D02*
X80539000Y-146685000D01*
X80539000Y-159445000D02*
X83199000Y-159445000D01*
X83596071Y-148335000D02*
X83199000Y-148335000D01*
X83199000Y-144085000D02*
X80539000Y-144085000D01*
X83199000Y-151765000D02*
X80539000Y-151765000D01*
X83199000Y-156845000D02*
X80539000Y-156845000D01*
X85909000Y-159385000D02*
X84639000Y-159385000D01*
X83596071Y-155195000D02*
X83199000Y-155195000D01*
X80539000Y-144085000D02*
X80539000Y-159445000D01*
X83596071Y-145795000D02*
X83199000Y-145795000D01*
X83529000Y-158495000D02*
X83199000Y-158495000D01*
X83596071Y-153415000D02*
X83199000Y-153415000D01*
X83596071Y-150875000D02*
X83199000Y-150875000D01*
X83199000Y-159445000D02*
X83199000Y-144085000D01*
X83199000Y-154305000D02*
X80539000Y-154305000D01*
X83596071Y-152655000D02*
X83199000Y-152655000D01*
X83199000Y-149225000D02*
X80539000Y-149225000D01*
X83596071Y-150115000D02*
X83199000Y-150115000D01*
X83596071Y-145035000D02*
X83199000Y-145035000D01*
X83596071Y-155955000D02*
X83199000Y-155955000D01*
X87630000Y-165795000D02*
X86300000Y-165795000D01*
X86300000Y-165795000D02*
X86300000Y-164465000D01*
X88900000Y-165795000D02*
X88900000Y-163195000D01*
X88900000Y-165795000D02*
X129600000Y-165795000D01*
X86300000Y-163195000D02*
X86300000Y-160595000D01*
X88900000Y-163195000D02*
X86300000Y-163195000D01*
X86300000Y-160595000D02*
X129600000Y-160595000D01*
X129600000Y-165795000D02*
X129600000Y-160595000D01*
X99553500Y-118888742D02*
X99553500Y-119363258D01*
X100598500Y-118888742D02*
X100598500Y-119363258D01*
X93474000Y-138289420D02*
X93474000Y-138570580D01*
X92454000Y-138289420D02*
X92454000Y-138570580D01*
X94502500Y-118888742D02*
X94502500Y-119363258D01*
X93457500Y-118888742D02*
X93457500Y-119363258D01*
X118124500Y-119396742D02*
X118124500Y-119871258D01*
X117079500Y-119396742D02*
X117079500Y-119871258D01*
X108906000Y-118050000D02*
X110236000Y-118050000D01*
X111566000Y-120650000D02*
X111566000Y-120710000D01*
X108906000Y-119380000D02*
X108906000Y-118050000D01*
X108906000Y-120710000D02*
X111566000Y-120710000D01*
X108906000Y-120650000D02*
X111566000Y-120650000D01*
X108906000Y-120650000D02*
X108906000Y-120710000D01*
X88960000Y-158115000D02*
X88960000Y-159445000D01*
X88960000Y-156785000D02*
X86300000Y-156785000D01*
X88960000Y-159445000D02*
X87630000Y-159445000D01*
X86300000Y-156845000D02*
X86300000Y-156785000D01*
X88960000Y-156845000D02*
X88960000Y-156785000D01*
X88960000Y-156845000D02*
X86300000Y-156845000D01*
X129302742Y-140447500D02*
X129777258Y-140447500D01*
X129302742Y-141492500D02*
X129777258Y-141492500D01*
D13*
X118830000Y-132375000D02*
X118830000Y-131875000D01*
X100880000Y-132375000D02*
X100880000Y-130725000D01*
X100880000Y-130725000D02*
X102530000Y-130725000D01*
X118830000Y-131875000D02*
X117680000Y-130725000D01*
X117680000Y-130725000D02*
X117180000Y-130725000D01*
X118830000Y-147025000D02*
X118830000Y-148675000D01*
X100880000Y-148675000D02*
X102530000Y-148675000D01*
X100880000Y-147025000D02*
X100880000Y-148675000D01*
X118830000Y-148675000D02*
X117180000Y-148675000D01*
D12*
X106186500Y-118888742D02*
X106186500Y-119363258D01*
X105141500Y-118888742D02*
X105141500Y-119363258D01*
X104662500Y-118888742D02*
X104662500Y-119363258D01*
X103617500Y-118888742D02*
X103617500Y-119363258D01*
X112507500Y-119396742D02*
X112507500Y-119871258D01*
X113552500Y-119396742D02*
X113552500Y-119871258D01*
X99074500Y-118888742D02*
X99074500Y-119363258D01*
X98029500Y-118888742D02*
X98029500Y-119363258D01*
X97550500Y-118888742D02*
X97550500Y-119363258D01*
X96505500Y-118888742D02*
X96505500Y-119363258D01*
X103444000Y-158452000D02*
X103444000Y-152952000D01*
X105394000Y-158452000D02*
X103444000Y-158452000D01*
X103444000Y-152952000D02*
X105394000Y-152952000D01*
X105394000Y-152952000D02*
X105394000Y-158452000D01*
X93995000Y-139650000D02*
X93995000Y-145900000D01*
X99045000Y-139650000D02*
X99045000Y-145900000D01*
X93995000Y-145900000D02*
G75*
G03*
X99045000Y-145900000I2525000J0D01*
G01*
X99045000Y-139650000D02*
G75*
G03*
X93995000Y-139650000I-2525000J0D01*
G01*
X129777258Y-138923500D02*
X129302742Y-138923500D01*
X129777258Y-139968500D02*
X129302742Y-139968500D01*
X129302742Y-144540500D02*
X129777258Y-144540500D01*
X129302742Y-143495500D02*
X129777258Y-143495500D01*
X114031500Y-119396742D02*
X114031500Y-119871258D01*
X115076500Y-119396742D02*
X115076500Y-119871258D01*
X112080000Y-158452000D02*
X112080000Y-152952000D01*
X114030000Y-158452000D02*
X112080000Y-158452000D01*
X114030000Y-152952000D02*
X114030000Y-158452000D01*
X112080000Y-152952000D02*
X114030000Y-152952000D01*
X130616000Y-153615000D02*
X127956000Y-153615000D01*
X130616000Y-156215000D02*
X130616000Y-153615000D01*
X130616000Y-156215000D02*
X127956000Y-156215000D01*
X127956000Y-156215000D02*
X127956000Y-153615000D01*
X130616000Y-157485000D02*
X130616000Y-158815000D01*
X130616000Y-158815000D02*
X129286000Y-158815000D01*
X96834000Y-127777000D02*
X96834000Y-132917000D01*
X94174000Y-132917000D02*
X96834000Y-132917000D01*
X94174000Y-127777000D02*
X94174000Y-132917000D01*
X94174000Y-126507000D02*
X94174000Y-125177000D01*
X94174000Y-127777000D02*
X96834000Y-127777000D01*
X94174000Y-125177000D02*
X95504000Y-125177000D01*
X94040000Y-154377000D02*
X91380000Y-154377000D01*
X91380000Y-156977000D02*
X91380000Y-154377000D01*
X94040000Y-159577000D02*
X92710000Y-159577000D01*
X94040000Y-158247000D02*
X94040000Y-159577000D01*
X94040000Y-156977000D02*
X91380000Y-156977000D01*
X94040000Y-156977000D02*
X94040000Y-154377000D01*
X88380000Y-133087500D02*
X88380000Y-132037500D01*
X88180000Y-138737500D02*
X88180000Y-141437500D01*
X73480000Y-132237500D02*
X88180000Y-132237500D01*
X82280000Y-141437500D02*
X73480000Y-141437500D01*
X88180000Y-141437500D02*
X86280000Y-141437500D01*
X87330000Y-132037500D02*
X88380000Y-132037500D01*
X88180000Y-132237500D02*
X88180000Y-134837500D01*
X73480000Y-141437500D02*
X73480000Y-132237500D01*
X88895000Y-149165000D02*
X91495000Y-149165000D01*
X87625000Y-151825000D02*
X86295000Y-151825000D01*
X91495000Y-151825000D02*
X91495000Y-149165000D01*
X86295000Y-151825000D02*
X86295000Y-150495000D01*
X88895000Y-151825000D02*
X91495000Y-151825000D01*
X88895000Y-151825000D02*
X88895000Y-149165000D01*
X86140000Y-117605000D02*
X134460000Y-117605000D01*
X83540000Y-117605000D02*
X83540000Y-116275000D01*
X84870000Y-117605000D02*
X83540000Y-117605000D01*
X83540000Y-112405000D02*
X134460000Y-112405000D01*
X86140000Y-115005000D02*
X83540000Y-115005000D01*
X83540000Y-115005000D02*
X83540000Y-112405000D01*
X134460000Y-117605000D02*
X134460000Y-112405000D01*
X86140000Y-117605000D02*
X86140000Y-115005000D01*
X106492000Y-158452000D02*
X106492000Y-152952000D01*
X108442000Y-152952000D02*
X108442000Y-158452000D01*
X108442000Y-158452000D02*
X106492000Y-158452000D01*
X106492000Y-152952000D02*
X108442000Y-152952000D01*
X88960000Y-146685000D02*
X86300000Y-146685000D01*
X88960000Y-146625000D02*
X86300000Y-146625000D01*
X88960000Y-149285000D02*
X87630000Y-149285000D01*
X88960000Y-147955000D02*
X88960000Y-149285000D01*
X88960000Y-146685000D02*
X88960000Y-146625000D01*
X86300000Y-146685000D02*
X86300000Y-146625000D01*
X80070000Y-131500000D02*
X78740000Y-131500000D01*
X80070000Y-118680000D02*
X77410000Y-118680000D01*
X80070000Y-128900000D02*
X80070000Y-118680000D01*
X77410000Y-128900000D02*
X77410000Y-118680000D01*
X80070000Y-130170000D02*
X80070000Y-131500000D01*
X80070000Y-128900000D02*
X77410000Y-128900000D01*
G36*
X138943879Y-119479510D02*
G01*
X138957992Y-119488951D01*
X138979397Y-119505920D01*
X138980346Y-119506699D01*
X139024221Y-119542794D01*
X139011462Y-119567272D01*
X139001525Y-119598599D01*
X139002753Y-119630121D01*
X139014292Y-119659113D01*
X139035290Y-119682847D01*
X139050722Y-119692755D01*
X139058595Y-119696118D01*
X139068474Y-119698723D01*
X139081944Y-119700665D01*
X139100591Y-119702036D01*
X139126000Y-119702930D01*
X139159757Y-119703441D01*
X139203446Y-119703662D01*
X139236261Y-119703695D01*
X139400364Y-119703705D01*
X139400364Y-119803729D01*
X138906492Y-119803729D01*
X138906492Y-119703705D01*
X138950889Y-119703705D01*
X138934210Y-119681837D01*
X138912756Y-119643860D01*
X138901800Y-119601677D01*
X138901391Y-119557950D01*
X138911579Y-119515343D01*
X138930426Y-119479315D01*
X138935283Y-119476623D01*
X138943879Y-119479510D01*
G37*
G36*
X138287537Y-118923006D02*
G01*
X138234495Y-118905894D01*
X138190780Y-118880761D01*
X138156633Y-118847831D01*
X138132291Y-118807329D01*
X138118995Y-118764733D01*
X138115910Y-118724798D01*
X138212571Y-118724798D01*
X138215620Y-118753303D01*
X138223698Y-118777520D01*
X138224170Y-118778419D01*
X138239933Y-118797563D01*
X138263124Y-118814235D01*
X138288786Y-118825450D01*
X138307328Y-118828489D01*
X138325099Y-118828489D01*
X138325099Y-118620797D01*
X138301656Y-118625091D01*
X138265713Y-118636886D01*
X138238311Y-118656972D01*
X138220359Y-118684333D01*
X138212768Y-118717949D01*
X138212571Y-118724798D01*
X138115910Y-118724798D01*
X138115200Y-118715608D01*
X138123477Y-118667904D01*
X138143394Y-118623084D01*
X138171789Y-118585484D01*
X138197071Y-118561751D01*
X138223451Y-118544730D01*
X138253731Y-118533361D01*
X138290718Y-118526583D01*
X138336039Y-118523378D01*
X138406369Y-118520814D01*
X138406369Y-118828489D01*
X138423799Y-118828489D01*
X138445144Y-118824297D01*
X138469823Y-118813510D01*
X138492790Y-118798816D01*
X138508748Y-118783250D01*
X138517555Y-118763746D01*
X138522956Y-118736851D01*
X138524513Y-118707319D01*
X138521786Y-118679905D01*
X138519217Y-118670045D01*
X138510624Y-118649897D01*
X138498850Y-118628735D01*
X138496524Y-118625184D01*
X138481169Y-118602557D01*
X138510170Y-118568612D01*
X138525098Y-118551907D01*
X138537179Y-118539789D01*
X138543966Y-118534698D01*
X138544207Y-118534667D01*
X138550868Y-118539090D01*
X138561882Y-118550269D01*
X138567447Y-118556750D01*
X138596941Y-118602082D01*
X138615787Y-118652548D01*
X138623426Y-118705895D01*
X138619295Y-118759870D01*
X138618708Y-118762848D01*
X138603074Y-118811212D01*
X138577624Y-118851952D01*
X138542724Y-118884702D01*
X138498741Y-118909097D01*
X138459969Y-118921700D01*
X138433379Y-118925988D01*
X138399025Y-118928451D01*
X138361519Y-118929054D01*
X138325472Y-118927762D01*
X138325099Y-118927722D01*
X138295494Y-118924540D01*
X138287537Y-118923006D01*
G37*
G36*
X138617619Y-121480213D02*
G01*
X138615796Y-121532280D01*
X138447004Y-121535405D01*
X138395895Y-121536425D01*
X138355741Y-121537451D01*
X138324997Y-121538606D01*
X138302116Y-121540011D01*
X138285551Y-121541791D01*
X138273755Y-121544067D01*
X138265182Y-121546962D01*
X138258742Y-121550319D01*
X138235841Y-121570129D01*
X138222765Y-121596499D01*
X138218823Y-121628891D01*
X138222614Y-121662559D01*
X138234786Y-121688343D01*
X138256537Y-121708596D01*
X138260869Y-121711408D01*
X138268343Y-121715807D01*
X138275994Y-121719248D01*
X138285420Y-121721873D01*
X138298222Y-121723821D01*
X138316000Y-121725232D01*
X138340355Y-121726245D01*
X138372886Y-121727001D01*
X138415193Y-121727639D01*
X138451693Y-121728094D01*
X138618921Y-121730110D01*
X138618921Y-121829228D01*
X138118798Y-121829228D01*
X138118798Y-121729203D01*
X138143804Y-121729203D01*
X138161629Y-121727904D01*
X138167696Y-121723149D01*
X138162500Y-121713651D01*
X138153339Y-121704345D01*
X138134183Y-121678466D01*
X138121800Y-121645162D01*
X138116572Y-121607753D01*
X138118882Y-121569558D01*
X138129112Y-121533898D01*
X138132819Y-121526028D01*
X138155184Y-121491145D01*
X138183025Y-121465194D01*
X138215697Y-121446656D01*
X138225130Y-121442530D01*
X138234541Y-121439255D01*
X138245486Y-121436711D01*
X138259524Y-121434782D01*
X138278211Y-121433349D01*
X138303104Y-121432296D01*
X138335759Y-121431503D01*
X138377735Y-121430854D01*
X138430587Y-121430230D01*
X138433199Y-121430201D01*
X138619443Y-121428147D01*
X138617619Y-121480213D01*
G37*
G36*
X139193197Y-122304503D02*
G01*
X139161966Y-122286949D01*
X139149071Y-122275462D01*
X139135137Y-122258688D01*
X139124814Y-122240863D01*
X139117508Y-122219680D01*
X139112623Y-122192830D01*
X139109565Y-122158004D01*
X139107805Y-122115235D01*
X139105179Y-122023025D01*
X139193094Y-122023025D01*
X139195141Y-122106937D01*
X139196111Y-122141103D01*
X139197340Y-122165148D01*
X139199238Y-122181449D01*
X139202213Y-122192387D01*
X139206676Y-122200341D01*
X139212344Y-122206961D01*
X139231929Y-122220127D01*
X139253599Y-122222743D01*
X139274733Y-122215844D01*
X139292711Y-122200465D01*
X139304911Y-122177641D01*
X139307036Y-122169582D01*
X139309214Y-122150328D01*
X139309796Y-122124707D01*
X139308946Y-122097171D01*
X139306827Y-122072169D01*
X139303600Y-122054155D01*
X139302712Y-122051451D01*
X139291439Y-122038335D01*
X139270494Y-122028725D01*
X139242452Y-122023604D01*
X139228272Y-122023025D01*
X139193094Y-122023025D01*
X139105179Y-122023025D01*
X139071065Y-122023025D01*
X139049354Y-122024238D01*
X139031205Y-122027340D01*
X139024331Y-122029780D01*
X139010349Y-122043732D01*
X139000125Y-122067148D01*
X138994657Y-122097294D01*
X138994014Y-122112690D01*
X138995474Y-122147587D01*
X139000342Y-122173153D01*
X139009351Y-122192270D01*
X139016518Y-122201277D01*
X139031244Y-122217166D01*
X139002248Y-122254504D01*
X138987767Y-122272396D01*
X138975955Y-122285611D01*
X138969031Y-122291693D01*
X138968491Y-122291841D01*
X138962123Y-122287461D01*
X138950729Y-122276170D01*
X138941132Y-122265440D01*
X138922543Y-122239091D01*
X138910034Y-122209425D01*
X138903008Y-122174015D01*
X138900870Y-122130432D01*
X138901479Y-122104020D01*
X138903268Y-122071486D01*
X138905986Y-122047670D01*
X138910373Y-122028787D01*
X138917171Y-122011053D01*
X138921477Y-122001901D01*
X138943763Y-121967282D01*
X138972681Y-121942443D01*
X139000265Y-121928998D01*
X139011811Y-121926292D01*
X139031444Y-121924012D01*
X139060040Y-121922113D01*
X139098473Y-121920548D01*
X139147620Y-121919275D01*
X139208355Y-121918247D01*
X139211255Y-121918208D01*
X139400364Y-121915651D01*
X139400364Y-122023025D01*
X139361743Y-122023025D01*
X139377687Y-122041974D01*
X139390380Y-122061317D01*
X139399657Y-122082691D01*
X139400088Y-122084172D01*
X139404875Y-122113401D01*
X139405812Y-122148418D01*
X139403020Y-122183158D01*
X139397616Y-122208545D01*
X139379586Y-122248911D01*
X139353802Y-122281580D01*
X139321757Y-122304922D01*
X139301740Y-122313277D01*
X139267167Y-122318678D01*
X139253599Y-122317499D01*
X139229625Y-122315417D01*
X139193197Y-122304503D01*
G37*
G36*
X138167784Y-119359480D02*
G01*
X138182055Y-119370626D01*
X138200505Y-119385917D01*
X138211863Y-119395691D01*
X138239286Y-119419703D01*
X138229054Y-119439488D01*
X138221096Y-119464425D01*
X138219181Y-119493115D01*
X138223232Y-119520225D01*
X138230468Y-119536820D01*
X138237898Y-119547730D01*
X138245178Y-119556378D01*
X138253801Y-119563057D01*
X138265263Y-119568060D01*
X138281055Y-119571680D01*
X138302674Y-119574209D01*
X138331612Y-119575942D01*
X138369364Y-119577170D01*
X138417424Y-119578187D01*
X138443878Y-119578674D01*
X138615796Y-119581800D01*
X138617611Y-119633375D01*
X138619427Y-119684950D01*
X138118293Y-119684950D01*
X138120108Y-119633375D01*
X138121924Y-119581800D01*
X138146400Y-119578674D01*
X138161413Y-119576196D01*
X138165819Y-119573088D01*
X138161481Y-119567815D01*
X138160542Y-119567031D01*
X138139131Y-119541825D01*
X138124593Y-119509005D01*
X138117265Y-119471616D01*
X138117486Y-119432705D01*
X138125594Y-119395317D01*
X138138421Y-119367842D01*
X138151129Y-119347280D01*
X138167784Y-119359480D01*
G37*
G36*
X138354440Y-120680614D02*
G01*
X138310460Y-120678494D01*
X138271000Y-120673498D01*
X138239404Y-120665595D01*
X138233796Y-120663445D01*
X138193152Y-120640246D01*
X138160667Y-120609157D01*
X138136621Y-120571998D01*
X138121294Y-120530586D01*
X138114968Y-120486743D01*
X138115733Y-120475229D01*
X138218823Y-120475229D01*
X138223473Y-120511357D01*
X138237670Y-120539656D01*
X138261788Y-120560791D01*
X138269059Y-120564854D01*
X138282870Y-120571129D01*
X138297081Y-120575222D01*
X138314809Y-120577570D01*
X138339170Y-120578607D01*
X138368622Y-120578783D01*
X138414243Y-120577352D01*
X138449237Y-120572710D01*
X138475248Y-120564038D01*
X138493919Y-120550516D01*
X138506895Y-120531325D01*
X138515820Y-120505645D01*
X138515881Y-120505407D01*
X138519735Y-120468867D01*
X138512316Y-120435824D01*
X138501466Y-120416864D01*
X138487558Y-120400813D01*
X138472017Y-120389436D01*
X138452462Y-120381992D01*
X138426510Y-120377744D01*
X138391778Y-120375952D01*
X138368860Y-120375745D01*
X138334861Y-120376004D01*
X138310662Y-120377011D01*
X138293566Y-120379112D01*
X138280874Y-120382655D01*
X138269891Y-120387985D01*
X138268856Y-120388586D01*
X138241289Y-120411112D01*
X138224568Y-120439830D01*
X138218825Y-120474513D01*
X138218823Y-120475229D01*
X138115733Y-120475229D01*
X138117922Y-120442285D01*
X138130438Y-120399034D01*
X138152796Y-120358808D01*
X138181813Y-120326471D01*
X138203655Y-120308579D01*
X138225350Y-120295324D01*
X138249289Y-120286068D01*
X138277867Y-120280176D01*
X138313476Y-120277012D01*
X138358509Y-120275939D01*
X138371986Y-120275924D01*
X138409881Y-120276216D01*
X138437993Y-120277102D01*
X138459039Y-120278882D01*
X138475735Y-120281857D01*
X138490799Y-120286326D01*
X138501035Y-120290189D01*
X138534013Y-120308630D01*
X138565539Y-120335608D01*
X138591797Y-120367385D01*
X138606182Y-120393142D01*
X138616546Y-120427786D01*
X138621441Y-120468030D01*
X138620265Y-120507955D01*
X138618858Y-120517744D01*
X138604832Y-120563831D01*
X138580331Y-120604511D01*
X138546762Y-120637952D01*
X138508669Y-120660937D01*
X138480055Y-120670019D01*
X138442582Y-120676346D01*
X138399596Y-120679888D01*
X138368622Y-120680386D01*
X138354440Y-120680614D01*
G37*
G36*
X138211144Y-118967840D02*
G01*
X138213195Y-118969684D01*
X138225426Y-118982153D01*
X138240039Y-118998917D01*
X138244697Y-119004658D01*
X138262942Y-119027664D01*
X138242636Y-119056473D01*
X138230754Y-119075471D01*
X138224086Y-119093422D01*
X138220829Y-119115983D01*
X138220096Y-119127239D01*
X138221986Y-119167211D01*
X138232800Y-119199032D01*
X138253155Y-119223896D01*
X138278574Y-119240532D01*
X138295631Y-119248215D01*
X138312228Y-119252925D01*
X138332334Y-119255349D01*
X138359915Y-119256177D01*
X138368860Y-119256216D01*
X138399618Y-119255716D01*
X138421822Y-119253699D01*
X138439391Y-119249531D01*
X138456244Y-119242576D01*
X138457825Y-119241808D01*
X138486264Y-119221459D01*
X138506349Y-119193765D01*
X138517672Y-119161033D01*
X138519831Y-119125569D01*
X138512417Y-119089678D01*
X138495027Y-119055668D01*
X138491423Y-119050727D01*
X138474296Y-119028272D01*
X138492782Y-119004962D01*
X138507044Y-118987995D01*
X138520658Y-118973378D01*
X138524459Y-118969743D01*
X138534513Y-118961768D01*
X138541808Y-118962316D01*
X138550882Y-118969743D01*
X138572747Y-118994545D01*
X138593273Y-119026908D01*
X138609538Y-119061987D01*
X138613619Y-119073799D01*
X138621074Y-119102099D01*
X138623908Y-119127330D01*
X138622394Y-119155022D01*
X138618867Y-119179003D01*
X138607771Y-119216916D01*
X138588577Y-119255202D01*
X138564200Y-119288313D01*
X138558062Y-119294717D01*
X138522354Y-119321645D01*
X138478106Y-119341680D01*
X138427558Y-119354257D01*
X138372952Y-119358813D01*
X138318132Y-119355022D01*
X138261468Y-119341990D01*
X138214168Y-119320702D01*
X138176091Y-119291027D01*
X138147097Y-119252834D01*
X138127047Y-119205992D01*
X138118238Y-119167871D01*
X138114690Y-119140570D01*
X138114847Y-119118491D01*
X138118973Y-119094832D01*
X138121443Y-119084764D01*
X138135886Y-119044070D01*
X138156751Y-119005986D01*
X138181425Y-118975187D01*
X138184254Y-118972449D01*
X138195261Y-118962929D01*
X138202479Y-118961560D01*
X138211144Y-118967840D01*
G37*
G36*
X138942956Y-121482890D02*
G01*
X138956800Y-121492896D01*
X138975116Y-121507301D01*
X138983025Y-121513789D01*
X139024766Y-121548436D01*
X139012539Y-121568490D01*
X139001323Y-121597927D01*
X139001030Y-121628661D01*
X139010808Y-121657789D01*
X139029807Y-121682404D01*
X139050039Y-121696382D01*
X139059062Y-121700674D01*
X139068136Y-121703991D01*
X139078943Y-121706459D01*
X139093165Y-121708203D01*
X139112483Y-121709349D01*
X139138579Y-121710020D01*
X139173135Y-121710343D01*
X139217833Y-121710443D01*
X139239148Y-121710448D01*
X139400364Y-121710448D01*
X139400364Y-121810473D01*
X138906492Y-121810473D01*
X138906492Y-121710448D01*
X138957479Y-121710448D01*
X138936115Y-121685490D01*
X138913909Y-121650323D01*
X138901965Y-121610188D01*
X138900588Y-121567680D01*
X138910084Y-121525396D01*
X138915643Y-121511962D01*
X138924697Y-121494279D01*
X138932371Y-121482363D01*
X138936103Y-121479141D01*
X138942956Y-121482890D01*
G37*
G36*
X136317644Y-119053576D02*
G01*
X136368903Y-119053702D01*
X136409969Y-119053974D01*
X136441997Y-119054441D01*
X136466144Y-119055152D01*
X136483563Y-119056158D01*
X136495409Y-119057508D01*
X136502839Y-119059252D01*
X136507007Y-119061439D01*
X136509069Y-119064119D01*
X136509233Y-119064485D01*
X136511428Y-119072973D01*
X136515615Y-119092304D01*
X136521504Y-119121027D01*
X136528806Y-119157690D01*
X136537233Y-119200844D01*
X136546496Y-119249036D01*
X136556173Y-119300114D01*
X136568073Y-119362698D01*
X136578106Y-119413876D01*
X136586480Y-119454571D01*
X136593406Y-119485706D01*
X136599095Y-119508204D01*
X136603757Y-119522989D01*
X136607601Y-119530983D01*
X136609108Y-119532601D01*
X136617448Y-119536829D01*
X136635875Y-119545013D01*
X136662850Y-119556507D01*
X136696836Y-119570667D01*
X136736294Y-119586846D01*
X136779684Y-119604400D01*
X136794250Y-119610243D01*
X136852390Y-119633234D01*
X136899565Y-119651257D01*
X136936215Y-119664465D01*
X136962780Y-119673012D01*
X136979701Y-119677053D01*
X136985813Y-119677325D01*
X136994820Y-119673216D01*
X137012777Y-119662772D01*
X137038391Y-119646825D01*
X137070366Y-119626209D01*
X137107409Y-119601755D01*
X137148226Y-119574296D01*
X137186001Y-119548474D01*
X137228746Y-119519243D01*
X137268557Y-119492408D01*
X137304192Y-119468777D01*
X137334411Y-119449156D01*
X137357972Y-119434352D01*
X137373635Y-119425172D01*
X137379948Y-119422385D01*
X137386628Y-119426683D01*
X137401065Y-119438938D01*
X137422246Y-119458196D01*
X137449158Y-119483502D01*
X137480790Y-119513902D01*
X137516130Y-119548439D01*
X137554165Y-119586160D01*
X137564343Y-119596344D01*
X137609362Y-119641602D01*
X137646140Y-119678917D01*
X137675390Y-119709072D01*
X137697827Y-119732851D01*
X137714161Y-119751038D01*
X137725106Y-119764417D01*
X137731376Y-119773771D01*
X137733681Y-119779885D01*
X137733458Y-119782327D01*
X137728975Y-119790162D01*
X137718229Y-119807017D01*
X137702066Y-119831625D01*
X137681330Y-119862719D01*
X137656865Y-119899030D01*
X137629514Y-119939292D01*
X137605082Y-119975015D01*
X137576128Y-120017558D01*
X137549574Y-120057224D01*
X137526232Y-120092750D01*
X137506915Y-120122872D01*
X137492434Y-120146327D01*
X137483601Y-120161851D01*
X137481141Y-120167848D01*
X137483990Y-120177471D01*
X137491827Y-120195755D01*
X137503591Y-120220421D01*
X137518219Y-120249186D01*
X137525128Y-120262253D01*
X137540520Y-120291989D01*
X137553313Y-120318546D01*
X137562494Y-120339671D01*
X137567047Y-120353113D01*
X137567325Y-120356004D01*
X137564452Y-120359394D01*
X137556185Y-120364719D01*
X137541879Y-120372262D01*
X137520888Y-120382309D01*
X137492569Y-120395143D01*
X137456276Y-120411049D01*
X137411365Y-120430309D01*
X137357190Y-120453210D01*
X137293107Y-120480033D01*
X137218472Y-120511065D01*
X137166449Y-120532610D01*
X137099343Y-120560299D01*
X137035434Y-120586531D01*
X136975689Y-120610919D01*
X136921076Y-120633073D01*
X136872561Y-120652607D01*
X136831111Y-120669131D01*
X136797694Y-120682257D01*
X136773276Y-120691597D01*
X136758824Y-120696763D01*
X136755273Y-120697699D01*
X136743847Y-120692241D01*
X136730321Y-120677343D01*
X136726067Y-120671130D01*
X136714132Y-120653344D01*
X136697793Y-120629940D01*
X136680131Y-120605316D01*
X136675960Y-120599608D01*
X136623961Y-120538867D01*
X136564842Y-120487816D01*
X136499777Y-120446787D01*
X136429939Y-120416114D01*
X136356501Y-120396126D01*
X136280636Y-120387158D01*
X136203516Y-120389542D01*
X136126314Y-120403609D01*
X136060684Y-120425331D01*
X136017811Y-120444897D01*
X135979186Y-120467888D01*
X135941485Y-120496607D01*
X135901386Y-120533356D01*
X135893248Y-120541411D01*
X135843993Y-120596811D01*
X135805533Y-120654513D01*
X135776173Y-120717361D01*
X135760870Y-120763340D01*
X135751565Y-120808035D01*
X135746421Y-120860210D01*
X135745439Y-120915556D01*
X135748619Y-120969764D01*
X135755961Y-121018525D01*
X135760870Y-121038408D01*
X135788327Y-121112057D01*
X135826104Y-121180070D01*
X135873119Y-121241433D01*
X135928286Y-121295131D01*
X135990523Y-121340150D01*
X136058745Y-121375475D01*
X136131870Y-121400093D01*
X136152288Y-121404767D01*
X136230841Y-121414795D01*
X136308763Y-121412806D01*
X136384831Y-121399274D01*
X136457825Y-121374672D01*
X136526520Y-121339472D01*
X136589696Y-121294147D01*
X136646131Y-121239171D01*
X136675960Y-121202140D01*
X136693478Y-121177886D01*
X136710425Y-121153778D01*
X136723721Y-121134212D01*
X136726067Y-121130618D01*
X136739750Y-121113234D01*
X136752090Y-121104602D01*
X136755273Y-121104049D01*
X136762954Y-121106388D01*
X136781210Y-121113145D01*
X136809075Y-121123933D01*
X136845580Y-121138363D01*
X136889760Y-121156047D01*
X136940647Y-121176597D01*
X136997273Y-121199624D01*
X137058673Y-121224740D01*
X137123880Y-121251557D01*
X137166449Y-121269138D01*
X137247973Y-121302929D01*
X137318543Y-121332336D01*
X137378804Y-121357643D01*
X137429400Y-121379134D01*
X137470977Y-121397093D01*
X137504179Y-121411803D01*
X137529651Y-121423550D01*
X137548039Y-121432617D01*
X137559986Y-121439288D01*
X137566138Y-121443848D01*
X137567325Y-121445744D01*
X137565117Y-121455112D01*
X137557838Y-121473150D01*
X137546502Y-121497606D01*
X137532123Y-121526227D01*
X137525128Y-121539496D01*
X137509594Y-121569324D01*
X137496468Y-121596033D01*
X137486812Y-121617341D01*
X137481687Y-121630969D01*
X137481141Y-121633900D01*
X137484579Y-121641754D01*
X137494350Y-121658604D01*
X137509642Y-121683187D01*
X137529644Y-121714239D01*
X137553542Y-121750497D01*
X137580526Y-121790698D01*
X137605082Y-121826733D01*
X137634193Y-121869323D01*
X137661125Y-121909020D01*
X137685033Y-121944557D01*
X137705073Y-121974667D01*
X137720400Y-121998082D01*
X137730169Y-122013536D01*
X137733458Y-122019422D01*
X137733190Y-122023966D01*
X137729387Y-122031280D01*
X137721336Y-122042148D01*
X137708324Y-122057353D01*
X137689638Y-122077679D01*
X137664566Y-122103910D01*
X137632395Y-122136831D01*
X137592412Y-122177224D01*
X137564343Y-122205405D01*
X137525775Y-122243795D01*
X137489639Y-122279250D01*
X137456948Y-122310814D01*
X137428715Y-122337532D01*
X137405950Y-122358451D01*
X137389668Y-122372614D01*
X137380879Y-122379066D01*
X137379948Y-122379363D01*
X137372434Y-122375920D01*
X137355907Y-122366129D01*
X137331609Y-122350796D01*
X137300781Y-122330729D01*
X137264662Y-122306734D01*
X137224495Y-122279617D01*
X137186001Y-122253274D01*
X137142944Y-122223871D01*
X137102529Y-122196744D01*
X137066050Y-122172726D01*
X137034802Y-122152649D01*
X137010078Y-122137347D01*
X136993173Y-122127652D01*
X136985813Y-122124424D01*
X136975039Y-122125565D01*
X136954911Y-122131111D01*
X136924990Y-122141214D01*
X136884836Y-122156031D01*
X136834008Y-122175714D01*
X136794250Y-122191505D01*
X136749920Y-122209365D01*
X136709027Y-122226058D01*
X136673110Y-122240938D01*
X136643708Y-122253362D01*
X136622358Y-122262683D01*
X136610600Y-122268256D01*
X136609108Y-122269147D01*
X136605560Y-122274409D01*
X136601289Y-122286050D01*
X136596085Y-122304993D01*
X136589736Y-122332161D01*
X136582034Y-122368477D01*
X136572767Y-122414864D01*
X136561726Y-122472245D01*
X136556173Y-122501634D01*
X136546369Y-122553377D01*
X136537116Y-122601512D01*
X136528702Y-122644589D01*
X136521416Y-122681157D01*
X136515547Y-122709765D01*
X136511385Y-122728961D01*
X136509233Y-122737264D01*
X136507351Y-122740008D01*
X136503504Y-122742253D01*
X136496537Y-122744048D01*
X136485295Y-122745444D01*
X136468623Y-122746489D01*
X136445366Y-122747234D01*
X136414368Y-122747728D01*
X136374474Y-122748021D01*
X136324530Y-122748163D01*
X136263380Y-122748203D01*
X136255037Y-122748204D01*
X136005510Y-122748204D01*
X135999600Y-122734138D01*
X135997125Y-122724884D01*
X135992713Y-122704819D01*
X135986660Y-122675432D01*
X135979264Y-122638213D01*
X135970820Y-122594653D01*
X135961626Y-122546241D01*
X135952699Y-122498382D01*
X135943008Y-122446864D01*
X135933665Y-122398880D01*
X135924982Y-122355910D01*
X135917271Y-122319433D01*
X135910846Y-122290930D01*
X135906017Y-122271881D01*
X135903235Y-122263949D01*
X135895366Y-122258213D01*
X135877676Y-122248623D01*
X135851958Y-122235956D01*
X135820004Y-122220988D01*
X135783609Y-122204496D01*
X135744564Y-122187256D01*
X135704663Y-122170045D01*
X135665699Y-122153640D01*
X135629465Y-122138817D01*
X135597753Y-122126352D01*
X135572357Y-122117022D01*
X135555070Y-122111603D01*
X135549039Y-122110547D01*
X135538831Y-122114261D01*
X135518699Y-122125355D01*
X135488756Y-122143756D01*
X135449116Y-122169392D01*
X135399896Y-122202190D01*
X135341208Y-122242078D01*
X135337009Y-122244955D01*
X135292652Y-122275137D01*
X135251143Y-122302955D01*
X135213693Y-122327628D01*
X135181510Y-122348378D01*
X135155805Y-122364427D01*
X135137787Y-122374995D01*
X135128667Y-122379303D01*
X135128199Y-122379363D01*
X135121244Y-122375084D01*
X135106754Y-122363032D01*
X135085924Y-122344381D01*
X135059950Y-122320307D01*
X135030030Y-122291984D01*
X134997359Y-122260588D01*
X134963134Y-122227294D01*
X134928550Y-122193278D01*
X134894804Y-122159713D01*
X134863093Y-122127776D01*
X134834611Y-122098641D01*
X134810557Y-122073484D01*
X134792125Y-122053480D01*
X134780512Y-122039804D01*
X134776967Y-122034318D01*
X134775885Y-122030656D01*
X134775541Y-122026857D01*
X134776549Y-122021935D01*
X134779523Y-122014904D01*
X134785079Y-122004776D01*
X134793831Y-121990566D01*
X134806393Y-121971288D01*
X134823381Y-121945953D01*
X134845409Y-121913576D01*
X134873091Y-121873170D01*
X134907042Y-121823748D01*
X134918970Y-121806394D01*
X134957858Y-121749442D01*
X134989582Y-121702152D01*
X135014396Y-121664122D01*
X135032554Y-121634948D01*
X135044311Y-121614228D01*
X135049922Y-121601560D01*
X135050505Y-121598203D01*
X135047986Y-121588236D01*
X135041293Y-121568746D01*
X135031186Y-121541588D01*
X135018425Y-121508621D01*
X135003772Y-121471702D01*
X134987987Y-121432689D01*
X134971832Y-121393439D01*
X134956066Y-121355810D01*
X134941451Y-121321660D01*
X134928748Y-121292847D01*
X134918716Y-121271227D01*
X134912118Y-121258658D01*
X134910591Y-121256563D01*
X134902782Y-121253633D01*
X134884058Y-121248787D01*
X134855812Y-121242320D01*
X134819436Y-121234530D01*
X134776320Y-121225712D01*
X134727856Y-121216164D01*
X134675436Y-121206182D01*
X134666108Y-121204441D01*
X134612957Y-121194438D01*
X134563349Y-121184894D01*
X134518706Y-121176099D01*
X134480450Y-121168341D01*
X134450002Y-121161909D01*
X134428783Y-121157094D01*
X134418217Y-121154182D01*
X134417610Y-121153913D01*
X134414535Y-121151851D01*
X134412024Y-121148491D01*
X134410019Y-121142655D01*
X134408464Y-121133163D01*
X134407302Y-121118834D01*
X134406476Y-121098490D01*
X134405928Y-121070952D01*
X134405603Y-121035038D01*
X134405442Y-120989570D01*
X134405388Y-120933369D01*
X134405385Y-120900874D01*
X134405406Y-120838853D01*
X134405508Y-120788156D01*
X134405748Y-120747604D01*
X134406181Y-120716018D01*
X134406864Y-120692219D01*
X134407854Y-120675028D01*
X134409207Y-120663266D01*
X134410980Y-120655754D01*
X134413228Y-120651314D01*
X134416010Y-120648765D01*
X134417505Y-120647892D01*
X134426210Y-120645322D01*
X134445795Y-120640796D01*
X134474839Y-120634602D01*
X134511921Y-120627029D01*
X134555621Y-120618367D01*
X134604520Y-120608905D01*
X134657196Y-120598932D01*
X134666004Y-120597285D01*
X134718967Y-120587237D01*
X134768209Y-120577584D01*
X134812339Y-120568621D01*
X134849968Y-120560645D01*
X134879705Y-120553950D01*
X134900161Y-120548835D01*
X134909946Y-120545593D01*
X134910457Y-120545241D01*
X134915406Y-120536950D01*
X134924103Y-120518851D01*
X134935788Y-120492798D01*
X134949700Y-120460648D01*
X134965079Y-120424254D01*
X134981166Y-120385470D01*
X134997200Y-120346152D01*
X135012422Y-120308154D01*
X135026071Y-120273331D01*
X135037387Y-120243537D01*
X135045611Y-120220626D01*
X135049981Y-120206454D01*
X135050485Y-120203551D01*
X135047783Y-120194673D01*
X135039093Y-120177982D01*
X135024158Y-120153069D01*
X135002719Y-120119523D01*
X134974517Y-120076936D01*
X134939294Y-120024897D01*
X134918601Y-119994671D01*
X134882641Y-119942303D01*
X134853134Y-119899262D01*
X134829465Y-119864563D01*
X134811019Y-119837218D01*
X134797181Y-119816241D01*
X134787336Y-119800647D01*
X134780870Y-119789448D01*
X134777169Y-119781658D01*
X134775616Y-119776291D01*
X134775597Y-119772361D01*
X134776499Y-119768880D01*
X134776967Y-119767430D01*
X134782500Y-119759440D01*
X134795775Y-119744216D01*
X134815596Y-119722932D01*
X134840767Y-119696763D01*
X134870092Y-119666885D01*
X134902373Y-119634473D01*
X134936415Y-119600702D01*
X134971023Y-119566746D01*
X135004999Y-119533782D01*
X135037147Y-119502985D01*
X135066271Y-119475528D01*
X135091176Y-119452589D01*
X135110664Y-119435341D01*
X135123539Y-119424960D01*
X135128199Y-119422385D01*
X135136076Y-119425825D01*
X135153008Y-119435625D01*
X135177784Y-119451007D01*
X135209195Y-119471191D01*
X135246031Y-119495400D01*
X135287082Y-119522853D01*
X135331138Y-119552773D01*
X135337009Y-119556793D01*
X135396317Y-119597146D01*
X135446165Y-119630414D01*
X135486440Y-119656524D01*
X135517026Y-119675405D01*
X135537809Y-119686982D01*
X135548674Y-119691185D01*
X135549039Y-119691202D01*
X135560109Y-119688735D01*
X135580451Y-119681853D01*
X135608271Y-119671333D01*
X135641776Y-119657951D01*
X135679174Y-119642483D01*
X135718672Y-119625706D01*
X135758476Y-119608396D01*
X135796794Y-119591331D01*
X135831833Y-119575286D01*
X135861799Y-119561038D01*
X135884900Y-119549364D01*
X135899343Y-119541040D01*
X135903235Y-119537800D01*
X135906301Y-119528858D01*
X135911253Y-119509088D01*
X135917780Y-119479969D01*
X135925570Y-119442983D01*
X135934311Y-119399608D01*
X135943689Y-119351324D01*
X135952699Y-119303367D01*
X135962325Y-119251792D01*
X135971474Y-119203689D01*
X135979851Y-119160547D01*
X135987158Y-119123856D01*
X135993099Y-119095108D01*
X135997378Y-119075791D01*
X135999600Y-119067611D01*
X136005510Y-119053545D01*
X136255037Y-119053545D01*
X136317644Y-119053576D01*
G37*
G36*
X138271908Y-123272076D02*
G01*
X138236103Y-123261622D01*
X138205849Y-123245751D01*
X138178975Y-123223752D01*
X138169789Y-123214281D01*
X138141134Y-123174911D01*
X138123034Y-123131884D01*
X138115129Y-123086997D01*
X138116199Y-123062039D01*
X138218361Y-123062039D01*
X138219446Y-123092772D01*
X138229528Y-123122291D01*
X138248609Y-123148118D01*
X138268856Y-123163593D01*
X138279818Y-123169107D01*
X138292236Y-123172802D01*
X138308807Y-123175024D01*
X138332228Y-123176118D01*
X138365198Y-123176432D01*
X138368860Y-123176434D01*
X138409214Y-123175653D01*
X138439524Y-123172813D01*
X138462180Y-123167170D01*
X138479574Y-123157977D01*
X138494094Y-123144491D01*
X138501678Y-123135031D01*
X138515083Y-123107383D01*
X138519697Y-123074910D01*
X138515496Y-123041699D01*
X138502454Y-123011842D01*
X138502431Y-123011807D01*
X138487791Y-122996071D01*
X138466494Y-122984818D01*
X138437015Y-122977610D01*
X138397827Y-122974009D01*
X138368622Y-122973396D01*
X138335832Y-122973641D01*
X138312421Y-122974811D01*
X138295273Y-122977343D01*
X138281271Y-122981672D01*
X138269059Y-122987325D01*
X138243171Y-123006838D01*
X138226271Y-123032569D01*
X138218361Y-123062039D01*
X138116199Y-123062039D01*
X138117056Y-123042045D01*
X138128456Y-122998824D01*
X138148967Y-122959129D01*
X138178228Y-122924757D01*
X138215878Y-122897503D01*
X138235377Y-122888074D01*
X138260811Y-122880894D01*
X138295300Y-122875916D01*
X138335595Y-122873137D01*
X138378443Y-122872555D01*
X138420595Y-122874166D01*
X138458798Y-122877969D01*
X138489802Y-122883959D01*
X138502896Y-122888305D01*
X138542289Y-122910822D01*
X138575732Y-122941903D01*
X138600783Y-122978930D01*
X138611277Y-123004517D01*
X138619121Y-123041745D01*
X138621788Y-123082314D01*
X138619036Y-123117542D01*
X138604863Y-123162530D01*
X138579032Y-123203543D01*
X138565091Y-123219101D01*
X138537840Y-123242383D01*
X138507065Y-123259432D01*
X138470692Y-123270887D01*
X138426644Y-123277389D01*
X138372846Y-123279576D01*
X138368860Y-123279584D01*
X138315437Y-123277826D01*
X138271908Y-123272076D01*
G37*
G36*
X139001243Y-119435977D02*
G01*
X138961736Y-119408883D01*
X138931773Y-119374299D01*
X138911742Y-119332579D01*
X138902027Y-119284076D01*
X138901572Y-119277808D01*
X138902518Y-119255192D01*
X138995240Y-119255192D01*
X138995577Y-119273917D01*
X139004467Y-119308121D01*
X139023012Y-119335720D01*
X139049679Y-119355081D01*
X139080513Y-119364277D01*
X139106541Y-119367768D01*
X139106541Y-119160133D01*
X139086224Y-119164005D01*
X139049287Y-119176057D01*
X139021292Y-119195900D01*
X139003018Y-119222592D01*
X138995240Y-119255192D01*
X138902518Y-119255192D01*
X138903762Y-119225448D01*
X138916766Y-119179076D01*
X138940336Y-119139135D01*
X138974225Y-119106066D01*
X139010040Y-119084140D01*
X139029609Y-119075006D01*
X139046495Y-119068895D01*
X139064369Y-119065051D01*
X139086901Y-119062720D01*
X139117763Y-119061147D01*
X139122836Y-119060949D01*
X139194063Y-119058223D01*
X139194063Y-119367768D01*
X139220091Y-119364277D01*
X139251845Y-119354044D01*
X139278784Y-119333754D01*
X139298814Y-119305551D01*
X139309702Y-119272433D01*
X139309929Y-119244689D01*
X139303553Y-119212946D01*
X139292108Y-119182700D01*
X139278629Y-119161163D01*
X139263278Y-119142920D01*
X139291952Y-119109172D01*
X139306762Y-119092223D01*
X139318625Y-119079529D01*
X139325097Y-119073699D01*
X139325256Y-119073626D01*
X139332774Y-119076791D01*
X139344394Y-119088302D01*
X139358124Y-119105587D01*
X139371974Y-119126075D01*
X139383955Y-119147193D01*
X139386895Y-119153284D01*
X139397135Y-119184380D01*
X139403480Y-119221906D01*
X139405604Y-119261098D01*
X139403181Y-119297192D01*
X139398229Y-119319235D01*
X139381912Y-119359432D01*
X139361475Y-119390727D01*
X139334242Y-119416636D01*
X139312842Y-119431494D01*
X139273828Y-119450012D01*
X139226463Y-119462479D01*
X139173588Y-119468412D01*
X139118044Y-119467331D01*
X139107349Y-119466285D01*
X139106541Y-119466129D01*
X139049909Y-119455229D01*
X139001243Y-119435977D01*
G37*
G36*
X138618921Y-119891251D02*
G01*
X138569754Y-119891251D01*
X138590650Y-119922301D01*
X138611917Y-119963252D01*
X138622291Y-120005678D01*
X138621289Y-120047313D01*
X138619307Y-120056917D01*
X138602638Y-120100198D01*
X138575845Y-120136353D01*
X138539573Y-120164605D01*
X138522022Y-120173765D01*
X138512638Y-120177889D01*
X138503436Y-120181138D01*
X138492855Y-120183617D01*
X138479328Y-120185431D01*
X138461292Y-120186682D01*
X138437183Y-120187477D01*
X138405436Y-120187920D01*
X138364487Y-120188114D01*
X138312771Y-120188165D01*
X138306344Y-120188167D01*
X138121924Y-120188199D01*
X138120113Y-120136908D01*
X138118302Y-120085616D01*
X138290023Y-120083770D01*
X138341054Y-120083174D01*
X138381104Y-120082537D01*
X138411694Y-120081737D01*
X138434346Y-120080658D01*
X138450580Y-120079181D01*
X138461918Y-120077186D01*
X138469882Y-120074555D01*
X138475993Y-120071169D01*
X138478994Y-120069033D01*
X138502186Y-120047879D01*
X138515097Y-120025247D01*
X138519738Y-119997369D01*
X138519845Y-119992485D01*
X138515554Y-119957805D01*
X138501627Y-119930686D01*
X138477387Y-119909968D01*
X138468980Y-119905317D01*
X138460003Y-119901026D01*
X138450969Y-119897709D01*
X138440197Y-119895241D01*
X138426008Y-119893496D01*
X138406721Y-119892351D01*
X138380655Y-119891679D01*
X138346131Y-119891356D01*
X138301468Y-119891256D01*
X138280014Y-119891251D01*
X138118798Y-119891251D01*
X138118798Y-119791226D01*
X138618921Y-119791226D01*
X138618921Y-119891251D01*
G37*
G36*
X138118798Y-122685688D02*
G01*
X138167965Y-122685688D01*
X138147070Y-122654638D01*
X138126547Y-122614457D01*
X138117589Y-122575858D01*
X138219596Y-122575858D01*
X138220032Y-122598153D01*
X138222336Y-122620875D01*
X138226372Y-122635478D01*
X138233959Y-122646345D01*
X138243694Y-122655200D01*
X138268709Y-122669516D01*
X138302130Y-122679449D01*
X138340815Y-122684979D01*
X138381623Y-122686088D01*
X138421414Y-122682757D01*
X138457046Y-122674967D01*
X138485379Y-122662699D01*
X138493764Y-122656704D01*
X138509372Y-122636119D01*
X138518293Y-122608651D01*
X138520127Y-122578223D01*
X138514480Y-122548756D01*
X138506429Y-122531691D01*
X138496073Y-122518076D01*
X138483347Y-122508210D01*
X138466193Y-122501532D01*
X138442556Y-122497482D01*
X138410380Y-122495498D01*
X138371986Y-122495016D01*
X138334724Y-122495301D01*
X138307514Y-122496323D01*
X138287916Y-122498331D01*
X138273489Y-122501575D01*
X138261828Y-122506286D01*
X138238914Y-122522702D01*
X138225064Y-122545395D01*
X138219596Y-122575858D01*
X138117589Y-122575858D01*
X138116892Y-122572855D01*
X138117514Y-122531654D01*
X138127821Y-122492672D01*
X138147222Y-122457730D01*
X138175125Y-122428648D01*
X138210939Y-122407244D01*
X138229668Y-122400548D01*
X138252517Y-122396173D01*
X138284754Y-122393014D01*
X138323334Y-122391072D01*
X138365209Y-122390349D01*
X138407333Y-122390844D01*
X138446661Y-122392559D01*
X138480146Y-122395495D01*
X138504742Y-122399652D01*
X138507763Y-122400464D01*
X138546746Y-122417914D01*
X138578870Y-122444504D01*
X138602972Y-122478242D01*
X138617887Y-122517136D01*
X138622451Y-122559194D01*
X138618693Y-122590229D01*
X138611327Y-122612440D01*
X138599433Y-122637662D01*
X138590443Y-122652868D01*
X138568781Y-122685688D01*
X138759886Y-122685688D01*
X138815612Y-122685590D01*
X138859893Y-122685266D01*
X138893785Y-122684671D01*
X138918346Y-122683761D01*
X138934631Y-122682492D01*
X138943698Y-122680820D01*
X138946602Y-122678701D01*
X138946376Y-122677874D01*
X138939746Y-122667775D01*
X138929586Y-122653334D01*
X138928116Y-122651305D01*
X138909430Y-122615538D01*
X138900657Y-122575391D01*
X138901566Y-122533792D01*
X138911927Y-122493671D01*
X138931508Y-122457956D01*
X138944557Y-122442794D01*
X138957460Y-122430103D01*
X138969126Y-122419884D01*
X138981054Y-122411855D01*
X138994744Y-122405735D01*
X139011694Y-122401240D01*
X139033404Y-122398088D01*
X139061373Y-122395998D01*
X139097100Y-122394686D01*
X139142085Y-122393871D01*
X139197827Y-122393271D01*
X139208129Y-122393173D01*
X139400364Y-122391354D01*
X139400364Y-122491891D01*
X139236261Y-122491900D01*
X139181995Y-122492034D01*
X139138721Y-122492603D01*
X139104927Y-122493873D01*
X139079103Y-122496107D01*
X139059738Y-122499571D01*
X139045322Y-122504528D01*
X139034344Y-122511244D01*
X139025294Y-122519982D01*
X139017214Y-122530249D01*
X139004325Y-122557620D01*
X139001062Y-122588521D01*
X139006771Y-122619512D01*
X139020799Y-122647149D01*
X139042494Y-122667992D01*
X139043461Y-122668603D01*
X139050706Y-122672797D01*
X139058412Y-122676080D01*
X139068172Y-122678587D01*
X139081577Y-122680451D01*
X139100222Y-122681805D01*
X139125697Y-122682783D01*
X139159597Y-122683519D01*
X139203512Y-122684145D01*
X139233135Y-122684498D01*
X139400364Y-122686434D01*
X139400364Y-122785713D01*
X138118798Y-122785713D01*
X138118798Y-122685688D01*
G37*
G36*
X139211731Y-120307840D02*
G01*
X139174661Y-120290796D01*
X139144461Y-120263530D01*
X139122873Y-120228834D01*
X139117518Y-120215359D01*
X139113665Y-120200151D01*
X139110992Y-120180670D01*
X139109178Y-120154375D01*
X139107901Y-120118728D01*
X139107639Y-120108492D01*
X139107307Y-120094837D01*
X139194063Y-120094837D01*
X139194933Y-120137326D01*
X139198020Y-120168900D01*
X139204037Y-120191058D01*
X139213699Y-120205296D01*
X139227719Y-120213113D01*
X139246813Y-120216006D01*
X139251890Y-120216132D01*
X139276406Y-120211057D01*
X139294436Y-120196570D01*
X139303062Y-120177418D01*
X139306948Y-120159981D01*
X139309129Y-120150690D01*
X139310973Y-120132449D01*
X139310227Y-120108125D01*
X139307400Y-120082263D01*
X139303004Y-120059408D01*
X139297552Y-120044103D01*
X139297041Y-120043273D01*
X139281765Y-120027993D01*
X139259220Y-120019254D01*
X139227370Y-120016292D01*
X139224914Y-120016282D01*
X139194063Y-120016282D01*
X139194063Y-120094837D01*
X139107307Y-120094837D01*
X139105395Y-120016282D01*
X139069151Y-120016282D01*
X139042354Y-120018094D01*
X139024986Y-120023920D01*
X139020416Y-120027222D01*
X139006661Y-120046517D01*
X138997843Y-120073683D01*
X138993950Y-120105278D01*
X138994970Y-120137858D01*
X139000890Y-120167983D01*
X139011698Y-120192209D01*
X139021041Y-120202917D01*
X139025568Y-120208197D01*
X139025431Y-120214906D01*
X139019615Y-120225575D01*
X139007106Y-120242737D01*
X139002889Y-120248241D01*
X138988545Y-120266043D01*
X138976775Y-120279122D01*
X138969840Y-120284993D01*
X138969369Y-120285098D01*
X138959735Y-120279966D01*
X138946921Y-120266605D01*
X138933137Y-120248069D01*
X138920593Y-120227408D01*
X138911500Y-120207677D01*
X138909971Y-120203066D01*
X138903434Y-120169581D01*
X138900642Y-120129106D01*
X138901574Y-120086569D01*
X138906206Y-120046901D01*
X138910788Y-120026397D01*
X138924802Y-119993090D01*
X138946037Y-119963012D01*
X138971853Y-119939105D01*
X138999610Y-119924314D01*
X139003391Y-119923168D01*
X139017792Y-119921052D01*
X139043654Y-119919281D01*
X139079939Y-119917890D01*
X139125609Y-119916913D01*
X139179627Y-119916382D01*
X139214380Y-119916292D01*
X139400364Y-119916257D01*
X139400364Y-120016282D01*
X139361743Y-120016282D01*
X139377687Y-120035230D01*
X139390380Y-120054574D01*
X139399657Y-120075948D01*
X139400088Y-120077428D01*
X139405122Y-120108211D01*
X139405914Y-120144665D01*
X139402670Y-120180950D01*
X139395592Y-120211225D01*
X139395415Y-120211723D01*
X139375309Y-120251454D01*
X139347522Y-120282170D01*
X139313519Y-120303104D01*
X139274767Y-120313489D01*
X139251890Y-120312982D01*
X139232733Y-120312558D01*
X139211731Y-120307840D01*
G37*
G36*
X138499604Y-120742237D02*
G01*
X138527098Y-120750698D01*
X138558060Y-120772021D01*
X138583812Y-120803057D01*
X138603634Y-120841848D01*
X138616800Y-120886437D01*
X138622589Y-120934867D01*
X138620276Y-120985179D01*
X138618356Y-120997773D01*
X138612252Y-121022345D01*
X138602572Y-121050866D01*
X138593800Y-121071836D01*
X138581956Y-121094705D01*
X138568200Y-121117578D01*
X138554355Y-121137832D01*
X138542242Y-121152841D01*
X138533685Y-121159980D01*
X138532437Y-121160234D01*
X138526578Y-121155828D01*
X138514995Y-121144281D01*
X138500063Y-121127980D01*
X138498239Y-121125908D01*
X138468204Y-121091662D01*
X138487552Y-121063541D01*
X138509264Y-121025468D01*
X138521304Y-120986636D01*
X138525144Y-120942223D01*
X138525148Y-120940522D01*
X138522206Y-120899985D01*
X138513297Y-120870313D01*
X138498300Y-120851321D01*
X138477094Y-120842821D01*
X138461399Y-120842673D01*
X138446105Y-120846435D01*
X138434542Y-120855351D01*
X138425940Y-120871082D01*
X138419525Y-120895289D01*
X138414527Y-120929634D01*
X138412656Y-120947561D01*
X138405892Y-120998509D01*
X138396022Y-121038764D01*
X138382253Y-121069917D01*
X138363793Y-121093563D01*
X138339849Y-121111293D01*
X138328225Y-121117240D01*
X138305819Y-121124491D01*
X138280215Y-121128589D01*
X138272686Y-121128918D01*
X138228007Y-121123994D01*
X138190461Y-121108811D01*
X138160083Y-121083404D01*
X138136908Y-121047806D01*
X138120969Y-121002052D01*
X138115672Y-120975034D01*
X138114432Y-120948489D01*
X138116866Y-120915007D01*
X138122275Y-120879363D01*
X138129958Y-120846332D01*
X138137902Y-120823536D01*
X138149462Y-120799883D01*
X138161807Y-120778678D01*
X138173151Y-120762643D01*
X138181712Y-120754502D01*
X138183442Y-120754006D01*
X138190483Y-120757776D01*
X138204032Y-120767730D01*
X138221233Y-120781762D01*
X138222261Y-120782638D01*
X138255826Y-120811313D01*
X138236241Y-120846016D01*
X138223083Y-120876846D01*
X138214912Y-120911712D01*
X138212109Y-120946701D01*
X138215058Y-120977901D01*
X138221511Y-120996926D01*
X138236755Y-121016407D01*
X138255678Y-121026530D01*
X138275409Y-121027031D01*
X138293077Y-121017646D01*
X138303017Y-121004415D01*
X138308231Y-120989007D01*
X138312876Y-120966059D01*
X138315950Y-120940530D01*
X138315958Y-120940428D01*
X138321225Y-120888489D01*
X138328565Y-120847295D01*
X138338699Y-120815162D01*
X138352351Y-120790404D01*
X138370241Y-120771337D01*
X138393092Y-120756275D01*
X138395383Y-120755076D01*
X138427406Y-120743934D01*
X138463819Y-120739599D01*
X138499604Y-120742237D01*
G37*
G36*
X138922505Y-120326932D02*
G01*
X138940612Y-120332806D01*
X138966618Y-120341164D01*
X138998513Y-120351362D01*
X139034288Y-120362752D01*
X139034649Y-120362867D01*
X139078526Y-120376827D01*
X139129767Y-120393160D01*
X139183832Y-120410415D01*
X139236180Y-120427145D01*
X139273770Y-120439176D01*
X139400364Y-120479728D01*
X139400364Y-120569876D01*
X139234315Y-120619375D01*
X139190932Y-120632420D01*
X139151601Y-120644463D01*
X139117880Y-120655008D01*
X139091325Y-120663564D01*
X139073492Y-120669634D01*
X139065938Y-120672726D01*
X139065806Y-120672855D01*
X139070899Y-120675588D01*
X139086504Y-120681321D01*
X139111128Y-120689569D01*
X139143276Y-120699845D01*
X139181454Y-120711663D01*
X139224166Y-120724537D01*
X139230291Y-120726357D01*
X139397238Y-120775877D01*
X139399076Y-120821274D01*
X139399366Y-120847421D01*
X139397492Y-120862905D01*
X139393237Y-120869417D01*
X139392825Y-120869587D01*
X139382944Y-120872901D01*
X139363200Y-120879319D01*
X139335135Y-120888352D01*
X139300289Y-120899512D01*
X139260204Y-120912308D01*
X139216421Y-120926253D01*
X139170480Y-120940857D01*
X139123923Y-120955631D01*
X139078290Y-120970087D01*
X139035123Y-120983735D01*
X138995962Y-120996086D01*
X138962349Y-121006652D01*
X138935824Y-121014944D01*
X138917929Y-121020472D01*
X138910205Y-121022748D01*
X138910029Y-121022779D01*
X138908426Y-121017008D01*
X138907203Y-121001613D01*
X138906550Y-120979474D01*
X138906492Y-120969935D01*
X138906492Y-120917091D01*
X138926810Y-120911552D01*
X138938430Y-120908400D01*
X138960182Y-120902514D01*
X138990124Y-120894418D01*
X139026316Y-120884638D01*
X139066819Y-120873697D01*
X139095565Y-120865935D01*
X139136475Y-120854767D01*
X139173062Y-120844544D01*
X139203694Y-120835742D01*
X139226741Y-120828835D01*
X139240573Y-120824299D01*
X139243917Y-120822730D01*
X139238185Y-120820092D01*
X139222040Y-120814195D01*
X139196989Y-120805551D01*
X139164542Y-120794670D01*
X139126207Y-120782064D01*
X139083491Y-120768243D01*
X139076724Y-120766073D01*
X138909618Y-120712541D01*
X138907764Y-120674161D01*
X138905911Y-120635781D01*
X139075002Y-120581103D01*
X139118228Y-120566934D01*
X139157047Y-120553842D01*
X139190018Y-120542342D01*
X139215696Y-120532952D01*
X139232638Y-120526187D01*
X139239400Y-120522566D01*
X139239395Y-120522256D01*
X139232314Y-120519559D01*
X139214806Y-120514121D01*
X139188524Y-120506419D01*
X139155124Y-120496930D01*
X139116260Y-120486133D01*
X139078409Y-120475808D01*
X139035880Y-120464270D01*
X138997149Y-120453700D01*
X138963913Y-120444566D01*
X138937867Y-120437336D01*
X138920707Y-120432478D01*
X138914306Y-120430537D01*
X138909953Y-120423500D01*
X138907390Y-120405858D01*
X138906495Y-120376737D01*
X138906492Y-120374407D01*
X138906977Y-120347403D01*
X138908595Y-120331278D01*
X138911595Y-120324443D01*
X138914306Y-120324190D01*
X138922505Y-120326932D01*
G37*
G36*
X139174820Y-121469756D02*
G01*
X139156554Y-121469764D01*
X139105432Y-121469466D01*
X139064955Y-121468265D01*
X139033270Y-121465705D01*
X139008528Y-121461329D01*
X138988877Y-121454678D01*
X138972465Y-121445296D01*
X138957443Y-121432726D01*
X138942230Y-121416812D01*
X138918925Y-121385270D01*
X138905481Y-121351895D01*
X138900433Y-121312717D01*
X138900302Y-121303373D01*
X138903443Y-121275917D01*
X138905874Y-121267338D01*
X139000486Y-121267338D01*
X139001724Y-121296788D01*
X139011411Y-121324335D01*
X139029578Y-121347224D01*
X139045312Y-121357972D01*
X139064902Y-121364555D01*
X139095000Y-121369138D01*
X139130638Y-121371628D01*
X139183486Y-121371944D01*
X139225552Y-121367397D01*
X139257685Y-121357700D01*
X139280740Y-121342569D01*
X139295566Y-121321719D01*
X139298097Y-121315549D01*
X139305449Y-121282773D01*
X139301832Y-121251996D01*
X139293811Y-121231635D01*
X139283296Y-121213637D01*
X139270413Y-121200481D01*
X139253164Y-121191463D01*
X139229550Y-121185879D01*
X139197573Y-121183024D01*
X139155233Y-121182196D01*
X139153428Y-121182195D01*
X139118439Y-121182454D01*
X139093222Y-121183453D01*
X139075052Y-121185524D01*
X139061206Y-121188997D01*
X139048958Y-121194206D01*
X139047152Y-121195125D01*
X139023231Y-121213751D01*
X139007665Y-121238741D01*
X139000486Y-121267338D01*
X138905874Y-121267338D01*
X138911674Y-121246867D01*
X138923342Y-121220595D01*
X138936796Y-121201474D01*
X138939881Y-121198620D01*
X138948273Y-121189460D01*
X138950253Y-121184686D01*
X138944315Y-121182967D01*
X138927758Y-121181305D01*
X138902464Y-121179807D01*
X138870317Y-121178580D01*
X138833201Y-121177732D01*
X138826785Y-121177637D01*
X138703317Y-121175942D01*
X138701491Y-121127492D01*
X138699665Y-121079043D01*
X139400364Y-121079043D01*
X139400364Y-121179068D01*
X139378483Y-121179068D01*
X139362086Y-121180726D01*
X139357470Y-121186225D01*
X139364290Y-121196352D01*
X139368975Y-121200829D01*
X139381019Y-121217205D01*
X139392148Y-121241695D01*
X139400859Y-121269922D01*
X139405651Y-121297513D01*
X139406122Y-121309022D01*
X139403683Y-121333846D01*
X139398243Y-121358798D01*
X139396505Y-121364205D01*
X139379135Y-121397343D01*
X139353005Y-121427698D01*
X139321791Y-121451195D01*
X139314388Y-121455149D01*
X139303724Y-121460093D01*
X139293291Y-121463777D01*
X139281095Y-121466385D01*
X139265143Y-121468103D01*
X139243442Y-121469114D01*
X139213999Y-121469604D01*
X139183486Y-121469722D01*
X139174820Y-121469756D01*
G37*
G36*
X138235101Y-122296106D02*
G01*
X138194073Y-122274202D01*
X138169288Y-122253848D01*
X138141782Y-122217948D01*
X138124143Y-122176628D01*
X138116332Y-122132093D01*
X138116532Y-122127501D01*
X138212741Y-122127501D01*
X138218794Y-122157629D01*
X138226720Y-122173701D01*
X138248597Y-122195984D01*
X138279361Y-122212204D01*
X138304781Y-122219094D01*
X138325099Y-122222762D01*
X138325099Y-122016774D01*
X138307328Y-122016774D01*
X138283179Y-122021661D01*
X138257635Y-122034333D01*
X138235653Y-122051805D01*
X138224170Y-122066844D01*
X138214494Y-122095586D01*
X138212741Y-122127501D01*
X138116532Y-122127501D01*
X138118312Y-122086552D01*
X138130044Y-122042213D01*
X138151489Y-122001283D01*
X138174165Y-121973910D01*
X138206759Y-121947352D01*
X138244594Y-121928400D01*
X138289407Y-121916486D01*
X138342930Y-121911040D01*
X138367297Y-121910545D01*
X138406369Y-121910498D01*
X138406369Y-122223641D01*
X138429812Y-122219468D01*
X138465670Y-122208138D01*
X138494031Y-122188884D01*
X138512645Y-122163686D01*
X138523639Y-122127191D01*
X138523834Y-122087693D01*
X138513592Y-122047821D01*
X138493275Y-122010204D01*
X138491052Y-122007136D01*
X138486788Y-121999879D01*
X138486842Y-121992562D01*
X138492362Y-121982416D01*
X138504494Y-121966670D01*
X138511185Y-121958512D01*
X138540777Y-121922651D01*
X138566966Y-121951143D01*
X138584007Y-121973128D01*
X138599062Y-121998327D01*
X138605376Y-122012299D01*
X138615114Y-122047420D01*
X138620766Y-122087059D01*
X138621811Y-122125693D01*
X138618715Y-122153484D01*
X138604874Y-122196548D01*
X138582949Y-122235627D01*
X138563443Y-122258791D01*
X138528730Y-122284756D01*
X138486000Y-122303793D01*
X138437625Y-122315932D01*
X138385975Y-122321203D01*
X138333424Y-122319636D01*
X138325099Y-122318271D01*
X138282342Y-122311260D01*
X138235101Y-122296106D01*
G37*
X129302742Y-141971500D02*
X129777258Y-141971500D01*
X129302742Y-143016500D02*
X129777258Y-143016500D01*
G36*
X138281835Y-155556236D02*
G01*
X138301309Y-155572357D01*
X138331294Y-155599466D01*
X138371004Y-155636821D01*
X138419655Y-155683680D01*
X138476463Y-155739303D01*
X138540643Y-155802947D01*
X138562337Y-155824614D01*
X138841908Y-156104283D01*
X138719599Y-156256102D01*
X138683347Y-156301078D01*
X138650046Y-156342347D01*
X138621486Y-156377694D01*
X138599456Y-156404906D01*
X138585745Y-156421769D01*
X138582832Y-156425314D01*
X138571249Y-156439492D01*
X138552016Y-156463288D01*
X138528318Y-156492752D01*
X138514208Y-156510353D01*
X138460045Y-156578000D01*
X138498326Y-156653556D01*
X138518184Y-156693486D01*
X138537928Y-156734420D01*
X138554220Y-156769399D01*
X138558591Y-156779180D01*
X138580575Y-156829249D01*
X138324269Y-157085993D01*
X138269448Y-157140723D01*
X138218451Y-157191278D01*
X138172568Y-157236405D01*
X138133090Y-157274854D01*
X138101304Y-157305370D01*
X138078503Y-157326703D01*
X138065976Y-157337598D01*
X138063957Y-157338731D01*
X138060624Y-157328713D01*
X138055860Y-157306489D01*
X138051102Y-157279321D01*
X138021751Y-157150007D01*
X137975530Y-157022822D01*
X137912905Y-156898967D01*
X137885601Y-156854115D01*
X137843526Y-156788142D01*
X137843937Y-156341949D01*
X137844347Y-155895755D01*
X137893643Y-155856691D01*
X137920886Y-155835039D01*
X137944910Y-155815833D01*
X137960508Y-155803237D01*
X137974210Y-155792123D01*
X137998100Y-155772852D01*
X138029769Y-155747360D01*
X138066806Y-155717582D01*
X138106801Y-155685453D01*
X138147344Y-155652907D01*
X138186025Y-155621879D01*
X138220434Y-155594304D01*
X138248160Y-155572117D01*
X138266794Y-155557254D01*
X138273656Y-155551843D01*
X138281835Y-155556236D01*
G37*
G36*
X135716622Y-156750863D02*
G01*
X135788574Y-156751006D01*
X135853074Y-156751230D01*
X135908329Y-156751527D01*
X135952546Y-156751883D01*
X135983930Y-156752290D01*
X136000690Y-156752736D01*
X136003030Y-156752983D01*
X135998347Y-156760565D01*
X135985881Y-156779208D01*
X135967776Y-156805730D01*
X135954755Y-156824600D01*
X135884675Y-156940690D01*
X135828275Y-157066294D01*
X135786608Y-157199007D01*
X135781648Y-157219576D01*
X135766563Y-157284682D01*
X135444359Y-157608056D01*
X135122154Y-157931431D01*
X135078722Y-157926581D01*
X135052377Y-157923603D01*
X135014232Y-157919246D01*
X134969732Y-157914132D01*
X134931120Y-157909673D01*
X134877411Y-157903604D01*
X134817621Y-157897082D01*
X134760705Y-157891075D01*
X134731462Y-157888100D01*
X134688796Y-157883713D01*
X134649163Y-157879397D01*
X134617815Y-157875735D01*
X134603420Y-157873848D01*
X134570867Y-157869109D01*
X134570867Y-157082209D01*
X134603420Y-157077471D01*
X134625651Y-157074636D01*
X134659914Y-157070734D01*
X134700954Y-157066346D01*
X134731462Y-157063243D01*
X134783369Y-157057851D01*
X134843018Y-157051295D01*
X134900929Y-157044631D01*
X134926780Y-157041525D01*
X134976838Y-157035727D01*
X135030312Y-157030072D01*
X135079277Y-157025378D01*
X135103320Y-157023352D01*
X135139289Y-157019562D01*
X135166435Y-157014736D01*
X135181136Y-157009582D01*
X135182677Y-157007812D01*
X135190428Y-156982087D01*
X135202049Y-156946292D01*
X135215895Y-156905206D01*
X135230318Y-156863603D01*
X135243674Y-156826261D01*
X135254315Y-156797956D01*
X135258531Y-156787706D01*
X135274824Y-156750813D01*
X135639011Y-156750813D01*
X135716622Y-156750863D01*
G37*
G36*
X138738204Y-157024239D02*
G01*
X138766214Y-157027435D01*
X138805812Y-157031982D01*
X138851338Y-157037228D01*
X138889562Y-157041646D01*
X138943271Y-157047715D01*
X139003060Y-157054236D01*
X139059977Y-157060244D01*
X139089220Y-157063218D01*
X139131885Y-157067606D01*
X139171518Y-157071922D01*
X139202867Y-157075583D01*
X139217261Y-157077471D01*
X139249814Y-157082209D01*
X139249814Y-157869109D01*
X139217261Y-157873848D01*
X139195030Y-157876682D01*
X139160768Y-157880585D01*
X139119727Y-157884973D01*
X139089220Y-157888075D01*
X139037312Y-157893468D01*
X138977664Y-157900023D01*
X138919753Y-157906687D01*
X138893902Y-157909793D01*
X138843843Y-157915592D01*
X138790369Y-157921246D01*
X138741404Y-157925940D01*
X138717362Y-157927966D01*
X138681393Y-157931756D01*
X138654247Y-157936583D01*
X138639545Y-157941736D01*
X138638004Y-157943507D01*
X138630254Y-157969232D01*
X138618632Y-158005026D01*
X138604787Y-158046113D01*
X138590363Y-158087716D01*
X138577008Y-158125058D01*
X138566367Y-158153363D01*
X138562151Y-158163612D01*
X138545858Y-158200505D01*
X138181158Y-158200505D01*
X138089036Y-158200409D01*
X138013002Y-158200094D01*
X137951781Y-158199522D01*
X137904100Y-158198654D01*
X137868686Y-158197452D01*
X137844265Y-158195877D01*
X137829565Y-158193890D01*
X137823310Y-158191454D01*
X137823143Y-158189654D01*
X137831189Y-158177508D01*
X137846119Y-158155679D01*
X137864838Y-158128689D01*
X137866574Y-158126204D01*
X137910323Y-158057057D01*
X137951821Y-157979561D01*
X137986426Y-157902564D01*
X137993745Y-157883657D01*
X138006119Y-157847939D01*
X138018990Y-157806697D01*
X138031177Y-157764241D01*
X138041502Y-157724881D01*
X138048782Y-157692927D01*
X138051837Y-157672689D01*
X138051865Y-157671468D01*
X138057842Y-157662876D01*
X138075008Y-157643264D01*
X138102216Y-157613826D01*
X138138318Y-157575760D01*
X138182168Y-157530260D01*
X138232618Y-157478523D01*
X138288520Y-157421745D01*
X138348728Y-157361120D01*
X138371441Y-157338380D01*
X138691016Y-157018892D01*
X138738204Y-157024239D01*
G37*
G36*
X135757601Y-157609284D02*
G01*
X135762453Y-157629017D01*
X135764664Y-157642765D01*
X135771141Y-157678693D01*
X135781772Y-157725266D01*
X135795030Y-157776721D01*
X135809387Y-157827298D01*
X135823316Y-157871235D01*
X135830578Y-157891360D01*
X135852823Y-157943103D01*
X135881198Y-158000849D01*
X135911761Y-158056961D01*
X135939083Y-158101575D01*
X135968475Y-158145877D01*
X135968475Y-159066588D01*
X135947991Y-159080010D01*
X135928040Y-159094403D01*
X135915438Y-159105043D01*
X135904665Y-159114351D01*
X135883006Y-159132276D01*
X135853155Y-159156617D01*
X135817803Y-159185172D01*
X135799199Y-159200105D01*
X135757657Y-159233419D01*
X135715937Y-159266936D01*
X135678214Y-159297298D01*
X135648662Y-159321147D01*
X135642208Y-159326373D01*
X135612827Y-159349856D01*
X135585078Y-159371473D01*
X135564627Y-159386815D01*
X135563494Y-159387626D01*
X135537602Y-159406063D01*
X134979540Y-158847225D01*
X135020436Y-158793961D01*
X135037380Y-158772255D01*
X135062852Y-158740076D01*
X135094493Y-158700363D01*
X135129943Y-158656053D01*
X135166845Y-158610085D01*
X135202837Y-158565397D01*
X135235561Y-158524926D01*
X135262657Y-158491611D01*
X135281766Y-158468391D01*
X135284318Y-158465340D01*
X135297992Y-158448623D01*
X135317099Y-158424750D01*
X135329454Y-158409119D01*
X135359942Y-158370330D01*
X135326960Y-158309290D01*
X135306444Y-158269437D01*
X135284224Y-158223376D01*
X135265075Y-158181006D01*
X135264898Y-158180594D01*
X135235817Y-158112938D01*
X135491411Y-157857235D01*
X135546287Y-157802475D01*
X135597411Y-157751729D01*
X135643474Y-157706277D01*
X135683168Y-157667397D01*
X135715185Y-157636368D01*
X135738216Y-157614467D01*
X135750953Y-157602975D01*
X135753038Y-157601531D01*
X135757601Y-157609284D01*
G37*
G36*
X135556655Y-155559441D02*
G01*
X135577371Y-155575971D01*
X135606735Y-155599477D01*
X135642313Y-155628001D01*
X135681668Y-155659587D01*
X135722363Y-155692277D01*
X135761962Y-155724115D01*
X135798029Y-155753143D01*
X135828128Y-155777405D01*
X135849821Y-155794944D01*
X135859995Y-155803237D01*
X135874179Y-155814795D01*
X135897974Y-155834004D01*
X135927426Y-155857678D01*
X135944917Y-155871697D01*
X136012447Y-155925766D01*
X136105481Y-155879272D01*
X136145476Y-155859689D01*
X136183103Y-155841983D01*
X136213804Y-155828259D01*
X136231341Y-155821190D01*
X136264166Y-155809603D01*
X136515637Y-156060962D01*
X136569923Y-156115357D01*
X136620185Y-156165977D01*
X136665133Y-156211504D01*
X136703478Y-156250619D01*
X136733931Y-156282007D01*
X136755202Y-156304348D01*
X136766003Y-156316326D01*
X136767108Y-156317959D01*
X136760224Y-156325482D01*
X136753376Y-156328866D01*
X136733365Y-156333242D01*
X136720288Y-156334135D01*
X136698138Y-156336813D01*
X136663975Y-156344066D01*
X136622170Y-156354725D01*
X136577092Y-156367619D01*
X136533113Y-156381580D01*
X136502343Y-156392471D01*
X136428207Y-156422901D01*
X136361571Y-156456476D01*
X136295904Y-156496012D01*
X136237038Y-156533793D01*
X135327895Y-156533793D01*
X135303123Y-156505153D01*
X135281779Y-156479888D01*
X135258197Y-156451154D01*
X135251018Y-156442217D01*
X135237504Y-156425342D01*
X135215119Y-156397483D01*
X135185896Y-156361166D01*
X135151870Y-156318919D01*
X135115073Y-156273267D01*
X135101230Y-156256102D01*
X134978774Y-156104283D01*
X135258344Y-155824614D01*
X135324691Y-155758588D01*
X135383914Y-155700350D01*
X135435228Y-155650641D01*
X135477850Y-155610202D01*
X135510993Y-155579774D01*
X135533875Y-155560099D01*
X135545709Y-155551919D01*
X135547026Y-155551843D01*
X135556655Y-155559441D01*
G37*
G36*
X136583170Y-157994521D02*
G01*
X136504627Y-157949085D01*
X136430349Y-157889297D01*
X136410742Y-157870635D01*
X136345793Y-157797373D01*
X136295972Y-157719009D01*
X136259108Y-157631918D01*
X136249691Y-157601607D01*
X136239276Y-157563112D01*
X136232919Y-157531721D01*
X136229961Y-157501102D01*
X136229736Y-157464920D01*
X136230277Y-157450236D01*
X136397305Y-157450236D01*
X136401451Y-157505614D01*
X136415245Y-157556922D01*
X136423067Y-157574236D01*
X136461970Y-157631433D01*
X136514330Y-157681287D01*
X136576999Y-157721522D01*
X136646827Y-157749859D01*
X136676233Y-157757389D01*
X136705636Y-157763720D01*
X136730802Y-157769227D01*
X136738895Y-157771038D01*
X136758427Y-157775477D01*
X136758378Y-157538760D01*
X136758044Y-157472539D01*
X136757122Y-157411517D01*
X136755695Y-157358191D01*
X136753846Y-157315057D01*
X136751656Y-157284613D01*
X136749536Y-157270383D01*
X136734391Y-157238810D01*
X136708702Y-157218602D01*
X136670768Y-157208771D01*
X136641236Y-157207443D01*
X136579517Y-157216417D01*
X136522158Y-157241079D01*
X136471575Y-157279868D01*
X136430184Y-157331218D01*
X136418458Y-157351598D01*
X136402932Y-157396870D01*
X136397305Y-157450236D01*
X136230277Y-157450236D01*
X136231209Y-157424906D01*
X136238002Y-157348920D01*
X136251862Y-157283820D01*
X136274449Y-157223995D01*
X136307419Y-157163833D01*
X136309214Y-157160964D01*
X136360327Y-157095535D01*
X136424467Y-157039696D01*
X136499253Y-156995034D01*
X136582304Y-156963140D01*
X136619534Y-156953838D01*
X136662089Y-156947327D01*
X136710630Y-156943834D01*
X136760999Y-156943225D01*
X136809038Y-156945367D01*
X136850590Y-156950124D01*
X136881497Y-156957364D01*
X136892905Y-156962645D01*
X136914681Y-156976914D01*
X136914681Y-157775147D01*
X136951575Y-157774842D01*
X137034333Y-157766327D01*
X137111712Y-157742999D01*
X137181660Y-157706083D01*
X137242123Y-157656803D01*
X137291049Y-157596383D01*
X137311690Y-157560080D01*
X137325478Y-157531604D01*
X137334715Y-157509222D01*
X137340312Y-157488174D01*
X137343181Y-157463698D01*
X137344233Y-157431034D01*
X137344380Y-157389315D01*
X137344056Y-157343498D01*
X137342620Y-157310486D01*
X137339375Y-157285726D01*
X137333626Y-157264668D01*
X137324676Y-157242758D01*
X137320626Y-157233977D01*
X137300771Y-157197971D01*
X137273265Y-157156253D01*
X137242290Y-157114548D01*
X137212027Y-157078582D01*
X137193417Y-157059806D01*
X137179128Y-157042147D01*
X137177219Y-157023626D01*
X137188277Y-157000981D01*
X137208542Y-156975791D01*
X137241979Y-156938112D01*
X137291656Y-156968164D01*
X137372246Y-157026504D01*
X137440289Y-157095979D01*
X137494702Y-157175265D01*
X137534405Y-157263035D01*
X137535994Y-157267651D01*
X137547109Y-157303664D01*
X137554480Y-157337324D01*
X137558992Y-157374504D01*
X137561533Y-157421075D01*
X137562126Y-157440936D01*
X137562519Y-157486899D01*
X137561520Y-157531299D01*
X137559331Y-157568559D01*
X137556755Y-157590052D01*
X137538088Y-157661017D01*
X137508187Y-157734598D01*
X137470074Y-157803495D01*
X137465647Y-157810268D01*
X137409628Y-157879169D01*
X137340762Y-157937929D01*
X137260683Y-157985991D01*
X137171020Y-158022796D01*
X137073408Y-158047785D01*
X136969477Y-158060399D01*
X136860859Y-158060080D01*
X136767108Y-158049395D01*
X136758427Y-158047436D01*
X136669491Y-158027370D01*
X136583170Y-157994521D01*
G37*
G36*
X136208492Y-158396507D02*
G01*
X136230321Y-158411437D01*
X136257311Y-158430157D01*
X136259796Y-158431892D01*
X136328943Y-158475642D01*
X136406439Y-158517139D01*
X136483436Y-158551745D01*
X136502343Y-158559064D01*
X136538061Y-158571437D01*
X136579303Y-158584308D01*
X136621759Y-158596496D01*
X136661119Y-158606820D01*
X136693073Y-158614100D01*
X136713311Y-158617156D01*
X136714532Y-158617184D01*
X136724052Y-158623204D01*
X136744154Y-158640326D01*
X136773439Y-158667138D01*
X136810505Y-158702228D01*
X136853954Y-158744187D01*
X136902385Y-158791604D01*
X136954400Y-158843066D01*
X137008597Y-158897164D01*
X137063578Y-158952487D01*
X137117943Y-159007623D01*
X137170292Y-159061162D01*
X137219225Y-159111693D01*
X137263343Y-159157804D01*
X137301246Y-159198086D01*
X137331534Y-159231126D01*
X137352807Y-159255515D01*
X137363666Y-159269841D01*
X137364782Y-159272627D01*
X137362805Y-159294226D01*
X137360464Y-159315987D01*
X137351458Y-159393921D01*
X137344164Y-159457508D01*
X137338261Y-159509643D01*
X137333427Y-159553221D01*
X137329340Y-159591136D01*
X137325678Y-159626284D01*
X137322820Y-159654538D01*
X137318417Y-159697203D01*
X137314088Y-159736835D01*
X137310419Y-159768184D01*
X137308529Y-159782580D01*
X137303791Y-159815133D01*
X136516891Y-159815133D01*
X136512152Y-159782580D01*
X136509318Y-159760349D01*
X136505415Y-159726086D01*
X136501027Y-159685046D01*
X136497925Y-159654538D01*
X136492532Y-159602631D01*
X136485977Y-159542982D01*
X136479313Y-159485071D01*
X136476207Y-159459220D01*
X136470408Y-159409162D01*
X136464754Y-159355688D01*
X136460060Y-159306723D01*
X136458034Y-159282680D01*
X136454244Y-159246711D01*
X136449417Y-159219565D01*
X136444264Y-159204864D01*
X136442493Y-159203323D01*
X136416768Y-159195572D01*
X136380974Y-159183951D01*
X136339887Y-159170105D01*
X136298284Y-159155682D01*
X136260942Y-159142326D01*
X136232637Y-159131685D01*
X136222388Y-159127469D01*
X136185495Y-159111176D01*
X136185495Y-158746477D01*
X136185591Y-158654355D01*
X136185906Y-158578320D01*
X136186478Y-158517099D01*
X136187346Y-158469418D01*
X136188548Y-158434004D01*
X136190123Y-158409584D01*
X136192110Y-158394883D01*
X136194546Y-158388629D01*
X136196346Y-158388462D01*
X136208492Y-158396507D01*
G37*
G36*
X137308529Y-155168739D02*
G01*
X137311364Y-155190970D01*
X137315266Y-155225232D01*
X137319654Y-155266273D01*
X137322757Y-155296780D01*
X137328149Y-155348688D01*
X137334705Y-155408336D01*
X137341369Y-155466247D01*
X137344475Y-155492098D01*
X137350273Y-155542157D01*
X137355928Y-155595631D01*
X137360622Y-155644596D01*
X137362648Y-155668638D01*
X137366436Y-155704589D01*
X137371262Y-155731741D01*
X137376413Y-155746464D01*
X137378188Y-155748017D01*
X137410643Y-155757764D01*
X137452966Y-155771457D01*
X137498770Y-155786946D01*
X137541666Y-155802083D01*
X137567911Y-155811844D01*
X137626506Y-155834397D01*
X137626506Y-156197116D01*
X137626415Y-156274573D01*
X137626156Y-156346375D01*
X137625748Y-156410722D01*
X137625211Y-156465817D01*
X137624563Y-156509863D01*
X137623825Y-156541060D01*
X137623016Y-156557613D01*
X137622582Y-156559836D01*
X137614113Y-156555214D01*
X137595212Y-156542968D01*
X137569602Y-156525526D01*
X137563471Y-156521258D01*
X137490605Y-156475095D01*
X137410100Y-156432134D01*
X137330711Y-156396980D01*
X137318338Y-156392255D01*
X137279143Y-156378686D01*
X137235289Y-156365121D01*
X137191114Y-156352726D01*
X137150955Y-156342663D01*
X137119149Y-156336097D01*
X137101809Y-156334135D01*
X137090983Y-156327999D01*
X137068569Y-156309557D01*
X137034513Y-156278758D01*
X136988761Y-156235550D01*
X136931258Y-156179882D01*
X136861950Y-156111702D01*
X136780783Y-156030959D01*
X136768442Y-156018621D01*
X136453016Y-155703106D01*
X136458576Y-155651857D01*
X136461882Y-155622032D01*
X136466542Y-155580859D01*
X136471885Y-155534230D01*
X136476261Y-155496438D01*
X136482358Y-155442732D01*
X136488902Y-155382945D01*
X136494922Y-155326031D01*
X136497900Y-155296780D01*
X136502287Y-155254115D01*
X136506603Y-155214482D01*
X136510265Y-155183133D01*
X136512152Y-155168739D01*
X136516891Y-155136186D01*
X137303791Y-155136186D01*
X137308529Y-155168739D01*
G37*
G36*
X138517558Y-158446166D02*
G01*
X138538902Y-158471448D01*
X138562459Y-158500196D01*
X138569595Y-158509102D01*
X138583331Y-158526299D01*
X138605827Y-158554375D01*
X138634961Y-158590683D01*
X138668607Y-158632576D01*
X138704643Y-158677407D01*
X138712060Y-158686630D01*
X138746679Y-158729697D01*
X138777793Y-158768452D01*
X138803690Y-158800755D01*
X138822657Y-158824471D01*
X138832981Y-158837461D01*
X138834157Y-158838974D01*
X138829764Y-158847153D01*
X138813643Y-158866628D01*
X138786534Y-158896612D01*
X138749179Y-158936322D01*
X138702320Y-158984974D01*
X138646697Y-159041782D01*
X138583053Y-159105962D01*
X138561386Y-159127656D01*
X138281717Y-159407226D01*
X138129898Y-159284918D01*
X138084922Y-159248665D01*
X138043653Y-159215364D01*
X138008306Y-159186804D01*
X137981094Y-159164774D01*
X137964231Y-159151064D01*
X137960686Y-159148150D01*
X137946508Y-159136567D01*
X137922712Y-159117334D01*
X137893248Y-159093637D01*
X137875647Y-159079527D01*
X137808000Y-159025363D01*
X137732444Y-159063645D01*
X137692217Y-159083639D01*
X137650696Y-159103644D01*
X137614989Y-159120254D01*
X137605176Y-159124636D01*
X137553463Y-159147347D01*
X137299178Y-158893171D01*
X137244573Y-158838446D01*
X137193987Y-158787469D01*
X137148702Y-158741555D01*
X137109999Y-158702015D01*
X137079163Y-158670164D01*
X137057474Y-158647313D01*
X137046216Y-158634776D01*
X137044893Y-158632823D01*
X137052527Y-158627665D01*
X137071466Y-158622586D01*
X137077446Y-158621542D01*
X137209415Y-158593410D01*
X137335660Y-158551769D01*
X137453138Y-158497745D01*
X137524462Y-158455810D01*
X137583644Y-158417525D01*
X138492787Y-158417525D01*
X138517558Y-158446166D01*
G37*
X110982000Y-158420000D02*
X109032000Y-158420000D01*
X109032000Y-158420000D02*
X109032000Y-152920000D01*
X110982000Y-152920000D02*
X110982000Y-158420000D01*
X109032000Y-152920000D02*
X110982000Y-152920000D01*
X98565580Y-150370000D02*
X98284420Y-150370000D01*
X98565580Y-149350000D02*
X98284420Y-149350000D01*
X115555500Y-119396742D02*
X115555500Y-119871258D01*
X116600500Y-119396742D02*
X116600500Y-119871258D01*
X106366000Y-120650000D02*
X106366000Y-120710000D01*
X106366000Y-119380000D02*
X106366000Y-118050000D01*
X106366000Y-120650000D02*
X109026000Y-120650000D01*
X109026000Y-120650000D02*
X109026000Y-120710000D01*
X106366000Y-118050000D02*
X107696000Y-118050000D01*
X106366000Y-120710000D02*
X109026000Y-120710000D01*
X92454000Y-142861420D02*
X92454000Y-143142580D01*
X93474000Y-142861420D02*
X93474000Y-143142580D01*
X129302742Y-146064500D02*
X129777258Y-146064500D01*
X129302742Y-145019500D02*
X129777258Y-145019500D01*
%LPC*%
D14*
X102616000Y-118301000D03*
X102616000Y-119951000D03*
D15*
X84639000Y-158115000D03*
D16*
X84639000Y-155575000D03*
X84639000Y-153035000D03*
X84639000Y-150495000D03*
X84639000Y-147955000D03*
X84639000Y-145415000D03*
D15*
X87630000Y-164465000D03*
D16*
X87630000Y-161925000D03*
X90170000Y-164465000D03*
X90170000Y-161925000D03*
X92710000Y-164465000D03*
X92710000Y-161925000D03*
X95250000Y-164465000D03*
X95250000Y-161925000D03*
X97790000Y-164465000D03*
X97790000Y-161925000D03*
X100330000Y-164465000D03*
X100330000Y-161925000D03*
X102870000Y-164465000D03*
X102870000Y-161925000D03*
X105410000Y-164465000D03*
X105410000Y-161925000D03*
X107950000Y-164465000D03*
X107950000Y-161925000D03*
X110490000Y-164465000D03*
X110490000Y-161925000D03*
X113030000Y-164465000D03*
X113030000Y-161925000D03*
X115570000Y-164465000D03*
X115570000Y-161925000D03*
X118110000Y-164465000D03*
X118110000Y-161925000D03*
X120650000Y-164465000D03*
X120650000Y-161925000D03*
X123190000Y-164465000D03*
X123190000Y-161925000D03*
X125730000Y-164465000D03*
X125730000Y-161925000D03*
X128270000Y-164465000D03*
X128270000Y-161925000D03*
D14*
X100076000Y-118301000D03*
X100076000Y-119951000D03*
D17*
X92964000Y-137655000D03*
X92964000Y-139205000D03*
D14*
X93980000Y-118301000D03*
X93980000Y-119951000D03*
X117602000Y-118809000D03*
X117602000Y-120459000D03*
D15*
X110236000Y-119380000D03*
X87630000Y-158115000D03*
D18*
X128715000Y-140970000D03*
X130365000Y-140970000D03*
D19*
X117717500Y-139700000D03*
X117717500Y-138430000D03*
X117717500Y-137160000D03*
X117717500Y-135890000D03*
X117717500Y-134620000D03*
X117717500Y-133350000D03*
D20*
X116205000Y-131837500D03*
X114935000Y-131837500D03*
X113665000Y-131837500D03*
X112395000Y-131837500D03*
X111125000Y-131837500D03*
X109855000Y-131837500D03*
X108585000Y-131837500D03*
X107315000Y-131837500D03*
X106045000Y-131837500D03*
X104775000Y-131837500D03*
X103505000Y-131837500D03*
D19*
X101992500Y-133350000D03*
X101992500Y-134620000D03*
X101992500Y-135890000D03*
X101992500Y-137160000D03*
X101992500Y-138430000D03*
X101992500Y-139700000D03*
X101992500Y-140970000D03*
X101992500Y-142240000D03*
X101992500Y-143510000D03*
X101992500Y-144780000D03*
X101992500Y-146050000D03*
D20*
X103505000Y-147562500D03*
X104775000Y-147562500D03*
X106045000Y-147562500D03*
X107315000Y-147562500D03*
X108585000Y-147562500D03*
X109855000Y-147562500D03*
X111125000Y-147562500D03*
X112395000Y-147562500D03*
X113665000Y-147562500D03*
X114935000Y-147562500D03*
X116205000Y-147562500D03*
D19*
X117717500Y-146050000D03*
X117717500Y-144780000D03*
X117717500Y-143510000D03*
X117717500Y-142240000D03*
X117717500Y-140970000D03*
D14*
X105664000Y-118301000D03*
X105664000Y-119951000D03*
X104140000Y-118301000D03*
X104140000Y-119951000D03*
X113030000Y-118809000D03*
X113030000Y-120459000D03*
X98552000Y-118301000D03*
X98552000Y-119951000D03*
X97028000Y-118301000D03*
X97028000Y-119951000D03*
D21*
X104394000Y-154502000D03*
X104394000Y-156902000D03*
D22*
X104394000Y-153702000D03*
D23*
X104394000Y-157702000D03*
D24*
X96520000Y-140335000D03*
X96520000Y-145215000D03*
D25*
X130365000Y-139446000D03*
X128715000Y-139446000D03*
D18*
X128715000Y-144018000D03*
X130365000Y-144018000D03*
D14*
X114554000Y-118809000D03*
X114554000Y-120459000D03*
D21*
X113030000Y-156902000D03*
X113030000Y-154502000D03*
D22*
X113030000Y-153702000D03*
D23*
X113030000Y-157702000D03*
D15*
X129286000Y-157485000D03*
D16*
X129286000Y-154945000D03*
D15*
X95504000Y-126507000D03*
D16*
X95504000Y-129047000D03*
X95504000Y-131587000D03*
D15*
X92710000Y-158247000D03*
D16*
X92710000Y-155707000D03*
D26*
X87280000Y-136837500D03*
D27*
X81280000Y-136837500D03*
D28*
X84280000Y-141537500D03*
D15*
X87625000Y-150495000D03*
D16*
X90165000Y-150495000D03*
D15*
X84870000Y-116275000D03*
D16*
X84870000Y-113735000D03*
X87410000Y-116275000D03*
X87410000Y-113735000D03*
X89950000Y-116275000D03*
X89950000Y-113735000D03*
X92490000Y-116275000D03*
X92490000Y-113735000D03*
X95030000Y-116275000D03*
X95030000Y-113735000D03*
X97570000Y-116275000D03*
X97570000Y-113735000D03*
X100110000Y-116275000D03*
X100110000Y-113735000D03*
X102650000Y-116275000D03*
X102650000Y-113735000D03*
X105190000Y-116275000D03*
X105190000Y-113735000D03*
X107730000Y-116275000D03*
X107730000Y-113735000D03*
X110270000Y-116275000D03*
X110270000Y-113735000D03*
X112810000Y-116275000D03*
X112810000Y-113735000D03*
X115350000Y-116275000D03*
X115350000Y-113735000D03*
X117890000Y-116275000D03*
X117890000Y-113735000D03*
X120430000Y-116275000D03*
X120430000Y-113735000D03*
X122970000Y-116275000D03*
X122970000Y-113735000D03*
X125510000Y-116275000D03*
X125510000Y-113735000D03*
X128050000Y-116275000D03*
X128050000Y-113735000D03*
X130590000Y-116275000D03*
X130590000Y-113735000D03*
X133130000Y-116275000D03*
X133130000Y-113735000D03*
D21*
X107442000Y-154502000D03*
X107442000Y-156902000D03*
D22*
X107442000Y-153702000D03*
D23*
X107442000Y-157702000D03*
D15*
X87630000Y-147955000D03*
X78740000Y-130170000D03*
D16*
X78740000Y-127630000D03*
X78740000Y-125090000D03*
X78740000Y-122550000D03*
X78740000Y-120010000D03*
D18*
X128715000Y-142494000D03*
X130365000Y-142494000D03*
D21*
X109982000Y-154470000D03*
X109982000Y-156870000D03*
D22*
X109982000Y-153670000D03*
D23*
X109982000Y-157670000D03*
D29*
X99200000Y-149860000D03*
X97650000Y-149860000D03*
D14*
X116078000Y-118809000D03*
X116078000Y-120459000D03*
D15*
X107696000Y-119380000D03*
D17*
X92964000Y-142227000D03*
X92964000Y-143777000D03*
D18*
X128715000Y-145542000D03*
X130365000Y-145542000D03*
D30*
X138000000Y-115000000D03*
X80000000Y-164000000D03*
X138000000Y-164000000D03*
X80000000Y-115000000D03*
M02*
