G04 #@! TF.GenerationSoftware,KiCad,Pcbnew,(6.0.0)*
G04 #@! TF.CreationDate,2022-08-18T21:55:53-04:00*
G04 #@! TF.ProjectId,WD37C65 pi hat,57443337-4336-4352-9070-69206861742e,rev?*
G04 #@! TF.SameCoordinates,Original*
G04 #@! TF.FileFunction,Copper,L2,Bot*
G04 #@! TF.FilePolarity,Positive*
%FSLAX46Y46*%
G04 Gerber Fmt 4.6, Leading zero omitted, Abs format (unit mm)*
G04 Created by KiCad (PCBNEW (6.0.0)) date 2022-08-18 21:55:53*
%MOMM*%
%LPD*%
G01*
G04 APERTURE LIST*
G04 Aperture macros list*
%AMRoundRect*
0 Rectangle with rounded corners*
0 $1 Rounding radius*
0 $2 $3 $4 $5 $6 $7 $8 $9 X,Y pos of 4 corners*
0 Add a 4 corners polygon primitive as box body*
4,1,4,$2,$3,$4,$5,$6,$7,$8,$9,$2,$3,0*
0 Add four circle primitives for the rounded corners*
1,1,$1+$1,$2,$3*
1,1,$1+$1,$4,$5*
1,1,$1+$1,$6,$7*
1,1,$1+$1,$8,$9*
0 Add four rect primitives between the rounded corners*
20,1,$1+$1,$2,$3,$4,$5,0*
20,1,$1+$1,$4,$5,$6,$7,0*
20,1,$1+$1,$6,$7,$8,$9,0*
20,1,$1+$1,$8,$9,$2,$3,0*%
G04 Aperture macros list end*
G04 #@! TA.AperFunction,ComponentPad*
%ADD10R,1.700000X1.700000*%
G04 #@! TD*
G04 #@! TA.AperFunction,ComponentPad*
%ADD11O,1.700000X1.700000*%
G04 #@! TD*
G04 #@! TA.AperFunction,ComponentPad*
%ADD12C,1.500000*%
G04 #@! TD*
G04 #@! TA.AperFunction,ComponentPad*
%ADD13R,3.500000X3.500000*%
G04 #@! TD*
G04 #@! TA.AperFunction,ComponentPad*
%ADD14RoundRect,0.750000X-0.750000X-1.000000X0.750000X-1.000000X0.750000X1.000000X-0.750000X1.000000X0*%
G04 #@! TD*
G04 #@! TA.AperFunction,ComponentPad*
%ADD15RoundRect,0.875000X-0.875000X-0.875000X0.875000X-0.875000X0.875000X0.875000X-0.875000X0.875000X0*%
G04 #@! TD*
G04 #@! TA.AperFunction,ViaPad*
%ADD16C,0.800000*%
G04 #@! TD*
G04 #@! TA.AperFunction,Conductor*
%ADD17C,0.400000*%
G04 #@! TD*
G04 #@! TA.AperFunction,Conductor*
%ADD18C,1.000000*%
G04 #@! TD*
G04 APERTURE END LIST*
D10*
X84639000Y-158115000D03*
D11*
X84639000Y-155575000D03*
X84639000Y-153035000D03*
X84639000Y-150495000D03*
X84639000Y-147955000D03*
X84639000Y-145415000D03*
D10*
X87630000Y-164465000D03*
D11*
X87630000Y-161925000D03*
X90170000Y-164465000D03*
X90170000Y-161925000D03*
X92710000Y-164465000D03*
X92710000Y-161925000D03*
X95250000Y-164465000D03*
X95250000Y-161925000D03*
X97790000Y-164465000D03*
X97790000Y-161925000D03*
X100330000Y-164465000D03*
X100330000Y-161925000D03*
X102870000Y-164465000D03*
X102870000Y-161925000D03*
X105410000Y-164465000D03*
X105410000Y-161925000D03*
X107950000Y-164465000D03*
X107950000Y-161925000D03*
X110490000Y-164465000D03*
X110490000Y-161925000D03*
X113030000Y-164465000D03*
X113030000Y-161925000D03*
X115570000Y-164465000D03*
X115570000Y-161925000D03*
X118110000Y-164465000D03*
X118110000Y-161925000D03*
X120650000Y-164465000D03*
X120650000Y-161925000D03*
X123190000Y-164465000D03*
X123190000Y-161925000D03*
X125730000Y-164465000D03*
X125730000Y-161925000D03*
X128270000Y-164465000D03*
X128270000Y-161925000D03*
D10*
X110236000Y-119380000D03*
X87630000Y-158115000D03*
D12*
X96520000Y-140335000D03*
X96520000Y-145215000D03*
D10*
X129286000Y-157485000D03*
D11*
X129286000Y-154945000D03*
D10*
X95504000Y-126507000D03*
D11*
X95504000Y-129047000D03*
X95504000Y-131587000D03*
D10*
X92710000Y-158247000D03*
D11*
X92710000Y-155707000D03*
D13*
X87280000Y-136837500D03*
D14*
X81280000Y-136837500D03*
D15*
X84280000Y-141537500D03*
D10*
X87625000Y-150495000D03*
D11*
X90165000Y-150495000D03*
D10*
X84870000Y-116275000D03*
D11*
X84870000Y-113735000D03*
X87410000Y-116275000D03*
X87410000Y-113735000D03*
X89950000Y-116275000D03*
X89950000Y-113735000D03*
X92490000Y-116275000D03*
X92490000Y-113735000D03*
X95030000Y-116275000D03*
X95030000Y-113735000D03*
X97570000Y-116275000D03*
X97570000Y-113735000D03*
X100110000Y-116275000D03*
X100110000Y-113735000D03*
X102650000Y-116275000D03*
X102650000Y-113735000D03*
X105190000Y-116275000D03*
X105190000Y-113735000D03*
X107730000Y-116275000D03*
X107730000Y-113735000D03*
X110270000Y-116275000D03*
X110270000Y-113735000D03*
X112810000Y-116275000D03*
X112810000Y-113735000D03*
X115350000Y-116275000D03*
X115350000Y-113735000D03*
X117890000Y-116275000D03*
X117890000Y-113735000D03*
X120430000Y-116275000D03*
X120430000Y-113735000D03*
X122970000Y-116275000D03*
X122970000Y-113735000D03*
X125510000Y-116275000D03*
X125510000Y-113735000D03*
X128050000Y-116275000D03*
X128050000Y-113735000D03*
X130590000Y-116275000D03*
X130590000Y-113735000D03*
X133130000Y-116275000D03*
X133130000Y-113735000D03*
D10*
X87630000Y-147955000D03*
X78740000Y-130170000D03*
D11*
X78740000Y-127630000D03*
X78740000Y-125090000D03*
X78740000Y-122550000D03*
X78740000Y-120010000D03*
D10*
X107696000Y-119380000D03*
D16*
X108979511Y-117588489D03*
X110490000Y-145542000D03*
X104140000Y-140970000D03*
X86614000Y-130048000D03*
X131318000Y-144780000D03*
X99060000Y-147320000D03*
X125222000Y-140970000D03*
X115824000Y-150368000D03*
X127508000Y-142494000D03*
X109982000Y-152400000D03*
X111506000Y-157988000D03*
X105918000Y-159512000D03*
X106426000Y-150114000D03*
X107696000Y-149860000D03*
X105156000Y-150114000D03*
X103632000Y-149860000D03*
X127508000Y-144018000D03*
X127508000Y-145542000D03*
X115570000Y-139446000D03*
X133604000Y-150114000D03*
X127508000Y-139446000D03*
X127000000Y-151130000D03*
X120650000Y-147574000D03*
X126238000Y-150114000D03*
X101600000Y-147828000D03*
X131555022Y-122157022D03*
X118364000Y-122428000D03*
X127000000Y-141224000D03*
X130048000Y-148082000D03*
X114808000Y-149860000D03*
X107442000Y-152400000D03*
X111252000Y-152146000D03*
X84870000Y-120108000D03*
X118872000Y-129794000D03*
X93853000Y-152019000D03*
X119634000Y-138430000D03*
X122936000Y-138430000D03*
X121920000Y-135890000D03*
X119634000Y-135890000D03*
X121720489Y-121357511D03*
X125476000Y-137160000D03*
X119634000Y-137160000D03*
X129032000Y-131318000D03*
X107188000Y-135890000D03*
X127254000Y-131064000D03*
X126800489Y-118817511D03*
X105918000Y-135890000D03*
X119634000Y-134620000D03*
X130556000Y-134620000D03*
X119634000Y-133350000D03*
X129540000Y-133350000D03*
X132588000Y-132588000D03*
X104140000Y-135890000D03*
X115570000Y-125222000D03*
X106045000Y-127127000D03*
X115824000Y-126492000D03*
X104775000Y-128397000D03*
X106426000Y-125222000D03*
X92710000Y-120650000D03*
X114554000Y-124714000D03*
X108966000Y-125984000D03*
X108966000Y-121920000D03*
X104902000Y-121412000D03*
X111054040Y-122230040D03*
X103378000Y-121412000D03*
X111853551Y-121505551D03*
X101346000Y-120510680D03*
X99314000Y-121412000D03*
X112776000Y-123698000D03*
X97790000Y-121412000D03*
X113284000Y-125222000D03*
D17*
X98860489Y-112485489D02*
X100110000Y-113735000D01*
X125510000Y-113735000D02*
X126759511Y-112485489D01*
X100110000Y-113735000D02*
X101359511Y-114984511D01*
X91199511Y-112485489D02*
X98860489Y-112485489D01*
X101359511Y-112485489D02*
X100110000Y-113735000D01*
X89950000Y-113735000D02*
X91199511Y-114984511D01*
X93739511Y-114984511D02*
X95030000Y-116275000D01*
X106480489Y-112485489D02*
X101359511Y-112485489D01*
X91199511Y-114984511D02*
X93739511Y-114984511D01*
X98819511Y-115025489D02*
X100110000Y-113735000D01*
X89950000Y-113735000D02*
X91199511Y-112485489D01*
X126759511Y-112485489D02*
X133821489Y-112485489D01*
X119180489Y-112485489D02*
X108979511Y-112485489D01*
X106480489Y-114984511D02*
X107730000Y-113735000D01*
X120430000Y-113735000D02*
X119180489Y-112485489D01*
X95030000Y-116275000D02*
X96279511Y-115025489D01*
X120430000Y-113735000D02*
X121679511Y-112485489D01*
X96279511Y-115025489D02*
X98819511Y-115025489D01*
X107730000Y-113735000D02*
X106480489Y-112485489D01*
X108979511Y-112485489D02*
X107730000Y-113735000D01*
X101359511Y-114984511D02*
X106480489Y-114984511D01*
X124260489Y-112485489D02*
X125510000Y-113735000D01*
X121679511Y-112485489D02*
X124260489Y-112485489D01*
X133821489Y-112485489D02*
X134874000Y-113538000D01*
D18*
X96575081Y-147320000D02*
X87280000Y-138024919D01*
X99060000Y-147320000D02*
X96575081Y-147320000D01*
X87280000Y-138024919D02*
X87280000Y-136837500D01*
D17*
X125222000Y-140970000D02*
X125946489Y-140245511D01*
X93400081Y-150495000D02*
X96575081Y-147320000D01*
X131318000Y-141732000D02*
X131318000Y-144780000D01*
X125946489Y-140245511D02*
X129831511Y-140245511D01*
X90165000Y-150495000D02*
X93400081Y-150495000D01*
D18*
X87410000Y-113735000D02*
X84870000Y-113735000D01*
D17*
X129831511Y-140245511D02*
X131318000Y-141732000D01*
X115824000Y-150368000D02*
X115116488Y-151075512D01*
X94000489Y-158221511D02*
X94000489Y-160040489D01*
X114703591Y-151075512D02*
X111489528Y-147861449D01*
X93227565Y-163174511D02*
X94000489Y-162401587D01*
X111489528Y-147861449D02*
X104360551Y-147861449D01*
X88879511Y-163174511D02*
X93227565Y-163174511D01*
X115116488Y-151075512D02*
X114703591Y-151075512D01*
X104360551Y-147861449D02*
X94000489Y-158221511D01*
X94000489Y-162401587D02*
X94000489Y-160040489D01*
X87630000Y-161925000D02*
X88879511Y-163174511D01*
X92710000Y-161925000D02*
X92710000Y-158247000D01*
X117348000Y-160528000D02*
X118659150Y-160528000D01*
X95250000Y-161925000D02*
X96499511Y-163174511D01*
X116860489Y-162401587D02*
X116860489Y-161015511D01*
X123931440Y-146070560D02*
X127508000Y-142494000D01*
X116860489Y-161015511D02*
X117348000Y-160528000D01*
X116087565Y-163174511D02*
X116860489Y-162401587D01*
X118659150Y-160528000D02*
X123931440Y-155255710D01*
X96499511Y-163174511D02*
X116087565Y-163174511D01*
X123931440Y-155255710D02*
X123931440Y-146070560D01*
X101727000Y-157988000D02*
X97790000Y-161925000D01*
X109982000Y-152400000D02*
X111506000Y-153924000D01*
X111506000Y-157988000D02*
X101727000Y-157988000D01*
X111506000Y-153924000D02*
X111506000Y-157988000D01*
X105918000Y-159512000D02*
X102743000Y-159512000D01*
X102743000Y-159512000D02*
X100330000Y-161925000D01*
X112305511Y-157425991D02*
X112305511Y-158319169D01*
X112105520Y-157226000D02*
X112305511Y-157425991D01*
X107950000Y-160095022D02*
X107950000Y-161925000D01*
X107312969Y-151000969D02*
X111237649Y-151000969D01*
X106426000Y-150114000D02*
X107312969Y-151000969D01*
X111237649Y-151000969D02*
X112105520Y-151868840D01*
X112105520Y-151868840D02*
X112105520Y-157226000D01*
X111837169Y-158787511D02*
X109257511Y-158787511D01*
X109257511Y-158787511D02*
X107950000Y-160095022D01*
X112305511Y-158319169D02*
X111837169Y-158787511D01*
X112905031Y-151820502D02*
X112905031Y-158567499D01*
X112905031Y-158567499D02*
X110490000Y-160982530D01*
X107696000Y-149860000D02*
X108237449Y-150401449D01*
X108237449Y-150401449D02*
X111485978Y-150401449D01*
X111485978Y-150401449D02*
X112905031Y-151820502D01*
X110490000Y-160982530D02*
X110490000Y-161925000D01*
X105156000Y-150114000D02*
X106209511Y-149060489D01*
X113504551Y-151572172D02*
X113504551Y-161450449D01*
X110992868Y-149060489D02*
X113504551Y-151572172D01*
X106209511Y-149060489D02*
X110992868Y-149060489D01*
X113504551Y-161450449D02*
X113030000Y-161925000D01*
X114104071Y-151323842D02*
X114104071Y-160459071D01*
X114104071Y-160459071D02*
X115570000Y-161925000D01*
X105031031Y-148460969D02*
X111241198Y-148460969D01*
X111241198Y-148460969D02*
X114104071Y-151323842D01*
X103632000Y-149860000D02*
X105031031Y-148460969D01*
X127508000Y-144018000D02*
X124530960Y-146995040D01*
X124530960Y-146995040D02*
X124530960Y-155504040D01*
X124530960Y-155504040D02*
X118110000Y-161925000D01*
X125130480Y-147919520D02*
X127508000Y-145542000D01*
X120650000Y-161925000D02*
X125130480Y-157444520D01*
X125130480Y-157444520D02*
X125130480Y-147919520D01*
X124439511Y-163174511D02*
X123190000Y-161925000D01*
X115570000Y-139446000D02*
X127508000Y-139446000D01*
X126385489Y-163174511D02*
X124439511Y-163174511D01*
X127020489Y-162539511D02*
X126385489Y-163174511D01*
X133604000Y-142748000D02*
X130302000Y-139446000D01*
X127020489Y-161564489D02*
X127020489Y-162539511D01*
X130302000Y-139446000D02*
X127508000Y-139446000D01*
X126329520Y-160020000D02*
X126329520Y-151800480D01*
X127020489Y-161564489D02*
X127020489Y-160710969D01*
X127020489Y-160710969D02*
X126329520Y-160020000D01*
X126329520Y-151800480D02*
X127000000Y-151130000D01*
X127020489Y-161056489D02*
X127020489Y-161564489D01*
X133604000Y-150114000D02*
X133604000Y-142748000D01*
X125730000Y-150622000D02*
X126238000Y-150114000D01*
X102765591Y-146662409D02*
X119738409Y-146662409D01*
X119738409Y-146662409D02*
X120650000Y-147574000D01*
X101600000Y-147828000D02*
X102765591Y-146662409D01*
X125730000Y-161925000D02*
X125730000Y-150622000D01*
X127000000Y-141224000D02*
X128270000Y-141224000D01*
X128270000Y-141224000D02*
X128524000Y-141478000D01*
X129286000Y-160909000D02*
X128270000Y-161925000D01*
X129286000Y-157485000D02*
X129286000Y-160909000D01*
X131555022Y-122157022D02*
X118634978Y-122157022D01*
X128270000Y-161112631D02*
X128270000Y-161925000D01*
X126929040Y-159771671D02*
X128270000Y-161112631D01*
X128524000Y-150736680D02*
X126929040Y-152331640D01*
X126929040Y-152331640D02*
X126929040Y-159771671D01*
X118634978Y-122157022D02*
X118364000Y-122428000D01*
X128524000Y-141478000D02*
X128524000Y-150736680D01*
X129286000Y-148844000D02*
X130048000Y-148082000D01*
X129286000Y-154945000D02*
X129286000Y-148844000D01*
X92710000Y-155707000D02*
X95667150Y-155707000D01*
X112209929Y-147261929D02*
X114808000Y-149860000D01*
X104112222Y-147261929D02*
X112209929Y-147261929D01*
X95667150Y-155707000D02*
X104112222Y-147261929D01*
X107442000Y-152400000D02*
X108241511Y-151600489D01*
X108241511Y-151600489D02*
X109436489Y-151600489D01*
X111252000Y-152146000D02*
X110706489Y-151600489D01*
X110706489Y-151600489D02*
X109436489Y-151600489D01*
X84692887Y-118572077D02*
X78740000Y-124524962D01*
X87652923Y-118572077D02*
X84692887Y-118572077D01*
X89950000Y-116275000D02*
X87652923Y-118572077D01*
X78740000Y-124524962D02*
X78740000Y-125090000D01*
X80751113Y-121666000D02*
X79624000Y-121666000D01*
X79624000Y-121666000D02*
X78740000Y-122550000D01*
X87410000Y-116275000D02*
X85712443Y-117972557D01*
X84444557Y-117972557D02*
X80751113Y-121666000D01*
X85712443Y-117972557D02*
X84444557Y-117972557D01*
D18*
X78740000Y-120010000D02*
X81135000Y-120010000D01*
X81135000Y-120010000D02*
X84870000Y-116275000D01*
X103640489Y-117824511D02*
X89693489Y-117824511D01*
X105190000Y-116275000D02*
X103640489Y-117824511D01*
X87410000Y-120108000D02*
X84870000Y-120108000D01*
X89693489Y-117824511D02*
X87410000Y-120108000D01*
D17*
X115445031Y-134490969D02*
X100175045Y-134490969D01*
X116995036Y-132940964D02*
X115445031Y-134490969D01*
X94777489Y-130337489D02*
X94254489Y-129814489D01*
X118872000Y-129794000D02*
X116995036Y-131670964D01*
X94254489Y-127756511D02*
X95504000Y-126507000D01*
X96021565Y-130337489D02*
X94777489Y-130337489D01*
X116995036Y-131670964D02*
X116995036Y-132940964D01*
X100175045Y-134490969D02*
X96021565Y-130337489D01*
X94254489Y-129814489D02*
X94254489Y-127756511D01*
X87625000Y-150495000D02*
X84639000Y-150495000D01*
X87630000Y-147955000D02*
X84639000Y-147955000D01*
X87630000Y-158115000D02*
X84639000Y-158115000D01*
X92837000Y-153035000D02*
X93853000Y-152019000D01*
X84639000Y-153035000D02*
X92837000Y-153035000D01*
X119634000Y-138430000D02*
X122936000Y-138430000D01*
X122970000Y-113735000D02*
X121720489Y-114984511D01*
X121720489Y-114984511D02*
X121720489Y-117801511D01*
X121720489Y-117801511D02*
X121720489Y-121357511D01*
X119634000Y-135890000D02*
X121920000Y-135890000D01*
X119634000Y-137160000D02*
X125476000Y-137160000D01*
X118586160Y-131950969D02*
X118194075Y-132343054D01*
X118194075Y-132343054D02*
X118194075Y-134450075D01*
X129032000Y-131318000D02*
X128399031Y-131950969D01*
X116754150Y-135890000D02*
X107188000Y-135890000D01*
X118194075Y-134450075D02*
X116754150Y-135890000D01*
X128399031Y-131950969D02*
X118586160Y-131950969D01*
X126271449Y-131351449D02*
X118337831Y-131351449D01*
X106717511Y-135090489D02*
X105918000Y-135890000D01*
X126800489Y-114984511D02*
X126800489Y-118817511D01*
X117594555Y-132094724D02*
X117594555Y-134201745D01*
X107933502Y-135290480D02*
X107733511Y-135090489D01*
X128050000Y-113735000D02*
X126800489Y-114984511D01*
X118337831Y-131351449D02*
X117594555Y-132094724D01*
X107733511Y-135090489D02*
X106717511Y-135090489D01*
X126966551Y-131351449D02*
X126271449Y-131351449D01*
X117594555Y-134201745D02*
X116505820Y-135290480D01*
X116505820Y-135290480D02*
X107933502Y-135290480D01*
X127254000Y-131064000D02*
X126966551Y-131351449D01*
X119634000Y-134620000D02*
X130556000Y-134620000D01*
X129540000Y-133350000D02*
X119634000Y-133350000D01*
X116802489Y-136689511D02*
X118834489Y-134657511D01*
X104140000Y-135890000D02*
X104939511Y-136689511D01*
X118834489Y-134657511D02*
X118834489Y-132804489D01*
X132588000Y-132588000D02*
X132550489Y-132550489D01*
X132550489Y-132550489D02*
X119088489Y-132550489D01*
X104939511Y-136689511D02*
X116802489Y-136689511D01*
X119088489Y-132550489D02*
X118834489Y-132804489D01*
X106045000Y-127127000D02*
X113665000Y-127127000D01*
X113665000Y-127127000D02*
X115570000Y-125222000D01*
X105156000Y-128016000D02*
X114300000Y-128016000D01*
X114300000Y-128016000D02*
X115824000Y-126492000D01*
X104775000Y-128397000D02*
X105156000Y-128016000D01*
X106426000Y-125222000D02*
X99822000Y-125222000D01*
X95250000Y-120650000D02*
X92710000Y-120650000D01*
X99822000Y-125222000D02*
X95250000Y-120650000D01*
X109003511Y-126021511D02*
X113615169Y-126021511D01*
X114554000Y-125082680D02*
X114554000Y-124714000D01*
X108966000Y-125984000D02*
X109003511Y-126021511D01*
X113615169Y-126021511D02*
X114554000Y-125082680D01*
X105410000Y-121920000D02*
X104902000Y-121412000D01*
X108966000Y-121920000D02*
X105410000Y-121920000D01*
X105233169Y-120612489D02*
X105701511Y-121080831D01*
X103378000Y-121412000D02*
X104177511Y-120612489D01*
X104177511Y-120612489D02*
X105233169Y-120612489D01*
X111054040Y-122230040D02*
X109944489Y-121120489D01*
X105701511Y-121080831D02*
X105701511Y-121120489D01*
X109944489Y-121120489D02*
X105701511Y-121120489D01*
X110236000Y-122682000D02*
X110744000Y-123190000D01*
X111853551Y-122561209D02*
X111853551Y-121505551D01*
X110744000Y-123190000D02*
X111224760Y-123190000D01*
X103554831Y-122719511D02*
X110198489Y-122719511D01*
X101346000Y-120510680D02*
X103554831Y-122719511D01*
X110198489Y-122719511D02*
X110236000Y-122682000D01*
X111224760Y-123190000D02*
X111853551Y-122561209D01*
X109857031Y-123319031D02*
X110327520Y-123789520D01*
X112684480Y-123789520D02*
X112776000Y-123698000D01*
X110327520Y-123789520D02*
X112684480Y-123789520D01*
X99314000Y-121412000D02*
X101221031Y-123319031D01*
X101221031Y-123319031D02*
X109857031Y-123319031D01*
X113284000Y-125222000D02*
X112776000Y-124714000D01*
X109608702Y-123918551D02*
X100296551Y-123918551D01*
X110404151Y-124714000D02*
X109608702Y-123918551D01*
X100296551Y-123918551D02*
X97790000Y-121412000D01*
X112776000Y-124714000D02*
X110404151Y-124714000D01*
G04 #@! TA.AperFunction,Conductor*
G36*
X137970057Y-112509500D02*
G01*
X137984858Y-112511805D01*
X137984861Y-112511805D01*
X137993730Y-112513186D01*
X138010899Y-112510941D01*
X138034839Y-112510108D01*
X138292770Y-112525710D01*
X138307874Y-112527544D01*
X138378648Y-112540514D01*
X138588879Y-112579040D01*
X138603641Y-112582678D01*
X138876408Y-112667675D01*
X138890627Y-112673069D01*
X139151140Y-112790316D01*
X139164609Y-112797385D01*
X139409095Y-112945182D01*
X139421617Y-112953825D01*
X139646507Y-113130016D01*
X139657895Y-113140106D01*
X139859894Y-113342105D01*
X139869984Y-113353493D01*
X140046175Y-113578383D01*
X140054818Y-113590905D01*
X140202615Y-113835391D01*
X140209684Y-113848860D01*
X140288089Y-114023069D01*
X140326930Y-114109370D01*
X140332325Y-114123592D01*
X140416855Y-114394857D01*
X140417321Y-114396353D01*
X140420960Y-114411121D01*
X140448596Y-114561922D01*
X140472456Y-114692126D01*
X140474290Y-114707230D01*
X140489455Y-114957929D01*
X140488198Y-114984639D01*
X140488195Y-114984859D01*
X140486814Y-114993730D01*
X140487978Y-115002632D01*
X140487978Y-115002635D01*
X140490936Y-115025251D01*
X140492000Y-115041589D01*
X140492000Y-163950672D01*
X140490500Y-163970056D01*
X140486814Y-163993730D01*
X140488454Y-164006270D01*
X140489059Y-164010897D01*
X140489892Y-164034839D01*
X140474290Y-164292770D01*
X140472456Y-164307874D01*
X140471112Y-164315209D01*
X140423917Y-164572750D01*
X140420962Y-164588873D01*
X140417322Y-164603641D01*
X140347822Y-164826676D01*
X140332326Y-164876404D01*
X140326931Y-164890627D01*
X140221955Y-165123876D01*
X140209686Y-165151136D01*
X140202615Y-165164609D01*
X140054818Y-165409095D01*
X140046175Y-165421617D01*
X139869984Y-165646507D01*
X139859894Y-165657895D01*
X139657895Y-165859894D01*
X139646507Y-165869984D01*
X139421617Y-166046175D01*
X139409095Y-166054818D01*
X139164609Y-166202615D01*
X139151140Y-166209684D01*
X138890630Y-166326930D01*
X138876408Y-166332325D01*
X138603641Y-166417322D01*
X138588879Y-166420960D01*
X138378648Y-166459486D01*
X138307874Y-166472456D01*
X138292770Y-166474290D01*
X138042071Y-166489455D01*
X138015361Y-166488198D01*
X138015141Y-166488195D01*
X138006270Y-166486814D01*
X137997368Y-166487978D01*
X137997365Y-166487978D01*
X137974749Y-166490936D01*
X137958411Y-166492000D01*
X80049328Y-166492000D01*
X80029943Y-166490500D01*
X80015142Y-166488195D01*
X80015139Y-166488195D01*
X80006270Y-166486814D01*
X79989101Y-166489059D01*
X79965161Y-166489892D01*
X79707230Y-166474290D01*
X79692126Y-166472456D01*
X79621352Y-166459486D01*
X79411121Y-166420960D01*
X79396359Y-166417322D01*
X79123592Y-166332325D01*
X79109370Y-166326930D01*
X78848860Y-166209684D01*
X78835391Y-166202615D01*
X78590905Y-166054818D01*
X78578383Y-166046175D01*
X78353493Y-165869984D01*
X78342105Y-165859894D01*
X78140106Y-165657895D01*
X78130016Y-165646507D01*
X77953825Y-165421617D01*
X77945182Y-165409095D01*
X77797385Y-165164609D01*
X77790314Y-165151136D01*
X77778046Y-165123876D01*
X77673069Y-164890627D01*
X77667674Y-164876404D01*
X77652178Y-164826676D01*
X77582678Y-164603641D01*
X77579038Y-164588873D01*
X77576084Y-164572750D01*
X77528888Y-164315209D01*
X77527544Y-164307874D01*
X77525710Y-164292770D01*
X77510557Y-164042277D01*
X78137009Y-164042277D01*
X78162625Y-164310769D01*
X78163710Y-164315203D01*
X78163711Y-164315209D01*
X78225645Y-164568312D01*
X78226731Y-164572750D01*
X78327985Y-164822733D01*
X78464265Y-165055482D01*
X78467118Y-165059049D01*
X78584686Y-165206060D01*
X78632716Y-165266119D01*
X78829809Y-165450234D01*
X79051416Y-165603968D01*
X79055499Y-165605999D01*
X79055502Y-165606001D01*
X79136923Y-165646507D01*
X79292894Y-165724101D01*
X79297228Y-165725522D01*
X79297231Y-165725523D01*
X79544853Y-165806698D01*
X79544859Y-165806699D01*
X79549186Y-165808118D01*
X79553677Y-165808898D01*
X79553678Y-165808898D01*
X79811140Y-165853601D01*
X79811148Y-165853602D01*
X79814921Y-165854257D01*
X79818758Y-165854448D01*
X79898578Y-165858422D01*
X79898586Y-165858422D01*
X79900149Y-165858500D01*
X80068512Y-165858500D01*
X80070780Y-165858335D01*
X80070792Y-165858335D01*
X80201884Y-165848823D01*
X80269004Y-165843953D01*
X80273459Y-165842969D01*
X80273462Y-165842969D01*
X80527912Y-165786791D01*
X80527916Y-165786790D01*
X80532372Y-165785806D01*
X80675887Y-165731433D01*
X80780318Y-165691868D01*
X80780321Y-165691867D01*
X80784588Y-165690250D01*
X80986828Y-165577916D01*
X81016375Y-165561504D01*
X81016376Y-165561503D01*
X81020368Y-165559286D01*
X81234773Y-165395657D01*
X81269954Y-165359669D01*
X86272001Y-165359669D01*
X86272371Y-165366490D01*
X86277895Y-165417352D01*
X86281521Y-165432604D01*
X86326676Y-165553054D01*
X86335214Y-165568649D01*
X86411715Y-165670724D01*
X86424276Y-165683285D01*
X86526351Y-165759786D01*
X86541946Y-165768324D01*
X86662394Y-165813478D01*
X86677649Y-165817105D01*
X86728514Y-165822631D01*
X86735328Y-165823000D01*
X87357885Y-165823000D01*
X87373124Y-165818525D01*
X87374329Y-165817135D01*
X87376000Y-165809452D01*
X87376000Y-165804884D01*
X87884000Y-165804884D01*
X87888475Y-165820123D01*
X87889865Y-165821328D01*
X87897548Y-165822999D01*
X88524669Y-165822999D01*
X88531490Y-165822629D01*
X88582352Y-165817105D01*
X88597604Y-165813479D01*
X88718054Y-165768324D01*
X88733649Y-165759786D01*
X88835724Y-165683285D01*
X88848285Y-165670724D01*
X88924786Y-165568649D01*
X88933325Y-165553052D01*
X88974425Y-165443418D01*
X89017066Y-165386653D01*
X89083628Y-165361953D01*
X89152977Y-165377160D01*
X89187645Y-165405150D01*
X89213219Y-165434674D01*
X89220580Y-165441883D01*
X89384434Y-165577916D01*
X89392881Y-165583831D01*
X89576756Y-165691279D01*
X89586042Y-165695729D01*
X89785001Y-165771703D01*
X89794899Y-165774579D01*
X89898250Y-165795606D01*
X89912299Y-165794410D01*
X89916000Y-165784065D01*
X89916000Y-165783517D01*
X90424000Y-165783517D01*
X90428064Y-165797359D01*
X90441478Y-165799393D01*
X90448184Y-165798534D01*
X90458262Y-165796392D01*
X90662255Y-165735191D01*
X90671842Y-165731433D01*
X90863095Y-165637739D01*
X90871945Y-165632464D01*
X91045328Y-165508792D01*
X91053200Y-165502139D01*
X91204052Y-165351812D01*
X91210730Y-165343965D01*
X91338022Y-165166819D01*
X91339147Y-165167627D01*
X91386669Y-165123876D01*
X91456607Y-165111661D01*
X91522046Y-165139197D01*
X91549870Y-165171028D01*
X91607690Y-165265383D01*
X91613777Y-165273699D01*
X91753213Y-165434667D01*
X91760580Y-165441883D01*
X91924434Y-165577916D01*
X91932881Y-165583831D01*
X92116756Y-165691279D01*
X92126042Y-165695729D01*
X92325001Y-165771703D01*
X92334899Y-165774579D01*
X92438250Y-165795606D01*
X92452299Y-165794410D01*
X92456000Y-165784065D01*
X92456000Y-165783517D01*
X92964000Y-165783517D01*
X92968064Y-165797359D01*
X92981478Y-165799393D01*
X92988184Y-165798534D01*
X92998262Y-165796392D01*
X93202255Y-165735191D01*
X93211842Y-165731433D01*
X93403095Y-165637739D01*
X93411945Y-165632464D01*
X93585328Y-165508792D01*
X93593200Y-165502139D01*
X93744052Y-165351812D01*
X93750730Y-165343965D01*
X93878022Y-165166819D01*
X93879147Y-165167627D01*
X93926669Y-165123876D01*
X93996607Y-165111661D01*
X94062046Y-165139197D01*
X94089870Y-165171028D01*
X94147690Y-165265383D01*
X94153777Y-165273699D01*
X94293213Y-165434667D01*
X94300580Y-165441883D01*
X94464434Y-165577916D01*
X94472881Y-165583831D01*
X94656756Y-165691279D01*
X94666042Y-165695729D01*
X94865001Y-165771703D01*
X94874899Y-165774579D01*
X94978250Y-165795606D01*
X94992299Y-165794410D01*
X94996000Y-165784065D01*
X94996000Y-165783517D01*
X95504000Y-165783517D01*
X95508064Y-165797359D01*
X95521478Y-165799393D01*
X95528184Y-165798534D01*
X95538262Y-165796392D01*
X95742255Y-165735191D01*
X95751842Y-165731433D01*
X95943095Y-165637739D01*
X95951945Y-165632464D01*
X96125328Y-165508792D01*
X96133200Y-165502139D01*
X96284052Y-165351812D01*
X96290730Y-165343965D01*
X96418022Y-165166819D01*
X96419147Y-165167627D01*
X96466669Y-165123876D01*
X96536607Y-165111661D01*
X96602046Y-165139197D01*
X96629870Y-165171028D01*
X96687690Y-165265383D01*
X96693777Y-165273699D01*
X96833213Y-165434667D01*
X96840580Y-165441883D01*
X97004434Y-165577916D01*
X97012881Y-165583831D01*
X97196756Y-165691279D01*
X97206042Y-165695729D01*
X97405001Y-165771703D01*
X97414899Y-165774579D01*
X97518250Y-165795606D01*
X97532299Y-165794410D01*
X97536000Y-165784065D01*
X97536000Y-165783517D01*
X98044000Y-165783517D01*
X98048064Y-165797359D01*
X98061478Y-165799393D01*
X98068184Y-165798534D01*
X98078262Y-165796392D01*
X98282255Y-165735191D01*
X98291842Y-165731433D01*
X98483095Y-165637739D01*
X98491945Y-165632464D01*
X98665328Y-165508792D01*
X98673200Y-165502139D01*
X98824052Y-165351812D01*
X98830730Y-165343965D01*
X98958022Y-165166819D01*
X98959147Y-165167627D01*
X99006669Y-165123876D01*
X99076607Y-165111661D01*
X99142046Y-165139197D01*
X99169870Y-165171028D01*
X99227690Y-165265383D01*
X99233777Y-165273699D01*
X99373213Y-165434667D01*
X99380580Y-165441883D01*
X99544434Y-165577916D01*
X99552881Y-165583831D01*
X99736756Y-165691279D01*
X99746042Y-165695729D01*
X99945001Y-165771703D01*
X99954899Y-165774579D01*
X100058250Y-165795606D01*
X100072299Y-165794410D01*
X100076000Y-165784065D01*
X100076000Y-165783517D01*
X100584000Y-165783517D01*
X100588064Y-165797359D01*
X100601478Y-165799393D01*
X100608184Y-165798534D01*
X100618262Y-165796392D01*
X100822255Y-165735191D01*
X100831842Y-165731433D01*
X101023095Y-165637739D01*
X101031945Y-165632464D01*
X101205328Y-165508792D01*
X101213200Y-165502139D01*
X101364052Y-165351812D01*
X101370730Y-165343965D01*
X101498022Y-165166819D01*
X101499147Y-165167627D01*
X101546669Y-165123876D01*
X101616607Y-165111661D01*
X101682046Y-165139197D01*
X101709870Y-165171028D01*
X101767690Y-165265383D01*
X101773777Y-165273699D01*
X101913213Y-165434667D01*
X101920580Y-165441883D01*
X102084434Y-165577916D01*
X102092881Y-165583831D01*
X102276756Y-165691279D01*
X102286042Y-165695729D01*
X102485001Y-165771703D01*
X102494899Y-165774579D01*
X102598250Y-165795606D01*
X102612299Y-165794410D01*
X102616000Y-165784065D01*
X102616000Y-165783517D01*
X103124000Y-165783517D01*
X103128064Y-165797359D01*
X103141478Y-165799393D01*
X103148184Y-165798534D01*
X103158262Y-165796392D01*
X103362255Y-165735191D01*
X103371842Y-165731433D01*
X103563095Y-165637739D01*
X103571945Y-165632464D01*
X103745328Y-165508792D01*
X103753200Y-165502139D01*
X103904052Y-165351812D01*
X103910730Y-165343965D01*
X104038022Y-165166819D01*
X104039147Y-165167627D01*
X104086669Y-165123876D01*
X104156607Y-165111661D01*
X104222046Y-165139197D01*
X104249870Y-165171028D01*
X104307690Y-165265383D01*
X104313777Y-165273699D01*
X104453213Y-165434667D01*
X104460580Y-165441883D01*
X104624434Y-165577916D01*
X104632881Y-165583831D01*
X104816756Y-165691279D01*
X104826042Y-165695729D01*
X105025001Y-165771703D01*
X105034899Y-165774579D01*
X105138250Y-165795606D01*
X105152299Y-165794410D01*
X105156000Y-165784065D01*
X105156000Y-165783517D01*
X105664000Y-165783517D01*
X105668064Y-165797359D01*
X105681478Y-165799393D01*
X105688184Y-165798534D01*
X105698262Y-165796392D01*
X105902255Y-165735191D01*
X105911842Y-165731433D01*
X106103095Y-165637739D01*
X106111945Y-165632464D01*
X106285328Y-165508792D01*
X106293200Y-165502139D01*
X106444052Y-165351812D01*
X106450730Y-165343965D01*
X106578022Y-165166819D01*
X106579147Y-165167627D01*
X106626669Y-165123876D01*
X106696607Y-165111661D01*
X106762046Y-165139197D01*
X106789870Y-165171028D01*
X106847690Y-165265383D01*
X106853777Y-165273699D01*
X106993213Y-165434667D01*
X107000580Y-165441883D01*
X107164434Y-165577916D01*
X107172881Y-165583831D01*
X107356756Y-165691279D01*
X107366042Y-165695729D01*
X107565001Y-165771703D01*
X107574899Y-165774579D01*
X107678250Y-165795606D01*
X107692299Y-165794410D01*
X107696000Y-165784065D01*
X107696000Y-165783517D01*
X108204000Y-165783517D01*
X108208064Y-165797359D01*
X108221478Y-165799393D01*
X108228184Y-165798534D01*
X108238262Y-165796392D01*
X108442255Y-165735191D01*
X108451842Y-165731433D01*
X108643095Y-165637739D01*
X108651945Y-165632464D01*
X108825328Y-165508792D01*
X108833200Y-165502139D01*
X108984052Y-165351812D01*
X108990730Y-165343965D01*
X109118022Y-165166819D01*
X109119147Y-165167627D01*
X109166669Y-165123876D01*
X109236607Y-165111661D01*
X109302046Y-165139197D01*
X109329870Y-165171028D01*
X109387690Y-165265383D01*
X109393777Y-165273699D01*
X109533213Y-165434667D01*
X109540580Y-165441883D01*
X109704434Y-165577916D01*
X109712881Y-165583831D01*
X109896756Y-165691279D01*
X109906042Y-165695729D01*
X110105001Y-165771703D01*
X110114899Y-165774579D01*
X110218250Y-165795606D01*
X110232299Y-165794410D01*
X110236000Y-165784065D01*
X110236000Y-165783517D01*
X110744000Y-165783517D01*
X110748064Y-165797359D01*
X110761478Y-165799393D01*
X110768184Y-165798534D01*
X110778262Y-165796392D01*
X110982255Y-165735191D01*
X110991842Y-165731433D01*
X111183095Y-165637739D01*
X111191945Y-165632464D01*
X111365328Y-165508792D01*
X111373200Y-165502139D01*
X111524052Y-165351812D01*
X111530730Y-165343965D01*
X111658022Y-165166819D01*
X111659147Y-165167627D01*
X111706669Y-165123876D01*
X111776607Y-165111661D01*
X111842046Y-165139197D01*
X111869870Y-165171028D01*
X111927690Y-165265383D01*
X111933777Y-165273699D01*
X112073213Y-165434667D01*
X112080580Y-165441883D01*
X112244434Y-165577916D01*
X112252881Y-165583831D01*
X112436756Y-165691279D01*
X112446042Y-165695729D01*
X112645001Y-165771703D01*
X112654899Y-165774579D01*
X112758250Y-165795606D01*
X112772299Y-165794410D01*
X112776000Y-165784065D01*
X112776000Y-165783517D01*
X113284000Y-165783517D01*
X113288064Y-165797359D01*
X113301478Y-165799393D01*
X113308184Y-165798534D01*
X113318262Y-165796392D01*
X113522255Y-165735191D01*
X113531842Y-165731433D01*
X113723095Y-165637739D01*
X113731945Y-165632464D01*
X113905328Y-165508792D01*
X113913200Y-165502139D01*
X114064052Y-165351812D01*
X114070730Y-165343965D01*
X114198022Y-165166819D01*
X114199147Y-165167627D01*
X114246669Y-165123876D01*
X114316607Y-165111661D01*
X114382046Y-165139197D01*
X114409870Y-165171028D01*
X114467690Y-165265383D01*
X114473777Y-165273699D01*
X114613213Y-165434667D01*
X114620580Y-165441883D01*
X114784434Y-165577916D01*
X114792881Y-165583831D01*
X114976756Y-165691279D01*
X114986042Y-165695729D01*
X115185001Y-165771703D01*
X115194899Y-165774579D01*
X115298250Y-165795606D01*
X115312299Y-165794410D01*
X115316000Y-165784065D01*
X115316000Y-165783517D01*
X115824000Y-165783517D01*
X115828064Y-165797359D01*
X115841478Y-165799393D01*
X115848184Y-165798534D01*
X115858262Y-165796392D01*
X116062255Y-165735191D01*
X116071842Y-165731433D01*
X116263095Y-165637739D01*
X116271945Y-165632464D01*
X116445328Y-165508792D01*
X116453200Y-165502139D01*
X116604052Y-165351812D01*
X116610730Y-165343965D01*
X116738022Y-165166819D01*
X116739147Y-165167627D01*
X116786669Y-165123876D01*
X116856607Y-165111661D01*
X116922046Y-165139197D01*
X116949870Y-165171028D01*
X117007690Y-165265383D01*
X117013777Y-165273699D01*
X117153213Y-165434667D01*
X117160580Y-165441883D01*
X117324434Y-165577916D01*
X117332881Y-165583831D01*
X117516756Y-165691279D01*
X117526042Y-165695729D01*
X117725001Y-165771703D01*
X117734899Y-165774579D01*
X117838250Y-165795606D01*
X117852299Y-165794410D01*
X117856000Y-165784065D01*
X117856000Y-165783517D01*
X118364000Y-165783517D01*
X118368064Y-165797359D01*
X118381478Y-165799393D01*
X118388184Y-165798534D01*
X118398262Y-165796392D01*
X118602255Y-165735191D01*
X118611842Y-165731433D01*
X118803095Y-165637739D01*
X118811945Y-165632464D01*
X118985328Y-165508792D01*
X118993200Y-165502139D01*
X119144052Y-165351812D01*
X119150730Y-165343965D01*
X119278022Y-165166819D01*
X119279147Y-165167627D01*
X119326669Y-165123876D01*
X119396607Y-165111661D01*
X119462046Y-165139197D01*
X119489870Y-165171028D01*
X119547690Y-165265383D01*
X119553777Y-165273699D01*
X119693213Y-165434667D01*
X119700580Y-165441883D01*
X119864434Y-165577916D01*
X119872881Y-165583831D01*
X120056756Y-165691279D01*
X120066042Y-165695729D01*
X120265001Y-165771703D01*
X120274899Y-165774579D01*
X120378250Y-165795606D01*
X120392299Y-165794410D01*
X120396000Y-165784065D01*
X120396000Y-165783517D01*
X120904000Y-165783517D01*
X120908064Y-165797359D01*
X120921478Y-165799393D01*
X120928184Y-165798534D01*
X120938262Y-165796392D01*
X121142255Y-165735191D01*
X121151842Y-165731433D01*
X121343095Y-165637739D01*
X121351945Y-165632464D01*
X121525328Y-165508792D01*
X121533200Y-165502139D01*
X121684052Y-165351812D01*
X121690730Y-165343965D01*
X121818022Y-165166819D01*
X121819147Y-165167627D01*
X121866669Y-165123876D01*
X121936607Y-165111661D01*
X122002046Y-165139197D01*
X122029870Y-165171028D01*
X122087690Y-165265383D01*
X122093777Y-165273699D01*
X122233213Y-165434667D01*
X122240580Y-165441883D01*
X122404434Y-165577916D01*
X122412881Y-165583831D01*
X122596756Y-165691279D01*
X122606042Y-165695729D01*
X122805001Y-165771703D01*
X122814899Y-165774579D01*
X122918250Y-165795606D01*
X122932299Y-165794410D01*
X122936000Y-165784065D01*
X122936000Y-165783517D01*
X123444000Y-165783517D01*
X123448064Y-165797359D01*
X123461478Y-165799393D01*
X123468184Y-165798534D01*
X123478262Y-165796392D01*
X123682255Y-165735191D01*
X123691842Y-165731433D01*
X123883095Y-165637739D01*
X123891945Y-165632464D01*
X124065328Y-165508792D01*
X124073200Y-165502139D01*
X124224052Y-165351812D01*
X124230730Y-165343965D01*
X124358022Y-165166819D01*
X124359147Y-165167627D01*
X124406669Y-165123876D01*
X124476607Y-165111661D01*
X124542046Y-165139197D01*
X124569870Y-165171028D01*
X124627690Y-165265383D01*
X124633777Y-165273699D01*
X124773213Y-165434667D01*
X124780580Y-165441883D01*
X124944434Y-165577916D01*
X124952881Y-165583831D01*
X125136756Y-165691279D01*
X125146042Y-165695729D01*
X125345001Y-165771703D01*
X125354899Y-165774579D01*
X125458250Y-165795606D01*
X125472299Y-165794410D01*
X125476000Y-165784065D01*
X125476000Y-165783517D01*
X125984000Y-165783517D01*
X125988064Y-165797359D01*
X126001478Y-165799393D01*
X126008184Y-165798534D01*
X126018262Y-165796392D01*
X126222255Y-165735191D01*
X126231842Y-165731433D01*
X126423095Y-165637739D01*
X126431945Y-165632464D01*
X126605328Y-165508792D01*
X126613200Y-165502139D01*
X126764052Y-165351812D01*
X126770730Y-165343965D01*
X126898022Y-165166819D01*
X126899147Y-165167627D01*
X126946669Y-165123876D01*
X127016607Y-165111661D01*
X127082046Y-165139197D01*
X127109870Y-165171028D01*
X127167690Y-165265383D01*
X127173777Y-165273699D01*
X127313213Y-165434667D01*
X127320580Y-165441883D01*
X127484434Y-165577916D01*
X127492881Y-165583831D01*
X127676756Y-165691279D01*
X127686042Y-165695729D01*
X127885001Y-165771703D01*
X127894899Y-165774579D01*
X127998250Y-165795606D01*
X128012299Y-165794410D01*
X128016000Y-165784065D01*
X128016000Y-165783517D01*
X128524000Y-165783517D01*
X128528064Y-165797359D01*
X128541478Y-165799393D01*
X128548184Y-165798534D01*
X128558262Y-165796392D01*
X128762255Y-165735191D01*
X128771842Y-165731433D01*
X128963095Y-165637739D01*
X128971945Y-165632464D01*
X129145328Y-165508792D01*
X129153200Y-165502139D01*
X129304052Y-165351812D01*
X129310730Y-165343965D01*
X129435003Y-165171020D01*
X129440313Y-165162183D01*
X129534670Y-164971267D01*
X129538469Y-164961672D01*
X129600377Y-164757910D01*
X129602555Y-164747837D01*
X129603986Y-164736962D01*
X129601775Y-164722778D01*
X129588617Y-164719000D01*
X128542115Y-164719000D01*
X128526876Y-164723475D01*
X128525671Y-164724865D01*
X128524000Y-164732548D01*
X128524000Y-165783517D01*
X128016000Y-165783517D01*
X128016000Y-164737115D01*
X128011525Y-164721876D01*
X128010135Y-164720671D01*
X128002452Y-164719000D01*
X126002115Y-164719000D01*
X125986876Y-164723475D01*
X125985671Y-164724865D01*
X125984000Y-164732548D01*
X125984000Y-165783517D01*
X125476000Y-165783517D01*
X125476000Y-164737115D01*
X125471525Y-164721876D01*
X125470135Y-164720671D01*
X125462452Y-164719000D01*
X123462115Y-164719000D01*
X123446876Y-164723475D01*
X123445671Y-164724865D01*
X123444000Y-164732548D01*
X123444000Y-165783517D01*
X122936000Y-165783517D01*
X122936000Y-164737115D01*
X122931525Y-164721876D01*
X122930135Y-164720671D01*
X122922452Y-164719000D01*
X120922115Y-164719000D01*
X120906876Y-164723475D01*
X120905671Y-164724865D01*
X120904000Y-164732548D01*
X120904000Y-165783517D01*
X120396000Y-165783517D01*
X120396000Y-164737115D01*
X120391525Y-164721876D01*
X120390135Y-164720671D01*
X120382452Y-164719000D01*
X118382115Y-164719000D01*
X118366876Y-164723475D01*
X118365671Y-164724865D01*
X118364000Y-164732548D01*
X118364000Y-165783517D01*
X117856000Y-165783517D01*
X117856000Y-164737115D01*
X117851525Y-164721876D01*
X117850135Y-164720671D01*
X117842452Y-164719000D01*
X115842115Y-164719000D01*
X115826876Y-164723475D01*
X115825671Y-164724865D01*
X115824000Y-164732548D01*
X115824000Y-165783517D01*
X115316000Y-165783517D01*
X115316000Y-164737115D01*
X115311525Y-164721876D01*
X115310135Y-164720671D01*
X115302452Y-164719000D01*
X113302115Y-164719000D01*
X113286876Y-164723475D01*
X113285671Y-164724865D01*
X113284000Y-164732548D01*
X113284000Y-165783517D01*
X112776000Y-165783517D01*
X112776000Y-164737115D01*
X112771525Y-164721876D01*
X112770135Y-164720671D01*
X112762452Y-164719000D01*
X110762115Y-164719000D01*
X110746876Y-164723475D01*
X110745671Y-164724865D01*
X110744000Y-164732548D01*
X110744000Y-165783517D01*
X110236000Y-165783517D01*
X110236000Y-164737115D01*
X110231525Y-164721876D01*
X110230135Y-164720671D01*
X110222452Y-164719000D01*
X108222115Y-164719000D01*
X108206876Y-164723475D01*
X108205671Y-164724865D01*
X108204000Y-164732548D01*
X108204000Y-165783517D01*
X107696000Y-165783517D01*
X107696000Y-164737115D01*
X107691525Y-164721876D01*
X107690135Y-164720671D01*
X107682452Y-164719000D01*
X105682115Y-164719000D01*
X105666876Y-164723475D01*
X105665671Y-164724865D01*
X105664000Y-164732548D01*
X105664000Y-165783517D01*
X105156000Y-165783517D01*
X105156000Y-164737115D01*
X105151525Y-164721876D01*
X105150135Y-164720671D01*
X105142452Y-164719000D01*
X103142115Y-164719000D01*
X103126876Y-164723475D01*
X103125671Y-164724865D01*
X103124000Y-164732548D01*
X103124000Y-165783517D01*
X102616000Y-165783517D01*
X102616000Y-164737115D01*
X102611525Y-164721876D01*
X102610135Y-164720671D01*
X102602452Y-164719000D01*
X100602115Y-164719000D01*
X100586876Y-164723475D01*
X100585671Y-164724865D01*
X100584000Y-164732548D01*
X100584000Y-165783517D01*
X100076000Y-165783517D01*
X100076000Y-164737115D01*
X100071525Y-164721876D01*
X100070135Y-164720671D01*
X100062452Y-164719000D01*
X98062115Y-164719000D01*
X98046876Y-164723475D01*
X98045671Y-164724865D01*
X98044000Y-164732548D01*
X98044000Y-165783517D01*
X97536000Y-165783517D01*
X97536000Y-164737115D01*
X97531525Y-164721876D01*
X97530135Y-164720671D01*
X97522452Y-164719000D01*
X95522115Y-164719000D01*
X95506876Y-164723475D01*
X95505671Y-164724865D01*
X95504000Y-164732548D01*
X95504000Y-165783517D01*
X94996000Y-165783517D01*
X94996000Y-164737115D01*
X94991525Y-164721876D01*
X94990135Y-164720671D01*
X94982452Y-164719000D01*
X92982115Y-164719000D01*
X92966876Y-164723475D01*
X92965671Y-164724865D01*
X92964000Y-164732548D01*
X92964000Y-165783517D01*
X92456000Y-165783517D01*
X92456000Y-164737115D01*
X92451525Y-164721876D01*
X92450135Y-164720671D01*
X92442452Y-164719000D01*
X90442115Y-164719000D01*
X90426876Y-164723475D01*
X90425671Y-164724865D01*
X90424000Y-164732548D01*
X90424000Y-165783517D01*
X89916000Y-165783517D01*
X89916000Y-164737115D01*
X89911525Y-164721876D01*
X89910135Y-164720671D01*
X89902452Y-164719000D01*
X87902115Y-164719000D01*
X87886876Y-164723475D01*
X87885671Y-164724865D01*
X87884000Y-164732548D01*
X87884000Y-165804884D01*
X87376000Y-165804884D01*
X87376000Y-164737115D01*
X87371525Y-164721876D01*
X87370135Y-164720671D01*
X87362452Y-164719000D01*
X86290116Y-164719000D01*
X86274877Y-164723475D01*
X86273672Y-164724865D01*
X86272001Y-164732548D01*
X86272001Y-165359669D01*
X81269954Y-165359669D01*
X81423312Y-165202792D01*
X81582034Y-164984730D01*
X81665190Y-164826676D01*
X81705490Y-164750079D01*
X81705493Y-164750073D01*
X81707615Y-164746039D01*
X81710767Y-164737115D01*
X81795902Y-164496033D01*
X81795902Y-164496032D01*
X81797425Y-164491720D01*
X81849581Y-164227100D01*
X81849808Y-164222544D01*
X81862764Y-163962292D01*
X81862764Y-163962286D01*
X81862991Y-163957723D01*
X81837375Y-163689231D01*
X81829754Y-163658084D01*
X81774355Y-163431688D01*
X81773269Y-163427250D01*
X81672015Y-163177267D01*
X81535735Y-162944518D01*
X81417928Y-162797208D01*
X81370136Y-162737447D01*
X81370135Y-162737445D01*
X81367284Y-162733881D01*
X81170191Y-162549766D01*
X80948584Y-162396032D01*
X80944501Y-162394001D01*
X80944498Y-162393999D01*
X80821158Y-162332639D01*
X80707106Y-162275899D01*
X80702772Y-162274478D01*
X80702769Y-162274477D01*
X80455147Y-162193302D01*
X80455141Y-162193301D01*
X80450814Y-162191882D01*
X80446322Y-162191102D01*
X80188860Y-162146399D01*
X80188852Y-162146398D01*
X80185079Y-162145743D01*
X80173817Y-162145182D01*
X80101422Y-162141578D01*
X80101414Y-162141578D01*
X80099851Y-162141500D01*
X79931488Y-162141500D01*
X79929220Y-162141665D01*
X79929208Y-162141665D01*
X79798116Y-162151177D01*
X79730996Y-162156047D01*
X79726541Y-162157031D01*
X79726538Y-162157031D01*
X79472088Y-162213209D01*
X79472084Y-162213210D01*
X79467628Y-162214194D01*
X79457522Y-162218023D01*
X79219682Y-162308132D01*
X79219679Y-162308133D01*
X79215412Y-162309750D01*
X78979632Y-162440714D01*
X78765227Y-162604343D01*
X78576688Y-162797208D01*
X78417966Y-163015270D01*
X78403683Y-163042418D01*
X78294510Y-163249921D01*
X78294507Y-163249927D01*
X78292385Y-163253961D01*
X78290865Y-163258266D01*
X78290863Y-163258270D01*
X78225661Y-163442905D01*
X78202575Y-163508280D01*
X78190168Y-163571227D01*
X78152379Y-163762957D01*
X78150419Y-163772900D01*
X78150192Y-163777453D01*
X78150192Y-163777456D01*
X78137577Y-164030875D01*
X78137009Y-164042277D01*
X77510557Y-164042277D01*
X77510545Y-164042071D01*
X77511802Y-164015361D01*
X77511805Y-164015141D01*
X77513186Y-164006270D01*
X77511547Y-163993730D01*
X77509064Y-163974749D01*
X77508000Y-163958411D01*
X77508000Y-161891695D01*
X86267251Y-161891695D01*
X86267548Y-161896848D01*
X86267548Y-161896851D01*
X86273011Y-161991590D01*
X86280110Y-162114715D01*
X86281247Y-162119761D01*
X86281248Y-162119767D01*
X86303392Y-162218023D01*
X86329222Y-162332639D01*
X86413266Y-162539616D01*
X86451232Y-162601571D01*
X86527291Y-162725688D01*
X86529987Y-162730088D01*
X86676250Y-162898938D01*
X86680225Y-162902238D01*
X86680231Y-162902244D01*
X86685425Y-162906556D01*
X86725059Y-162965460D01*
X86726555Y-163036441D01*
X86689439Y-163096962D01*
X86649168Y-163121480D01*
X86541946Y-163161676D01*
X86526351Y-163170214D01*
X86424276Y-163246715D01*
X86411715Y-163259276D01*
X86335214Y-163361351D01*
X86326676Y-163376946D01*
X86281522Y-163497394D01*
X86277895Y-163512649D01*
X86272369Y-163563514D01*
X86272000Y-163570328D01*
X86272000Y-164192885D01*
X86276475Y-164208124D01*
X86277865Y-164209329D01*
X86285548Y-164211000D01*
X129588344Y-164211000D01*
X129601875Y-164207027D01*
X129603180Y-164197947D01*
X129564078Y-164042277D01*
X136137009Y-164042277D01*
X136162625Y-164310769D01*
X136163710Y-164315203D01*
X136163711Y-164315209D01*
X136225645Y-164568312D01*
X136226731Y-164572750D01*
X136327985Y-164822733D01*
X136464265Y-165055482D01*
X136467118Y-165059049D01*
X136584686Y-165206060D01*
X136632716Y-165266119D01*
X136829809Y-165450234D01*
X137051416Y-165603968D01*
X137055499Y-165605999D01*
X137055502Y-165606001D01*
X137136923Y-165646507D01*
X137292894Y-165724101D01*
X137297228Y-165725522D01*
X137297231Y-165725523D01*
X137544853Y-165806698D01*
X137544859Y-165806699D01*
X137549186Y-165808118D01*
X137553677Y-165808898D01*
X137553678Y-165808898D01*
X137811140Y-165853601D01*
X137811148Y-165853602D01*
X137814921Y-165854257D01*
X137818758Y-165854448D01*
X137898578Y-165858422D01*
X137898586Y-165858422D01*
X137900149Y-165858500D01*
X138068512Y-165858500D01*
X138070780Y-165858335D01*
X138070792Y-165858335D01*
X138201884Y-165848823D01*
X138269004Y-165843953D01*
X138273459Y-165842969D01*
X138273462Y-165842969D01*
X138527912Y-165786791D01*
X138527916Y-165786790D01*
X138532372Y-165785806D01*
X138675887Y-165731433D01*
X138780318Y-165691868D01*
X138780321Y-165691867D01*
X138784588Y-165690250D01*
X138986828Y-165577916D01*
X139016375Y-165561504D01*
X139016376Y-165561503D01*
X139020368Y-165559286D01*
X139234773Y-165395657D01*
X139423312Y-165202792D01*
X139582034Y-164984730D01*
X139665190Y-164826676D01*
X139705490Y-164750079D01*
X139705493Y-164750073D01*
X139707615Y-164746039D01*
X139710767Y-164737115D01*
X139795902Y-164496033D01*
X139795902Y-164496032D01*
X139797425Y-164491720D01*
X139849581Y-164227100D01*
X139849808Y-164222544D01*
X139862764Y-163962292D01*
X139862764Y-163962286D01*
X139862991Y-163957723D01*
X139837375Y-163689231D01*
X139829754Y-163658084D01*
X139774355Y-163431688D01*
X139773269Y-163427250D01*
X139672015Y-163177267D01*
X139535735Y-162944518D01*
X139417928Y-162797208D01*
X139370136Y-162737447D01*
X139370135Y-162737445D01*
X139367284Y-162733881D01*
X139170191Y-162549766D01*
X138948584Y-162396032D01*
X138944501Y-162394001D01*
X138944498Y-162393999D01*
X138821158Y-162332639D01*
X138707106Y-162275899D01*
X138702772Y-162274478D01*
X138702769Y-162274477D01*
X138455147Y-162193302D01*
X138455141Y-162193301D01*
X138450814Y-162191882D01*
X138446322Y-162191102D01*
X138188860Y-162146399D01*
X138188852Y-162146398D01*
X138185079Y-162145743D01*
X138173817Y-162145182D01*
X138101422Y-162141578D01*
X138101414Y-162141578D01*
X138099851Y-162141500D01*
X137931488Y-162141500D01*
X137929220Y-162141665D01*
X137929208Y-162141665D01*
X137798116Y-162151177D01*
X137730996Y-162156047D01*
X137726541Y-162157031D01*
X137726538Y-162157031D01*
X137472088Y-162213209D01*
X137472084Y-162213210D01*
X137467628Y-162214194D01*
X137457522Y-162218023D01*
X137219682Y-162308132D01*
X137219679Y-162308133D01*
X137215412Y-162309750D01*
X136979632Y-162440714D01*
X136765227Y-162604343D01*
X136576688Y-162797208D01*
X136417966Y-163015270D01*
X136403683Y-163042418D01*
X136294510Y-163249921D01*
X136294507Y-163249927D01*
X136292385Y-163253961D01*
X136290865Y-163258266D01*
X136290863Y-163258270D01*
X136225661Y-163442905D01*
X136202575Y-163508280D01*
X136190168Y-163571227D01*
X136152379Y-163762957D01*
X136150419Y-163772900D01*
X136150192Y-163777453D01*
X136150192Y-163777456D01*
X136137577Y-164030875D01*
X136137009Y-164042277D01*
X129564078Y-164042277D01*
X129561214Y-164030875D01*
X129557894Y-164021124D01*
X129472972Y-163825814D01*
X129468105Y-163816739D01*
X129352426Y-163637926D01*
X129346136Y-163629757D01*
X129202806Y-163472240D01*
X129195273Y-163465215D01*
X129028139Y-163333222D01*
X129019556Y-163327520D01*
X128982602Y-163307120D01*
X128932631Y-163256687D01*
X128917859Y-163187245D01*
X128942975Y-163120839D01*
X128970327Y-163094232D01*
X129021240Y-163057916D01*
X129149860Y-162966173D01*
X129308096Y-162808489D01*
X129318551Y-162793940D01*
X129435435Y-162631277D01*
X129438453Y-162627077D01*
X129459320Y-162584857D01*
X129535136Y-162431453D01*
X129535137Y-162431451D01*
X129537430Y-162426811D01*
X129602370Y-162213069D01*
X129631529Y-161991590D01*
X129633156Y-161925000D01*
X129614852Y-161702361D01*
X129613593Y-161697348D01*
X129613591Y-161697337D01*
X129608115Y-161675540D01*
X129610918Y-161604598D01*
X129641223Y-161555747D01*
X129766520Y-161430450D01*
X129772785Y-161424596D01*
X129773238Y-161424201D01*
X129816385Y-161386561D01*
X129853129Y-161334280D01*
X129857061Y-161328986D01*
X129891791Y-161284693D01*
X129896476Y-161278718D01*
X129899599Y-161271802D01*
X129900983Y-161269516D01*
X129909357Y-161254835D01*
X129910622Y-161252475D01*
X129914990Y-161246261D01*
X129938203Y-161186723D01*
X129940759Y-161180642D01*
X129963918Y-161129352D01*
X129967045Y-161122427D01*
X129968429Y-161114960D01*
X129969230Y-161112405D01*
X129973859Y-161096152D01*
X129974522Y-161093572D01*
X129977282Y-161086491D01*
X129979268Y-161071411D01*
X129985621Y-161023148D01*
X129986653Y-161016632D01*
X129996912Y-160961280D01*
X129998296Y-160953814D01*
X129996811Y-160928051D01*
X129994709Y-160891608D01*
X129994500Y-160884354D01*
X129994500Y-158969500D01*
X130014502Y-158901379D01*
X130068158Y-158854886D01*
X130120500Y-158843500D01*
X130184134Y-158843500D01*
X130246316Y-158836745D01*
X130382705Y-158785615D01*
X130499261Y-158698261D01*
X130586615Y-158581705D01*
X130637745Y-158445316D01*
X130644500Y-158383134D01*
X130644500Y-156586866D01*
X130637745Y-156524684D01*
X130586615Y-156388295D01*
X130499261Y-156271739D01*
X130382705Y-156184385D01*
X130370132Y-156179672D01*
X130264203Y-156139960D01*
X130207439Y-156097318D01*
X130182739Y-156030756D01*
X130197947Y-155961408D01*
X130219493Y-155932727D01*
X130260817Y-155891547D01*
X130324096Y-155828489D01*
X130383594Y-155745689D01*
X130451435Y-155651277D01*
X130454453Y-155647077D01*
X130458821Y-155638240D01*
X130551136Y-155451453D01*
X130551137Y-155451451D01*
X130553430Y-155446811D01*
X130618370Y-155233069D01*
X130647529Y-155011590D01*
X130649156Y-154945000D01*
X130630852Y-154722361D01*
X130576431Y-154505702D01*
X130487354Y-154300840D01*
X130425932Y-154205896D01*
X130368822Y-154117617D01*
X130368820Y-154117614D01*
X130366014Y-154113277D01*
X130215670Y-153948051D01*
X130211619Y-153944852D01*
X130211615Y-153944848D01*
X130042408Y-153811216D01*
X130001345Y-153753298D01*
X129994500Y-153712334D01*
X129994500Y-149189660D01*
X130014502Y-149121539D01*
X130031405Y-149100565D01*
X130114533Y-149017437D01*
X130177431Y-148983285D01*
X130193589Y-148979850D01*
X130330288Y-148950794D01*
X130336319Y-148948109D01*
X130498722Y-148875803D01*
X130498724Y-148875802D01*
X130504752Y-148873118D01*
X130659253Y-148760866D01*
X130663675Y-148755955D01*
X130782621Y-148623852D01*
X130782622Y-148623851D01*
X130787040Y-148618944D01*
X130882527Y-148453556D01*
X130941542Y-148271928D01*
X130943138Y-148256749D01*
X130960814Y-148088565D01*
X130961504Y-148082000D01*
X130946503Y-147939271D01*
X130942232Y-147898635D01*
X130942232Y-147898633D01*
X130941542Y-147892072D01*
X130882527Y-147710444D01*
X130787040Y-147545056D01*
X130762357Y-147517642D01*
X130663675Y-147408045D01*
X130663674Y-147408044D01*
X130659253Y-147403134D01*
X130504752Y-147290882D01*
X130498724Y-147288198D01*
X130498722Y-147288197D01*
X130336319Y-147215891D01*
X130336318Y-147215891D01*
X130330288Y-147213206D01*
X130216131Y-147188941D01*
X130149944Y-147174872D01*
X130149939Y-147174872D01*
X130143487Y-147173500D01*
X129952513Y-147173500D01*
X129946061Y-147174872D01*
X129946056Y-147174872D01*
X129879869Y-147188941D01*
X129765712Y-147213206D01*
X129759682Y-147215891D01*
X129759681Y-147215891D01*
X129597278Y-147288197D01*
X129597276Y-147288198D01*
X129591248Y-147290882D01*
X129585907Y-147294762D01*
X129585906Y-147294763D01*
X129549884Y-147320935D01*
X129436747Y-147403134D01*
X129435874Y-147401932D01*
X129378801Y-147429321D01*
X129308348Y-147420556D01*
X129253817Y-147375092D01*
X129232500Y-147304967D01*
X129232500Y-141506912D01*
X129232792Y-141498342D01*
X129236209Y-141448224D01*
X129236209Y-141448220D01*
X129236725Y-141440648D01*
X129225739Y-141377703D01*
X129224777Y-141371182D01*
X129217102Y-141307758D01*
X129214416Y-141300650D01*
X129213779Y-141298056D01*
X129209318Y-141281750D01*
X129208548Y-141279199D01*
X129207242Y-141271716D01*
X129181561Y-141213212D01*
X129179069Y-141207105D01*
X129159174Y-141154454D01*
X129159173Y-141154452D01*
X129156487Y-141147344D01*
X129152182Y-141141081D01*
X129150774Y-141138387D01*
X129136940Y-141068751D01*
X129162950Y-141002690D01*
X129220546Y-140961178D01*
X129262436Y-140954011D01*
X129485851Y-140954011D01*
X129553972Y-140974013D01*
X129574946Y-140990916D01*
X130572595Y-141988565D01*
X130606621Y-142050877D01*
X130609500Y-142077660D01*
X130609500Y-144161256D01*
X130589498Y-144229377D01*
X130585436Y-144235317D01*
X130583379Y-144238148D01*
X130578960Y-144243056D01*
X130575659Y-144248774D01*
X130575658Y-144248775D01*
X130488494Y-144399748D01*
X130483473Y-144408444D01*
X130424458Y-144590072D01*
X130423768Y-144596633D01*
X130423768Y-144596635D01*
X130413604Y-144693339D01*
X130404496Y-144780000D01*
X130405186Y-144786565D01*
X130421290Y-144939783D01*
X130424458Y-144969928D01*
X130483473Y-145151556D01*
X130486776Y-145157278D01*
X130486777Y-145157279D01*
X130516941Y-145209525D01*
X130578960Y-145316944D01*
X130583378Y-145321851D01*
X130583379Y-145321852D01*
X130689473Y-145439681D01*
X130706747Y-145458866D01*
X130861248Y-145571118D01*
X130867276Y-145573802D01*
X130867278Y-145573803D01*
X131027817Y-145645279D01*
X131035712Y-145648794D01*
X131129113Y-145668647D01*
X131216056Y-145687128D01*
X131216061Y-145687128D01*
X131222513Y-145688500D01*
X131413487Y-145688500D01*
X131419939Y-145687128D01*
X131419944Y-145687128D01*
X131506887Y-145668647D01*
X131600288Y-145648794D01*
X131608183Y-145645279D01*
X131768722Y-145573803D01*
X131768724Y-145573802D01*
X131774752Y-145571118D01*
X131929253Y-145458866D01*
X131946527Y-145439681D01*
X132052621Y-145321852D01*
X132052622Y-145321851D01*
X132057040Y-145316944D01*
X132119059Y-145209525D01*
X132149223Y-145157279D01*
X132149224Y-145157278D01*
X132152527Y-145151556D01*
X132211542Y-144969928D01*
X132214711Y-144939783D01*
X132230814Y-144786565D01*
X132231504Y-144780000D01*
X132222396Y-144693339D01*
X132212232Y-144596635D01*
X132212232Y-144596633D01*
X132211542Y-144590072D01*
X132152527Y-144408444D01*
X132147507Y-144399748D01*
X132060342Y-144248775D01*
X132060341Y-144248774D01*
X132057040Y-144243056D01*
X132052621Y-144238148D01*
X132050564Y-144235317D01*
X132026705Y-144168449D01*
X132026500Y-144161256D01*
X132026500Y-142476661D01*
X132046502Y-142408540D01*
X132100158Y-142362047D01*
X132170432Y-142351943D01*
X132235012Y-142381437D01*
X132241595Y-142387566D01*
X132858595Y-143004566D01*
X132892621Y-143066878D01*
X132895500Y-143093661D01*
X132895500Y-149495256D01*
X132875498Y-149563377D01*
X132871436Y-149569317D01*
X132869379Y-149572148D01*
X132864960Y-149577056D01*
X132861659Y-149582774D01*
X132861658Y-149582775D01*
X132800252Y-149689134D01*
X132769473Y-149742444D01*
X132710458Y-149924072D01*
X132709768Y-149930633D01*
X132709768Y-149930635D01*
X132691186Y-150107435D01*
X132690496Y-150114000D01*
X132710458Y-150303928D01*
X132769473Y-150485556D01*
X132864960Y-150650944D01*
X132869378Y-150655851D01*
X132869379Y-150655852D01*
X132969000Y-150766492D01*
X132992747Y-150792866D01*
X133147248Y-150905118D01*
X133153276Y-150907802D01*
X133153278Y-150907803D01*
X133278702Y-150963645D01*
X133321712Y-150982794D01*
X133415112Y-151002647D01*
X133502056Y-151021128D01*
X133502061Y-151021128D01*
X133508513Y-151022500D01*
X133699487Y-151022500D01*
X133705939Y-151021128D01*
X133705944Y-151021128D01*
X133792888Y-151002647D01*
X133886288Y-150982794D01*
X133929298Y-150963645D01*
X134054722Y-150907803D01*
X134054724Y-150907802D01*
X134060752Y-150905118D01*
X134215253Y-150792866D01*
X134239000Y-150766492D01*
X134338621Y-150655852D01*
X134338622Y-150655851D01*
X134343040Y-150650944D01*
X134438527Y-150485556D01*
X134497542Y-150303928D01*
X134517504Y-150114000D01*
X134516814Y-150107435D01*
X134498232Y-149930635D01*
X134498232Y-149930633D01*
X134497542Y-149924072D01*
X134438527Y-149742444D01*
X134407749Y-149689134D01*
X134346342Y-149582775D01*
X134346341Y-149582774D01*
X134343040Y-149577056D01*
X134338621Y-149572148D01*
X134336564Y-149569317D01*
X134312705Y-149502449D01*
X134312500Y-149495256D01*
X134312500Y-142776912D01*
X134312792Y-142768342D01*
X134316209Y-142718224D01*
X134316209Y-142718220D01*
X134316725Y-142710648D01*
X134305738Y-142647697D01*
X134304776Y-142641175D01*
X134298014Y-142585298D01*
X134297102Y-142577758D01*
X134294419Y-142570657D01*
X134293778Y-142568048D01*
X134289315Y-142551738D01*
X134288550Y-142549202D01*
X134287243Y-142541716D01*
X134261556Y-142483200D01*
X134259065Y-142477096D01*
X134239173Y-142424452D01*
X134239172Y-142424451D01*
X134236487Y-142417344D01*
X134232183Y-142411081D01*
X134230946Y-142408715D01*
X134222701Y-142393903D01*
X134221368Y-142391649D01*
X134218315Y-142384695D01*
X134179413Y-142333998D01*
X134175541Y-142328668D01*
X134143661Y-142282280D01*
X134143656Y-142282275D01*
X134139357Y-142276019D01*
X134092829Y-142234564D01*
X134087554Y-142229584D01*
X130823450Y-138965480D01*
X130817596Y-138959215D01*
X130803957Y-138943581D01*
X130779561Y-138915615D01*
X130727280Y-138878871D01*
X130721986Y-138874939D01*
X130677693Y-138840209D01*
X130671718Y-138835524D01*
X130664802Y-138832401D01*
X130662516Y-138831017D01*
X130647835Y-138822643D01*
X130645475Y-138821378D01*
X130639261Y-138817010D01*
X130632182Y-138814250D01*
X130632180Y-138814249D01*
X130579725Y-138793798D01*
X130573656Y-138791247D01*
X130515427Y-138764955D01*
X130507960Y-138763571D01*
X130505405Y-138762770D01*
X130489152Y-138758141D01*
X130486572Y-138757478D01*
X130479491Y-138754718D01*
X130471960Y-138753727D01*
X130471958Y-138753726D01*
X130442339Y-138749827D01*
X130416139Y-138746378D01*
X130409641Y-138745348D01*
X130346814Y-138733704D01*
X130339234Y-138734141D01*
X130339233Y-138734141D01*
X130284608Y-138737291D01*
X130277354Y-138737500D01*
X128119405Y-138737500D01*
X128051284Y-138717498D01*
X128045344Y-138713436D01*
X127970094Y-138658763D01*
X127970093Y-138658762D01*
X127964752Y-138654882D01*
X127958724Y-138652198D01*
X127958722Y-138652197D01*
X127796319Y-138579891D01*
X127796318Y-138579891D01*
X127790288Y-138577206D01*
X127696888Y-138557353D01*
X127609944Y-138538872D01*
X127609939Y-138538872D01*
X127603487Y-138537500D01*
X127412513Y-138537500D01*
X127406061Y-138538872D01*
X127406056Y-138538872D01*
X127319112Y-138557353D01*
X127225712Y-138577206D01*
X127219682Y-138579891D01*
X127219681Y-138579891D01*
X127057278Y-138652197D01*
X127057276Y-138652198D01*
X127051248Y-138654882D01*
X127045907Y-138658762D01*
X127045906Y-138658763D01*
X126970656Y-138713436D01*
X126903789Y-138737294D01*
X126896595Y-138737500D01*
X123957122Y-138737500D01*
X123889001Y-138717498D01*
X123842508Y-138663842D01*
X123831812Y-138598330D01*
X123848814Y-138436565D01*
X123849504Y-138430000D01*
X123829542Y-138240072D01*
X123770527Y-138058444D01*
X123767223Y-138052721D01*
X123764539Y-138046693D01*
X123767085Y-138045559D01*
X123753244Y-137988503D01*
X123776466Y-137921411D01*
X123832273Y-137877525D01*
X123879101Y-137868500D01*
X124864595Y-137868500D01*
X124932716Y-137888502D01*
X124938656Y-137892564D01*
X125019248Y-137951118D01*
X125025276Y-137953802D01*
X125025278Y-137953803D01*
X125103216Y-137988503D01*
X125193712Y-138028794D01*
X125272585Y-138045559D01*
X125374056Y-138067128D01*
X125374061Y-138067128D01*
X125380513Y-138068500D01*
X125571487Y-138068500D01*
X125577939Y-138067128D01*
X125577944Y-138067128D01*
X125679415Y-138045559D01*
X125758288Y-138028794D01*
X125848784Y-137988503D01*
X125926722Y-137953803D01*
X125926724Y-137953802D01*
X125932752Y-137951118D01*
X126087253Y-137838866D01*
X126215040Y-137696944D01*
X126310527Y-137531556D01*
X126369542Y-137349928D01*
X126370406Y-137341713D01*
X126388814Y-137166565D01*
X126389504Y-137160000D01*
X126382480Y-137093171D01*
X126370232Y-136976635D01*
X126370232Y-136976633D01*
X126369542Y-136970072D01*
X126310527Y-136788444D01*
X126215040Y-136623056D01*
X126175395Y-136579025D01*
X126091675Y-136486045D01*
X126091674Y-136486044D01*
X126087253Y-136481134D01*
X125988157Y-136409136D01*
X125938094Y-136372763D01*
X125938093Y-136372762D01*
X125932752Y-136368882D01*
X125926724Y-136366198D01*
X125926722Y-136366197D01*
X125764319Y-136293891D01*
X125764318Y-136293891D01*
X125758288Y-136291206D01*
X125645721Y-136267279D01*
X125577944Y-136252872D01*
X125577939Y-136252872D01*
X125571487Y-136251500D01*
X125380513Y-136251500D01*
X125374061Y-136252872D01*
X125374056Y-136252872D01*
X125306279Y-136267279D01*
X125193712Y-136291206D01*
X125187682Y-136293891D01*
X125187681Y-136293891D01*
X125025278Y-136366197D01*
X125025276Y-136366198D01*
X125019248Y-136368882D01*
X125013907Y-136372762D01*
X125013906Y-136372763D01*
X124938656Y-136427436D01*
X124871789Y-136451294D01*
X124864595Y-136451500D01*
X122863101Y-136451500D01*
X122794980Y-136431498D01*
X122748487Y-136377842D01*
X122738383Y-136307568D01*
X122750014Y-136273964D01*
X122748539Y-136273307D01*
X122751223Y-136267279D01*
X122754527Y-136261556D01*
X122813542Y-136079928D01*
X122833504Y-135890000D01*
X122813542Y-135700072D01*
X122754527Y-135518444D01*
X122751223Y-135512721D01*
X122748539Y-135506693D01*
X122751085Y-135505559D01*
X122737244Y-135448503D01*
X122760466Y-135381411D01*
X122816273Y-135337525D01*
X122863101Y-135328500D01*
X129944595Y-135328500D01*
X130012716Y-135348502D01*
X130018656Y-135352564D01*
X130068075Y-135388469D01*
X130099248Y-135411118D01*
X130105276Y-135413802D01*
X130105278Y-135413803D01*
X130267681Y-135486109D01*
X130273712Y-135488794D01*
X130352585Y-135505559D01*
X130454056Y-135527128D01*
X130454061Y-135527128D01*
X130460513Y-135528500D01*
X130651487Y-135528500D01*
X130657939Y-135527128D01*
X130657944Y-135527128D01*
X130759415Y-135505559D01*
X130838288Y-135488794D01*
X130844319Y-135486109D01*
X131006722Y-135413803D01*
X131006724Y-135413802D01*
X131012752Y-135411118D01*
X131167253Y-135298866D01*
X131171675Y-135293955D01*
X131290621Y-135161852D01*
X131290622Y-135161851D01*
X131295040Y-135156944D01*
X131373323Y-135021354D01*
X131387223Y-134997279D01*
X131387224Y-134997278D01*
X131390527Y-134991556D01*
X131449542Y-134809928D01*
X131469504Y-134620000D01*
X131449542Y-134430072D01*
X131390527Y-134248444D01*
X131295040Y-134083056D01*
X131167253Y-133941134D01*
X131012752Y-133828882D01*
X131006724Y-133826198D01*
X131006722Y-133826197D01*
X130844319Y-133753891D01*
X130844318Y-133753891D01*
X130838288Y-133751206D01*
X130742883Y-133730927D01*
X130657944Y-133712872D01*
X130657939Y-133712872D01*
X130651487Y-133711500D01*
X130551219Y-133711500D01*
X130483098Y-133691498D01*
X130436605Y-133637842D01*
X130426501Y-133567568D01*
X130431385Y-133546567D01*
X130431502Y-133546207D01*
X130431502Y-133546205D01*
X130433542Y-133539928D01*
X130438107Y-133496500D01*
X130451211Y-133371818D01*
X130478224Y-133306162D01*
X130536446Y-133265532D01*
X130576521Y-133258989D01*
X131924965Y-133258989D01*
X131993086Y-133278991D01*
X131999026Y-133283053D01*
X132121200Y-133371818D01*
X132131248Y-133379118D01*
X132137276Y-133381802D01*
X132137278Y-133381803D01*
X132299681Y-133454109D01*
X132305712Y-133456794D01*
X132399112Y-133476647D01*
X132486056Y-133495128D01*
X132486061Y-133495128D01*
X132492513Y-133496500D01*
X132683487Y-133496500D01*
X132689939Y-133495128D01*
X132689944Y-133495128D01*
X132776888Y-133476647D01*
X132870288Y-133456794D01*
X132876319Y-133454109D01*
X133038722Y-133381803D01*
X133038724Y-133381802D01*
X133044752Y-133379118D01*
X133199253Y-133266866D01*
X133203675Y-133261955D01*
X133322621Y-133129852D01*
X133322622Y-133129851D01*
X133327040Y-133124944D01*
X133422527Y-132959556D01*
X133481542Y-132777928D01*
X133501504Y-132588000D01*
X133481542Y-132398072D01*
X133422527Y-132216444D01*
X133327040Y-132051056D01*
X133199253Y-131909134D01*
X133044752Y-131796882D01*
X133038724Y-131794198D01*
X133038722Y-131794197D01*
X132876319Y-131721891D01*
X132876318Y-131721891D01*
X132870288Y-131719206D01*
X132770790Y-131698057D01*
X132689944Y-131680872D01*
X132689939Y-131680872D01*
X132683487Y-131679500D01*
X132492513Y-131679500D01*
X132486061Y-131680872D01*
X132486056Y-131680872D01*
X132405210Y-131698057D01*
X132305712Y-131719206D01*
X132299682Y-131721891D01*
X132299681Y-131721891D01*
X132137278Y-131794197D01*
X132137276Y-131794198D01*
X132131248Y-131796882D01*
X132125907Y-131800762D01*
X132125906Y-131800763D01*
X132102285Y-131817925D01*
X132035418Y-131841783D01*
X132028224Y-131841989D01*
X129990423Y-131841989D01*
X129922302Y-131821987D01*
X129875809Y-131768331D01*
X129865705Y-131698057D01*
X129870590Y-131677053D01*
X129920775Y-131522598D01*
X129925542Y-131507928D01*
X129929133Y-131473767D01*
X129944814Y-131324565D01*
X129945504Y-131318000D01*
X129933062Y-131199617D01*
X129926232Y-131134635D01*
X129926232Y-131134633D01*
X129925542Y-131128072D01*
X129866527Y-130946444D01*
X129771040Y-130781056D01*
X129691254Y-130692444D01*
X129647675Y-130644045D01*
X129647671Y-130644041D01*
X129643253Y-130639134D01*
X129488752Y-130526882D01*
X129482724Y-130524198D01*
X129482722Y-130524197D01*
X129320319Y-130451891D01*
X129320318Y-130451891D01*
X129314288Y-130449206D01*
X129220888Y-130429353D01*
X129133944Y-130410872D01*
X129133939Y-130410872D01*
X129127487Y-130409500D01*
X128936513Y-130409500D01*
X128930061Y-130410872D01*
X128930056Y-130410872D01*
X128843112Y-130429353D01*
X128749712Y-130449206D01*
X128743682Y-130451891D01*
X128743681Y-130451891D01*
X128581278Y-130524197D01*
X128581276Y-130524198D01*
X128575248Y-130526882D01*
X128420747Y-130639134D01*
X128309923Y-130762217D01*
X128249477Y-130799456D01*
X128178493Y-130798104D01*
X128119509Y-130758590D01*
X128096455Y-130716844D01*
X128088527Y-130692444D01*
X128060582Y-130644041D01*
X127996341Y-130532774D01*
X127993040Y-130527056D01*
X127865253Y-130385134D01*
X127710752Y-130272882D01*
X127704724Y-130270198D01*
X127704722Y-130270197D01*
X127542319Y-130197891D01*
X127542318Y-130197891D01*
X127536288Y-130195206D01*
X127423721Y-130171279D01*
X127355944Y-130156872D01*
X127355939Y-130156872D01*
X127349487Y-130155500D01*
X127158513Y-130155500D01*
X127152061Y-130156872D01*
X127152056Y-130156872D01*
X127084279Y-130171279D01*
X126971712Y-130195206D01*
X126965682Y-130197891D01*
X126965681Y-130197891D01*
X126803278Y-130270197D01*
X126803276Y-130270198D01*
X126797248Y-130272882D01*
X126642747Y-130385134D01*
X126514960Y-130527056D01*
X126511661Y-130532769D01*
X126511658Y-130532774D01*
X126484422Y-130579949D01*
X126433039Y-130628942D01*
X126375303Y-130642949D01*
X119613110Y-130642949D01*
X119544989Y-130622947D01*
X119498496Y-130569291D01*
X119488392Y-130499017D01*
X119519472Y-130432640D01*
X119611040Y-130330944D01*
X119695984Y-130183817D01*
X119703223Y-130171279D01*
X119703224Y-130171278D01*
X119706527Y-130165556D01*
X119765542Y-129983928D01*
X119772469Y-129918026D01*
X119784814Y-129800565D01*
X119785504Y-129794000D01*
X119781224Y-129753278D01*
X119766232Y-129610635D01*
X119766232Y-129610633D01*
X119765542Y-129604072D01*
X119706527Y-129422444D01*
X119611040Y-129257056D01*
X119483253Y-129115134D01*
X119328752Y-129002882D01*
X119322724Y-129000198D01*
X119322722Y-129000197D01*
X119160319Y-128927891D01*
X119160318Y-128927891D01*
X119154288Y-128925206D01*
X119060888Y-128905353D01*
X118973944Y-128886872D01*
X118973939Y-128886872D01*
X118967487Y-128885500D01*
X118776513Y-128885500D01*
X118770061Y-128886872D01*
X118770056Y-128886872D01*
X118683112Y-128905353D01*
X118589712Y-128925206D01*
X118583682Y-128927891D01*
X118583681Y-128927891D01*
X118421278Y-129000197D01*
X118421276Y-129000198D01*
X118415248Y-129002882D01*
X118260747Y-129115134D01*
X118132960Y-129257056D01*
X118037473Y-129422444D01*
X118035431Y-129428729D01*
X117996414Y-129548811D01*
X117978458Y-129604072D01*
X117977768Y-129610635D01*
X117977768Y-129610637D01*
X117973550Y-129650770D01*
X117946537Y-129716427D01*
X117937335Y-129726695D01*
X116514516Y-131149514D01*
X116508251Y-131155368D01*
X116464651Y-131193403D01*
X116460284Y-131199617D01*
X116427908Y-131245683D01*
X116423975Y-131250978D01*
X116384560Y-131301246D01*
X116381437Y-131308162D01*
X116380053Y-131310448D01*
X116371679Y-131325129D01*
X116370414Y-131327489D01*
X116366046Y-131333703D01*
X116363286Y-131340782D01*
X116363285Y-131340784D01*
X116342834Y-131393239D01*
X116340283Y-131399308D01*
X116313991Y-131457537D01*
X116312607Y-131465004D01*
X116311806Y-131467559D01*
X116307177Y-131483812D01*
X116306514Y-131486392D01*
X116303754Y-131493473D01*
X116302763Y-131501004D01*
X116302762Y-131501006D01*
X116295415Y-131556816D01*
X116294384Y-131563323D01*
X116282740Y-131626150D01*
X116283177Y-131633730D01*
X116283177Y-131633731D01*
X116286327Y-131688356D01*
X116286536Y-131695610D01*
X116286536Y-132595304D01*
X116266534Y-132663425D01*
X116249631Y-132684399D01*
X115188466Y-133745564D01*
X115126154Y-133779590D01*
X115099371Y-133782469D01*
X100520705Y-133782469D01*
X100452584Y-133762467D01*
X100431610Y-133745564D01*
X96648912Y-129962866D01*
X96614886Y-129900554D01*
X96619951Y-129829739D01*
X96635685Y-129800245D01*
X96669434Y-129753278D01*
X96672453Y-129749077D01*
X96740875Y-129610635D01*
X96769136Y-129553453D01*
X96769137Y-129553451D01*
X96771430Y-129548811D01*
X96836370Y-129335069D01*
X96865529Y-129113590D01*
X96867156Y-129047000D01*
X96848852Y-128824361D01*
X96794431Y-128607702D01*
X96705354Y-128402840D01*
X96584014Y-128215277D01*
X96576548Y-128207072D01*
X96436798Y-128053488D01*
X96405746Y-127989642D01*
X96414141Y-127919143D01*
X96459317Y-127864375D01*
X96485761Y-127850706D01*
X96592297Y-127810767D01*
X96600705Y-127807615D01*
X96717261Y-127720261D01*
X96804615Y-127603705D01*
X96855745Y-127467316D01*
X96862500Y-127405134D01*
X96862500Y-125608866D01*
X96855745Y-125546684D01*
X96804615Y-125410295D01*
X96717261Y-125293739D01*
X96600705Y-125206385D01*
X96464316Y-125155255D01*
X96402134Y-125148500D01*
X94605866Y-125148500D01*
X94543684Y-125155255D01*
X94407295Y-125206385D01*
X94290739Y-125293739D01*
X94203385Y-125410295D01*
X94152255Y-125546684D01*
X94145500Y-125608866D01*
X94145500Y-126811340D01*
X94125498Y-126879461D01*
X94108595Y-126900435D01*
X93773969Y-127235061D01*
X93767704Y-127240915D01*
X93724104Y-127278950D01*
X93693217Y-127322898D01*
X93687361Y-127331230D01*
X93683428Y-127336525D01*
X93644013Y-127386793D01*
X93640890Y-127393709D01*
X93639506Y-127395995D01*
X93631132Y-127410676D01*
X93629867Y-127413036D01*
X93625499Y-127419250D01*
X93622739Y-127426329D01*
X93622738Y-127426331D01*
X93602287Y-127478786D01*
X93599736Y-127484855D01*
X93573444Y-127543084D01*
X93572060Y-127550551D01*
X93571259Y-127553106D01*
X93566630Y-127569359D01*
X93565967Y-127571939D01*
X93563207Y-127579020D01*
X93562216Y-127586551D01*
X93562215Y-127586553D01*
X93554868Y-127642363D01*
X93553837Y-127648870D01*
X93542193Y-127711697D01*
X93542630Y-127719277D01*
X93542630Y-127719278D01*
X93545780Y-127773903D01*
X93545989Y-127781157D01*
X93545989Y-129785577D01*
X93545697Y-129794147D01*
X93543271Y-129829739D01*
X93541764Y-129851841D01*
X93543069Y-129859318D01*
X93543069Y-129859319D01*
X93552750Y-129914788D01*
X93553712Y-129921310D01*
X93561387Y-129984731D01*
X93564070Y-129991832D01*
X93564711Y-129994441D01*
X93569174Y-130010751D01*
X93569939Y-130013287D01*
X93571246Y-130020773D01*
X93574300Y-130027730D01*
X93596931Y-130079284D01*
X93599422Y-130085388D01*
X93622002Y-130145145D01*
X93626306Y-130151408D01*
X93627543Y-130153774D01*
X93635788Y-130168586D01*
X93637121Y-130170840D01*
X93640174Y-130177794D01*
X93655596Y-130197891D01*
X93679068Y-130228480D01*
X93682948Y-130233821D01*
X93714828Y-130280209D01*
X93714833Y-130280214D01*
X93719132Y-130286470D01*
X93724802Y-130291521D01*
X93724803Y-130291523D01*
X93765659Y-130327924D01*
X93770935Y-130332905D01*
X94256039Y-130818009D01*
X94261893Y-130824275D01*
X94272656Y-130836613D01*
X94302364Y-130901096D01*
X94291995Y-130972492D01*
X94227338Y-131111783D01*
X94223775Y-131121470D01*
X94168389Y-131321183D01*
X94169912Y-131329607D01*
X94182292Y-131333000D01*
X95632000Y-131333000D01*
X95700121Y-131353002D01*
X95746614Y-131406658D01*
X95758000Y-131459000D01*
X95758000Y-132905517D01*
X95762064Y-132919359D01*
X95775478Y-132921393D01*
X95782184Y-132920534D01*
X95792262Y-132918392D01*
X95996255Y-132857191D01*
X96005842Y-132853433D01*
X96197095Y-132759739D01*
X96205945Y-132754464D01*
X96379328Y-132630792D01*
X96387200Y-132624139D01*
X96538052Y-132473812D01*
X96544730Y-132465965D01*
X96669003Y-132293020D01*
X96674311Y-132284187D01*
X96693053Y-132246266D01*
X96741168Y-132194059D01*
X96809869Y-132176153D01*
X96877345Y-132198232D01*
X96895105Y-132212999D01*
X99653595Y-134971489D01*
X99659449Y-134977754D01*
X99697484Y-135021354D01*
X99703702Y-135025724D01*
X99749742Y-135058081D01*
X99755038Y-135062014D01*
X99805327Y-135101446D01*
X99812249Y-135104571D01*
X99814497Y-135105933D01*
X99829230Y-135114337D01*
X99831569Y-135115591D01*
X99837784Y-135119959D01*
X99844860Y-135122718D01*
X99844864Y-135122720D01*
X99897314Y-135143169D01*
X99903379Y-135145718D01*
X99961618Y-135172014D01*
X99969083Y-135173398D01*
X99971627Y-135174195D01*
X99987893Y-135178828D01*
X99990473Y-135179490D01*
X99997554Y-135182251D01*
X100005087Y-135183243D01*
X100005088Y-135183243D01*
X100037744Y-135187542D01*
X100060902Y-135190591D01*
X100067400Y-135191619D01*
X100130232Y-135203265D01*
X100137812Y-135202828D01*
X100137813Y-135202828D01*
X100192438Y-135199678D01*
X100199692Y-135199469D01*
X103271395Y-135199469D01*
X103339516Y-135219471D01*
X103386009Y-135273127D01*
X103396113Y-135343401D01*
X103380514Y-135388469D01*
X103322591Y-135488794D01*
X103305473Y-135518444D01*
X103246458Y-135700072D01*
X103226496Y-135890000D01*
X103246458Y-136079928D01*
X103305473Y-136261556D01*
X103400960Y-136426944D01*
X103405375Y-136431847D01*
X103405379Y-136431852D01*
X103449753Y-136481134D01*
X103528747Y-136568866D01*
X103683248Y-136681118D01*
X103689276Y-136683802D01*
X103689278Y-136683803D01*
X103851681Y-136756109D01*
X103857712Y-136758794D01*
X103957895Y-136780089D01*
X104010568Y-136791285D01*
X104073466Y-136825437D01*
X104418068Y-137170039D01*
X104423922Y-137176304D01*
X104461950Y-137219896D01*
X104514240Y-137256647D01*
X104519482Y-137260539D01*
X104569793Y-137299987D01*
X104576712Y-137303111D01*
X104579004Y-137304499D01*
X104593676Y-137312868D01*
X104596036Y-137314133D01*
X104602250Y-137318501D01*
X104609329Y-137321261D01*
X104609331Y-137321262D01*
X104661786Y-137341713D01*
X104667855Y-137344264D01*
X104726084Y-137370556D01*
X104733557Y-137371941D01*
X104736123Y-137372745D01*
X104752346Y-137377366D01*
X104754938Y-137378031D01*
X104762020Y-137380793D01*
X104769555Y-137381785D01*
X104825372Y-137389133D01*
X104831888Y-137390165D01*
X104870281Y-137397281D01*
X104894697Y-137401806D01*
X104902277Y-137401369D01*
X104902278Y-137401369D01*
X104956891Y-137398220D01*
X104964144Y-137398011D01*
X116773577Y-137398011D01*
X116782147Y-137398303D01*
X116832265Y-137401720D01*
X116832269Y-137401720D01*
X116839841Y-137402236D01*
X116847318Y-137400931D01*
X116847319Y-137400931D01*
X116873797Y-137396310D01*
X116902792Y-137391249D01*
X116909310Y-137390288D01*
X116972731Y-137382613D01*
X116979832Y-137379930D01*
X116982441Y-137379289D01*
X116998751Y-137374826D01*
X117001287Y-137374061D01*
X117008773Y-137372754D01*
X117067289Y-137347067D01*
X117073393Y-137344576D01*
X117126037Y-137324684D01*
X117126038Y-137324683D01*
X117133145Y-137321998D01*
X117139408Y-137317694D01*
X117141774Y-137316457D01*
X117156586Y-137308212D01*
X117158840Y-137306879D01*
X117165794Y-137303826D01*
X117216491Y-137264924D01*
X117221821Y-137261052D01*
X117268209Y-137229172D01*
X117268214Y-137229167D01*
X117274470Y-137224868D01*
X117315925Y-137178340D01*
X117320905Y-137173065D01*
X118522621Y-135971349D01*
X118584933Y-135937323D01*
X118655748Y-135942388D01*
X118712584Y-135984935D01*
X118737026Y-136047274D01*
X118740458Y-136079928D01*
X118799473Y-136261556D01*
X118894960Y-136426944D01*
X118907338Y-136440691D01*
X118938054Y-136504697D01*
X118929290Y-136575150D01*
X118907339Y-136609307D01*
X118894960Y-136623056D01*
X118799473Y-136788444D01*
X118740458Y-136970072D01*
X118739768Y-136976633D01*
X118739768Y-136976635D01*
X118727520Y-137093171D01*
X118720496Y-137160000D01*
X118721186Y-137166565D01*
X118739595Y-137341713D01*
X118740458Y-137349928D01*
X118799473Y-137531556D01*
X118894960Y-137696944D01*
X118907338Y-137710691D01*
X118938054Y-137774697D01*
X118929290Y-137845150D01*
X118907339Y-137879307D01*
X118894960Y-137893056D01*
X118891659Y-137898774D01*
X118806184Y-138046821D01*
X118799473Y-138058444D01*
X118740458Y-138240072D01*
X118720496Y-138430000D01*
X118721186Y-138436565D01*
X118738188Y-138598330D01*
X118725416Y-138668168D01*
X118676914Y-138720015D01*
X118612878Y-138737500D01*
X116181405Y-138737500D01*
X116113284Y-138717498D01*
X116107344Y-138713436D01*
X116032094Y-138658763D01*
X116032093Y-138658762D01*
X116026752Y-138654882D01*
X116020724Y-138652198D01*
X116020722Y-138652197D01*
X115858319Y-138579891D01*
X115858318Y-138579891D01*
X115852288Y-138577206D01*
X115758888Y-138557353D01*
X115671944Y-138538872D01*
X115671939Y-138538872D01*
X115665487Y-138537500D01*
X115474513Y-138537500D01*
X115468061Y-138538872D01*
X115468056Y-138538872D01*
X115381112Y-138557353D01*
X115287712Y-138577206D01*
X115281682Y-138579891D01*
X115281681Y-138579891D01*
X115119278Y-138652197D01*
X115119276Y-138652198D01*
X115113248Y-138654882D01*
X115107907Y-138658762D01*
X115107906Y-138658763D01*
X115094961Y-138668168D01*
X114958747Y-138767134D01*
X114954326Y-138772044D01*
X114954325Y-138772045D01*
X114901227Y-138831017D01*
X114830960Y-138909056D01*
X114814832Y-138936990D01*
X114753639Y-139042980D01*
X114735473Y-139074444D01*
X114676458Y-139256072D01*
X114675768Y-139262633D01*
X114675768Y-139262635D01*
X114672092Y-139297615D01*
X114656496Y-139446000D01*
X114676458Y-139635928D01*
X114735473Y-139817556D01*
X114830960Y-139982944D01*
X114835378Y-139987851D01*
X114835379Y-139987852D01*
X114945649Y-140110319D01*
X114958747Y-140124866D01*
X114999535Y-140154500D01*
X115100916Y-140228158D01*
X115113248Y-140237118D01*
X115119276Y-140239802D01*
X115119278Y-140239803D01*
X115250962Y-140298432D01*
X115287712Y-140314794D01*
X115357016Y-140329525D01*
X115468056Y-140353128D01*
X115468061Y-140353128D01*
X115474513Y-140354500D01*
X115665487Y-140354500D01*
X115671939Y-140353128D01*
X115671944Y-140353128D01*
X115782984Y-140329525D01*
X115852288Y-140314794D01*
X115889038Y-140298432D01*
X116020722Y-140239803D01*
X116020724Y-140239802D01*
X116026752Y-140237118D01*
X116039085Y-140228158D01*
X116107344Y-140178564D01*
X116174211Y-140154706D01*
X116181405Y-140154500D01*
X124450773Y-140154500D01*
X124518894Y-140174502D01*
X124565387Y-140228158D01*
X124575491Y-140298432D01*
X124544409Y-140364810D01*
X124482960Y-140433056D01*
X124479659Y-140438774D01*
X124402816Y-140571870D01*
X124387473Y-140598444D01*
X124328458Y-140780072D01*
X124308496Y-140970000D01*
X124328458Y-141159928D01*
X124387473Y-141341556D01*
X124482960Y-141506944D01*
X124487378Y-141511851D01*
X124487379Y-141511852D01*
X124606325Y-141643955D01*
X124610747Y-141648866D01*
X124765248Y-141761118D01*
X124771276Y-141763802D01*
X124771278Y-141763803D01*
X124933681Y-141836109D01*
X124939712Y-141838794D01*
X125033112Y-141858647D01*
X125120056Y-141877128D01*
X125120061Y-141877128D01*
X125126513Y-141878500D01*
X125317487Y-141878500D01*
X125323939Y-141877128D01*
X125323944Y-141877128D01*
X125410888Y-141858647D01*
X125504288Y-141838794D01*
X125510319Y-141836109D01*
X125672722Y-141763803D01*
X125672724Y-141763802D01*
X125678752Y-141761118D01*
X125833253Y-141648866D01*
X125944078Y-141525783D01*
X126004523Y-141488544D01*
X126075507Y-141489896D01*
X126134491Y-141529410D01*
X126157545Y-141571156D01*
X126165473Y-141595556D01*
X126168776Y-141601278D01*
X126168777Y-141601279D01*
X126196252Y-141648866D01*
X126260960Y-141760944D01*
X126265378Y-141765851D01*
X126265379Y-141765852D01*
X126328639Y-141836109D01*
X126388747Y-141902866D01*
X126543248Y-142015118D01*
X126549277Y-142017802D01*
X126549280Y-142017804D01*
X126566499Y-142025470D01*
X126583838Y-142033189D01*
X126637933Y-142079168D01*
X126658583Y-142147095D01*
X126652422Y-142187232D01*
X126614458Y-142304072D01*
X126611312Y-142334009D01*
X126609550Y-142350769D01*
X126582537Y-142416426D01*
X126573335Y-142426694D01*
X123450920Y-145549110D01*
X123444655Y-145554964D01*
X123401055Y-145592999D01*
X123396688Y-145599213D01*
X123364312Y-145645279D01*
X123360379Y-145650574D01*
X123320964Y-145700842D01*
X123317841Y-145707758D01*
X123316457Y-145710044D01*
X123308083Y-145724725D01*
X123306818Y-145727085D01*
X123302450Y-145733299D01*
X123299690Y-145740378D01*
X123299689Y-145740380D01*
X123279238Y-145792835D01*
X123276687Y-145798904D01*
X123250395Y-145857133D01*
X123249011Y-145864600D01*
X123248210Y-145867155D01*
X123243581Y-145883408D01*
X123242918Y-145885988D01*
X123240158Y-145893069D01*
X123232149Y-145953909D01*
X123231819Y-145956412D01*
X123230788Y-145962919D01*
X123219144Y-146025746D01*
X123219581Y-146033326D01*
X123219581Y-146033327D01*
X123222731Y-146087952D01*
X123222940Y-146095206D01*
X123222940Y-154910050D01*
X123202938Y-154978171D01*
X123186035Y-154999145D01*
X118402585Y-159782595D01*
X118340273Y-159816621D01*
X118313490Y-159819500D01*
X117376927Y-159819500D01*
X117368358Y-159819208D01*
X117318225Y-159815790D01*
X117318221Y-159815790D01*
X117310648Y-159815274D01*
X117247681Y-159826264D01*
X117241169Y-159827224D01*
X117177758Y-159834898D01*
X117170657Y-159837581D01*
X117168048Y-159838222D01*
X117151728Y-159842687D01*
X117149195Y-159843452D01*
X117141717Y-159844757D01*
X117083190Y-159870448D01*
X117077108Y-159872930D01*
X117072505Y-159874670D01*
X117024449Y-159892828D01*
X117024447Y-159892829D01*
X117017344Y-159895513D01*
X117011085Y-159899814D01*
X117008720Y-159901051D01*
X116993948Y-159909273D01*
X116991656Y-159910628D01*
X116984695Y-159913684D01*
X116978668Y-159918309D01*
X116978664Y-159918311D01*
X116933987Y-159952593D01*
X116928662Y-159956462D01*
X116876019Y-159992643D01*
X116870967Y-159998313D01*
X116870966Y-159998314D01*
X116834580Y-160039153D01*
X116829600Y-160044429D01*
X116379954Y-160494076D01*
X116373687Y-160499930D01*
X116335829Y-160532955D01*
X116335826Y-160532958D01*
X116330104Y-160537950D01*
X116312819Y-160562544D01*
X116293361Y-160590230D01*
X116289442Y-160595507D01*
X116257536Y-160636199D01*
X116199763Y-160677462D01*
X116128852Y-160680942D01*
X116116330Y-160677226D01*
X116006088Y-160638187D01*
X115923087Y-160608795D01*
X115923083Y-160608794D01*
X115918212Y-160607069D01*
X115913119Y-160606162D01*
X115913116Y-160606161D01*
X115703373Y-160568800D01*
X115703367Y-160568799D01*
X115698284Y-160567894D01*
X115619461Y-160566931D01*
X115480081Y-160565228D01*
X115480079Y-160565228D01*
X115474911Y-160565165D01*
X115457489Y-160567831D01*
X115310060Y-160590390D01*
X115239698Y-160580922D01*
X115201907Y-160554936D01*
X114849476Y-160202506D01*
X114815451Y-160140193D01*
X114812571Y-160113410D01*
X114812571Y-151910012D01*
X114832573Y-151841891D01*
X114886229Y-151795398D01*
X114938571Y-151784012D01*
X115087576Y-151784012D01*
X115096146Y-151784304D01*
X115146264Y-151787721D01*
X115146268Y-151787721D01*
X115153840Y-151788237D01*
X115161317Y-151786932D01*
X115161318Y-151786932D01*
X115210450Y-151778357D01*
X115216791Y-151777250D01*
X115223309Y-151776289D01*
X115286730Y-151768614D01*
X115293831Y-151765931D01*
X115296440Y-151765290D01*
X115312750Y-151760827D01*
X115315286Y-151760062D01*
X115322772Y-151758755D01*
X115381288Y-151733068D01*
X115387392Y-151730577D01*
X115403904Y-151724338D01*
X115447144Y-151707999D01*
X115453407Y-151703695D01*
X115455773Y-151702458D01*
X115470585Y-151694213D01*
X115472839Y-151692880D01*
X115479793Y-151689827D01*
X115530490Y-151650925D01*
X115535820Y-151647053D01*
X115582208Y-151615173D01*
X115582213Y-151615168D01*
X115588469Y-151610869D01*
X115629924Y-151564341D01*
X115634904Y-151559066D01*
X115890533Y-151303437D01*
X115953431Y-151269285D01*
X115969589Y-151265850D01*
X116106288Y-151236794D01*
X116126305Y-151227882D01*
X116274722Y-151161803D01*
X116274724Y-151161802D01*
X116280752Y-151159118D01*
X116293019Y-151150206D01*
X116355474Y-151104829D01*
X116435253Y-151046866D01*
X116495361Y-150980109D01*
X116558621Y-150909852D01*
X116558622Y-150909851D01*
X116563040Y-150904944D01*
X116642608Y-150767128D01*
X116655223Y-150745279D01*
X116655224Y-150745278D01*
X116658527Y-150739556D01*
X116717542Y-150557928D01*
X116719138Y-150542749D01*
X116736814Y-150374565D01*
X116737504Y-150368000D01*
X116717542Y-150178072D01*
X116658527Y-149996444D01*
X116563040Y-149831056D01*
X116549639Y-149816172D01*
X116439675Y-149694045D01*
X116439674Y-149694044D01*
X116435253Y-149689134D01*
X116280752Y-149576882D01*
X116274724Y-149574198D01*
X116274722Y-149574197D01*
X116112319Y-149501891D01*
X116112318Y-149501891D01*
X116106288Y-149499206D01*
X115995396Y-149475635D01*
X115925944Y-149460872D01*
X115925939Y-149460872D01*
X115919487Y-149459500D01*
X115728513Y-149459500D01*
X115722056Y-149460872D01*
X115715485Y-149461563D01*
X115715220Y-149459040D01*
X115655805Y-149454512D01*
X115599169Y-149411701D01*
X115591269Y-149399663D01*
X115590480Y-149398295D01*
X115547040Y-149323056D01*
X115523740Y-149297178D01*
X115423675Y-149186045D01*
X115423674Y-149186044D01*
X115419253Y-149181134D01*
X115308360Y-149100565D01*
X115270094Y-149072763D01*
X115270093Y-149072762D01*
X115264752Y-149068882D01*
X115258724Y-149066198D01*
X115258722Y-149066197D01*
X115096319Y-148993891D01*
X115096318Y-148993891D01*
X115090288Y-148991206D01*
X114937431Y-148958715D01*
X114874533Y-148924563D01*
X113535974Y-147586004D01*
X113501948Y-147523692D01*
X113507013Y-147452877D01*
X113549560Y-147396041D01*
X113616080Y-147371230D01*
X113625069Y-147370909D01*
X119392748Y-147370909D01*
X119460869Y-147390911D01*
X119481843Y-147407813D01*
X119603682Y-147529653D01*
X119715336Y-147641307D01*
X119749361Y-147703619D01*
X119751550Y-147717232D01*
X119756458Y-147763928D01*
X119758498Y-147770205D01*
X119758498Y-147770207D01*
X119790234Y-147867880D01*
X119815473Y-147945556D01*
X119910960Y-148110944D01*
X119915378Y-148115851D01*
X119915379Y-148115852D01*
X120034325Y-148247955D01*
X120038747Y-148252866D01*
X120193248Y-148365118D01*
X120199276Y-148367802D01*
X120199278Y-148367803D01*
X120361681Y-148440109D01*
X120367712Y-148442794D01*
X120461113Y-148462647D01*
X120548056Y-148481128D01*
X120548061Y-148481128D01*
X120554513Y-148482500D01*
X120745487Y-148482500D01*
X120751939Y-148481128D01*
X120751944Y-148481128D01*
X120838887Y-148462647D01*
X120932288Y-148442794D01*
X120938319Y-148440109D01*
X121100722Y-148367803D01*
X121100724Y-148367802D01*
X121106752Y-148365118D01*
X121261253Y-148252866D01*
X121265675Y-148247955D01*
X121384621Y-148115852D01*
X121384622Y-148115851D01*
X121389040Y-148110944D01*
X121484527Y-147945556D01*
X121543542Y-147763928D01*
X121563504Y-147574000D01*
X121558843Y-147529653D01*
X121544232Y-147390635D01*
X121544232Y-147390633D01*
X121543542Y-147384072D01*
X121484527Y-147202444D01*
X121389040Y-147037056D01*
X121294925Y-146932530D01*
X121265675Y-146900045D01*
X121265674Y-146900044D01*
X121261253Y-146895134D01*
X121129107Y-146799124D01*
X121112094Y-146786763D01*
X121112093Y-146786762D01*
X121106752Y-146782882D01*
X121100724Y-146780198D01*
X121100722Y-146780197D01*
X120938319Y-146707891D01*
X120938318Y-146707891D01*
X120932288Y-146705206D01*
X120779431Y-146672715D01*
X120716533Y-146638563D01*
X120259859Y-146181889D01*
X120254005Y-146175624D01*
X120246977Y-146167568D01*
X120215970Y-146132024D01*
X120163689Y-146095280D01*
X120158395Y-146091348D01*
X120114102Y-146056618D01*
X120108127Y-146051933D01*
X120101211Y-146048810D01*
X120098925Y-146047426D01*
X120084244Y-146039052D01*
X120081884Y-146037787D01*
X120075670Y-146033419D01*
X120068591Y-146030659D01*
X120068589Y-146030658D01*
X120016134Y-146010207D01*
X120010065Y-146007656D01*
X119951836Y-145981364D01*
X119944369Y-145979980D01*
X119941814Y-145979179D01*
X119925561Y-145974550D01*
X119922981Y-145973887D01*
X119915900Y-145971127D01*
X119908369Y-145970136D01*
X119908367Y-145970135D01*
X119878748Y-145966236D01*
X119852548Y-145962787D01*
X119846050Y-145961757D01*
X119783223Y-145950113D01*
X119775643Y-145950550D01*
X119775642Y-145950550D01*
X119721017Y-145953700D01*
X119713763Y-145953909D01*
X102794518Y-145953909D01*
X102785949Y-145953617D01*
X102735816Y-145950199D01*
X102735812Y-145950199D01*
X102728239Y-145949683D01*
X102665272Y-145960673D01*
X102658760Y-145961633D01*
X102595349Y-145969307D01*
X102588248Y-145971990D01*
X102585639Y-145972631D01*
X102569319Y-145977096D01*
X102566786Y-145977861D01*
X102559308Y-145979166D01*
X102500781Y-146004857D01*
X102494699Y-146007339D01*
X102474344Y-146015031D01*
X102442040Y-146027237D01*
X102442038Y-146027238D01*
X102434935Y-146029922D01*
X102428676Y-146034223D01*
X102426311Y-146035460D01*
X102411539Y-146043682D01*
X102409247Y-146045037D01*
X102402286Y-146048093D01*
X102396259Y-146052718D01*
X102396255Y-146052720D01*
X102351578Y-146087002D01*
X102346253Y-146090871D01*
X102328623Y-146102988D01*
X102302387Y-146121020D01*
X102293610Y-146127052D01*
X102288559Y-146132721D01*
X102288557Y-146132723D01*
X102252163Y-146173572D01*
X102247181Y-146178849D01*
X101533467Y-146892563D01*
X101470569Y-146926715D01*
X101317712Y-146959206D01*
X101311682Y-146961891D01*
X101311681Y-146961891D01*
X101149278Y-147034197D01*
X101149276Y-147034198D01*
X101143248Y-147036882D01*
X100988747Y-147149134D01*
X100984326Y-147154044D01*
X100984325Y-147154045D01*
X100940747Y-147202444D01*
X100860960Y-147291056D01*
X100836626Y-147333204D01*
X100773214Y-147443037D01*
X100765473Y-147456444D01*
X100706458Y-147638072D01*
X100686496Y-147828000D01*
X100687186Y-147834565D01*
X100696886Y-147926851D01*
X100706458Y-148017928D01*
X100765473Y-148199556D01*
X100860960Y-148364944D01*
X100865378Y-148369851D01*
X100865379Y-148369852D01*
X100965572Y-148481128D01*
X100988747Y-148506866D01*
X101143248Y-148619118D01*
X101149276Y-148621802D01*
X101149278Y-148621803D01*
X101311681Y-148694109D01*
X101317712Y-148696794D01*
X101324167Y-148698166D01*
X101324170Y-148698167D01*
X101354364Y-148704585D01*
X101385696Y-148711245D01*
X101448169Y-148744972D01*
X101482490Y-148807121D01*
X101477763Y-148877960D01*
X101448594Y-148923586D01*
X95410585Y-154961595D01*
X95348273Y-154995621D01*
X95321490Y-154998500D01*
X93938286Y-154998500D01*
X93870165Y-154978498D01*
X93832494Y-154940941D01*
X93829032Y-154935590D01*
X93790014Y-154875277D01*
X93639670Y-154710051D01*
X93635619Y-154706852D01*
X93635615Y-154706848D01*
X93468414Y-154574800D01*
X93468410Y-154574798D01*
X93464359Y-154571598D01*
X93442205Y-154559368D01*
X93297155Y-154479297D01*
X93268789Y-154463638D01*
X93263920Y-154461914D01*
X93263916Y-154461912D01*
X93063087Y-154390795D01*
X93063083Y-154390794D01*
X93058212Y-154389069D01*
X93053119Y-154388162D01*
X93053116Y-154388161D01*
X92843373Y-154350800D01*
X92843367Y-154350799D01*
X92838284Y-154349894D01*
X92764452Y-154348992D01*
X92620081Y-154347228D01*
X92620079Y-154347228D01*
X92614911Y-154347165D01*
X92394091Y-154380955D01*
X92181756Y-154450357D01*
X91983607Y-154553507D01*
X91979474Y-154556610D01*
X91979471Y-154556612D01*
X91809100Y-154684530D01*
X91804965Y-154687635D01*
X91650629Y-154849138D01*
X91647715Y-154853410D01*
X91647714Y-154853411D01*
X91604438Y-154916851D01*
X91524743Y-155033680D01*
X91430688Y-155236305D01*
X91370989Y-155451570D01*
X91347251Y-155673695D01*
X91347548Y-155678848D01*
X91347548Y-155678851D01*
X91357874Y-155857939D01*
X91360110Y-155896715D01*
X91361247Y-155901761D01*
X91361248Y-155901767D01*
X91380553Y-155987425D01*
X91409222Y-156114639D01*
X91493266Y-156321616D01*
X91495965Y-156326020D01*
X91595936Y-156489158D01*
X91609987Y-156512088D01*
X91756250Y-156680938D01*
X91760230Y-156684242D01*
X91764981Y-156688187D01*
X91804616Y-156747090D01*
X91806113Y-156818071D01*
X91768997Y-156878593D01*
X91728724Y-156903112D01*
X91613295Y-156946385D01*
X91496739Y-157033739D01*
X91409385Y-157150295D01*
X91358255Y-157286684D01*
X91351500Y-157348866D01*
X91351500Y-159145134D01*
X91358255Y-159207316D01*
X91409385Y-159343705D01*
X91496739Y-159460261D01*
X91613295Y-159547615D01*
X91749684Y-159598745D01*
X91811866Y-159605500D01*
X91875500Y-159605500D01*
X91943621Y-159625502D01*
X91990114Y-159679158D01*
X92001500Y-159731500D01*
X92001500Y-160695114D01*
X91981498Y-160763235D01*
X91951153Y-160795874D01*
X91833309Y-160884354D01*
X91804965Y-160905635D01*
X91650629Y-161067138D01*
X91543201Y-161224621D01*
X91488293Y-161269621D01*
X91417768Y-161277792D01*
X91354021Y-161246538D01*
X91333324Y-161222054D01*
X91252822Y-161097617D01*
X91252820Y-161097614D01*
X91250014Y-161093277D01*
X91099670Y-160928051D01*
X91095619Y-160924852D01*
X91095615Y-160924848D01*
X90928414Y-160792800D01*
X90928410Y-160792798D01*
X90924359Y-160789598D01*
X90728789Y-160681638D01*
X90723920Y-160679914D01*
X90723916Y-160679912D01*
X90523087Y-160608795D01*
X90523083Y-160608794D01*
X90518212Y-160607069D01*
X90513119Y-160606162D01*
X90513116Y-160606161D01*
X90303373Y-160568800D01*
X90303367Y-160568799D01*
X90298284Y-160567894D01*
X90219461Y-160566931D01*
X90080081Y-160565228D01*
X90080079Y-160565228D01*
X90074911Y-160565165D01*
X89854091Y-160598955D01*
X89641756Y-160668357D01*
X89443607Y-160771507D01*
X89439474Y-160774610D01*
X89439471Y-160774612D01*
X89283647Y-160891608D01*
X89264965Y-160905635D01*
X89110629Y-161067138D01*
X89003201Y-161224621D01*
X88948293Y-161269621D01*
X88877768Y-161277792D01*
X88814021Y-161246538D01*
X88793324Y-161222054D01*
X88712822Y-161097617D01*
X88712820Y-161097614D01*
X88710014Y-161093277D01*
X88559670Y-160928051D01*
X88555619Y-160924852D01*
X88555615Y-160924848D01*
X88388414Y-160792800D01*
X88388410Y-160792798D01*
X88384359Y-160789598D01*
X88188789Y-160681638D01*
X88183920Y-160679914D01*
X88183916Y-160679912D01*
X87983087Y-160608795D01*
X87983083Y-160608794D01*
X87978212Y-160607069D01*
X87973119Y-160606162D01*
X87973116Y-160606161D01*
X87763373Y-160568800D01*
X87763367Y-160568799D01*
X87758284Y-160567894D01*
X87679461Y-160566931D01*
X87540081Y-160565228D01*
X87540079Y-160565228D01*
X87534911Y-160565165D01*
X87314091Y-160598955D01*
X87101756Y-160668357D01*
X86903607Y-160771507D01*
X86899474Y-160774610D01*
X86899471Y-160774612D01*
X86743647Y-160891608D01*
X86724965Y-160905635D01*
X86570629Y-161067138D01*
X86567720Y-161071403D01*
X86567714Y-161071411D01*
X86489052Y-161186725D01*
X86444743Y-161251680D01*
X86429419Y-161284693D01*
X86363175Y-161427405D01*
X86350688Y-161454305D01*
X86290989Y-161669570D01*
X86267251Y-161891695D01*
X77508000Y-161891695D01*
X77508000Y-155541695D01*
X83276251Y-155541695D01*
X83276548Y-155546848D01*
X83276548Y-155546851D01*
X83282011Y-155641590D01*
X83289110Y-155764715D01*
X83290247Y-155769761D01*
X83290248Y-155769767D01*
X83302536Y-155824292D01*
X83338222Y-155982639D01*
X83422266Y-156189616D01*
X83538987Y-156380088D01*
X83685250Y-156548938D01*
X83689230Y-156552242D01*
X83693981Y-156556187D01*
X83733616Y-156615090D01*
X83735113Y-156686071D01*
X83697997Y-156746593D01*
X83657725Y-156771112D01*
X83577669Y-156801124D01*
X83542295Y-156814385D01*
X83425739Y-156901739D01*
X83338385Y-157018295D01*
X83287255Y-157154684D01*
X83280500Y-157216866D01*
X83280500Y-159013134D01*
X83287255Y-159075316D01*
X83338385Y-159211705D01*
X83425739Y-159328261D01*
X83542295Y-159415615D01*
X83678684Y-159466745D01*
X83740866Y-159473500D01*
X85537134Y-159473500D01*
X85599316Y-159466745D01*
X85735705Y-159415615D01*
X85852261Y-159328261D01*
X85939615Y-159211705D01*
X85990745Y-159075316D01*
X85997500Y-159013134D01*
X85997500Y-158949500D01*
X86017502Y-158881379D01*
X86071158Y-158834886D01*
X86123500Y-158823500D01*
X86145500Y-158823500D01*
X86213621Y-158843502D01*
X86260114Y-158897158D01*
X86271500Y-158949500D01*
X86271500Y-159013134D01*
X86278255Y-159075316D01*
X86329385Y-159211705D01*
X86416739Y-159328261D01*
X86533295Y-159415615D01*
X86669684Y-159466745D01*
X86731866Y-159473500D01*
X88528134Y-159473500D01*
X88590316Y-159466745D01*
X88726705Y-159415615D01*
X88843261Y-159328261D01*
X88930615Y-159211705D01*
X88981745Y-159075316D01*
X88988500Y-159013134D01*
X88988500Y-157216866D01*
X88981745Y-157154684D01*
X88930615Y-157018295D01*
X88843261Y-156901739D01*
X88726705Y-156814385D01*
X88590316Y-156763255D01*
X88528134Y-156756500D01*
X86731866Y-156756500D01*
X86669684Y-156763255D01*
X86533295Y-156814385D01*
X86416739Y-156901739D01*
X86329385Y-157018295D01*
X86278255Y-157154684D01*
X86271500Y-157216866D01*
X86271500Y-157280500D01*
X86251498Y-157348621D01*
X86197842Y-157395114D01*
X86145500Y-157406500D01*
X86123500Y-157406500D01*
X86055379Y-157386498D01*
X86008886Y-157332842D01*
X85997500Y-157280500D01*
X85997500Y-157216866D01*
X85990745Y-157154684D01*
X85939615Y-157018295D01*
X85852261Y-156901739D01*
X85735705Y-156814385D01*
X85723132Y-156809672D01*
X85617203Y-156769960D01*
X85560439Y-156727318D01*
X85535739Y-156660756D01*
X85550947Y-156591408D01*
X85572493Y-156562727D01*
X85627724Y-156507689D01*
X85677096Y-156458489D01*
X85701645Y-156424326D01*
X85804435Y-156281277D01*
X85807453Y-156277077D01*
X85881873Y-156126500D01*
X85904136Y-156081453D01*
X85904137Y-156081451D01*
X85906430Y-156076811D01*
X85971370Y-155863069D01*
X86000529Y-155641590D01*
X86002156Y-155575000D01*
X85983852Y-155352361D01*
X85929431Y-155135702D01*
X85840354Y-154930840D01*
X85719014Y-154743277D01*
X85568670Y-154578051D01*
X85564619Y-154574852D01*
X85564615Y-154574848D01*
X85397414Y-154442800D01*
X85397410Y-154442798D01*
X85393359Y-154439598D01*
X85352053Y-154416796D01*
X85302084Y-154366364D01*
X85287312Y-154296921D01*
X85312428Y-154230516D01*
X85339780Y-154203909D01*
X85383603Y-154172650D01*
X85518860Y-154076173D01*
X85677096Y-153918489D01*
X85750832Y-153815874D01*
X85765132Y-153795974D01*
X85821127Y-153752326D01*
X85867455Y-153743500D01*
X92808088Y-153743500D01*
X92816658Y-153743792D01*
X92866776Y-153747209D01*
X92866780Y-153747209D01*
X92874352Y-153747725D01*
X92881829Y-153746420D01*
X92881830Y-153746420D01*
X92908308Y-153741799D01*
X92937303Y-153736738D01*
X92943821Y-153735777D01*
X93007242Y-153728102D01*
X93014343Y-153725419D01*
X93016952Y-153724778D01*
X93033262Y-153720315D01*
X93035798Y-153719550D01*
X93043284Y-153718243D01*
X93101800Y-153692556D01*
X93107904Y-153690065D01*
X93160548Y-153670173D01*
X93160549Y-153670172D01*
X93167656Y-153667487D01*
X93173919Y-153663183D01*
X93176285Y-153661946D01*
X93191097Y-153653701D01*
X93193351Y-153652368D01*
X93200305Y-153649315D01*
X93251002Y-153610413D01*
X93256332Y-153606541D01*
X93302720Y-153574661D01*
X93302725Y-153574656D01*
X93308981Y-153570357D01*
X93350436Y-153523829D01*
X93355416Y-153518554D01*
X93919533Y-152954437D01*
X93982431Y-152920285D01*
X93998589Y-152916850D01*
X94135288Y-152887794D01*
X94141319Y-152885109D01*
X94303722Y-152812803D01*
X94303724Y-152812802D01*
X94309752Y-152810118D01*
X94464253Y-152697866D01*
X94592040Y-152555944D01*
X94678284Y-152406565D01*
X94684223Y-152396279D01*
X94684224Y-152396278D01*
X94687527Y-152390556D01*
X94746542Y-152208928D01*
X94747538Y-152199457D01*
X94765814Y-152025565D01*
X94766504Y-152019000D01*
X94756114Y-151920144D01*
X94747232Y-151835635D01*
X94747232Y-151835633D01*
X94746542Y-151829072D01*
X94687527Y-151647444D01*
X94671203Y-151619169D01*
X94625015Y-151539171D01*
X94592040Y-151482056D01*
X94511975Y-151393134D01*
X94468675Y-151345045D01*
X94468674Y-151345044D01*
X94464253Y-151340134D01*
X94323907Y-151238166D01*
X94315094Y-151231763D01*
X94315093Y-151231762D01*
X94309752Y-151227882D01*
X94303724Y-151225198D01*
X94303722Y-151225197D01*
X94141319Y-151152891D01*
X94141318Y-151152891D01*
X94135288Y-151150206D01*
X94041928Y-151130362D01*
X93979456Y-151096634D01*
X93945134Y-151034484D01*
X93949862Y-150963645D01*
X93979031Y-150918020D01*
X96530779Y-148366272D01*
X96593091Y-148332246D01*
X96608022Y-148329926D01*
X96617198Y-148329059D01*
X96629050Y-148328500D01*
X99109769Y-148328500D01*
X99112825Y-148328200D01*
X99112832Y-148328200D01*
X99171340Y-148322463D01*
X99256833Y-148314080D01*
X99262734Y-148312298D01*
X99262736Y-148312298D01*
X99375653Y-148278206D01*
X99446169Y-148256916D01*
X99620796Y-148164066D01*
X99729468Y-148075435D01*
X99769287Y-148042960D01*
X99769290Y-148042957D01*
X99774062Y-148039065D01*
X99777991Y-148034316D01*
X99896201Y-147891425D01*
X99896203Y-147891421D01*
X99900130Y-147886675D01*
X99994198Y-147712701D01*
X100052682Y-147523768D01*
X100057323Y-147479610D01*
X100072711Y-147333204D01*
X100072711Y-147333202D01*
X100073355Y-147327075D01*
X100064202Y-147226498D01*
X100055989Y-147136251D01*
X100055988Y-147136248D01*
X100055430Y-147130112D01*
X100053419Y-147123277D01*
X100013394Y-146987285D01*
X99999590Y-146940381D01*
X99975936Y-146895134D01*
X99925742Y-146799124D01*
X99907960Y-146765110D01*
X99784032Y-146610975D01*
X99632526Y-146483846D01*
X99627128Y-146480879D01*
X99627123Y-146480875D01*
X99464608Y-146391533D01*
X99464609Y-146391533D01*
X99459213Y-146388567D01*
X99453346Y-146386706D01*
X99453344Y-146386705D01*
X99276564Y-146330627D01*
X99276563Y-146330627D01*
X99270694Y-146328765D01*
X99116773Y-146311500D01*
X97507477Y-146311500D01*
X97439356Y-146291498D01*
X97392863Y-146237842D01*
X97382759Y-146167568D01*
X97412253Y-146102988D01*
X97418382Y-146096405D01*
X97487749Y-146027038D01*
X97493882Y-146018280D01*
X97610899Y-145851162D01*
X97610900Y-145851160D01*
X97614056Y-145846653D01*
X97616379Y-145841671D01*
X97616382Y-145841666D01*
X97674074Y-145717943D01*
X97707120Y-145647076D01*
X97764115Y-145434371D01*
X97783307Y-145215000D01*
X97764115Y-144995629D01*
X97707120Y-144782924D01*
X97621603Y-144599531D01*
X97616382Y-144588334D01*
X97616379Y-144588329D01*
X97614056Y-144583347D01*
X97598918Y-144561727D01*
X97490908Y-144407473D01*
X97490906Y-144407470D01*
X97487749Y-144402962D01*
X97332038Y-144247251D01*
X97306512Y-144229377D01*
X97209158Y-144161209D01*
X97151654Y-144120944D01*
X96952076Y-144027880D01*
X96739371Y-143970885D01*
X96520000Y-143951693D01*
X96300629Y-143970885D01*
X96087924Y-144027880D01*
X95994562Y-144071415D01*
X95893334Y-144118618D01*
X95893329Y-144118621D01*
X95888347Y-144120944D01*
X95883840Y-144124100D01*
X95883838Y-144124101D01*
X95712473Y-144244092D01*
X95712470Y-144244094D01*
X95707962Y-144247251D01*
X95552251Y-144402962D01*
X95549094Y-144407470D01*
X95549092Y-144407473D01*
X95445650Y-144555203D01*
X95390193Y-144599531D01*
X95319573Y-144606840D01*
X95253342Y-144572027D01*
X91016315Y-140335000D01*
X95256693Y-140335000D01*
X95275885Y-140554371D01*
X95332880Y-140767076D01*
X95376415Y-140860438D01*
X95423618Y-140961666D01*
X95423621Y-140961671D01*
X95425944Y-140966653D01*
X95429100Y-140971160D01*
X95429101Y-140971162D01*
X95546194Y-141138387D01*
X95552251Y-141147038D01*
X95707962Y-141302749D01*
X95712471Y-141305906D01*
X95712473Y-141305908D01*
X95725892Y-141315304D01*
X95888346Y-141429056D01*
X96087924Y-141522120D01*
X96300629Y-141579115D01*
X96520000Y-141598307D01*
X96739371Y-141579115D01*
X96952076Y-141522120D01*
X97151654Y-141429056D01*
X97314108Y-141315304D01*
X97327527Y-141305908D01*
X97327529Y-141305906D01*
X97332038Y-141302749D01*
X97487749Y-141147038D01*
X97493807Y-141138387D01*
X97610899Y-140971162D01*
X97610900Y-140971160D01*
X97614056Y-140966653D01*
X97616379Y-140961671D01*
X97616382Y-140961666D01*
X97663585Y-140860438D01*
X97707120Y-140767076D01*
X97764115Y-140554371D01*
X97783307Y-140335000D01*
X97764115Y-140115629D01*
X97707120Y-139902924D01*
X97663585Y-139809562D01*
X97616382Y-139708334D01*
X97616379Y-139708329D01*
X97614056Y-139703347D01*
X97601285Y-139685108D01*
X97490908Y-139527473D01*
X97490906Y-139527470D01*
X97487749Y-139522962D01*
X97332038Y-139367251D01*
X97151654Y-139240944D01*
X96952076Y-139147880D01*
X96739371Y-139090885D01*
X96520000Y-139071693D01*
X96300629Y-139090885D01*
X96087924Y-139147880D01*
X96056295Y-139162629D01*
X95893334Y-139238618D01*
X95893329Y-139238621D01*
X95888347Y-139240944D01*
X95883840Y-139244100D01*
X95883838Y-139244101D01*
X95712473Y-139364092D01*
X95712470Y-139364094D01*
X95707962Y-139367251D01*
X95552251Y-139522962D01*
X95549094Y-139527470D01*
X95549092Y-139527473D01*
X95438715Y-139685108D01*
X95425944Y-139703347D01*
X95423621Y-139708329D01*
X95423618Y-139708334D01*
X95376415Y-139809562D01*
X95332880Y-139902924D01*
X95275885Y-140115629D01*
X95256693Y-140335000D01*
X91016315Y-140335000D01*
X89547496Y-138866181D01*
X89513470Y-138803869D01*
X89518609Y-138732856D01*
X89528971Y-138705215D01*
X89531745Y-138697816D01*
X89538500Y-138635634D01*
X89538500Y-135039366D01*
X89531745Y-134977184D01*
X89480615Y-134840795D01*
X89393261Y-134724239D01*
X89276705Y-134636885D01*
X89140316Y-134585755D01*
X89078134Y-134579000D01*
X85481866Y-134579000D01*
X85419684Y-134585755D01*
X85283295Y-134636885D01*
X85166739Y-134724239D01*
X85079385Y-134840795D01*
X85028255Y-134977184D01*
X85021500Y-135039366D01*
X85021500Y-138635634D01*
X85028255Y-138697816D01*
X85079385Y-138834205D01*
X85166739Y-138950761D01*
X85283295Y-139038115D01*
X85291700Y-139041266D01*
X85294831Y-139042980D01*
X85344977Y-139093238D01*
X85359991Y-139162629D01*
X85335106Y-139229122D01*
X85278222Y-139271605D01*
X85234322Y-139279500D01*
X84552115Y-139279500D01*
X84536876Y-139283975D01*
X84535671Y-139285365D01*
X84534000Y-139293048D01*
X84534000Y-141265385D01*
X84538475Y-141280624D01*
X84539865Y-141281829D01*
X84547548Y-141283500D01*
X86519885Y-141283500D01*
X86535124Y-141279025D01*
X86536329Y-141277635D01*
X86538000Y-141269952D01*
X86538000Y-140571870D01*
X86537909Y-140568484D01*
X86535118Y-140516955D01*
X86534045Y-140508311D01*
X86490920Y-140287482D01*
X86488006Y-140277254D01*
X86408636Y-140067760D01*
X86404038Y-140058162D01*
X86290507Y-139865040D01*
X86284354Y-139856351D01*
X86139899Y-139685108D01*
X86132392Y-139677601D01*
X85961149Y-139533146D01*
X85952460Y-139526993D01*
X85759338Y-139413462D01*
X85749740Y-139408864D01*
X85567520Y-139339827D01*
X85510904Y-139296988D01*
X85486436Y-139230341D01*
X85501885Y-139161045D01*
X85552345Y-139111103D01*
X85612160Y-139096000D01*
X86872656Y-139096000D01*
X86940777Y-139116002D01*
X86961751Y-139132905D01*
X95271884Y-147443037D01*
X95305910Y-147505349D01*
X95300845Y-147576164D01*
X95271884Y-147621227D01*
X93143516Y-149749595D01*
X93081204Y-149783621D01*
X93054421Y-149786500D01*
X91393286Y-149786500D01*
X91325165Y-149766498D01*
X91287494Y-149728941D01*
X91287287Y-149728621D01*
X91245014Y-149663277D01*
X91094670Y-149498051D01*
X91090619Y-149494852D01*
X91090615Y-149494848D01*
X90923414Y-149362800D01*
X90923410Y-149362798D01*
X90919359Y-149359598D01*
X90723789Y-149251638D01*
X90718920Y-149249914D01*
X90718916Y-149249912D01*
X90518087Y-149178795D01*
X90518083Y-149178794D01*
X90513212Y-149177069D01*
X90508119Y-149176162D01*
X90508116Y-149176161D01*
X90298373Y-149138800D01*
X90298367Y-149138799D01*
X90293284Y-149137894D01*
X90219452Y-149136992D01*
X90075081Y-149135228D01*
X90075079Y-149135228D01*
X90069911Y-149135165D01*
X89849091Y-149168955D01*
X89636756Y-149238357D01*
X89438607Y-149341507D01*
X89434474Y-149344610D01*
X89434471Y-149344612D01*
X89278707Y-149461563D01*
X89259965Y-149475635D01*
X89203537Y-149534684D01*
X89179283Y-149560064D01*
X89117759Y-149595494D01*
X89046846Y-149592037D01*
X88989060Y-149550791D01*
X88970207Y-149517243D01*
X88928767Y-149406703D01*
X88925615Y-149398295D01*
X88854869Y-149303900D01*
X88830022Y-149237395D01*
X88845075Y-149168013D01*
X88854870Y-149152771D01*
X88856560Y-149150516D01*
X88930615Y-149051705D01*
X88981745Y-148915316D01*
X88988500Y-148853134D01*
X88988500Y-147056866D01*
X88981745Y-146994684D01*
X88930615Y-146858295D01*
X88843261Y-146741739D01*
X88726705Y-146654385D01*
X88590316Y-146603255D01*
X88528134Y-146596500D01*
X86731866Y-146596500D01*
X86669684Y-146603255D01*
X86533295Y-146654385D01*
X86416739Y-146741739D01*
X86329385Y-146858295D01*
X86278255Y-146994684D01*
X86271500Y-147056866D01*
X86271500Y-147120500D01*
X86251498Y-147188621D01*
X86197842Y-147235114D01*
X86145500Y-147246500D01*
X85867286Y-147246500D01*
X85799165Y-147226498D01*
X85761494Y-147188941D01*
X85751505Y-147173500D01*
X85719014Y-147123277D01*
X85568670Y-146958051D01*
X85564619Y-146954852D01*
X85564615Y-146954848D01*
X85397414Y-146822800D01*
X85397410Y-146822798D01*
X85393359Y-146819598D01*
X85351569Y-146796529D01*
X85301598Y-146746097D01*
X85286826Y-146676654D01*
X85311942Y-146610248D01*
X85339294Y-146583641D01*
X85514328Y-146458792D01*
X85522200Y-146452139D01*
X85673052Y-146301812D01*
X85679730Y-146293965D01*
X85804003Y-146121020D01*
X85809313Y-146112183D01*
X85903670Y-145921267D01*
X85907469Y-145911672D01*
X85969377Y-145707910D01*
X85971555Y-145697837D01*
X85972986Y-145686962D01*
X85970775Y-145672778D01*
X85957617Y-145669000D01*
X83322225Y-145669000D01*
X83308694Y-145672973D01*
X83307257Y-145682966D01*
X83337565Y-145817446D01*
X83340645Y-145827275D01*
X83420770Y-146024603D01*
X83425413Y-146033794D01*
X83536694Y-146215388D01*
X83542777Y-146223699D01*
X83682213Y-146384667D01*
X83689580Y-146391883D01*
X83853434Y-146527916D01*
X83861881Y-146533831D01*
X83930969Y-146574203D01*
X83979693Y-146625842D01*
X83992764Y-146695625D01*
X83966033Y-146761396D01*
X83925584Y-146794752D01*
X83912607Y-146801507D01*
X83908474Y-146804610D01*
X83908471Y-146804612D01*
X83745845Y-146926715D01*
X83733965Y-146935635D01*
X83579629Y-147097138D01*
X83576715Y-147101410D01*
X83576714Y-147101411D01*
X83517005Y-147188941D01*
X83453743Y-147281680D01*
X83412324Y-147370909D01*
X83372621Y-147456444D01*
X83359688Y-147484305D01*
X83299989Y-147699570D01*
X83276251Y-147921695D01*
X83276548Y-147926848D01*
X83276548Y-147926851D01*
X83283018Y-148039065D01*
X83289110Y-148144715D01*
X83290247Y-148149761D01*
X83290248Y-148149767D01*
X83312376Y-148247955D01*
X83338222Y-148362639D01*
X83422266Y-148569616D01*
X83452494Y-148618944D01*
X83524936Y-148737158D01*
X83538987Y-148760088D01*
X83685250Y-148928938D01*
X83766235Y-148996173D01*
X83850580Y-149066197D01*
X83857126Y-149071632D01*
X83906639Y-149100565D01*
X83930445Y-149114476D01*
X83979169Y-149166114D01*
X83992240Y-149235897D01*
X83965509Y-149301669D01*
X83925055Y-149335027D01*
X83912607Y-149341507D01*
X83908474Y-149344610D01*
X83908471Y-149344612D01*
X83752707Y-149461563D01*
X83733965Y-149475635D01*
X83730393Y-149479373D01*
X83622729Y-149592037D01*
X83579629Y-149637138D01*
X83576715Y-149641410D01*
X83576714Y-149641411D01*
X83517005Y-149728941D01*
X83453743Y-149821680D01*
X83451564Y-149826375D01*
X83372621Y-149996444D01*
X83359688Y-150024305D01*
X83299989Y-150239570D01*
X83276251Y-150461695D01*
X83276548Y-150466848D01*
X83276548Y-150466851D01*
X83282226Y-150565329D01*
X83289110Y-150684715D01*
X83290247Y-150689761D01*
X83290248Y-150689767D01*
X83307683Y-150767128D01*
X83338222Y-150902639D01*
X83386335Y-151021128D01*
X83416995Y-151096634D01*
X83422266Y-151109616D01*
X83452601Y-151159118D01*
X83524936Y-151277158D01*
X83538987Y-151300088D01*
X83685250Y-151468938D01*
X83857126Y-151611632D01*
X83917742Y-151647053D01*
X83930445Y-151654476D01*
X83979169Y-151706114D01*
X83992240Y-151775897D01*
X83965509Y-151841669D01*
X83925055Y-151875027D01*
X83912607Y-151881507D01*
X83908474Y-151884610D01*
X83908471Y-151884612D01*
X83738227Y-152012435D01*
X83733965Y-152015635D01*
X83579629Y-152177138D01*
X83576715Y-152181410D01*
X83576714Y-152181411D01*
X83558841Y-152207612D01*
X83453743Y-152361680D01*
X83359688Y-152564305D01*
X83299989Y-152779570D01*
X83276251Y-153001695D01*
X83276548Y-153006848D01*
X83276548Y-153006851D01*
X83280924Y-153082749D01*
X83289110Y-153224715D01*
X83290247Y-153229761D01*
X83290248Y-153229767D01*
X83299353Y-153270166D01*
X83338222Y-153442639D01*
X83371190Y-153523830D01*
X83405535Y-153608411D01*
X83422266Y-153649616D01*
X83434863Y-153670173D01*
X83524149Y-153815874D01*
X83538987Y-153840088D01*
X83685250Y-154008938D01*
X83857126Y-154151632D01*
X83906643Y-154180567D01*
X83930445Y-154194476D01*
X83979169Y-154246114D01*
X83992240Y-154315897D01*
X83965509Y-154381669D01*
X83925055Y-154415027D01*
X83912607Y-154421507D01*
X83908474Y-154424610D01*
X83908471Y-154424612D01*
X83793786Y-154510720D01*
X83733965Y-154555635D01*
X83715605Y-154574848D01*
X83586402Y-154710051D01*
X83579629Y-154717138D01*
X83576715Y-154721410D01*
X83576714Y-154721411D01*
X83564404Y-154739457D01*
X83453743Y-154901680D01*
X83410137Y-154995621D01*
X83390292Y-155038375D01*
X83359688Y-155104305D01*
X83299989Y-155319570D01*
X83276251Y-155541695D01*
X77508000Y-155541695D01*
X77508000Y-145149183D01*
X83303389Y-145149183D01*
X83304912Y-145157607D01*
X83317292Y-145161000D01*
X84366885Y-145161000D01*
X84382124Y-145156525D01*
X84383329Y-145155135D01*
X84385000Y-145147452D01*
X84385000Y-145142885D01*
X84893000Y-145142885D01*
X84897475Y-145158124D01*
X84898865Y-145159329D01*
X84906548Y-145161000D01*
X85957344Y-145161000D01*
X85970875Y-145157027D01*
X85972180Y-145147947D01*
X85930214Y-144980875D01*
X85926894Y-144971124D01*
X85841972Y-144775814D01*
X85837105Y-144766739D01*
X85721426Y-144587926D01*
X85715136Y-144579757D01*
X85571806Y-144422240D01*
X85564273Y-144415215D01*
X85397139Y-144283222D01*
X85388552Y-144277517D01*
X85202117Y-144174599D01*
X85192705Y-144170369D01*
X84991959Y-144099280D01*
X84981988Y-144096646D01*
X84910837Y-144083972D01*
X84897540Y-144085432D01*
X84893000Y-144099989D01*
X84893000Y-145142885D01*
X84385000Y-145142885D01*
X84385000Y-144098102D01*
X84381082Y-144084758D01*
X84366806Y-144082771D01*
X84328324Y-144088660D01*
X84318288Y-144091051D01*
X84115868Y-144157212D01*
X84106359Y-144161209D01*
X83917463Y-144259542D01*
X83908738Y-144265036D01*
X83738433Y-144392905D01*
X83730726Y-144399748D01*
X83583590Y-144553717D01*
X83577104Y-144561727D01*
X83457098Y-144737649D01*
X83452000Y-144746623D01*
X83362338Y-144939783D01*
X83358775Y-144949470D01*
X83303389Y-145149183D01*
X77508000Y-145149183D01*
X77508000Y-142503131D01*
X82022000Y-142503131D01*
X82022091Y-142506516D01*
X82024882Y-142558045D01*
X82025955Y-142566689D01*
X82069080Y-142787518D01*
X82071994Y-142797746D01*
X82151364Y-143007240D01*
X82155962Y-143016838D01*
X82269493Y-143209960D01*
X82275646Y-143218649D01*
X82420101Y-143389892D01*
X82427608Y-143397399D01*
X82598851Y-143541854D01*
X82607540Y-143548007D01*
X82800662Y-143661538D01*
X82810260Y-143666136D01*
X83019754Y-143745506D01*
X83029982Y-143748420D01*
X83250811Y-143791545D01*
X83259455Y-143792618D01*
X83310984Y-143795409D01*
X83314369Y-143795500D01*
X84007885Y-143795500D01*
X84023124Y-143791025D01*
X84024329Y-143789635D01*
X84026000Y-143781952D01*
X84026000Y-143777385D01*
X84534000Y-143777385D01*
X84538475Y-143792624D01*
X84539865Y-143793829D01*
X84547548Y-143795500D01*
X85245631Y-143795500D01*
X85249016Y-143795409D01*
X85300545Y-143792618D01*
X85309189Y-143791545D01*
X85530018Y-143748420D01*
X85540246Y-143745506D01*
X85749740Y-143666136D01*
X85759338Y-143661538D01*
X85952460Y-143548007D01*
X85961149Y-143541854D01*
X86132392Y-143397399D01*
X86139899Y-143389892D01*
X86284354Y-143218649D01*
X86290507Y-143209960D01*
X86404038Y-143016838D01*
X86408636Y-143007240D01*
X86488006Y-142797746D01*
X86490920Y-142787518D01*
X86534045Y-142566689D01*
X86535118Y-142558045D01*
X86537909Y-142506516D01*
X86538000Y-142503131D01*
X86538000Y-141809615D01*
X86533525Y-141794376D01*
X86532135Y-141793171D01*
X86524452Y-141791500D01*
X84552115Y-141791500D01*
X84536876Y-141795975D01*
X84535671Y-141797365D01*
X84534000Y-141805048D01*
X84534000Y-143777385D01*
X84026000Y-143777385D01*
X84026000Y-141809615D01*
X84021525Y-141794376D01*
X84020135Y-141793171D01*
X84012452Y-141791500D01*
X82040115Y-141791500D01*
X82024876Y-141795975D01*
X82023671Y-141797365D01*
X82022000Y-141805048D01*
X82022000Y-142503131D01*
X77508000Y-142503131D01*
X77508000Y-141265385D01*
X82022000Y-141265385D01*
X82026475Y-141280624D01*
X82027865Y-141281829D01*
X82035548Y-141283500D01*
X84007885Y-141283500D01*
X84023124Y-141279025D01*
X84024329Y-141277635D01*
X84026000Y-141269952D01*
X84026000Y-139297615D01*
X84021525Y-139282376D01*
X84020135Y-139281171D01*
X84012452Y-139279500D01*
X83314370Y-139279500D01*
X83310984Y-139279591D01*
X83259455Y-139282382D01*
X83250811Y-139283455D01*
X83029982Y-139326580D01*
X83019754Y-139329494D01*
X82810260Y-139408864D01*
X82800662Y-139413462D01*
X82607540Y-139526993D01*
X82598851Y-139533146D01*
X82427608Y-139677601D01*
X82420101Y-139685108D01*
X82275646Y-139856351D01*
X82269493Y-139865040D01*
X82155962Y-140058162D01*
X82151364Y-140067760D01*
X82071994Y-140277254D01*
X82069080Y-140287482D01*
X82025955Y-140508311D01*
X82024882Y-140516955D01*
X82022091Y-140568484D01*
X82022000Y-140571870D01*
X82022000Y-141265385D01*
X77508000Y-141265385D01*
X77508000Y-137897461D01*
X79272001Y-137897461D01*
X79272209Y-137902571D01*
X79283082Y-138036267D01*
X79284852Y-138046820D01*
X79337967Y-138253685D01*
X79341701Y-138264231D01*
X79430510Y-138458205D01*
X79436046Y-138467912D01*
X79557803Y-138643097D01*
X79564976Y-138651676D01*
X79715824Y-138802524D01*
X79724403Y-138809697D01*
X79899588Y-138931454D01*
X79909295Y-138936990D01*
X80103269Y-139025799D01*
X80113815Y-139029533D01*
X80320679Y-139082647D01*
X80331234Y-139084418D01*
X80464930Y-139095293D01*
X80470036Y-139095500D01*
X81007885Y-139095500D01*
X81023124Y-139091025D01*
X81024329Y-139089635D01*
X81026000Y-139081952D01*
X81026000Y-139077384D01*
X81534000Y-139077384D01*
X81538475Y-139092623D01*
X81539865Y-139093828D01*
X81547548Y-139095499D01*
X82089961Y-139095499D01*
X82095071Y-139095291D01*
X82228767Y-139084418D01*
X82239320Y-139082648D01*
X82446185Y-139029533D01*
X82456731Y-139025799D01*
X82650705Y-138936990D01*
X82660412Y-138931454D01*
X82835597Y-138809697D01*
X82844176Y-138802524D01*
X82995024Y-138651676D01*
X83002197Y-138643097D01*
X83123954Y-138467912D01*
X83129490Y-138458205D01*
X83218299Y-138264231D01*
X83222033Y-138253685D01*
X83275147Y-138046821D01*
X83276918Y-138036266D01*
X83287793Y-137902570D01*
X83288000Y-137897464D01*
X83288000Y-137109615D01*
X83283525Y-137094376D01*
X83282135Y-137093171D01*
X83274452Y-137091500D01*
X81552115Y-137091500D01*
X81536876Y-137095975D01*
X81535671Y-137097365D01*
X81534000Y-137105048D01*
X81534000Y-139077384D01*
X81026000Y-139077384D01*
X81026000Y-137109615D01*
X81021525Y-137094376D01*
X81020135Y-137093171D01*
X81012452Y-137091500D01*
X79290116Y-137091500D01*
X79274877Y-137095975D01*
X79273672Y-137097365D01*
X79272001Y-137105048D01*
X79272001Y-137897461D01*
X77508000Y-137897461D01*
X77508000Y-136565385D01*
X79272000Y-136565385D01*
X79276475Y-136580624D01*
X79277865Y-136581829D01*
X79285548Y-136583500D01*
X81007885Y-136583500D01*
X81023124Y-136579025D01*
X81024329Y-136577635D01*
X81026000Y-136569952D01*
X81026000Y-136565385D01*
X81534000Y-136565385D01*
X81538475Y-136580624D01*
X81539865Y-136581829D01*
X81547548Y-136583500D01*
X83269884Y-136583500D01*
X83285123Y-136579025D01*
X83286328Y-136577635D01*
X83287999Y-136569952D01*
X83287999Y-135777539D01*
X83287791Y-135772429D01*
X83276918Y-135638733D01*
X83275148Y-135628180D01*
X83222033Y-135421315D01*
X83218299Y-135410769D01*
X83129490Y-135216795D01*
X83123954Y-135207088D01*
X83002197Y-135031903D01*
X82995024Y-135023324D01*
X82844176Y-134872476D01*
X82835597Y-134865303D01*
X82660412Y-134743546D01*
X82650705Y-134738010D01*
X82456731Y-134649201D01*
X82446185Y-134645467D01*
X82239321Y-134592353D01*
X82228766Y-134590582D01*
X82095070Y-134579707D01*
X82089964Y-134579500D01*
X81552115Y-134579500D01*
X81536876Y-134583975D01*
X81535671Y-134585365D01*
X81534000Y-134593048D01*
X81534000Y-136565385D01*
X81026000Y-136565385D01*
X81026000Y-134597616D01*
X81021525Y-134582377D01*
X81020135Y-134581172D01*
X81012452Y-134579501D01*
X80470039Y-134579501D01*
X80464929Y-134579709D01*
X80331233Y-134590582D01*
X80320680Y-134592352D01*
X80113815Y-134645467D01*
X80103269Y-134649201D01*
X79909295Y-134738010D01*
X79899588Y-134743546D01*
X79724403Y-134865303D01*
X79715824Y-134872476D01*
X79564976Y-135023324D01*
X79557803Y-135031903D01*
X79436046Y-135207088D01*
X79430510Y-135216795D01*
X79341701Y-135410769D01*
X79337967Y-135421315D01*
X79284853Y-135628179D01*
X79283082Y-135638734D01*
X79272207Y-135772430D01*
X79272000Y-135777536D01*
X79272000Y-136565385D01*
X77508000Y-136565385D01*
X77508000Y-131854966D01*
X94172257Y-131854966D01*
X94202565Y-131989446D01*
X94205645Y-131999275D01*
X94285770Y-132196603D01*
X94290413Y-132205794D01*
X94401694Y-132387388D01*
X94407777Y-132395699D01*
X94547213Y-132556667D01*
X94554580Y-132563883D01*
X94718434Y-132699916D01*
X94726881Y-132705831D01*
X94910756Y-132813279D01*
X94920042Y-132817729D01*
X95119001Y-132893703D01*
X95128899Y-132896579D01*
X95232250Y-132917606D01*
X95246299Y-132916410D01*
X95250000Y-132906065D01*
X95250000Y-131859115D01*
X95245525Y-131843876D01*
X95244135Y-131842671D01*
X95236452Y-131841000D01*
X94187225Y-131841000D01*
X94173694Y-131844973D01*
X94172257Y-131854966D01*
X77508000Y-131854966D01*
X77508000Y-131601694D01*
X77528002Y-131533573D01*
X77581658Y-131487080D01*
X77651932Y-131476976D01*
X77678229Y-131483712D01*
X77772282Y-131518971D01*
X77772288Y-131518973D01*
X77779684Y-131521745D01*
X77841866Y-131528500D01*
X79638134Y-131528500D01*
X79700316Y-131521745D01*
X79836705Y-131470615D01*
X79953261Y-131383261D01*
X80040615Y-131266705D01*
X80091745Y-131130316D01*
X80098500Y-131068134D01*
X80098500Y-129271866D01*
X80091745Y-129209684D01*
X80040615Y-129073295D01*
X79953261Y-128956739D01*
X79836705Y-128869385D01*
X79717687Y-128824767D01*
X79660923Y-128782125D01*
X79636223Y-128715564D01*
X79651430Y-128646215D01*
X79672977Y-128617535D01*
X79774052Y-128516812D01*
X79780730Y-128508965D01*
X79905003Y-128336020D01*
X79910313Y-128327183D01*
X80004670Y-128136267D01*
X80008469Y-128126672D01*
X80070377Y-127922910D01*
X80072555Y-127912837D01*
X80073986Y-127901962D01*
X80071775Y-127887778D01*
X80058617Y-127884000D01*
X78612000Y-127884000D01*
X78543879Y-127863998D01*
X78497386Y-127810342D01*
X78486000Y-127758000D01*
X78486000Y-127502000D01*
X78506002Y-127433879D01*
X78559658Y-127387386D01*
X78612000Y-127376000D01*
X80058344Y-127376000D01*
X80071875Y-127372027D01*
X80073180Y-127362947D01*
X80031214Y-127195875D01*
X80027894Y-127186124D01*
X79942972Y-126990814D01*
X79938105Y-126981739D01*
X79822426Y-126802926D01*
X79816136Y-126794757D01*
X79672806Y-126637240D01*
X79665273Y-126630215D01*
X79498139Y-126498222D01*
X79489556Y-126492520D01*
X79452602Y-126472120D01*
X79402631Y-126421687D01*
X79387859Y-126352245D01*
X79412975Y-126285839D01*
X79440327Y-126259232D01*
X79497431Y-126218500D01*
X79619860Y-126131173D01*
X79778096Y-125973489D01*
X79791342Y-125955056D01*
X79905435Y-125796277D01*
X79908453Y-125792077D01*
X79924829Y-125758944D01*
X80005136Y-125596453D01*
X80005137Y-125596451D01*
X80007430Y-125591811D01*
X80052901Y-125442148D01*
X80070865Y-125383023D01*
X80070865Y-125383021D01*
X80072370Y-125378069D01*
X80101529Y-125156590D01*
X80103156Y-125090000D01*
X80084852Y-124867361D01*
X80030431Y-124650702D01*
X79941354Y-124445840D01*
X79942257Y-124445447D01*
X79928722Y-124380841D01*
X79954042Y-124314513D01*
X79965233Y-124301699D01*
X80562368Y-123704565D01*
X81845498Y-122421435D01*
X83757249Y-120509686D01*
X83819561Y-120475660D01*
X83890377Y-120480725D01*
X83947212Y-120523272D01*
X83958006Y-120540405D01*
X84022040Y-120662890D01*
X84145968Y-120817025D01*
X84150692Y-120820989D01*
X84152853Y-120822802D01*
X84297474Y-120944154D01*
X84302872Y-120947121D01*
X84302877Y-120947125D01*
X84400184Y-121000619D01*
X84470787Y-121039433D01*
X84476654Y-121041294D01*
X84476656Y-121041295D01*
X84635430Y-121091661D01*
X84659306Y-121099235D01*
X84813227Y-121116500D01*
X87348157Y-121116500D01*
X87361764Y-121117237D01*
X87393262Y-121120659D01*
X87393267Y-121120659D01*
X87399388Y-121121324D01*
X87425638Y-121119027D01*
X87449388Y-121116950D01*
X87454214Y-121116621D01*
X87456686Y-121116500D01*
X87459769Y-121116500D01*
X87471738Y-121115326D01*
X87502506Y-121112310D01*
X87503819Y-121112188D01*
X87548084Y-121108315D01*
X87596413Y-121104087D01*
X87601532Y-121102600D01*
X87606833Y-121102080D01*
X87695834Y-121075209D01*
X87696967Y-121074874D01*
X87780414Y-121050630D01*
X87780418Y-121050628D01*
X87786336Y-121048909D01*
X87791068Y-121046456D01*
X87796169Y-121044916D01*
X87812060Y-121036467D01*
X87878260Y-121001269D01*
X87879426Y-121000657D01*
X87956453Y-120960729D01*
X87961926Y-120957892D01*
X87966089Y-120954569D01*
X87970796Y-120952066D01*
X88042918Y-120893245D01*
X88043774Y-120892554D01*
X88082973Y-120861262D01*
X88085477Y-120858758D01*
X88086195Y-120858116D01*
X88090528Y-120854415D01*
X88124062Y-120827065D01*
X88153288Y-120791737D01*
X88161277Y-120782958D01*
X88294235Y-120650000D01*
X91796496Y-120650000D01*
X91797186Y-120656565D01*
X91806224Y-120742553D01*
X91816458Y-120839928D01*
X91875473Y-121021556D01*
X91878776Y-121027278D01*
X91878777Y-121027279D01*
X91888693Y-121044454D01*
X91970960Y-121186944D01*
X91975378Y-121191851D01*
X91975379Y-121191852D01*
X92070880Y-121297917D01*
X92098747Y-121328866D01*
X92196120Y-121399612D01*
X92230318Y-121424458D01*
X92253248Y-121441118D01*
X92259276Y-121443802D01*
X92259278Y-121443803D01*
X92411026Y-121511365D01*
X92427712Y-121518794D01*
X92521113Y-121538647D01*
X92608056Y-121557128D01*
X92608061Y-121557128D01*
X92614513Y-121558500D01*
X92805487Y-121558500D01*
X92811939Y-121557128D01*
X92811944Y-121557128D01*
X92898887Y-121538647D01*
X92992288Y-121518794D01*
X93008974Y-121511365D01*
X93160722Y-121443803D01*
X93160724Y-121443802D01*
X93166752Y-121441118D01*
X93189683Y-121424458D01*
X93247344Y-121382564D01*
X93314211Y-121358706D01*
X93321405Y-121358500D01*
X94904340Y-121358500D01*
X94972461Y-121378502D01*
X94993435Y-121395405D01*
X97261356Y-123663327D01*
X99300557Y-125702528D01*
X99306411Y-125708793D01*
X99344439Y-125752385D01*
X99396729Y-125789136D01*
X99401971Y-125793028D01*
X99452282Y-125832476D01*
X99459201Y-125835600D01*
X99461493Y-125836988D01*
X99476165Y-125845357D01*
X99478525Y-125846622D01*
X99484739Y-125850990D01*
X99491818Y-125853750D01*
X99491820Y-125853751D01*
X99544275Y-125874202D01*
X99550344Y-125876753D01*
X99608573Y-125903045D01*
X99616046Y-125904430D01*
X99618612Y-125905234D01*
X99634835Y-125909855D01*
X99637427Y-125910520D01*
X99644509Y-125913282D01*
X99652044Y-125914274D01*
X99707861Y-125921622D01*
X99714377Y-125922654D01*
X99752770Y-125929770D01*
X99777186Y-125934295D01*
X99784766Y-125933858D01*
X99784767Y-125933858D01*
X99839380Y-125930709D01*
X99846633Y-125930500D01*
X105814595Y-125930500D01*
X105882716Y-125950502D01*
X105888640Y-125954552D01*
X105954532Y-126002426D01*
X105997884Y-126058648D01*
X106003959Y-126129384D01*
X105970827Y-126192176D01*
X105906668Y-126227607D01*
X105762712Y-126258206D01*
X105756682Y-126260891D01*
X105756681Y-126260891D01*
X105594278Y-126333197D01*
X105594276Y-126333198D01*
X105588248Y-126335882D01*
X105433747Y-126448134D01*
X105429326Y-126453044D01*
X105429325Y-126453045D01*
X105388648Y-126498222D01*
X105305960Y-126590056D01*
X105210473Y-126755444D01*
X105151458Y-126937072D01*
X105150768Y-126943633D01*
X105150768Y-126943635D01*
X105142403Y-127023226D01*
X105131496Y-127127000D01*
X105132186Y-127133565D01*
X105132186Y-127133567D01*
X105137031Y-127179668D01*
X105124258Y-127249506D01*
X105075756Y-127301352D01*
X105026859Y-127317924D01*
X104997918Y-127321427D01*
X104985758Y-127322898D01*
X104978650Y-127325584D01*
X104976056Y-127326221D01*
X104959750Y-127330682D01*
X104957199Y-127331452D01*
X104949716Y-127332758D01*
X104942764Y-127335810D01*
X104942763Y-127335810D01*
X104891212Y-127358439D01*
X104885105Y-127360931D01*
X104832476Y-127380818D01*
X104825344Y-127383513D01*
X104819083Y-127387816D01*
X104816717Y-127389053D01*
X104801937Y-127397280D01*
X104799652Y-127398631D01*
X104792695Y-127401685D01*
X104786675Y-127406305D01*
X104786669Y-127406308D01*
X104769804Y-127419250D01*
X104741998Y-127440587D01*
X104736668Y-127444459D01*
X104690139Y-127476436D01*
X104644971Y-127495842D01*
X104616001Y-127502000D01*
X104492712Y-127528206D01*
X104486682Y-127530891D01*
X104486681Y-127530891D01*
X104324278Y-127603197D01*
X104324276Y-127603198D01*
X104318248Y-127605882D01*
X104312907Y-127609762D01*
X104312906Y-127609763D01*
X104268036Y-127642363D01*
X104163747Y-127718134D01*
X104159326Y-127723044D01*
X104159325Y-127723045D01*
X104080723Y-127810342D01*
X104035960Y-127860056D01*
X103940473Y-128025444D01*
X103881458Y-128207072D01*
X103880768Y-128213633D01*
X103880768Y-128213635D01*
X103880139Y-128219617D01*
X103861496Y-128397000D01*
X103862186Y-128403565D01*
X103874089Y-128516812D01*
X103881458Y-128586928D01*
X103940473Y-128768556D01*
X103943776Y-128774278D01*
X103943777Y-128774279D01*
X103973586Y-128825910D01*
X104035960Y-128933944D01*
X104040378Y-128938851D01*
X104040379Y-128938852D01*
X104078997Y-128981742D01*
X104163747Y-129075866D01*
X104318248Y-129188118D01*
X104324276Y-129190802D01*
X104324278Y-129190803D01*
X104366686Y-129209684D01*
X104492712Y-129265794D01*
X104586112Y-129285647D01*
X104673056Y-129304128D01*
X104673061Y-129304128D01*
X104679513Y-129305500D01*
X104870487Y-129305500D01*
X104876939Y-129304128D01*
X104876944Y-129304128D01*
X104963888Y-129285647D01*
X105057288Y-129265794D01*
X105183314Y-129209684D01*
X105225722Y-129190803D01*
X105225724Y-129190802D01*
X105231752Y-129188118D01*
X105386253Y-129075866D01*
X105471003Y-128981742D01*
X105509621Y-128938852D01*
X105509622Y-128938851D01*
X105514040Y-128933944D01*
X105576414Y-128825910D01*
X105598590Y-128787500D01*
X105649973Y-128738507D01*
X105707709Y-128724500D01*
X114271088Y-128724500D01*
X114279658Y-128724792D01*
X114329776Y-128728209D01*
X114329780Y-128728209D01*
X114337352Y-128728725D01*
X114344829Y-128727420D01*
X114344830Y-128727420D01*
X114371308Y-128722799D01*
X114400303Y-128717738D01*
X114406821Y-128716777D01*
X114470242Y-128709102D01*
X114477343Y-128706419D01*
X114479952Y-128705778D01*
X114496262Y-128701315D01*
X114498798Y-128700550D01*
X114506284Y-128699243D01*
X114564800Y-128673556D01*
X114570904Y-128671065D01*
X114574017Y-128669889D01*
X114630656Y-128648487D01*
X114636919Y-128644183D01*
X114639285Y-128642946D01*
X114654097Y-128634701D01*
X114656351Y-128633368D01*
X114663305Y-128630315D01*
X114714002Y-128591413D01*
X114719332Y-128587541D01*
X114765720Y-128555661D01*
X114765725Y-128555656D01*
X114771981Y-128551357D01*
X114784456Y-128537356D01*
X114813435Y-128504830D01*
X114818416Y-128499554D01*
X115890534Y-127427437D01*
X115953432Y-127393285D01*
X116012083Y-127380818D01*
X116106288Y-127360794D01*
X116112319Y-127358109D01*
X116274722Y-127285803D01*
X116274724Y-127285802D01*
X116280752Y-127283118D01*
X116435253Y-127170866D01*
X116563040Y-127028944D01*
X116658527Y-126863556D01*
X116717542Y-126681928D01*
X116737504Y-126492000D01*
X116722815Y-126352245D01*
X116718232Y-126308635D01*
X116718232Y-126308633D01*
X116717542Y-126302072D01*
X116658527Y-126120444D01*
X116563040Y-125955056D01*
X116517744Y-125904749D01*
X116439675Y-125818045D01*
X116439674Y-125818044D01*
X116435253Y-125813134D01*
X116416080Y-125799204D01*
X116372726Y-125742982D01*
X116366651Y-125672246D01*
X116381022Y-125634268D01*
X116401223Y-125599279D01*
X116401224Y-125599277D01*
X116404527Y-125593556D01*
X116463542Y-125411928D01*
X116473939Y-125313011D01*
X116482814Y-125228565D01*
X116483504Y-125222000D01*
X116476978Y-125159908D01*
X116464232Y-125038635D01*
X116464232Y-125038633D01*
X116463542Y-125032072D01*
X116404527Y-124850444D01*
X116309040Y-124685056D01*
X116290042Y-124663956D01*
X116185675Y-124548045D01*
X116185674Y-124548044D01*
X116181253Y-124543134D01*
X116082157Y-124471136D01*
X116032094Y-124434763D01*
X116032093Y-124434762D01*
X116026752Y-124430882D01*
X116020724Y-124428198D01*
X116020722Y-124428197D01*
X115858319Y-124355891D01*
X115858318Y-124355891D01*
X115852288Y-124353206D01*
X115756959Y-124332943D01*
X115671944Y-124314872D01*
X115671939Y-124314872D01*
X115665487Y-124313500D01*
X115474513Y-124313500D01*
X115468056Y-124314872D01*
X115461485Y-124315563D01*
X115461220Y-124313040D01*
X115401805Y-124308512D01*
X115345169Y-124265701D01*
X115337269Y-124253663D01*
X115324842Y-124232138D01*
X115293040Y-124177056D01*
X115194423Y-124067530D01*
X115169675Y-124040045D01*
X115169674Y-124040044D01*
X115165253Y-124035134D01*
X115010752Y-123922882D01*
X115004724Y-123920198D01*
X115004722Y-123920197D01*
X114842319Y-123847891D01*
X114842318Y-123847891D01*
X114836288Y-123845206D01*
X114713677Y-123819144D01*
X114655944Y-123806872D01*
X114655939Y-123806872D01*
X114649487Y-123805500D01*
X114458513Y-123805500D01*
X114452061Y-123806872D01*
X114452056Y-123806872D01*
X114394323Y-123819144D01*
X114271712Y-123845206D01*
X114265682Y-123847891D01*
X114265681Y-123847891D01*
X114103278Y-123920197D01*
X114103276Y-123920198D01*
X114097248Y-123922882D01*
X113942747Y-124035134D01*
X113938326Y-124040044D01*
X113938325Y-124040045D01*
X113837103Y-124152464D01*
X113776657Y-124189704D01*
X113705674Y-124188352D01*
X113646689Y-124148839D01*
X113618431Y-124083708D01*
X113623634Y-124029218D01*
X113667502Y-123894206D01*
X113669542Y-123887928D01*
X113674177Y-123843834D01*
X113688814Y-123704565D01*
X113689504Y-123698000D01*
X113669542Y-123508072D01*
X113610527Y-123326444D01*
X113515040Y-123161056D01*
X113469744Y-123110749D01*
X113391675Y-123024045D01*
X113391674Y-123024044D01*
X113387253Y-123019134D01*
X113232752Y-122906882D01*
X113226724Y-122904198D01*
X113226722Y-122904197D01*
X113064319Y-122831891D01*
X113064318Y-122831891D01*
X113058288Y-122829206D01*
X112945721Y-122805279D01*
X112877944Y-122790872D01*
X112877939Y-122790872D01*
X112871487Y-122789500D01*
X112683340Y-122789500D01*
X112615219Y-122769498D01*
X112568726Y-122715842D01*
X112559450Y-122640539D01*
X112564463Y-122613490D01*
X112564463Y-122613489D01*
X112565847Y-122606022D01*
X112562260Y-122543816D01*
X112562051Y-122536562D01*
X112562051Y-122124295D01*
X112582053Y-122056174D01*
X112586115Y-122050234D01*
X112588172Y-122047403D01*
X112592591Y-122042495D01*
X112636124Y-121967094D01*
X112684774Y-121882830D01*
X112684775Y-121882829D01*
X112688078Y-121877107D01*
X112747093Y-121695479D01*
X112761134Y-121561891D01*
X112766365Y-121512116D01*
X112767055Y-121505551D01*
X112756103Y-121401349D01*
X112747783Y-121322186D01*
X112747783Y-121322184D01*
X112747093Y-121315623D01*
X112688078Y-121133995D01*
X112680763Y-121121324D01*
X112634910Y-121041906D01*
X112592591Y-120968607D01*
X112583042Y-120958001D01*
X112469226Y-120831596D01*
X112469225Y-120831595D01*
X112464804Y-120826685D01*
X112342802Y-120738045D01*
X112315645Y-120718314D01*
X112315644Y-120718313D01*
X112310303Y-120714433D01*
X112304275Y-120711749D01*
X112304273Y-120711748D01*
X112141870Y-120639442D01*
X112141869Y-120639442D01*
X112135839Y-120636757D01*
X112042438Y-120616904D01*
X111955495Y-120598423D01*
X111955490Y-120598423D01*
X111949038Y-120597051D01*
X111758064Y-120597051D01*
X111751609Y-120598423D01*
X111751600Y-120598424D01*
X111693303Y-120610816D01*
X111622512Y-120605415D01*
X111565879Y-120562599D01*
X111541385Y-120495961D01*
X111549123Y-120443340D01*
X111560938Y-120411824D01*
X111587745Y-120340316D01*
X111594500Y-120278134D01*
X111594500Y-118481866D01*
X111587745Y-118419684D01*
X111536615Y-118283295D01*
X111449261Y-118166739D01*
X111332705Y-118079385D01*
X111196316Y-118028255D01*
X111134134Y-118021500D01*
X109337866Y-118021500D01*
X109275684Y-118028255D01*
X109139295Y-118079385D01*
X109041565Y-118152630D01*
X108975059Y-118177478D01*
X108905676Y-118162425D01*
X108890435Y-118152630D01*
X108792705Y-118079385D01*
X108656316Y-118028255D01*
X108594134Y-118021500D01*
X106797866Y-118021500D01*
X106735684Y-118028255D01*
X106599295Y-118079385D01*
X106482739Y-118166739D01*
X106395385Y-118283295D01*
X106344255Y-118419684D01*
X106337500Y-118481866D01*
X106337500Y-120278134D01*
X106337654Y-120279551D01*
X106321448Y-120348284D01*
X106270383Y-120397607D01*
X106211925Y-120411989D01*
X106086831Y-120411989D01*
X106018710Y-120391987D01*
X105997736Y-120375085D01*
X105754604Y-120131954D01*
X105748750Y-120125687D01*
X105715725Y-120087829D01*
X105715722Y-120087826D01*
X105710730Y-120082104D01*
X105658449Y-120045360D01*
X105653155Y-120041428D01*
X105608862Y-120006698D01*
X105602887Y-120002013D01*
X105595971Y-119998890D01*
X105593685Y-119997506D01*
X105579004Y-119989132D01*
X105576644Y-119987867D01*
X105570430Y-119983499D01*
X105563351Y-119980739D01*
X105563349Y-119980738D01*
X105510894Y-119960287D01*
X105504825Y-119957736D01*
X105446596Y-119931444D01*
X105439129Y-119930060D01*
X105436574Y-119929259D01*
X105420321Y-119924630D01*
X105417741Y-119923967D01*
X105410660Y-119921207D01*
X105403129Y-119920216D01*
X105403127Y-119920215D01*
X105373508Y-119916316D01*
X105347308Y-119912867D01*
X105340810Y-119911837D01*
X105277983Y-119900193D01*
X105270403Y-119900630D01*
X105270402Y-119900630D01*
X105215777Y-119903780D01*
X105208523Y-119903989D01*
X104206423Y-119903989D01*
X104197853Y-119903697D01*
X104147735Y-119900280D01*
X104147731Y-119900280D01*
X104140159Y-119899764D01*
X104132682Y-119901069D01*
X104132681Y-119901069D01*
X104115951Y-119903989D01*
X104077214Y-119910750D01*
X104070697Y-119911711D01*
X104007269Y-119919387D01*
X104000161Y-119922073D01*
X103997567Y-119922710D01*
X103981261Y-119927171D01*
X103978710Y-119927941D01*
X103971227Y-119929247D01*
X103964275Y-119932299D01*
X103964274Y-119932299D01*
X103912723Y-119954928D01*
X103906616Y-119957420D01*
X103857327Y-119976045D01*
X103846855Y-119980002D01*
X103840594Y-119984305D01*
X103838228Y-119985542D01*
X103823448Y-119993769D01*
X103821163Y-119995120D01*
X103814206Y-119998174D01*
X103808186Y-120002794D01*
X103808180Y-120002797D01*
X103788044Y-120018249D01*
X103763509Y-120037076D01*
X103758179Y-120040948D01*
X103711791Y-120072828D01*
X103711786Y-120072833D01*
X103705530Y-120077132D01*
X103700479Y-120082802D01*
X103700477Y-120082803D01*
X103664076Y-120123659D01*
X103659095Y-120128935D01*
X103311467Y-120476563D01*
X103248569Y-120510715D01*
X103095712Y-120543206D01*
X103089682Y-120545891D01*
X103089681Y-120545891D01*
X102927278Y-120618197D01*
X102927276Y-120618198D01*
X102921248Y-120620882D01*
X102915907Y-120624762D01*
X102915906Y-120624763D01*
X102881171Y-120650000D01*
X102766747Y-120733134D01*
X102762325Y-120738045D01*
X102757423Y-120742459D01*
X102756546Y-120741484D01*
X102702121Y-120775010D01*
X102631137Y-120773654D01*
X102579843Y-120742553D01*
X102280665Y-120443375D01*
X102246639Y-120381063D01*
X102244450Y-120367450D01*
X102240232Y-120327317D01*
X102240232Y-120327315D01*
X102239542Y-120320752D01*
X102225695Y-120278134D01*
X102182569Y-120145409D01*
X102180527Y-120139124D01*
X102176388Y-120131954D01*
X102112334Y-120021010D01*
X102085040Y-119973736D01*
X102072931Y-119960287D01*
X101961675Y-119836725D01*
X101961674Y-119836724D01*
X101957253Y-119831814D01*
X101832947Y-119741500D01*
X101808094Y-119723443D01*
X101808093Y-119723442D01*
X101802752Y-119719562D01*
X101796724Y-119716878D01*
X101796722Y-119716877D01*
X101634319Y-119644571D01*
X101634318Y-119644571D01*
X101628288Y-119641886D01*
X101534888Y-119622033D01*
X101447944Y-119603552D01*
X101447939Y-119603552D01*
X101441487Y-119602180D01*
X101250513Y-119602180D01*
X101244061Y-119603552D01*
X101244056Y-119603552D01*
X101157112Y-119622033D01*
X101063712Y-119641886D01*
X101057682Y-119644571D01*
X101057681Y-119644571D01*
X100895278Y-119716877D01*
X100895276Y-119716878D01*
X100889248Y-119719562D01*
X100883907Y-119723442D01*
X100883906Y-119723443D01*
X100859053Y-119741500D01*
X100734747Y-119831814D01*
X100730326Y-119836724D01*
X100730325Y-119836725D01*
X100619070Y-119960287D01*
X100606960Y-119973736D01*
X100579666Y-120021010D01*
X100515613Y-120131954D01*
X100511473Y-120139124D01*
X100452458Y-120320752D01*
X100432496Y-120510680D01*
X100433186Y-120517245D01*
X100450357Y-120680615D01*
X100452458Y-120700608D01*
X100511473Y-120882236D01*
X100514776Y-120887958D01*
X100514777Y-120887959D01*
X100524844Y-120905395D01*
X100606960Y-121047624D01*
X100611378Y-121052531D01*
X100611379Y-121052532D01*
X100665145Y-121112245D01*
X100734747Y-121189546D01*
X100779515Y-121222072D01*
X100870571Y-121288228D01*
X100889248Y-121301798D01*
X100895276Y-121304482D01*
X100895278Y-121304483D01*
X101057681Y-121376789D01*
X101063712Y-121379474D01*
X101200411Y-121408530D01*
X101216569Y-121411965D01*
X101279467Y-121446117D01*
X102228786Y-122395436D01*
X102262812Y-122457748D01*
X102257747Y-122528563D01*
X102215200Y-122585399D01*
X102148680Y-122610210D01*
X102139691Y-122610531D01*
X101566691Y-122610531D01*
X101498570Y-122590529D01*
X101477596Y-122573626D01*
X100248665Y-121344695D01*
X100214639Y-121282383D01*
X100212450Y-121268770D01*
X100208232Y-121228637D01*
X100207542Y-121222072D01*
X100191970Y-121174145D01*
X100167852Y-121099921D01*
X100148527Y-121040444D01*
X100053040Y-120875056D01*
X100027064Y-120846206D01*
X99929675Y-120738045D01*
X99929671Y-120738041D01*
X99925253Y-120733134D01*
X99810829Y-120650000D01*
X99776094Y-120624763D01*
X99776093Y-120624762D01*
X99770752Y-120620882D01*
X99764724Y-120618198D01*
X99764722Y-120618197D01*
X99602319Y-120545891D01*
X99602318Y-120545891D01*
X99596288Y-120543206D01*
X99502506Y-120523272D01*
X99415944Y-120504872D01*
X99415939Y-120504872D01*
X99409487Y-120503500D01*
X99218513Y-120503500D01*
X99212061Y-120504872D01*
X99212056Y-120504872D01*
X99125494Y-120523272D01*
X99031712Y-120543206D01*
X99025682Y-120545891D01*
X99025681Y-120545891D01*
X98863278Y-120618197D01*
X98863276Y-120618198D01*
X98857248Y-120620882D01*
X98851907Y-120624762D01*
X98851906Y-120624763D01*
X98817171Y-120650000D01*
X98702747Y-120733134D01*
X98645635Y-120796564D01*
X98585190Y-120833802D01*
X98514206Y-120832450D01*
X98458366Y-120796564D01*
X98401253Y-120733134D01*
X98286829Y-120650000D01*
X98252094Y-120624763D01*
X98252093Y-120624762D01*
X98246752Y-120620882D01*
X98240724Y-120618198D01*
X98240722Y-120618197D01*
X98078319Y-120545891D01*
X98078318Y-120545891D01*
X98072288Y-120543206D01*
X97978506Y-120523272D01*
X97891944Y-120504872D01*
X97891939Y-120504872D01*
X97885487Y-120503500D01*
X97694513Y-120503500D01*
X97688061Y-120504872D01*
X97688056Y-120504872D01*
X97601494Y-120523272D01*
X97507712Y-120543206D01*
X97501682Y-120545891D01*
X97501681Y-120545891D01*
X97339278Y-120618197D01*
X97339276Y-120618198D01*
X97333248Y-120620882D01*
X97327907Y-120624762D01*
X97327906Y-120624763D01*
X97293171Y-120650000D01*
X97178747Y-120733134D01*
X97174329Y-120738041D01*
X97174325Y-120738045D01*
X97076937Y-120846206D01*
X97050960Y-120875056D01*
X96955473Y-121040444D01*
X96952723Y-121048909D01*
X96942237Y-121081180D01*
X96902163Y-121139786D01*
X96836767Y-121167423D01*
X96766810Y-121155316D01*
X96733309Y-121131339D01*
X95771450Y-120169480D01*
X95765596Y-120163215D01*
X95765201Y-120162762D01*
X95727561Y-120119615D01*
X95675280Y-120082871D01*
X95669986Y-120078939D01*
X95625693Y-120044209D01*
X95619718Y-120039524D01*
X95612802Y-120036401D01*
X95610516Y-120035017D01*
X95595835Y-120026643D01*
X95593475Y-120025378D01*
X95587261Y-120021010D01*
X95580182Y-120018250D01*
X95580180Y-120018249D01*
X95538200Y-120001882D01*
X95527723Y-119997797D01*
X95521656Y-119995247D01*
X95463427Y-119968955D01*
X95455960Y-119967571D01*
X95453405Y-119966770D01*
X95437152Y-119962141D01*
X95434572Y-119961478D01*
X95427491Y-119958718D01*
X95419960Y-119957727D01*
X95419958Y-119957726D01*
X95390339Y-119953827D01*
X95364139Y-119950378D01*
X95357641Y-119949348D01*
X95294814Y-119937704D01*
X95287234Y-119938141D01*
X95287233Y-119938141D01*
X95232608Y-119941291D01*
X95225354Y-119941500D01*
X93321405Y-119941500D01*
X93253284Y-119921498D01*
X93247344Y-119917436D01*
X93172094Y-119862763D01*
X93172093Y-119862762D01*
X93166752Y-119858882D01*
X93160724Y-119856198D01*
X93160722Y-119856197D01*
X92998319Y-119783891D01*
X92998318Y-119783891D01*
X92992288Y-119781206D01*
X92898888Y-119761353D01*
X92811944Y-119742872D01*
X92811939Y-119742872D01*
X92805487Y-119741500D01*
X92614513Y-119741500D01*
X92608061Y-119742872D01*
X92608056Y-119742872D01*
X92521112Y-119761353D01*
X92427712Y-119781206D01*
X92421682Y-119783891D01*
X92421681Y-119783891D01*
X92259278Y-119856197D01*
X92259276Y-119856198D01*
X92253248Y-119858882D01*
X92098747Y-119971134D01*
X92094326Y-119976044D01*
X92094325Y-119976045D01*
X92041227Y-120035017D01*
X91970960Y-120113056D01*
X91875473Y-120278444D01*
X91816458Y-120460072D01*
X91815768Y-120466633D01*
X91815768Y-120466635D01*
X91807720Y-120543206D01*
X91796496Y-120650000D01*
X88294235Y-120650000D01*
X90074318Y-118869916D01*
X90136630Y-118835891D01*
X90163413Y-118833011D01*
X103578646Y-118833011D01*
X103592253Y-118833748D01*
X103623751Y-118837170D01*
X103623756Y-118837170D01*
X103629877Y-118837835D01*
X103656127Y-118835538D01*
X103679877Y-118833461D01*
X103684703Y-118833132D01*
X103687175Y-118833011D01*
X103690258Y-118833011D01*
X103702227Y-118831837D01*
X103732995Y-118828821D01*
X103734308Y-118828699D01*
X103778573Y-118824826D01*
X103826902Y-118820598D01*
X103832021Y-118819111D01*
X103837322Y-118818591D01*
X103926323Y-118791720D01*
X103927456Y-118791385D01*
X104010903Y-118767141D01*
X104010907Y-118767139D01*
X104016825Y-118765420D01*
X104021557Y-118762967D01*
X104026658Y-118761427D01*
X104044858Y-118751750D01*
X104108749Y-118717780D01*
X104109915Y-118717168D01*
X104186942Y-118677240D01*
X104192415Y-118674403D01*
X104196578Y-118671080D01*
X104201285Y-118668577D01*
X104273407Y-118609756D01*
X104274263Y-118609065D01*
X104313462Y-118577773D01*
X104315966Y-118575269D01*
X104316684Y-118574627D01*
X104321017Y-118570926D01*
X104354551Y-118543576D01*
X104383777Y-118508248D01*
X104391766Y-118499469D01*
X105224453Y-117666782D01*
X105286765Y-117632756D01*
X105297532Y-117630899D01*
X105393034Y-117618665D01*
X105468289Y-117609025D01*
X105468292Y-117609024D01*
X105473416Y-117608368D01*
X105478366Y-117606883D01*
X105682429Y-117545661D01*
X105682434Y-117545659D01*
X105687384Y-117544174D01*
X105887994Y-117445896D01*
X106069860Y-117316173D01*
X106228096Y-117158489D01*
X106358453Y-116977077D01*
X106359776Y-116978028D01*
X106406645Y-116934857D01*
X106476580Y-116922625D01*
X106542026Y-116950144D01*
X106569875Y-116981994D01*
X106629987Y-117080088D01*
X106776250Y-117248938D01*
X106948126Y-117391632D01*
X107141000Y-117504338D01*
X107349692Y-117584030D01*
X107354760Y-117585061D01*
X107354763Y-117585062D01*
X107449862Y-117604410D01*
X107568597Y-117628567D01*
X107573772Y-117628757D01*
X107573774Y-117628757D01*
X107786673Y-117636564D01*
X107786677Y-117636564D01*
X107791837Y-117636753D01*
X107796957Y-117636097D01*
X107796959Y-117636097D01*
X108008288Y-117609025D01*
X108008289Y-117609025D01*
X108013416Y-117608368D01*
X108018366Y-117606883D01*
X108222429Y-117545661D01*
X108222434Y-117545659D01*
X108227384Y-117544174D01*
X108427994Y-117445896D01*
X108609860Y-117316173D01*
X108768096Y-117158489D01*
X108898453Y-116977077D01*
X108899776Y-116978028D01*
X108946645Y-116934857D01*
X109016580Y-116922625D01*
X109082026Y-116950144D01*
X109109875Y-116981994D01*
X109169987Y-117080088D01*
X109316250Y-117248938D01*
X109488126Y-117391632D01*
X109681000Y-117504338D01*
X109889692Y-117584030D01*
X109894760Y-117585061D01*
X109894763Y-117585062D01*
X109989862Y-117604410D01*
X110108597Y-117628567D01*
X110113772Y-117628757D01*
X110113774Y-117628757D01*
X110326673Y-117636564D01*
X110326677Y-117636564D01*
X110331837Y-117636753D01*
X110336957Y-117636097D01*
X110336959Y-117636097D01*
X110548288Y-117609025D01*
X110548289Y-117609025D01*
X110553416Y-117608368D01*
X110558366Y-117606883D01*
X110762429Y-117545661D01*
X110762434Y-117545659D01*
X110767384Y-117544174D01*
X110967994Y-117445896D01*
X111149860Y-117316173D01*
X111308096Y-117158489D01*
X111438453Y-116977077D01*
X111439776Y-116978028D01*
X111486645Y-116934857D01*
X111556580Y-116922625D01*
X111622026Y-116950144D01*
X111649875Y-116981994D01*
X111709987Y-117080088D01*
X111856250Y-117248938D01*
X112028126Y-117391632D01*
X112221000Y-117504338D01*
X112429692Y-117584030D01*
X112434760Y-117585061D01*
X112434763Y-117585062D01*
X112529862Y-117604410D01*
X112648597Y-117628567D01*
X112653772Y-117628757D01*
X112653774Y-117628757D01*
X112866673Y-117636564D01*
X112866677Y-117636564D01*
X112871837Y-117636753D01*
X112876957Y-117636097D01*
X112876959Y-117636097D01*
X113088288Y-117609025D01*
X113088289Y-117609025D01*
X113093416Y-117608368D01*
X113098366Y-117606883D01*
X113302429Y-117545661D01*
X113302434Y-117545659D01*
X113307384Y-117544174D01*
X113507994Y-117445896D01*
X113689860Y-117316173D01*
X113848096Y-117158489D01*
X113978453Y-116977077D01*
X113979640Y-116977930D01*
X114026960Y-116934362D01*
X114096897Y-116922145D01*
X114162338Y-116949678D01*
X114190166Y-116981511D01*
X114247694Y-117075388D01*
X114253777Y-117083699D01*
X114393213Y-117244667D01*
X114400580Y-117251883D01*
X114564434Y-117387916D01*
X114572881Y-117393831D01*
X114756756Y-117501279D01*
X114766042Y-117505729D01*
X114965001Y-117581703D01*
X114974899Y-117584579D01*
X115078250Y-117605606D01*
X115092299Y-117604410D01*
X115096000Y-117594065D01*
X115096000Y-116147000D01*
X115116002Y-116078879D01*
X115169658Y-116032386D01*
X115222000Y-116021000D01*
X115478000Y-116021000D01*
X115546121Y-116041002D01*
X115592614Y-116094658D01*
X115604000Y-116147000D01*
X115604000Y-117593517D01*
X115608064Y-117607359D01*
X115621478Y-117609393D01*
X115628184Y-117608534D01*
X115638262Y-117606392D01*
X115842255Y-117545191D01*
X115851842Y-117541433D01*
X116043095Y-117447739D01*
X116051945Y-117442464D01*
X116225328Y-117318792D01*
X116233200Y-117312139D01*
X116384052Y-117161812D01*
X116390730Y-117153965D01*
X116518022Y-116976819D01*
X116519279Y-116977722D01*
X116566373Y-116934362D01*
X116636311Y-116922145D01*
X116701751Y-116949678D01*
X116729579Y-116981511D01*
X116789987Y-117080088D01*
X116936250Y-117248938D01*
X117108126Y-117391632D01*
X117301000Y-117504338D01*
X117509692Y-117584030D01*
X117514760Y-117585061D01*
X117514763Y-117585062D01*
X117609862Y-117604410D01*
X117728597Y-117628567D01*
X117733772Y-117628757D01*
X117733774Y-117628757D01*
X117946673Y-117636564D01*
X117946677Y-117636564D01*
X117951837Y-117636753D01*
X117956957Y-117636097D01*
X117956959Y-117636097D01*
X118168288Y-117609025D01*
X118168289Y-117609025D01*
X118173416Y-117608368D01*
X118178366Y-117606883D01*
X118382429Y-117545661D01*
X118382434Y-117545659D01*
X118387384Y-117544174D01*
X118587994Y-117445896D01*
X118769860Y-117316173D01*
X118928096Y-117158489D01*
X119058453Y-116977077D01*
X119059776Y-116978028D01*
X119106645Y-116934857D01*
X119176580Y-116922625D01*
X119242026Y-116950144D01*
X119269875Y-116981994D01*
X119329987Y-117080088D01*
X119476250Y-117248938D01*
X119648126Y-117391632D01*
X119841000Y-117504338D01*
X120049692Y-117584030D01*
X120054760Y-117585061D01*
X120054763Y-117585062D01*
X120149862Y-117604410D01*
X120268597Y-117628567D01*
X120273772Y-117628757D01*
X120273774Y-117628757D01*
X120486673Y-117636564D01*
X120486677Y-117636564D01*
X120491837Y-117636753D01*
X120496957Y-117636097D01*
X120496959Y-117636097D01*
X120708288Y-117609025D01*
X120708289Y-117609025D01*
X120713416Y-117608368D01*
X120720003Y-117606392D01*
X120791098Y-117585062D01*
X120849782Y-117567456D01*
X120920777Y-117567039D01*
X120980727Y-117605072D01*
X121010599Y-117669478D01*
X121011989Y-117688142D01*
X121011989Y-120738767D01*
X120991987Y-120806888D01*
X120987925Y-120812828D01*
X120985868Y-120815659D01*
X120981449Y-120820567D01*
X120978148Y-120826285D01*
X120978147Y-120826286D01*
X120892677Y-120974325D01*
X120885962Y-120985955D01*
X120826947Y-121167583D01*
X120826258Y-121174142D01*
X120826257Y-121174145D01*
X120809278Y-121335693D01*
X120782265Y-121401349D01*
X120724043Y-121441979D01*
X120683968Y-121448522D01*
X118663905Y-121448522D01*
X118655336Y-121448230D01*
X118605203Y-121444812D01*
X118605199Y-121444812D01*
X118597626Y-121444296D01*
X118534659Y-121455286D01*
X118528147Y-121456246D01*
X118464736Y-121463920D01*
X118457635Y-121466603D01*
X118455026Y-121467244D01*
X118438693Y-121471713D01*
X118436172Y-121472474D01*
X118428695Y-121473779D01*
X118421749Y-121476828D01*
X118421746Y-121476829D01*
X118370189Y-121499461D01*
X118364083Y-121501952D01*
X118339173Y-121511365D01*
X118294634Y-121519500D01*
X118268513Y-121519500D01*
X118262061Y-121520872D01*
X118262056Y-121520872D01*
X118198541Y-121534373D01*
X118081712Y-121559206D01*
X118075682Y-121561891D01*
X118075681Y-121561891D01*
X117913278Y-121634197D01*
X117913276Y-121634198D01*
X117907248Y-121636882D01*
X117901907Y-121640762D01*
X117901906Y-121640763D01*
X117851843Y-121677136D01*
X117752747Y-121749134D01*
X117748326Y-121754044D01*
X117748325Y-121754045D01*
X117714375Y-121791751D01*
X117624960Y-121891056D01*
X117529473Y-122056444D01*
X117470458Y-122238072D01*
X117450496Y-122428000D01*
X117451186Y-122434565D01*
X117469681Y-122610531D01*
X117470458Y-122617928D01*
X117529473Y-122799556D01*
X117624960Y-122964944D01*
X117629378Y-122969851D01*
X117629379Y-122969852D01*
X117673753Y-123019134D01*
X117752747Y-123106866D01*
X117907248Y-123219118D01*
X117913276Y-123221802D01*
X117913278Y-123221803D01*
X118075681Y-123294109D01*
X118081712Y-123296794D01*
X118175113Y-123316647D01*
X118262056Y-123335128D01*
X118262061Y-123335128D01*
X118268513Y-123336500D01*
X118459487Y-123336500D01*
X118465939Y-123335128D01*
X118465944Y-123335128D01*
X118552887Y-123316647D01*
X118646288Y-123296794D01*
X118652319Y-123294109D01*
X118814722Y-123221803D01*
X118814724Y-123221802D01*
X118820752Y-123219118D01*
X118975253Y-123106866D01*
X119054247Y-123019134D01*
X119098621Y-122969852D01*
X119098622Y-122969851D01*
X119103040Y-122964944D01*
X119124068Y-122928522D01*
X119175450Y-122879529D01*
X119233187Y-122865522D01*
X130943617Y-122865522D01*
X131011738Y-122885524D01*
X131017678Y-122889586D01*
X131098270Y-122948140D01*
X131104298Y-122950824D01*
X131104300Y-122950825D01*
X131257726Y-123019134D01*
X131272734Y-123025816D01*
X131366134Y-123045669D01*
X131453078Y-123064150D01*
X131453083Y-123064150D01*
X131459535Y-123065522D01*
X131650509Y-123065522D01*
X131656961Y-123064150D01*
X131656966Y-123064150D01*
X131743910Y-123045669D01*
X131837310Y-123025816D01*
X131852318Y-123019134D01*
X132005744Y-122950825D01*
X132005746Y-122950824D01*
X132011774Y-122948140D01*
X132038775Y-122928523D01*
X132097957Y-122885524D01*
X132166275Y-122835888D01*
X132170697Y-122830977D01*
X132289643Y-122698874D01*
X132289644Y-122698873D01*
X132294062Y-122693966D01*
X132356743Y-122585399D01*
X132386245Y-122534301D01*
X132386246Y-122534300D01*
X132389549Y-122528578D01*
X132448564Y-122346950D01*
X132468526Y-122157022D01*
X132457927Y-122056174D01*
X132449254Y-121973657D01*
X132449254Y-121973655D01*
X132448564Y-121967094D01*
X132389549Y-121785466D01*
X132294062Y-121620078D01*
X132210732Y-121527530D01*
X132170697Y-121483067D01*
X132170696Y-121483066D01*
X132166275Y-121478156D01*
X132053895Y-121396507D01*
X132017116Y-121369785D01*
X132017115Y-121369784D01*
X132011774Y-121365904D01*
X132005746Y-121363220D01*
X132005744Y-121363219D01*
X131843341Y-121290913D01*
X131843340Y-121290913D01*
X131837310Y-121288228D01*
X131743910Y-121268375D01*
X131656966Y-121249894D01*
X131656961Y-121249894D01*
X131650509Y-121248522D01*
X131459535Y-121248522D01*
X131453083Y-121249894D01*
X131453078Y-121249894D01*
X131366134Y-121268375D01*
X131272734Y-121288228D01*
X131266704Y-121290913D01*
X131266703Y-121290913D01*
X131104300Y-121363219D01*
X131104298Y-121363220D01*
X131098270Y-121365904D01*
X131092929Y-121369784D01*
X131092928Y-121369785D01*
X131017678Y-121424458D01*
X130950811Y-121448316D01*
X130943617Y-121448522D01*
X122757010Y-121448522D01*
X122688889Y-121428520D01*
X122642396Y-121374864D01*
X122631700Y-121335693D01*
X122614721Y-121174145D01*
X122614720Y-121174142D01*
X122614031Y-121167583D01*
X122555016Y-120985955D01*
X122548302Y-120974325D01*
X122462831Y-120826286D01*
X122462830Y-120826285D01*
X122459529Y-120820567D01*
X122455110Y-120815659D01*
X122453053Y-120812828D01*
X122429194Y-120745960D01*
X122428989Y-120738767D01*
X122428989Y-117704716D01*
X122448991Y-117636595D01*
X122502647Y-117590102D01*
X122572921Y-117579998D01*
X122587233Y-117583091D01*
X122589692Y-117584030D01*
X122594758Y-117585061D01*
X122594759Y-117585061D01*
X122636322Y-117593517D01*
X122808597Y-117628567D01*
X122813772Y-117628757D01*
X122813774Y-117628757D01*
X123026673Y-117636564D01*
X123026677Y-117636564D01*
X123031837Y-117636753D01*
X123036957Y-117636097D01*
X123036959Y-117636097D01*
X123248288Y-117609025D01*
X123248289Y-117609025D01*
X123253416Y-117608368D01*
X123258366Y-117606883D01*
X123462429Y-117545661D01*
X123462434Y-117545659D01*
X123467384Y-117544174D01*
X123667994Y-117445896D01*
X123849860Y-117316173D01*
X124008096Y-117158489D01*
X124138453Y-116977077D01*
X124139776Y-116978028D01*
X124186645Y-116934857D01*
X124256580Y-116922625D01*
X124322026Y-116950144D01*
X124349875Y-116981994D01*
X124409987Y-117080088D01*
X124556250Y-117248938D01*
X124728126Y-117391632D01*
X124921000Y-117504338D01*
X125129692Y-117584030D01*
X125134760Y-117585061D01*
X125134763Y-117585062D01*
X125229862Y-117604410D01*
X125348597Y-117628567D01*
X125353772Y-117628757D01*
X125353774Y-117628757D01*
X125566673Y-117636564D01*
X125566677Y-117636564D01*
X125571837Y-117636753D01*
X125576957Y-117636097D01*
X125576959Y-117636097D01*
X125788288Y-117609025D01*
X125788289Y-117609025D01*
X125793416Y-117608368D01*
X125800003Y-117606392D01*
X125871098Y-117585062D01*
X125929782Y-117567456D01*
X126000777Y-117567039D01*
X126060727Y-117605072D01*
X126090599Y-117669478D01*
X126091989Y-117688142D01*
X126091989Y-118198767D01*
X126071987Y-118266888D01*
X126067925Y-118272828D01*
X126065868Y-118275659D01*
X126061449Y-118280567D01*
X126058148Y-118286285D01*
X126058147Y-118286286D01*
X125981130Y-118419684D01*
X125965962Y-118445955D01*
X125906947Y-118627583D01*
X125906257Y-118634144D01*
X125906257Y-118634146D01*
X125892518Y-118764867D01*
X125886985Y-118817511D01*
X125887675Y-118824076D01*
X125904855Y-118987530D01*
X125906947Y-119007439D01*
X125965962Y-119189067D01*
X126061449Y-119354455D01*
X126189236Y-119496377D01*
X126288332Y-119568375D01*
X126334861Y-119602180D01*
X126343737Y-119608629D01*
X126349765Y-119611313D01*
X126349767Y-119611314D01*
X126424464Y-119644571D01*
X126518201Y-119686305D01*
X126611601Y-119706158D01*
X126698545Y-119724639D01*
X126698550Y-119724639D01*
X126705002Y-119726011D01*
X126895976Y-119726011D01*
X126902428Y-119724639D01*
X126902433Y-119724639D01*
X126989377Y-119706158D01*
X127082777Y-119686305D01*
X127176514Y-119644571D01*
X127251211Y-119611314D01*
X127251213Y-119611313D01*
X127257241Y-119608629D01*
X127266118Y-119602180D01*
X127312646Y-119568375D01*
X127411742Y-119496377D01*
X127539529Y-119354455D01*
X127635016Y-119189067D01*
X127694031Y-119007439D01*
X127696124Y-118987530D01*
X127713303Y-118824076D01*
X127713993Y-118817511D01*
X127708460Y-118764867D01*
X127694721Y-118634146D01*
X127694721Y-118634144D01*
X127694031Y-118627583D01*
X127635016Y-118445955D01*
X127619849Y-118419684D01*
X127542831Y-118286286D01*
X127542830Y-118286285D01*
X127539529Y-118280567D01*
X127535110Y-118275659D01*
X127533053Y-118272828D01*
X127509194Y-118205960D01*
X127508989Y-118198767D01*
X127508989Y-117704716D01*
X127528991Y-117636595D01*
X127582647Y-117590102D01*
X127652921Y-117579998D01*
X127667233Y-117583091D01*
X127669692Y-117584030D01*
X127674758Y-117585061D01*
X127674759Y-117585061D01*
X127716322Y-117593517D01*
X127888597Y-117628567D01*
X127893772Y-117628757D01*
X127893774Y-117628757D01*
X128106673Y-117636564D01*
X128106677Y-117636564D01*
X128111837Y-117636753D01*
X128116957Y-117636097D01*
X128116959Y-117636097D01*
X128328288Y-117609025D01*
X128328289Y-117609025D01*
X128333416Y-117608368D01*
X128338366Y-117606883D01*
X128542429Y-117545661D01*
X128542434Y-117545659D01*
X128547384Y-117544174D01*
X128747994Y-117445896D01*
X128929860Y-117316173D01*
X129088096Y-117158489D01*
X129218453Y-116977077D01*
X129219776Y-116978028D01*
X129266645Y-116934857D01*
X129336580Y-116922625D01*
X129402026Y-116950144D01*
X129429875Y-116981994D01*
X129489987Y-117080088D01*
X129636250Y-117248938D01*
X129808126Y-117391632D01*
X130001000Y-117504338D01*
X130209692Y-117584030D01*
X130214760Y-117585061D01*
X130214763Y-117585062D01*
X130309862Y-117604410D01*
X130428597Y-117628567D01*
X130433772Y-117628757D01*
X130433774Y-117628757D01*
X130646673Y-117636564D01*
X130646677Y-117636564D01*
X130651837Y-117636753D01*
X130656957Y-117636097D01*
X130656959Y-117636097D01*
X130868288Y-117609025D01*
X130868289Y-117609025D01*
X130873416Y-117608368D01*
X130878366Y-117606883D01*
X131082429Y-117545661D01*
X131082434Y-117545659D01*
X131087384Y-117544174D01*
X131287994Y-117445896D01*
X131469860Y-117316173D01*
X131628096Y-117158489D01*
X131758453Y-116977077D01*
X131759640Y-116977930D01*
X131806960Y-116934362D01*
X131876897Y-116922145D01*
X131942338Y-116949678D01*
X131970166Y-116981511D01*
X132027694Y-117075388D01*
X132033777Y-117083699D01*
X132173213Y-117244667D01*
X132180580Y-117251883D01*
X132344434Y-117387916D01*
X132352881Y-117393831D01*
X132536756Y-117501279D01*
X132546042Y-117505729D01*
X132745001Y-117581703D01*
X132754899Y-117584579D01*
X132858250Y-117605606D01*
X132872299Y-117604410D01*
X132876000Y-117594065D01*
X132876000Y-117593517D01*
X133384000Y-117593517D01*
X133388064Y-117607359D01*
X133401478Y-117609393D01*
X133408184Y-117608534D01*
X133418262Y-117606392D01*
X133622255Y-117545191D01*
X133631842Y-117541433D01*
X133823095Y-117447739D01*
X133831945Y-117442464D01*
X134005328Y-117318792D01*
X134013200Y-117312139D01*
X134164052Y-117161812D01*
X134170730Y-117153965D01*
X134295003Y-116981020D01*
X134300313Y-116972183D01*
X134394670Y-116781267D01*
X134398469Y-116771672D01*
X134460377Y-116567910D01*
X134462555Y-116557837D01*
X134463986Y-116546962D01*
X134461775Y-116532778D01*
X134448617Y-116529000D01*
X133402115Y-116529000D01*
X133386876Y-116533475D01*
X133385671Y-116534865D01*
X133384000Y-116542548D01*
X133384000Y-117593517D01*
X132876000Y-117593517D01*
X132876000Y-116147000D01*
X132896002Y-116078879D01*
X132949658Y-116032386D01*
X133002000Y-116021000D01*
X134448344Y-116021000D01*
X134461875Y-116017027D01*
X134463180Y-116007947D01*
X134421214Y-115840875D01*
X134417894Y-115831124D01*
X134332972Y-115635814D01*
X134328105Y-115626739D01*
X134212426Y-115447926D01*
X134206136Y-115439757D01*
X134062806Y-115282240D01*
X134055273Y-115275215D01*
X133888139Y-115143222D01*
X133879556Y-115137520D01*
X133842602Y-115117120D01*
X133792631Y-115066687D01*
X133787438Y-115042277D01*
X136137009Y-115042277D01*
X136162625Y-115310769D01*
X136163710Y-115315203D01*
X136163711Y-115315209D01*
X136225645Y-115568312D01*
X136226731Y-115572750D01*
X136327985Y-115822733D01*
X136464265Y-116055482D01*
X136576377Y-116195671D01*
X136613184Y-116241695D01*
X136632716Y-116266119D01*
X136829809Y-116450234D01*
X137051416Y-116603968D01*
X137055499Y-116605999D01*
X137055502Y-116606001D01*
X137171013Y-116663466D01*
X137292894Y-116724101D01*
X137297228Y-116725522D01*
X137297231Y-116725523D01*
X137544853Y-116806698D01*
X137544859Y-116806699D01*
X137549186Y-116808118D01*
X137553677Y-116808898D01*
X137553678Y-116808898D01*
X137811140Y-116853601D01*
X137811148Y-116853602D01*
X137814921Y-116854257D01*
X137818758Y-116854448D01*
X137898578Y-116858422D01*
X137898586Y-116858422D01*
X137900149Y-116858500D01*
X138068512Y-116858500D01*
X138070780Y-116858335D01*
X138070792Y-116858335D01*
X138201884Y-116848823D01*
X138269004Y-116843953D01*
X138273459Y-116842969D01*
X138273462Y-116842969D01*
X138527912Y-116786791D01*
X138527916Y-116786790D01*
X138532372Y-116785806D01*
X138658480Y-116738028D01*
X138780318Y-116691868D01*
X138780321Y-116691867D01*
X138784588Y-116690250D01*
X139020368Y-116559286D01*
X139127570Y-116477472D01*
X139231141Y-116398429D01*
X139231142Y-116398428D01*
X139234773Y-116395657D01*
X139423312Y-116202792D01*
X139582034Y-115984730D01*
X139665190Y-115826676D01*
X139705490Y-115750079D01*
X139705493Y-115750073D01*
X139707615Y-115746039D01*
X139749215Y-115628240D01*
X139795902Y-115496033D01*
X139795902Y-115496032D01*
X139797425Y-115491720D01*
X139832215Y-115315209D01*
X139848700Y-115231572D01*
X139848701Y-115231566D01*
X139849581Y-115227100D01*
X139852011Y-115178295D01*
X139862764Y-114962292D01*
X139862764Y-114962286D01*
X139862991Y-114957723D01*
X139837375Y-114689231D01*
X139827103Y-114647250D01*
X139774355Y-114431688D01*
X139773269Y-114427250D01*
X139672015Y-114177267D01*
X139535735Y-113944518D01*
X139417928Y-113797208D01*
X139370136Y-113737447D01*
X139370135Y-113737445D01*
X139367284Y-113733881D01*
X139170191Y-113549766D01*
X138948584Y-113396032D01*
X138944501Y-113394001D01*
X138944498Y-113393999D01*
X138779606Y-113311967D01*
X138707106Y-113275899D01*
X138702772Y-113274478D01*
X138702769Y-113274477D01*
X138455147Y-113193302D01*
X138455141Y-113193301D01*
X138450814Y-113191882D01*
X138446322Y-113191102D01*
X138188860Y-113146399D01*
X138188852Y-113146398D01*
X138185079Y-113145743D01*
X138173817Y-113145182D01*
X138101422Y-113141578D01*
X138101414Y-113141578D01*
X138099851Y-113141500D01*
X137931488Y-113141500D01*
X137929220Y-113141665D01*
X137929208Y-113141665D01*
X137798116Y-113151177D01*
X137730996Y-113156047D01*
X137726541Y-113157031D01*
X137726538Y-113157031D01*
X137472088Y-113213209D01*
X137472084Y-113213210D01*
X137467628Y-113214194D01*
X137382606Y-113246406D01*
X137219682Y-113308132D01*
X137219679Y-113308133D01*
X137215412Y-113309750D01*
X136979632Y-113440714D01*
X136765227Y-113604343D01*
X136576688Y-113797208D01*
X136417966Y-114015270D01*
X136397682Y-114053824D01*
X136294510Y-114249921D01*
X136294507Y-114249927D01*
X136292385Y-114253961D01*
X136290865Y-114258266D01*
X136290863Y-114258270D01*
X136227492Y-114437722D01*
X136202575Y-114508280D01*
X136181745Y-114613965D01*
X136156214Y-114743500D01*
X136150419Y-114772900D01*
X136150192Y-114777453D01*
X136150192Y-114777456D01*
X136137298Y-115036477D01*
X136137009Y-115042277D01*
X133787438Y-115042277D01*
X133777859Y-114997245D01*
X133802975Y-114930839D01*
X133830327Y-114904232D01*
X133853797Y-114887491D01*
X134009860Y-114776173D01*
X134022576Y-114763502D01*
X134101562Y-114684791D01*
X134168096Y-114618489D01*
X134227594Y-114535689D01*
X134295435Y-114441277D01*
X134298453Y-114437077D01*
X134301117Y-114431688D01*
X134395136Y-114241453D01*
X134395137Y-114241451D01*
X134397430Y-114236811D01*
X134462370Y-114023069D01*
X134491529Y-113801590D01*
X134493156Y-113735000D01*
X134474852Y-113512361D01*
X134420431Y-113295702D01*
X134331354Y-113090840D01*
X134210014Y-112903277D01*
X134059670Y-112738051D01*
X134055259Y-112734568D01*
X134053124Y-112732881D01*
X134052381Y-112731833D01*
X134051833Y-112731322D01*
X134051938Y-112731209D01*
X134012062Y-112674964D01*
X134008830Y-112604041D01*
X134044456Y-112542630D01*
X134107627Y-112510228D01*
X134131217Y-112508000D01*
X137950672Y-112508000D01*
X137970057Y-112509500D01*
G37*
G04 #@! TD.AperFunction*
G04 #@! TA.AperFunction,Conductor*
G36*
X93842026Y-114410144D02*
G01*
X93869875Y-114441994D01*
X93929987Y-114540088D01*
X94076250Y-114708938D01*
X94248126Y-114851632D01*
X94263083Y-114860372D01*
X94321955Y-114894774D01*
X94370679Y-114946412D01*
X94383750Y-115016195D01*
X94357019Y-115081967D01*
X94316562Y-115115327D01*
X94308457Y-115119546D01*
X94299738Y-115125036D01*
X94129433Y-115252905D01*
X94121726Y-115259748D01*
X93974590Y-115413717D01*
X93968109Y-115421722D01*
X93863498Y-115575074D01*
X93808587Y-115620076D01*
X93738062Y-115628247D01*
X93674315Y-115596993D01*
X93653618Y-115572509D01*
X93572822Y-115447617D01*
X93572820Y-115447614D01*
X93570014Y-115443277D01*
X93419670Y-115278051D01*
X93415619Y-115274852D01*
X93415615Y-115274848D01*
X93248414Y-115142800D01*
X93248410Y-115142798D01*
X93244359Y-115139598D01*
X93203053Y-115116796D01*
X93153084Y-115066364D01*
X93138312Y-114996921D01*
X93163428Y-114930516D01*
X93190780Y-114903909D01*
X93251817Y-114860372D01*
X93369860Y-114776173D01*
X93382576Y-114763502D01*
X93461562Y-114684791D01*
X93528096Y-114618489D01*
X93587594Y-114535689D01*
X93658453Y-114437077D01*
X93659776Y-114438028D01*
X93706645Y-114394857D01*
X93776580Y-114382625D01*
X93842026Y-114410144D01*
G37*
G04 #@! TD.AperFunction*
G04 #@! TA.AperFunction,Conductor*
G36*
X96382026Y-114410144D02*
G01*
X96409875Y-114441994D01*
X96469987Y-114540088D01*
X96616250Y-114708938D01*
X96788126Y-114851632D01*
X96803083Y-114860372D01*
X96861445Y-114894476D01*
X96910169Y-114946114D01*
X96923240Y-115015897D01*
X96896509Y-115081669D01*
X96856055Y-115115027D01*
X96843607Y-115121507D01*
X96839474Y-115124610D01*
X96839471Y-115124612D01*
X96669100Y-115252530D01*
X96664965Y-115255635D01*
X96661393Y-115259373D01*
X96553729Y-115372037D01*
X96510629Y-115417138D01*
X96403204Y-115574618D01*
X96402898Y-115575066D01*
X96347987Y-115620069D01*
X96277462Y-115628240D01*
X96213715Y-115596986D01*
X96193018Y-115572502D01*
X96112426Y-115447926D01*
X96106136Y-115439757D01*
X95962806Y-115282240D01*
X95955273Y-115275215D01*
X95788139Y-115143222D01*
X95779556Y-115137520D01*
X95742602Y-115117120D01*
X95692631Y-115066687D01*
X95677859Y-114997245D01*
X95702975Y-114930839D01*
X95730327Y-114904232D01*
X95753797Y-114887491D01*
X95909860Y-114776173D01*
X95922576Y-114763502D01*
X96001562Y-114684791D01*
X96068096Y-114618489D01*
X96127594Y-114535689D01*
X96198453Y-114437077D01*
X96199776Y-114438028D01*
X96246645Y-114394857D01*
X96316580Y-114382625D01*
X96382026Y-114410144D01*
G37*
G04 #@! TD.AperFunction*
G04 #@! TA.AperFunction,Conductor*
G36*
X91301751Y-114409678D02*
G01*
X91329579Y-114441511D01*
X91389987Y-114540088D01*
X91536250Y-114708938D01*
X91708126Y-114851632D01*
X91723083Y-114860372D01*
X91781445Y-114894476D01*
X91830169Y-114946114D01*
X91843240Y-115015897D01*
X91816509Y-115081669D01*
X91776055Y-115115027D01*
X91763607Y-115121507D01*
X91759474Y-115124610D01*
X91759471Y-115124612D01*
X91589100Y-115252530D01*
X91584965Y-115255635D01*
X91581393Y-115259373D01*
X91473729Y-115372037D01*
X91430629Y-115417138D01*
X91323201Y-115574621D01*
X91268293Y-115619621D01*
X91197768Y-115627792D01*
X91134021Y-115596538D01*
X91113324Y-115572054D01*
X91032822Y-115447617D01*
X91032820Y-115447614D01*
X91030014Y-115443277D01*
X90879670Y-115278051D01*
X90875619Y-115274852D01*
X90875615Y-115274848D01*
X90708414Y-115142800D01*
X90708410Y-115142798D01*
X90704359Y-115139598D01*
X90662569Y-115116529D01*
X90612598Y-115066097D01*
X90597826Y-114996654D01*
X90622942Y-114930248D01*
X90650294Y-114903641D01*
X90825328Y-114778792D01*
X90833200Y-114772139D01*
X90984052Y-114621812D01*
X90990730Y-114613965D01*
X91118022Y-114436819D01*
X91119279Y-114437722D01*
X91166373Y-114394362D01*
X91236311Y-114382145D01*
X91301751Y-114409678D01*
G37*
G04 #@! TD.AperFunction*
G04 #@! TA.AperFunction,Conductor*
G36*
X106542338Y-114409678D02*
G01*
X106570166Y-114441511D01*
X106627694Y-114535388D01*
X106633777Y-114543699D01*
X106773213Y-114704667D01*
X106780580Y-114711883D01*
X106944434Y-114847916D01*
X106952881Y-114853831D01*
X107021969Y-114894203D01*
X107070693Y-114945842D01*
X107083764Y-115015625D01*
X107057033Y-115081396D01*
X107016584Y-115114752D01*
X107003607Y-115121507D01*
X106999474Y-115124610D01*
X106999471Y-115124612D01*
X106829100Y-115252530D01*
X106824965Y-115255635D01*
X106821393Y-115259373D01*
X106713729Y-115372037D01*
X106670629Y-115417138D01*
X106563201Y-115574621D01*
X106508293Y-115619621D01*
X106437768Y-115627792D01*
X106374021Y-115596538D01*
X106353324Y-115572054D01*
X106272822Y-115447617D01*
X106272820Y-115447614D01*
X106270014Y-115443277D01*
X106119670Y-115278051D01*
X106115619Y-115274852D01*
X106115615Y-115274848D01*
X105948414Y-115142800D01*
X105948410Y-115142798D01*
X105944359Y-115139598D01*
X105903053Y-115116796D01*
X105853084Y-115066364D01*
X105838312Y-114996921D01*
X105863428Y-114930516D01*
X105890780Y-114903909D01*
X105951817Y-114860372D01*
X106069860Y-114776173D01*
X106082576Y-114763502D01*
X106161562Y-114684791D01*
X106228096Y-114618489D01*
X106287594Y-114535689D01*
X106358453Y-114437077D01*
X106359640Y-114437930D01*
X106406960Y-114394362D01*
X106476897Y-114382145D01*
X106542338Y-114409678D01*
G37*
G04 #@! TD.AperFunction*
G04 #@! TA.AperFunction,Conductor*
G36*
X98922338Y-114409678D02*
G01*
X98950166Y-114441511D01*
X99007694Y-114535388D01*
X99013777Y-114543699D01*
X99153213Y-114704667D01*
X99160580Y-114711883D01*
X99324434Y-114847916D01*
X99332881Y-114853831D01*
X99401969Y-114894203D01*
X99450693Y-114945842D01*
X99463764Y-115015625D01*
X99437033Y-115081396D01*
X99396584Y-115114752D01*
X99383607Y-115121507D01*
X99379474Y-115124610D01*
X99379471Y-115124612D01*
X99209100Y-115252530D01*
X99204965Y-115255635D01*
X99201393Y-115259373D01*
X99093729Y-115372037D01*
X99050629Y-115417138D01*
X98943201Y-115574621D01*
X98888293Y-115619621D01*
X98817768Y-115627792D01*
X98754021Y-115596538D01*
X98733324Y-115572054D01*
X98652822Y-115447617D01*
X98652820Y-115447614D01*
X98650014Y-115443277D01*
X98499670Y-115278051D01*
X98495619Y-115274852D01*
X98495615Y-115274848D01*
X98328414Y-115142800D01*
X98328410Y-115142798D01*
X98324359Y-115139598D01*
X98283053Y-115116796D01*
X98233084Y-115066364D01*
X98218312Y-114996921D01*
X98243428Y-114930516D01*
X98270780Y-114903909D01*
X98331817Y-114860372D01*
X98449860Y-114776173D01*
X98462576Y-114763502D01*
X98541562Y-114684791D01*
X98608096Y-114618489D01*
X98667594Y-114535689D01*
X98738453Y-114437077D01*
X98739640Y-114437930D01*
X98786960Y-114394362D01*
X98856897Y-114382145D01*
X98922338Y-114409678D01*
G37*
G04 #@! TD.AperFunction*
G04 #@! TA.AperFunction,Conductor*
G36*
X101461751Y-114409678D02*
G01*
X101489579Y-114441511D01*
X101549987Y-114540088D01*
X101696250Y-114708938D01*
X101868126Y-114851632D01*
X101883083Y-114860372D01*
X101941445Y-114894476D01*
X101990169Y-114946114D01*
X102003240Y-115015897D01*
X101976509Y-115081669D01*
X101936055Y-115115027D01*
X101923607Y-115121507D01*
X101919474Y-115124610D01*
X101919471Y-115124612D01*
X101749100Y-115252530D01*
X101744965Y-115255635D01*
X101741393Y-115259373D01*
X101633729Y-115372037D01*
X101590629Y-115417138D01*
X101483201Y-115574621D01*
X101428293Y-115619621D01*
X101357768Y-115627792D01*
X101294021Y-115596538D01*
X101273324Y-115572054D01*
X101192822Y-115447617D01*
X101192820Y-115447614D01*
X101190014Y-115443277D01*
X101039670Y-115278051D01*
X101035619Y-115274852D01*
X101035615Y-115274848D01*
X100868414Y-115142800D01*
X100868410Y-115142798D01*
X100864359Y-115139598D01*
X100822569Y-115116529D01*
X100772598Y-115066097D01*
X100757826Y-114996654D01*
X100782942Y-114930248D01*
X100810294Y-114903641D01*
X100985328Y-114778792D01*
X100993200Y-114772139D01*
X101144052Y-114621812D01*
X101150730Y-114613965D01*
X101278022Y-114436819D01*
X101279279Y-114437722D01*
X101326373Y-114394362D01*
X101396311Y-114382145D01*
X101461751Y-114409678D01*
G37*
G04 #@! TD.AperFunction*
M02*
