G04 #@! TF.GenerationSoftware,KiCad,Pcbnew,(6.0.0)*
G04 #@! TF.CreationDate,2022-08-18T21:55:53-04:00*
G04 #@! TF.ProjectId,WD37C65 pi hat,57443337-4336-4352-9070-69206861742e,rev?*
G04 #@! TF.SameCoordinates,Original*
G04 #@! TF.FileFunction,Soldermask,Top*
G04 #@! TF.FilePolarity,Negative*
%FSLAX46Y46*%
G04 Gerber Fmt 4.6, Leading zero omitted, Abs format (unit mm)*
G04 Created by KiCad (PCBNEW (6.0.0)) date 2022-08-18 21:55:53*
%MOMM*%
%LPD*%
G01*
G04 APERTURE LIST*
G04 Aperture macros list*
%AMRoundRect*
0 Rectangle with rounded corners*
0 $1 Rounding radius*
0 $2 $3 $4 $5 $6 $7 $8 $9 X,Y pos of 4 corners*
0 Add a 4 corners polygon primitive as box body*
4,1,4,$2,$3,$4,$5,$6,$7,$8,$9,$2,$3,0*
0 Add four circle primitives for the rounded corners*
1,1,$1+$1,$2,$3*
1,1,$1+$1,$4,$5*
1,1,$1+$1,$6,$7*
1,1,$1+$1,$8,$9*
0 Add four rect primitives between the rounded corners*
20,1,$1+$1,$2,$3,$4,$5,0*
20,1,$1+$1,$4,$5,$6,$7,0*
20,1,$1+$1,$6,$7,$8,$9,0*
20,1,$1+$1,$8,$9,$2,$3,0*%
%AMFreePoly0*
4,1,6,1.000000,0.000000,0.500000,-0.750000,-0.500000,-0.750000,-0.500000,0.750000,0.500000,0.750000,1.000000,0.000000,1.000000,0.000000,$1*%
G04 Aperture macros list end*
%ADD10RoundRect,0.200000X-0.275000X0.200000X-0.275000X-0.200000X0.275000X-0.200000X0.275000X0.200000X0*%
%ADD11R,1.700000X1.700000*%
%ADD12O,1.700000X1.700000*%
%ADD13RoundRect,0.225000X-0.250000X0.225000X-0.250000X-0.225000X0.250000X-0.225000X0.250000X0.225000X0*%
%ADD14RoundRect,0.200000X-0.200000X-0.275000X0.200000X-0.275000X0.200000X0.275000X-0.200000X0.275000X0*%
%ADD15R,1.925000X0.700000*%
%ADD16R,0.700000X1.925000*%
%ADD17R,1.500000X1.500000*%
%ADD18FreePoly0,270.000000*%
%ADD19FreePoly0,90.000000*%
%ADD20C,1.500000*%
%ADD21RoundRect,0.200000X0.200000X0.275000X-0.200000X0.275000X-0.200000X-0.275000X0.200000X-0.275000X0*%
%ADD22R,3.500000X3.500000*%
%ADD23RoundRect,0.750000X-0.750000X-1.000000X0.750000X-1.000000X0.750000X1.000000X-0.750000X1.000000X0*%
%ADD24RoundRect,0.875000X-0.875000X-0.875000X0.875000X-0.875000X0.875000X0.875000X-0.875000X0.875000X0*%
%ADD25RoundRect,0.225000X0.225000X0.250000X-0.225000X0.250000X-0.225000X-0.250000X0.225000X-0.250000X0*%
%ADD26C,2.700000*%
G04 APERTURE END LIST*
D10*
X102616000Y-118301000D03*
X102616000Y-119951000D03*
D11*
X84639000Y-158115000D03*
D12*
X84639000Y-155575000D03*
X84639000Y-153035000D03*
X84639000Y-150495000D03*
X84639000Y-147955000D03*
X84639000Y-145415000D03*
D11*
X87630000Y-164465000D03*
D12*
X87630000Y-161925000D03*
X90170000Y-164465000D03*
X90170000Y-161925000D03*
X92710000Y-164465000D03*
X92710000Y-161925000D03*
X95250000Y-164465000D03*
X95250000Y-161925000D03*
X97790000Y-164465000D03*
X97790000Y-161925000D03*
X100330000Y-164465000D03*
X100330000Y-161925000D03*
X102870000Y-164465000D03*
X102870000Y-161925000D03*
X105410000Y-164465000D03*
X105410000Y-161925000D03*
X107950000Y-164465000D03*
X107950000Y-161925000D03*
X110490000Y-164465000D03*
X110490000Y-161925000D03*
X113030000Y-164465000D03*
X113030000Y-161925000D03*
X115570000Y-164465000D03*
X115570000Y-161925000D03*
X118110000Y-164465000D03*
X118110000Y-161925000D03*
X120650000Y-164465000D03*
X120650000Y-161925000D03*
X123190000Y-164465000D03*
X123190000Y-161925000D03*
X125730000Y-164465000D03*
X125730000Y-161925000D03*
X128270000Y-164465000D03*
X128270000Y-161925000D03*
D10*
X100076000Y-118301000D03*
X100076000Y-119951000D03*
D13*
X92964000Y-137655000D03*
X92964000Y-139205000D03*
D10*
X93980000Y-118301000D03*
X93980000Y-119951000D03*
X117602000Y-118809000D03*
X117602000Y-120459000D03*
D11*
X110236000Y-119380000D03*
X87630000Y-158115000D03*
D14*
X128715000Y-140970000D03*
X130365000Y-140970000D03*
D15*
X117717500Y-139700000D03*
X117717500Y-138430000D03*
X117717500Y-137160000D03*
X117717500Y-135890000D03*
X117717500Y-134620000D03*
X117717500Y-133350000D03*
D16*
X116205000Y-131837500D03*
X114935000Y-131837500D03*
X113665000Y-131837500D03*
X112395000Y-131837500D03*
X111125000Y-131837500D03*
X109855000Y-131837500D03*
X108585000Y-131837500D03*
X107315000Y-131837500D03*
X106045000Y-131837500D03*
X104775000Y-131837500D03*
X103505000Y-131837500D03*
D15*
X101992500Y-133350000D03*
X101992500Y-134620000D03*
X101992500Y-135890000D03*
X101992500Y-137160000D03*
X101992500Y-138430000D03*
X101992500Y-139700000D03*
X101992500Y-140970000D03*
X101992500Y-142240000D03*
X101992500Y-143510000D03*
X101992500Y-144780000D03*
X101992500Y-146050000D03*
D16*
X103505000Y-147562500D03*
X104775000Y-147562500D03*
X106045000Y-147562500D03*
X107315000Y-147562500D03*
X108585000Y-147562500D03*
X109855000Y-147562500D03*
X111125000Y-147562500D03*
X112395000Y-147562500D03*
X113665000Y-147562500D03*
X114935000Y-147562500D03*
X116205000Y-147562500D03*
D15*
X117717500Y-146050000D03*
X117717500Y-144780000D03*
X117717500Y-143510000D03*
X117717500Y-142240000D03*
X117717500Y-140970000D03*
D10*
X105664000Y-118301000D03*
X105664000Y-119951000D03*
X104140000Y-118301000D03*
X104140000Y-119951000D03*
X113030000Y-118809000D03*
X113030000Y-120459000D03*
X98552000Y-118301000D03*
X98552000Y-119951000D03*
X97028000Y-118301000D03*
X97028000Y-119951000D03*
D17*
X104394000Y-154502000D03*
X104394000Y-156902000D03*
D18*
X104394000Y-153702000D03*
D19*
X104394000Y-157702000D03*
D20*
X96520000Y-140335000D03*
X96520000Y-145215000D03*
D21*
X130365000Y-139446000D03*
X128715000Y-139446000D03*
D14*
X128715000Y-144018000D03*
X130365000Y-144018000D03*
D10*
X114554000Y-118809000D03*
X114554000Y-120459000D03*
D17*
X113030000Y-156902000D03*
X113030000Y-154502000D03*
D18*
X113030000Y-153702000D03*
D19*
X113030000Y-157702000D03*
D11*
X129286000Y-157485000D03*
D12*
X129286000Y-154945000D03*
D11*
X95504000Y-126507000D03*
D12*
X95504000Y-129047000D03*
X95504000Y-131587000D03*
D11*
X92710000Y-158247000D03*
D12*
X92710000Y-155707000D03*
D22*
X87280000Y-136837500D03*
D23*
X81280000Y-136837500D03*
D24*
X84280000Y-141537500D03*
D11*
X87625000Y-150495000D03*
D12*
X90165000Y-150495000D03*
D11*
X84870000Y-116275000D03*
D12*
X84870000Y-113735000D03*
X87410000Y-116275000D03*
X87410000Y-113735000D03*
X89950000Y-116275000D03*
X89950000Y-113735000D03*
X92490000Y-116275000D03*
X92490000Y-113735000D03*
X95030000Y-116275000D03*
X95030000Y-113735000D03*
X97570000Y-116275000D03*
X97570000Y-113735000D03*
X100110000Y-116275000D03*
X100110000Y-113735000D03*
X102650000Y-116275000D03*
X102650000Y-113735000D03*
X105190000Y-116275000D03*
X105190000Y-113735000D03*
X107730000Y-116275000D03*
X107730000Y-113735000D03*
X110270000Y-116275000D03*
X110270000Y-113735000D03*
X112810000Y-116275000D03*
X112810000Y-113735000D03*
X115350000Y-116275000D03*
X115350000Y-113735000D03*
X117890000Y-116275000D03*
X117890000Y-113735000D03*
X120430000Y-116275000D03*
X120430000Y-113735000D03*
X122970000Y-116275000D03*
X122970000Y-113735000D03*
X125510000Y-116275000D03*
X125510000Y-113735000D03*
X128050000Y-116275000D03*
X128050000Y-113735000D03*
X130590000Y-116275000D03*
X130590000Y-113735000D03*
X133130000Y-116275000D03*
X133130000Y-113735000D03*
D17*
X107442000Y-154502000D03*
X107442000Y-156902000D03*
D18*
X107442000Y-153702000D03*
D19*
X107442000Y-157702000D03*
D11*
X87630000Y-147955000D03*
X78740000Y-130170000D03*
D12*
X78740000Y-127630000D03*
X78740000Y-125090000D03*
X78740000Y-122550000D03*
X78740000Y-120010000D03*
D14*
X128715000Y-142494000D03*
X130365000Y-142494000D03*
D17*
X109982000Y-154470000D03*
X109982000Y-156870000D03*
D18*
X109982000Y-153670000D03*
D19*
X109982000Y-157670000D03*
D25*
X99200000Y-149860000D03*
X97650000Y-149860000D03*
D10*
X116078000Y-118809000D03*
X116078000Y-120459000D03*
D11*
X107696000Y-119380000D03*
D13*
X92964000Y-142227000D03*
X92964000Y-143777000D03*
D14*
X128715000Y-145542000D03*
X130365000Y-145542000D03*
D26*
X138000000Y-115000000D03*
X80000000Y-164000000D03*
X138000000Y-164000000D03*
X80000000Y-115000000D03*
M02*
