M48
; DRILL file {KiCad (6.0.0)} date Thu Aug 18 21:55:56 2022
; FORMAT={-:-/ absolute / metric / decimal}
; #@! TF.CreationDate,2022-08-18T21:55:56-04:00
; #@! TF.GenerationSoftware,Kicad,Pcbnew,(6.0.0)
; #@! TF.FileFunction,Plated,1,2,PTH
FMAT,2
METRIC
; #@! TA.AperFunction,Plated,PTH,ViaDrill
T1C0.400
; #@! TA.AperFunction,Plated,PTH,ComponentDrill
T2C0.800
; #@! TA.AperFunction,Plated,PTH,ComponentDrill
T3C1.000
%
G90
G05
T1
X84.87Y-120.108
X86.614Y-130.048
X92.71Y-120.65
X93.853Y-152.019
X97.79Y-121.412
X99.06Y-147.32
X99.314Y-121.412
X101.346Y-120.511
X101.6Y-147.828
X103.378Y-121.412
X103.632Y-149.86
X104.14Y-135.89
X104.14Y-140.97
X104.775Y-128.397
X104.902Y-121.412
X105.156Y-150.114
X105.918Y-135.89
X105.918Y-159.512
X106.045Y-127.127
X106.426Y-125.222
X106.426Y-150.114
X107.188Y-135.89
X107.442Y-152.4
X107.696Y-149.86
X108.966Y-121.92
X108.966Y-125.984
X108.98Y-117.588
X109.982Y-152.4
X110.49Y-145.542
X111.054Y-122.23
X111.252Y-152.146
X111.506Y-157.988
X111.854Y-121.506
X112.776Y-123.698
X113.284Y-125.222
X114.554Y-124.714
X114.808Y-149.86
X115.57Y-125.222
X115.57Y-139.446
X115.824Y-126.492
X115.824Y-150.368
X118.364Y-122.428
X118.872Y-129.794
X119.634Y-133.35
X119.634Y-134.62
X119.634Y-135.89
X119.634Y-137.16
X119.634Y-138.43
X120.65Y-147.574
X121.72Y-121.358
X121.92Y-135.89
X122.936Y-138.43
X125.222Y-140.97
X125.476Y-137.16
X126.238Y-150.114
X126.8Y-118.818
X127.0Y-141.224
X127.0Y-151.13
X127.254Y-131.064
X127.508Y-139.446
X127.508Y-142.494
X127.508Y-144.018
X127.508Y-145.542
X129.032Y-131.318
X129.54Y-133.35
X130.048Y-148.082
X130.556Y-134.62
X131.318Y-144.78
X131.555Y-122.157
X132.588Y-132.588
X133.604Y-150.114
T2
X96.52Y-140.335
X96.52Y-145.215
T3
X78.74Y-120.01
X78.74Y-122.55
X78.74Y-125.09
X78.74Y-127.63
X78.74Y-130.17
X84.639Y-145.415
X84.639Y-147.955
X84.639Y-150.495
X84.639Y-153.035
X84.639Y-155.575
X84.639Y-158.115
X84.87Y-113.735
X84.87Y-116.275
X87.41Y-113.735
X87.41Y-116.275
X87.625Y-150.495
X87.63Y-147.955
X87.63Y-158.115
X87.63Y-161.925
X87.63Y-164.465
X89.95Y-113.735
X89.95Y-116.275
X90.165Y-150.495
X90.17Y-161.925
X90.17Y-164.465
X92.49Y-113.735
X92.49Y-116.275
X92.71Y-155.707
X92.71Y-158.247
X92.71Y-161.925
X92.71Y-164.465
X95.03Y-113.735
X95.03Y-116.275
X95.25Y-161.925
X95.25Y-164.465
X95.504Y-126.507
X95.504Y-129.047
X95.504Y-131.587
X97.57Y-113.735
X97.57Y-116.275
X97.79Y-161.925
X97.79Y-164.465
X100.11Y-113.735
X100.11Y-116.275
X100.33Y-161.925
X100.33Y-164.465
X102.65Y-113.735
X102.65Y-116.275
X102.87Y-161.925
X102.87Y-164.465
X105.19Y-113.735
X105.19Y-116.275
X105.41Y-161.925
X105.41Y-164.465
X107.696Y-119.38
X107.73Y-113.735
X107.73Y-116.275
X107.95Y-161.925
X107.95Y-164.465
X110.236Y-119.38
X110.27Y-113.735
X110.27Y-116.275
X110.49Y-161.925
X110.49Y-164.465
X112.81Y-113.735
X112.81Y-116.275
X113.03Y-161.925
X113.03Y-164.465
X115.35Y-113.735
X115.35Y-116.275
X115.57Y-161.925
X115.57Y-164.465
X117.89Y-113.735
X117.89Y-116.275
X118.11Y-161.925
X118.11Y-164.465
X120.43Y-113.735
X120.43Y-116.275
X120.65Y-161.925
X120.65Y-164.465
X122.97Y-113.735
X122.97Y-116.275
X123.19Y-161.925
X123.19Y-164.465
X125.51Y-113.735
X125.51Y-116.275
X125.73Y-161.925
X125.73Y-164.465
X128.05Y-113.735
X128.05Y-116.275
X128.27Y-161.925
X128.27Y-164.465
X129.286Y-154.945
X129.286Y-157.485
X130.59Y-113.735
X130.59Y-116.275
X133.13Y-113.735
X133.13Y-116.275
T3
X81.28Y-135.838G85X81.28Y-137.838
G05
X83.28Y-141.537G85X85.28Y-141.537
G05
X87.28Y-135.838G85X87.28Y-137.838
G05
T0
M30
